<?xml version="1.0" encoding="UTF-8" standalone="no"?>
<svg
   xmlns:svg="http://www.w3.org/2000/svg"
   xmlns="http://www.w3.org/2000/svg"
   width="800.0"
   height="240.0"

>
    <g transform="scale(16.699103372017724, -16.699103372017724)   translate(16.695982718131198,-6.299333575335688)" stroke-width="0.059883454681505556"  fill="none">
       <!-- hidden lines -->
       <g  stroke="rgb(160,160,160)" fill="none" stroke-dasharray="0.059883454681505556,0.059883454681505556" >
			<path d="M2.878767986916354,-3.378706617898502 L2.880861975078646,-3.313373618634274 L2.8871346483696705,-3.248032494319839 L2.8975581744276546,-3.182973168840285 L2.9120863032193665,-3.1184843157163415 L2.93065457225527,-3.0548520772364784 L2.9531805926148387,-2.9923587948202925 L2.9795644145128986,-2.9312817562466535 L3.0096889707849597,-2.871891965305269 L3.0434205963237457,-2.814452939330818 L3.0806096211621554,-2.7592195399550983 L3.121091034571082,-2.7064368422652247 L3.1646852172254443,-2.6563390473855315 L3.211198738189748,-2.609148443308126 L3.260425213186884,-2.5650744185829817 L3.312146220341959,-2.5243125332439034 L3.3661322693379283,-2.487043651092746 L3.4221438196828,-2.453433137192011 L3.4799323435702942,-2.423630124126608 L3.5392414286179372,-2.3977668502904415 L3.5998079155896665,-2.375958073133898 L3.6613630660547734,-2.3583005599756994 L3.7236337548021856,-2.34487265863844 L3.7863436817192535,-2.335733949812919 L3.8492145977578294,-2.3309249826937695 L3.911967539547934,-2.330467095059383 L3.9743240671809286,-2.334362318594449 L4.036007499670043,-2.3425933698752064 L4.096744142606428,-2.3551237270574 L4.156264502563515,-2.371897791926675 L4.214304482861277,-2.392841136592378 L4.2706065553846875,-2.417860833730165 L4.324920903256915,-2.4468458689080936 " />
			<path d="M4.324920903256922,-2.446845868908098 L4.393047235248656,-2.490873156748801 L4.4567804601758425,-2.541220844341147 L4.515629735426266,-2.5975011780366266 L4.569141832216608,-2.6592807138028864 " />
			<path d="M2.928217884931418,-3.687949400437869 L2.9066911117186858,-3.6131160153466437 L2.891212500165104,-3.5362912605377312 L2.8818842596209726,-3.457982430108462 L2.8787679869163534,-3.378706617898511 " />
			<path d="M-3.836164189047156,-4.86822774436041 L-3.7795043136145443,-4.89971853397367 L-3.721678514476947,-4.929043490693957 L-3.662757915582026,-4.9561665457298645 L-3.602814987447344,-4.981054338561078 L-3.5419234580238674,-5.003676257970787 L-3.480158222012859,-5.024004479696533 L-3.4175952487477135,-5.04201400065319 L-3.3543114887540155,-5.057682669686 L-3.290384779102775,-5.070991214815795 L-3.2258937476732306,-5.081923266942946 L-3.1609177164429845,-5.090465379980845 L-3.0955366039244216,-5.09660704739418 L-3.0298308268674035,-5.100340715121646 L-2.9638812013491527,-5.10166179086721 L-2.897768843372969,-5.10056864974849 L-2.831575069098054,-5.0970626362953135 " />
			<path d="M-2.8315750690980526,-5.097062636295313 L2.8315750690980526,-4.69407762081342 " />
			<path d="M4.719291781830088,-2.60152123089771 L4.717017944377374,-2.6977687315502887 L4.71020190989282,-2.7941079722767155 L4.698860098800516,-2.8903068634077584 L4.683019834516806,-2.9861336533886558 L4.6627192776257935,-3.0813574870889076 L4.638007333947148,-3.175748961952507 L4.608943536717701,-3.2690806806487913 L4.575597903170668,-3.3611277988925283 L4.538050765857995,-3.4516685671134932 L4.49639257912221,-3.5404848646706064 L4.450723701183984,-3.6273627253236653 L4.401154152370394,-3.7120928526967543 L4.347803350066308,-3.7944711244915483 L4.290799821027459,-3.87429908423581 L4.230280891748218,-3.9513844193824115 L4.166392357630053,-4.025541424607107 L4.0992881317476275,-4.0965914491889235 L4.029129874058729,-4.164363327395396 L3.9560866019512684,-4.228693790835811 L3.880334283065587,-4.289427861789055 L3.8020554113729994,-4.3464192265585275 L3.721438567531833,-4.399530587954644 L3.6386779645801024,-4.448633996055796 L3.553972980059292,-4.493611156450916 L3.4675276756963918,-4.534353715221079 L3.379550305801326,-4.570763519973582 L3.2902528155640796,-4.602752856299651 L3.199850330460172,-4.630244659086145 L3.10856063799454,-4.653172698172152 L3.016603663032365,-4.671481737903255 L2.924200937980811,-4.6851276701990585 L2.83157506909806,-4.69407762081342 " />
			<path d="M4.719291781830088,3.27316292336753 L4.715534707847549,3.396381802462454 L4.704278441115213,3.518575502361843 L4.685567787748948,3.639257625114537 L4.6594772264122994,3.7579477896755478 L4.626110611850555,3.874173544086117 L4.585600761491892,3.9874722460916616 L4.538108926761159,4.097392904711714 L4.483824151210754,4.203497975431399 L4.422962518023598,4.305365101868613 L4.355766289883535,4.402588796984084 L4.282502944636967,4.494782057142212 L4.203464110584308,4.581577902597818 L4.118964405639389,4.662630838276822 L4.029340184977579,4.7376182290361495 L3.9349482021576963,4.806241583928573 L3.836164189047163,4.868227744360405 " />
			<path d="M4.719291781830087,-2.6015212308977107 L4.719291781830087,3.27316292336753 " />
			<path d="M-3.77543342546407,-3.205998754120548 L-3.7733394373017775,-3.14066575485632 L-3.767066764010753,-3.075324630541885 L-3.756643237952769,-3.010265305062331 L-3.742115109161057,-2.9457764519383876 L-3.7235468401251537,-2.8821442134585245 L-3.701020819765585,-2.8196509310423385 L-3.674636997867525,-2.7585738924686996 L-3.644512441595464,-2.699184101527315 L-3.610780816056678,-2.641745075552864 L-3.573591791218268,-2.5865116761771443 L-3.533110377809342,-2.5337289784872707 L-3.4895161951549793,-2.4836311836075775 L-3.4430026741906756,-2.436440579530172 L-3.39377619919354,-2.3923665548050277 L-3.3420551920384645,-2.3516046694659494 L-3.2880691430424953,-2.314335787314792 L-3.2320575926976236,-2.280725273414057 L-3.1742690688101294,-2.250922260348654 L-3.1149599837624864,-2.2250589865124875 L-3.054393496790757,-2.203250209355944 L-2.9928383463256503,-2.1855926961977454 L-2.930567657578238,-2.172164794860486 L-2.86785773066117,-2.163026086034965 L-2.8049868146225942,-2.1582171189158155 L-2.7422338728324895,-2.157759231281429 L-2.679877345199495,-2.161654454816495 L-2.618193912710381,-2.1698855060972524 L-2.5574572697739955,-2.182415863279446 L-2.4979369098169086,-2.199189928148721 L-2.439896929519147,-2.220133272814424 L-2.383594856995736,-2.245152969952211 L-2.3292805091235085,-2.2741380051301396 " />
			<path d="M-2.329280509123501,-2.274138005130144 L-2.2643006461306734,-2.315924015142865 L-2.2032839758354426,-2.363459188221448 L-2.1466567836692603,-2.4164114257497795 L-2.0948146885167294,-2.474410783459976 L-2.048119878773128,-2.537052056002323 L-2.006898581959914,-2.603897607862409 L-1.9714387855764381,-2.6744804308475976 L-1.9419882251108442,-2.7483074067820894 " />
			<path d="M-2.730110638900943,-4.105054642224887 L-2.808831350382344,-4.116045887433319 L-2.8877109580457,-4.120209966562139 L-2.9661983792537123,-4.117517787786778 L-3.0437452713313187,-4.107988159681767 L-3.11980986249407,-4.09168765981695 L-3.1938607368697935,-4.068730169621519 L-3.2653805471699573,-4.039276078765471 L-3.3338696290726006,-4.003531164616989 " />
			<path d="M-3.333869629072604,-4.003531164616987 L-3.383261635627874,-3.9725380844010694 L-3.430457627037815,-3.9382264069548576 L-3.4752697373687207,-3.900732711575194 L-3.51751958984118,-3.8602062437356923 L-3.5570390068675093,-3.816808321007889 L-3.5936706794907938,-3.7707116909288247 L-3.627268793560825,-3.7220998433710895 L-3.6576996101544035,-3.671166280152483 L-3.684841997929605,-3.6181137447926393 L-3.7085879152949723,-3.563153415482614 L-3.7288428404743037,-3.5065040644798415 L-3.7455261477551756,-3.4483911872745567 L-3.7585714284235,-3.3890461049940517 L-3.7679267551066324,-3.328705043617705 L-3.773554888472801,-3.2676081936680106 L-3.7754334254640702,-3.205998754120557 " />
			<path d="M1.8877167127320351,-2.8030137386386564 L1.8898107008943277,-2.7376807393744285 L1.896083374185352,-2.6723396150599936 L1.9065069002433364,-2.6072802895804394 L1.921035029035048,-2.542791436456496 L1.9396032980709514,-2.479159197976633 L1.9621293184305202,-2.416665915560447 L1.9885131403285803,-2.355588876986808 L2.018637696600641,-2.2961990860454233 L2.0523693221394272,-2.2387600600709727 L2.089558346977837,-2.183526660695253 L2.1300397603867633,-2.1307439630053793 L2.173633943041126,-2.080646168125686 L2.2201474640054295,-2.0334555640482805 L2.2693739390025653,-1.9893815393231364 L2.3210949461576407,-1.9486196539840577 L2.37508099515361,-1.9113507718329004 L2.4310925454984815,-1.8777402579321654 L2.4888810693859758,-1.8479372448667624 L2.5481901544336187,-1.822073971030596 L2.608756641405348,-1.8002651938740521 L2.670311791870455,-1.7826076807158537 L2.732582480617867,-1.7691797793785944 L2.795292407534935,-1.7600410705530734 L2.858163323573511,-1.755232103433924 L2.9209162653636156,-1.7547742157995374 L2.98327279299661,-1.7586694393346036 L3.0449562254857243,-1.766900490615361 L3.1056928684221097,-1.7794308477975544 L3.1652132283791965,-1.7962049126668296 L3.223253208676958,-1.8171482573325326 L3.279555281200369,-1.8421679544703196 L3.3338696290725967,-1.8711529896482482 " />
			<path d="M3.333869629072604,-1.8711529896482526 L3.391780874216458,-1.9079813377106807 L3.4466033202201465,-1.9493742915997951 L3.498034693307619,-1.9951036235478485 L3.5457914170155136,-2.0449171963582766 L3.589610175744852,-2.098540353611136 L3.6292493666006815,-2.155677434032475 L3.6644904315146736,-2.2160134016778894 L3.695139062305782,-2.2792155829419265 L3.7210262720346163,-2.344935500816027 L3.7420093267444408,-2.412810796281475 L3.757972532451448,-2.4824672262434007 L3.7688278730451086,-2.5535207269898463 L3.7745154955814066,-2.6255795317986435 L3.7750040402932,-2.698246331016266 L3.7702908134981463,-2.771120462698672 L3.7604018024508195,-2.843800121735626 L3.7453915320571407,-2.9158845752780733 L3.725342764241142,-2.9869763722534146 L3.7003660416216713,-3.0566835347860835 L3.670599078015054,-3.1246217194406367 L3.6362059991242983,-3.190416336370936 L3.5973764376014303,-3.253704614691093 L3.554324487472519,-3.314137602680381 L3.5072875236903505,-3.3713820917935937 L3.456524893323376,-3.4251224538684806 L3.402316485597299,-3.4750623814004555 L3.344961188673658,-3.5209265212892626 L3.2847752416742235,-3.5624619930496246 L3.2220904910376493,-3.5994397831149434 L3.157252560822271,-3.631656007546288 L3.090618947043427,-3.6589330361845036 L3.022557046552538,-3.681120472047205 " />
			<path d="M2.933039499295163,-3.7020696267429942 L2.854318787813762,-3.713060871951427 L2.775439180150406,-3.7172249510802473 L2.6969517589423933,-3.7145327723048873 L2.6194048668647865,-3.7050031441998756 L2.5433402757020356,-3.6887026443350583 L2.4692894013263116,-3.665745154139627 L2.397769591026148,-3.636291063283579 L2.3292805091235045,-3.600546149135098 " />
			<path d="M2.329280509123501,-3.600546149135096 L2.279888502568231,-3.569553068919178 L2.23269251115829,-3.535241391472966 L2.1878804008273844,-3.4977476960933025 L2.145630548354925,-3.457221228253801 L2.106111131328596,-3.4138233055259977 L2.0694794587053114,-3.3677266754469333 L2.03588134463528,-3.319114827889198 L2.0054505280417017,-3.2681812646705914 L1.9783081402664997,-3.215128729310748 L1.9545622229011328,-3.1601684000007224 L1.9343072977218014,-3.10351904899795 L1.9176239904409296,-3.0454061717926653 L1.9045787097726052,-2.98606108951216 L1.8952233830894725,-2.9257200281358133 L1.8895952497233042,-2.864623178186119 L1.887716712732035,-2.8030137386386653 " />
			<path d="M-3.77543342546407,2.668685400144692 L-3.7733394373017775,2.73401839940892 L-3.767066764010753,2.799359523723355 L-3.756643237952769,2.864418849202909 L-3.742115109161057,2.9289077023268524 L-3.7235468401251537,2.9925399408067155 L-3.701020819765585,3.0550332232229014 L-3.674636997867525,3.1161102617965404 L-3.644512441595464,3.175500052737925 L-3.610780816056678,3.2329390787123757 L-3.573591791218268,3.2881724780880957 L-3.533110377809342,3.340955175777969 L-3.4895161951549793,3.3910529706576624 L-3.4430026741906756,3.438243574735068 L-3.39377619919354,3.4823175994602122 L-3.3420551920384645,3.5230794847992906 L-3.2880691430424953,3.560348366950448 L-3.2320575926976236,3.593958880851183 L-3.1742690688101294,3.623761893916586 L-3.1149599837624864,3.6496251677527525 L-3.054393496790757,3.671433944909296 L-2.9928383463256503,3.6890914580674945 L-2.930567657578238,3.702519359404754 L-2.86785773066117,3.711658068230275 L-2.8049868146225942,3.7164670353494245 L-2.7422338728324895,3.716924922983811 L-2.679877345199495,3.713029699448745 L-2.618193912710381,3.7047986481679875 L-2.5574572697739955,3.692268290985794 L-2.4979369098169086,3.675494226116519 L-2.439896929519147,3.654550881450816 L-2.383594856995736,3.629531184313029 L-2.3292805091235085,3.6005461491351003 " />
			<path d="M-2.329280509123501,3.600546149135096 L-2.2643006461306734,3.558760139122375 L-2.2032839758354426,3.511224966043792 L-2.1466567836692603,3.4582727285154604 L-2.0948146885167294,3.400273370805264 L-2.048119878773128,3.337632098262917 L-2.006898581959914,3.2707865464028307 L-1.9714387855764381,3.2002037234176424 L-1.9419882251108442,3.1263767474831505 " />
			<path d="M-2.730110638900942,1.769629512040354 L-2.808831350382343,1.7586382668319216 L-2.887710958045699,1.7544741877031012 L-2.966198379253712,1.7571663664784611 L-3.0437452713313187,1.7666959945834728 L-3.1198098624940696,1.78299649444829 L-3.1938607368697935,1.8059539846437214 L-3.2653805471699573,1.8354080754997693 L-3.3338696290726006,1.8711529896482504 " />
			<path d="M-3.333869629072604,1.8711529896482524 L-3.383261635627874,1.9021460698641706 L-3.430457627037815,1.9364577473103823 L-3.4752697373687207,1.973951442690046 L-3.51751958984118,2.0144779105295476 L-3.5570390068675093,2.057875833257351 L-3.5936706794907938,2.103972463336415 L-3.627268793560825,2.1525843108941505 L-3.6576996101544035,2.203517874112757 L-3.684841997929605,2.2565704094726007 L-3.7085879152949723,2.311530738782626 L-3.7288428404743037,2.3681800897853984 L-3.7455261477551756,2.426292966990683 L-3.7585714284235,2.4856380492711883 L-3.7679267551066324,2.545979110647535 L-3.773554888472801,2.6070759605972293 L-3.7754334254640702,2.668685400144683 " />
			<path d="M1.8877167127320351,3.0716704156265835 L1.8898107008943277,3.1370034148908115 L1.896083374185352,3.2023445392052463 L1.9065069002433364,3.2674038646848005 L1.921035029035048,3.331892717808744 L1.9396032980709514,3.395524956288607 L1.9621293184305202,3.458018238704793 L1.9885131403285803,3.519095277278432 L2.018637696600641,3.5784850682198166 L2.0523693221394272,3.635924094194267 L2.089558346977837,3.691157493569987 L2.1300397603867633,3.7439401912598607 L2.173633943041126,3.794037986139554 L2.2201474640054295,3.8412285902169594 L2.2693739390025653,3.8853026149421037 L2.3210949461576407,3.926064500281182 L2.37508099515361,3.9633333824323396 L2.4310925454984815,3.9969438963330743 L2.4888810693859758,4.026746909398478 L2.5481901544336187,4.052610183234644 L2.608756641405348,4.074418960391188 L2.670311791870455,4.092076473549386 L2.732582480617867,4.105504374886646 L2.795292407534935,4.114643083712167 L2.858163323573511,4.119452050831316 L2.9209162653636156,4.119909938465702 L2.98327279299661,4.116014714930636 L3.0449562254857243,4.1077836636498795 L3.1056928684221097,4.0952533064676855 L3.1652132283791965,4.07847924159841 L3.223253208676958,4.057535896932707 L3.279555281200369,4.03251619979492 L3.3338696290725967,4.003531164616992 " />
			<path d="M3.333869629072604,4.003531164616987 L3.3988494920654317,3.9617451546042664 L3.4598661623606626,3.914209981525683 L3.516493354526845,3.861257743997352 L3.5683354496793758,3.803258386287155 L3.6150302594229773,3.740617113744808 L3.6562515562361915,3.673771561884722 L3.6917113526196674,3.6031887388995334 L3.721161913085261,3.529361762965041 " />
			<path d="M2.933039499295162,2.1726145275222453 L2.854318787813761,2.161623282313813 L2.7754391801504052,2.1574592031849926 L2.696951758942393,2.1601513819603526 L2.6194048668647865,2.1696810100653643 L2.543340275702035,2.1859815099301816 L2.4692894013263116,2.208939000125613 L2.397769591026148,2.2383930909816607 L2.3292805091235045,2.274138005130142 " />
			<path d="M2.329280509123501,2.274138005130144 L2.279888502568231,2.305131085346062 L2.23269251115829,2.339442762792274 L2.1878804008273844,2.3769364581719374 L2.145630548354925,2.417462926011439 L2.106111131328596,2.4608608487392423 L2.0694794587053114,2.5069574788183067 L2.03588134463528,2.555569326376042 L2.0054505280417017,2.6065028895946485 L1.9783081402664997,2.659555424954492 L1.9545622229011328,2.7145157542645175 L1.9343072977218014,2.77116510526729 L1.9176239904409296,2.8292779824725747 L1.9045787097726052,2.8886230647530797 L1.8952233830894725,2.9489641261294266 L1.8895952497233042,3.010060976079121 L1.887716712732035,3.0716704156265746 " />
			<path d="M-0.9438583563660171,-0.06716416924698243 L-0.9417643682037246,-0.0018311699827540694 L-0.9354916949127003,0.06350995433168072 L-0.9250681688547159,0.12856927981123462 L-0.9105400400630042,0.19305813293517826 L-0.8919717710271008,0.2566903714150412 L-0.8694457506675322,0.3191836538312271 L-0.843061928769472,0.38026069240486604 L-0.8129373724974113,0.43965048334625073 L-0.7792057469586251,0.4970895093207014 L-0.7420167221202153,0.5523229086964215 L-0.701535308711289,0.6051056063862948 L-0.6579411260569267,0.6552034012659882 L-0.6114276050926228,0.7023940053433936 L-0.562201130095487,0.7464680300685377 L-0.5104801229404116,0.7872299154076164 L-0.4564940739444426,0.8244987975587739 L-0.4004825235995705,0.8581093114595088 L-0.3426939997120763,0.8879123245249118 L-0.28338491466443366,0.9137755983610781 L-0.2228184276927043,0.935584375517622 L-0.16126327722759723,0.9532418886758204 L-0.09899258848018502,0.9666697900130797 L-0.036282661563117234,0.9758084988386008 L0.026588254475458574,0.98061746595775 L0.08934119626556344,0.9810753535921367 L0.15169772389855793,0.9771801300570705 L0.21338115638767233,0.9689490787763132 L0.2741177993240577,0.9564187215941196 L0.33363815928114443,0.9396446567248444 L0.3916781395789059,0.9187013120591414 L0.4479802121023169,0.8936816149213546 L0.5022945599745446,0.8646965797434258 " />
			<path d="M0.502294559974552,0.8646965797434216 L0.5408997471784444,0.8408781447031753 L0.5782018595141614,0.8150339605601122 L0.6141110329258072,0.7872262882175163 L0.6485407590693612,0.7575221187937251 L0.6814080937188556,0.7259930122346587 L0.7126338565862813,0.6927149249196415 L0.742142822073837,0.6577680266758313 L0.7698639004989828,0.6212365076420843 L0.7957303093557129,0.5832083754475361 L0.8196797341994618,0.5437752431935142 L0.8416544787680587,0.5030321087495532 L0.8616016039770779,0.4610771258952055 L0.8794730554547288,0.41801136785898974 L0.8952257793090476,0.3739385838241301 L0.9088218258484935,0.3289649489876866 L0.92022844100608,0.28319880877520515 L0.929418145246791,0.2367504178270981 L0.9363687997681878,0.18973167438555827 L0.9410636598347225,0.14225585072189179 L0.9434914151172739,0.09443732025369517 L0.9436462169407199,0.046391282009275 L0.9415276923739091,-0.001766516896901552 L0.9371409451280837,-0.04992006010914518 L0.9304965432615923,-0.09795334152410495 L0.9216104937205122,-0.14575064475963373 L0.9105042037765143,-0.19319682192568788 L0.8972044294548692,-0.2401775710256798 L0.881743211076841,-0.28657971132000043 L0.8641577960717446,-0.33229145598833315 L0.8444905492446281,-0.3772026814338955 L0.8227888507157451,-0.42120519258083117 L0.7991049817776963,-0.464192983525622 L0.773495998945215,-0.5060624929145963 L0.746023596501027,-0.5467128534322999 L0.7167539578689184,-0.5860461347996947 L0.6857575961720714,-0.6239675796967783 L0.6531091843607745,-0.6603858320412671 L0.6188873753187446,-0.695213157073401 L0.5831746123814395,-0.7283656527166645 L0.5460569307228446,-0.7597634517052374 L0.5076237500891998,-0.7893309139912336 L0.46796765937900114,-0.8169968089682019 L0.4271841935882325,-0.8426944870718972 L0.38537160365819373,-0.8663620403449165 L0.3426306197803764,-0.8879424515783927 L0.29906420872860995,-0.9073837316714436 L0.2547773258030852,-0.9246390448774696 L0.20987666198384317,-0.9396668216355705 L0.16447038690285767,-0.9524308587152585 L0.11866788825391825,-0.962900406433211 L0.07257950826809581,-0.9710502427319511 L0.026316277889641783,-0.9768607339419941 L-0.020010350707282097,-0.9803178820810758 L-0.06628877261665253,-0.9814133585765191 L-0.11240749906657857,-0.9801445243294938 L-0.1582554260055196,-0.9765144360728378 L-0.20372210176167513,-0.9705318390071195 L-0.2486979931307377,-0.962211145732684 L-0.2930747492509768,-0.951572401528436 L-0.33674546262995425,-0.9386412360610074 L-0.37960492669403695,-0.9234488016406456 L-0.42154988924024955,-0.9060316981725691 L-0.46247930117987307,-0.886431884984591 L-0.5022945599745476,-0.864696579743424 " />
			<path d="M-0.5022945599745512,-0.864696579743422 L-0.5516865665298211,-0.8337034995275038 L-0.5988825579397624,-0.799391822081292 L-0.6436946682706677,-0.7618981267016284 L-0.6859445207431272,-0.7213716588621266 L-0.7254639377694564,-0.6779737361343234 L-0.7620956103927407,-0.631877106055259 L-0.7956937244627722,-0.5832652584975239 L-0.8261245410563504,-0.5323316952789171 L-0.8532669288315525,-0.4792791599190738 L-0.8770128461969193,-0.4243188306090481 L-0.8972677713762508,-0.3676694796062757 L-0.9139510786571228,-0.30955660240099087 L-0.926996359325447,-0.2502115201204859 L-0.9363516860085798,-0.18987045874413933 L-0.9419798193747482,-0.128773608794445 L-0.9438583563660172,-0.06716416924699109 " />
			<path d="M3.152976768010477,-0.566097997938848 L3.149205310174672,-0.4421505681197948 L3.1379385304756386,-0.32004697635595747 L3.1193476543260674,-0.20034643875716507 L3.093634703850316,-0.0835578547552035 L3.0610281159598385,0.02985735109415455 L3.021778360428613,0.13948238730911922 L2.976153557968569,0.2449422536798539 L2.9244350983050174,0.34590089946644487 L2.8669132582520738,0.44205838159687094 L2.803882819788091,0.533148022864974 L2.7356386881310835,0.6189335701284281 L2.6624715098141576,0.6992063525067099 L2.5846632907609384,0.7737824395790686 L2.5024830143609966,0.8424997995824955 L2.4161822595452773,0.9052154576096939 L2.3259908188615315,0.961802653807048 " />
			<path d="M0.3168125789633207,-2.4969836651666366 L0.37378485710304327,-2.5284977638553583 L0.43205590901258384,-2.557642233902064 L0.4915775578761197,-2.5843805256148507 L0.5522982475484466,-2.6086766348127917 L0.6141630425549786,-2.6304951028259365 L0.6771136280917477,-2.649801016495311 L0.7410883100254048,-2.666560008172916 L0.8060220148932187,-2.6807382557217307 L0.8718462899030764,-2.6923024825157094 L0.9384893029334839,-2.7012199574397817 L1.0058758425335645,-2.7074584948898552 L1.0739273179230608,-2.710986454772812 L1.142561758992333,-2.7117727425065117 L1.2116938163023598,-2.7097868090197896 L1.2812347610847383,-2.7049986507524575 L1.3510924852416841,-2.6973788096553024 L1.4569296822601032,-2.6805033497141384 L1.5628836074594412,-2.6571163901970105 L1.668565013996727,-2.6271966873948283 L1.7735765050105003,-2.59075577972258 L1.8775125336208118,-2.547837987719333 L1.9799594029292231,-2.498520414048233 L2.080495266018806,-2.4429129434965047 L2.1786901259541445,-2.3811582429754505 L2.281397785902989,-2.307940789424875 L2.3804030014444733,-2.228061966932866 L2.4751989658700997,-2.1418412091939745 L2.5653074999714565,-2.049634983000676 L2.650279052040217,-1.951836788243372 L2.7296926978681393,-1.8488771579103882 L2.8031561407470673,-1.741223658087974 L2.8703057114689297,-1.6293808879603056 L2.9039531970377803,-1.567181863350458 L2.935608331702941,-1.5039837263674167 L2.9652283260129924,-1.439878234730695 L2.992774431993811,-1.3749573718002412 L3.018211943148569,-1.3093133465764382 L3.0415101944577323,-1.243038593700104 L3.0626425623790636,-1.176225773452493 L3.0815864648476197,-1.1089677717552944 L3.0983233612757535,-1.0413577001706322 L3.1128387525531127,-0.9734888959010652 L3.1251221810466405,-0.9054549217895893 L3.1351672306005747,-0.8373495663196339 L3.1429715265364493,-0.769266843615064 L3.1485367356530922,-0.70130099344018 L3.1518685662266286,-0.6335464811997179 L3.152976768010477,-0.5660979979388567 " />
			<path d="M-1.338229234939182,-2.8498308843899895 L-2.3292805091235005,-2.274138005130144 " />
			<path d="M-2.3428183548882857,-4.579224043876834 L-3.3338696290726046,-4.003531164616988 " />
			<path d="M4.324920903256923,-2.4468458689080976 L3.3338696290726046,-1.8711529896482522 " />
			<path d="M3.320331783307819,-4.176239028394941 L2.3292805091235005,-3.600546149135096 " />
			<path d="M-1.338229234939182,3.0248532698752504 L-2.3292805091235005,3.600546149135096 " />
			<path d="M-2.3428183548882857,1.2954601103884067 L-3.3338696290726046,1.8711529896482522 " />
			<path d="M4.324920903256923,3.4278382853571427 L3.3338696290726046,4.003531164616988 " />
			<path d="M3.320331783307819,1.6984451258702986 L2.3292805091235005,2.274138005130144 " />
			<path d="M3.4754483825275075,-0.8623820580361143 L0.5022945599745521,0.8646965797434218 " />
			<path d="M2.4708592625784043,-2.5917752175229576 L-0.5022945599745512,-0.8646965797434214 " />

       </g>

       <!-- solid lines -->
       <g  stroke="rgb(0,0,0)" fill="none">
			<path d="M-3.7282405076457685,-3.8488558026273756 L-3.7282405076457685,2.0258283516378652 " />
			<path d="M-3.7282405076457694,-3.848855802627376 L-3.7244834336632313,-3.9720746817223014 L-3.7132271669308943,-4.094268381621689 L-3.6945165135646287,-4.214950504374383 L-3.6684259522279805,-4.333640668935393 L-3.635059337666237,-4.449866423345962 L-3.5945494873075736,-4.5631651253515075 L-3.5470576525768394,-4.67308578397156 L-3.4927728770264355,-4.779190854691246 L-3.4319112438392794,-4.881057981128459 L-3.364715015699216,-4.978281676243929 L-3.2914516704526484,-5.070474936402057 L-3.2124128363999898,-5.157270781857664 L-3.1279131314550694,-5.2383237175366695 L-3.0382889107932596,-5.313311108295997 L-2.9438969279733773,-5.3819344631884185 L-2.845112914862852,-5.443920623620247 " />
			<path d="M-2.8451129148628373,-5.443920623620255 L-2.788453039430226,-5.475411413233515 L-2.7306272402926286,-5.504736369953802 L-2.6717066413977073,-5.53185942498971 L-2.6117637132630254,-5.556747217820924 L-2.550872183839549,-5.579369137230633 L-2.4891069478285406,-5.599697358956378 L-2.426543974563395,-5.617706879913036 L-2.363260214569697,-5.633375548945845 L-2.2993335049184567,-5.64668409407564 L-2.234842473488912,-5.657616146202791 L-2.169866442258666,-5.6661582592406905 L-2.104485329740103,-5.672299926654025 L-2.038779552683085,-5.676033594381492 L-1.9728299271648342,-5.677354670127055 L-1.9067175691886504,-5.676261529008335 L-1.8405237949137354,-5.672755515555159 " />
			<path d="M-3.728240507645769,2.025828351637864 L-3.7259666701930554,2.1220758522904446 L-3.7191506357085022,2.2184150930168705 L-3.7078088246161975,2.314613984147913 L-3.6919685603324877,2.41044077412881 L-3.671668003441475,2.505664607829061 L-3.6469560597628297,2.6000560826926606 L-3.617892262533384,2.693387801388945 L-3.58454662898635,2.7854349196326815 L-3.5469994916736773,2.875975687853646 L-3.505341304937892,2.964791985410759 L-3.459672426999667,3.0516698460638176 L-3.410102878186075,3.136399973436908 L-3.3567520758819898,3.218778245231703 L-3.2997485468431407,3.2986062049759646 L-3.2392296175639,3.3756915401225656 L-3.1753410834457347,3.449848545347261 L-3.10823685756331,3.520898569929077 L-3.038078599874412,3.5886704481355496 L-2.9650353277669517,3.6530009115759636 L-2.889283008881269,3.7137349825292096 L-2.8110041371886805,3.770726347298683 L-2.7303872933475146,3.823837708694799 L-2.647626690395784,3.87294111679595 L-2.5629217058749734,3.9179182771910703 L-2.4764764015120737,3.9586608359612336 L-2.388499031617008,3.9950706407137355 L-2.2992015413797633,4.027059977039806 L-2.2087990562758555,4.0545517798262996 L-2.1175093638102234,4.077479818912305 L-2.025552388848049,4.095788858643409 L-1.9331496637964962,4.109434790939213 L-1.8405237949137518,4.118384741553575 " />
			<path d="M-1.840523794913734,-5.672755515555158 L3.822626343282371,-5.269770500073266 " />
			<path d="M-1.840523794913734,4.118384741553575 L3.822626343282371,4.521369757035467 " />
			<path d="M5.710343056014406,-3.1772141101575553 L5.708069218561692,-3.273461610810134 L5.701253184077139,-3.369800851536561 L5.6899113729848345,-3.465999742667604 L5.674071108701124,-3.5618265326485012 L5.653770551810112,-3.657050366348753 L5.629058608131467,-3.7514418412123525 L5.59999481090202,-3.844773559908637 L5.566649177354987,-3.936820678152374 L5.529102040042313,-4.027361446373339 L5.487443853306528,-4.116177743930452 L5.441774975368302,-4.203055604583511 L5.392205426554712,-4.2877857319566 L5.338854624250627,-4.370164003751394 L5.281851095211778,-4.4499919634956555 L5.2213321659325365,-4.527077298642257 L5.157443631814371,-4.601234303866953 L5.090339405931946,-4.672284328448769 L5.020181148243047,-4.740056206655241 L4.947137876135587,-4.804386670095656 L4.871385557249905,-4.865120741048901 L4.7931066855573174,-4.922112105818373 L4.712489841716152,-4.975223467214489 L4.629729238764421,-5.024326875315642 L4.545024254243611,-5.069304035710761 L4.45857894988071,-5.110046594480925 L4.370601579985644,-5.146456399233427 L4.2813040897483985,-5.178445735559497 L4.19090160464449,-5.2059375383459905 L4.099611912178858,-5.228865577431997 L4.007654937216683,-5.2471746171631 L3.9152522121651296,-5.260820549458904 L3.8226263432823786,-5.269770500073266 " />
			<path d="M5.710343056014406,2.6974700441076847 L5.706585982031868,2.8206889232026087 L5.695329715299532,2.9428826231019976 L5.676619061933266,3.0635647458546917 L5.650528500596618,3.1822549104157023 L5.617161886034873,3.2984806648262714 L5.576652035676211,3.411779366831816 L5.529160200945477,3.521700025451868 L5.474875425395073,3.627805096171554 L5.414013792207917,3.7296722226087677 L5.3468175640678535,3.8268959177242383 L5.273554218821285,3.9190891778823667 L5.194515384768627,4.005885023337973 L5.110015679823707,4.086937959016977 L5.020391459161898,4.161925349776304 L4.925999476342015,4.230548704668728 L4.827215463231481,4.29253486510056 " />
			<path d="M4.827215463231474,4.292534865100564 L4.770555587798863,4.324025654713824 L4.712729788661266,4.353350611434111 L4.653809189766345,4.380473666470018 L4.593866261631663,4.405361459301233 L4.532974732208187,4.427983378710942 L4.4712094961971784,4.4483116004366865 L4.408646522932033,4.466321121393344 L4.3453627629383345,4.481989790426154 L4.281436053287093,4.495298335555949 L4.216945021857549,4.5062303876831 L4.151968990627303,4.514772500721 L4.086587878108739,4.520914168134334 L4.020882101051722,4.524647835861801 L3.954932475533471,4.5259689116073645 L3.8888201175572874,4.524875770488644 L3.822626343282379,4.521369757035469 " />
			<path d="M5.7103430560144055,-3.177214110157556 L5.7103430560144055,2.6974700441076847 " />
			<path d="M-2.7843821512797513,-3.7816916333803934 L-2.782288163117459,-3.7163586341161654 L-2.7760154898264346,-3.6510175098017306 L-2.7655919637684505,-3.5859581843221764 L-2.7510638349767387,-3.521469331198233 L-2.732495565940835,-3.45783709271837 L-2.7099695455812665,-3.395343810302184 L-2.6835857236832066,-3.334266771728545 L-2.6534611674111455,-3.2748769807871603 L-2.6197295418723594,-3.2174379548127097 L-2.5825405170339497,-3.1622045554369898 L-2.5420591036250233,-3.109421857747116 L-2.498464920970661,-3.059324062867423 L-2.451951400006357,-3.0121334587900175 L-2.4027249250092213,-2.968059434064873 L-2.351003917854146,-2.927297548725795 L-2.297017868858177,-2.8900286665746373 L-2.241006318513305,-2.8564181526739025 L-2.183217794625811,-2.8266151396084993 L-2.123908709578168,-2.800751865772333 L-2.0633422226064386,-2.7789430886157893 L-2.001787072141332,-2.761285575457591 L-1.9395163833939195,-2.7478576741203313 L-1.8768064564768516,-2.7387189652948103 L-1.8139355404382758,-2.733909998175661 L-1.751182598648171,-2.7334521105412746 L-1.6888260710151766,-2.7373473340763406 L-1.6271426385260621,-2.745578385357098 L-1.5664059955896767,-2.7581087425392914 L-1.5068856356325901,-2.7748828074085665 L-1.4488456553348286,-2.7958261520742695 L-1.3925435828114177,-2.8208458492120565 L-1.3382292349391898,-2.849830884389985 " />
			<path d="M-1.3382292349391824,-2.8498308843899895 L-1.29962404773529,-2.8736493194302355 L-1.262321935399573,-2.8994935035732987 L-1.2264127619879273,-2.9273011759158947 L-1.1919830358443733,-2.957005345339686 L-1.159115701194879,-2.988534451898752 L-1.1278899383274532,-3.0218125392137694 L-1.0983809728398974,-3.05675943745758 L-1.0706598944147516,-3.0932909564913267 L-1.0447934855580217,-3.131319088685875 L-1.0208440607142726,-3.170752220939897 L-0.9988693161456758,-3.2114953553838577 L-0.9789221909366566,-3.2534503382382054 L-0.9610507394590057,-3.2965160962744213 L-0.9452980156046868,-3.340588880309281 L-0.9317019690652409,-3.3855625151457245 L-0.9202953539076544,-3.431328655358206 L-0.9111056496669434,-3.477777046306313 L-0.9041549951455466,-3.524795789747853 L-0.8994601350790119,-3.5722716134115196 L-0.8970323797964606,-3.620090143879716 L-0.8968775779730145,-3.6681361821241363 L-0.8989961025398253,-3.716293981030313 L-0.9033828497856508,-3.764447524242556 L-0.9100272516521422,-3.812480805657516 L-0.9189133011932222,-3.860278108893045 L-0.9300195911372201,-3.907724286059099 L-0.9433193654588652,-3.954705035159091 L-0.9587805838368935,-4.001107175453411 L-0.9763659988419898,-4.046818920121744 L-0.9960332456691063,-4.091730145567307 L-1.0177349441979893,-4.135732656714242 L-1.0414188131360382,-4.178720447659033 L-1.0670277959685195,-4.220589957048007 L-1.0945001984127074,-4.261240317565711 L-1.123769837044816,-4.300573598933106 L-1.154766198741663,-4.338495043830189 L-1.18741461055296,-4.374913296174678 L-1.2216364195949898,-4.409740621206812 L-1.2573491825322949,-4.442893116850076 L-1.2944668641908899,-4.474290915838648 L-1.3329000448245347,-4.503858378124645 L-1.3725561355347333,-4.531524273101613 L-1.413339601325502,-4.5572219512053085 L-1.4551521912555407,-4.5808895044783275 L-1.497893175133358,-4.602469915711803 L-1.5414595861851246,-4.621911195804855 L-1.5857464691106493,-4.639166509010881 L-1.6306471329298913,-4.654194285768981 L-1.6760534080108767,-4.66695832284867 L-1.7218559066598162,-4.677427870566622 L-1.7679442866456387,-4.685577706865362 L-1.8142075170240926,-4.691388198075405 L-1.8605341456210165,-4.694845346214487 L-1.906812567530387,-4.695940822709931 L-1.952931293980313,-4.694671988462905 L-1.998779220919254,-4.691041900206249 L-2.0442458966754096,-4.68505930314053 L-2.089221788044472,-4.676738609866095 L-2.133598544164711,-4.666099865661847 L-2.1772692575436885,-4.653168700194419 L-2.2201287216077716,-4.637976265774057 L-2.262073684153984,-4.62055916230598 L-2.3030030960936076,-4.600959349118002 L-2.342818354888282,-4.579224043876835 " />
			<path d="M-2.3428183548882857,-4.579224043876833 L-2.3922103614435555,-4.548230963660915 L-2.4394063528534966,-4.513919286214703 L-2.484218463184402,-4.476425590835039 L-2.5264683156568615,-4.435899122995537 L-2.565987732683191,-4.392501200267734 L-2.6026194053064753,-4.34640457018867 L-2.6362175193765065,-4.297792722630935 L-2.666648335970085,-4.246859159412328 L-2.6937907237452867,-4.193806624052485 L-2.717536641110654,-4.138846294742459 L-2.737791566289985,-4.082196943739687 L-2.754474873570857,-4.024084066534402 L-2.7675201542391816,-3.964738984253897 L-2.776875480922314,-3.9043979228775503 L-2.7825036142884825,-3.843301072927856 L-2.7843821512797517,-3.7816916333804023 " />
			<path d="M4.569141832216608,-2.659280713802887 L4.616606191975267,-2.7256229556390945 L4.658036878644681,-2.7964177622139066 L4.6931190489455945,-2.8711271441564445 L4.721586103735466,-2.94918336415186 L4.743221713969296,-3.029993251334658 L4.757861464644045,-3.1129427089586277 L4.76539410423384,-3.1974013810883415 L4.765762390121177,-3.2827274428487456 L4.75896352359945,-3.3682724778304034 L4.745049171141098,-3.4533864055856345 L4.72412507176975,-3.5374224217701444 L4.696350233520059,-3.619741913388636 L4.661935725091539,-3.699719311792086 L4.621143071878982,-3.7767468465474163 L4.574282268568439,-3.8502391640535896 L4.521709423401624,-3.919637775805975 L4.463824052010617,-3.9844153025053988 L4.401066041387761,-4.044079481759716 L4.333912307062403,-4.098176908922255 L4.262873168887505,-4.146296482639495 L4.188488472977544,-4.188072528924266 L4.111323489268151,-4.2231875800138035 L4.031964615873091,-4.251374786895336 L3.951014922882345,-4.272419947165737 L3.869089569465237,-4.286163132815007 L3.78681112910528,-4.292499905563573 L3.7048048584915976,-4.291382110517745 L3.6236939460199222,-4.28281824211211 L3.5440947760111277,-4.266873379557964 L3.466612244635816,-4.24366869228834 L3.391835163140538,-4.213380519157874 L3.320331783307823,-4.176239028394944 " />
			<path d="M3.3203317833078194,-4.176239028394941 L3.2538791262252715,-4.133406590235905 L3.191587713422662,-4.08456097547488 L3.1339133005985507,-4.030059563504552 L3.0812778631284043,-3.970301114410261 L3.0340665086778533,-3.9057228514381412 L2.9926246595588912,-3.8367972620471935 L2.957255525444329,-3.7640286409504164 L2.928217884931419,-3.687949400437873 " />
			<path d="M-2.7843821512797513,2.0929925208848466 L-2.782288163117459,2.1583255201490745 L-2.7760154898264346,2.2236666444635094 L-2.7655919637684505,2.2887259699430635 L-2.7510638349767387,2.353214823067007 L-2.732495565940835,2.41684706154687 L-2.7099695455812665,2.479340343963056 L-2.6835857236832066,2.540417382536695 L-2.6534611674111455,2.5998071734780797 L-2.6197295418723594,2.6572461994525303 L-2.5825405170339497,2.71247959882825 L-2.5420591036250233,2.7652622965181237 L-2.498464920970661,2.815360091397817 L-2.451951400006357,2.8625506954752225 L-2.4027249250092213,2.9066247202003668 L-2.351003917854146,2.947386605539445 L-2.297017868858177,2.9846554876906026 L-2.241006318513305,3.0182660015913374 L-2.183217794625811,3.0480690146567406 L-2.123908709578168,3.073932288492907 L-2.0633422226064386,3.0957410656494506 L-2.001787072141332,3.113398578807649 L-1.9395163833939195,3.1268264801449086 L-1.8768064564768516,3.1359651889704296 L-1.8139355404382758,3.140774156089579 L-1.751182598648171,3.1412320437239654 L-1.6888260710151766,3.1373368201888994 L-1.6271426385260621,3.129105768908142 L-1.5664059955896767,3.1165754117259485 L-1.5068856356325901,3.0998013468566734 L-1.4488456553348286,3.0788580021909704 L-1.3925435828114177,3.0538383050531834 L-1.3382292349391898,3.024853269875255 " />
			<path d="M-1.3382292349391824,3.0248532698752504 L-1.29962404773529,3.0010348348350044 L-1.262321935399573,2.975190650691941 L-1.2264127619879273,2.9473829783493453 L-1.1919830358443733,2.917678808925554 L-1.159115701194879,2.8861497023664877 L-1.1278899383274532,2.8528716150514706 L-1.0983809728398974,2.81792471680766 L-1.0706598944147516,2.7813931977739133 L-1.0447934855580217,2.743365065579365 L-1.0208440607142726,2.703931933325343 L-0.9988693161456758,2.6631887988813823 L-0.9789221909366566,2.6212338160270345 L-0.9610507394590057,2.5781680579908186 L-0.9452980156046868,2.534095273955959 L-0.9317019690652409,2.4891216391195155 L-0.9202953539076544,2.443355498907034 L-0.9111056496669434,2.396907107958927 L-0.9041549951455466,2.349888364517387 L-0.8994601350790119,2.3024125408537204 L-0.8970323797964606,2.254594010385524 L-0.8968775779730145,2.2065479721411037 L-0.8989961025398253,2.158390173234927 L-0.9033828497856508,2.110236630022684 L-0.9100272516521422,2.062203348607724 L-0.9189133011932222,2.014406045372195 L-0.9300195911372201,1.9669598682061409 L-0.9433193654588652,1.919979119106149 L-0.9587805838368935,1.8735769788118284 L-0.9763659988419898,1.8278652341434958 L-0.9960332456691063,1.7829540086979332 L-1.0177349441979893,1.7389514975509976 L-1.0414188131360382,1.6959637066062068 L-1.0670277959685195,1.6540941972172325 L-1.0945001984127074,1.613443836699529 L-1.123769837044816,1.5741105553321342 L-1.154766198741663,1.5361891104350507 L-1.18741461055296,1.4997708580905618 L-1.2216364195949898,1.464943533058428 L-1.2573491825322949,1.4317910374151643 L-1.2944668641908899,1.4003932384265916 L-1.3329000448245347,1.3708257761405953 L-1.3725561355347333,1.343159881163627 L-1.413339601325502,1.3174622030599317 L-1.4551521912555407,1.2937946497869124 L-1.497893175133358,1.272214238553436 L-1.5414595861851246,1.2527729584603853 L-1.5857464691106493,1.2355176452543593 L-1.6306471329298913,1.2204898684962584 L-1.6760534080108767,1.2077258314165704 L-1.7218559066598162,1.1972562836986178 L-1.7679442866456387,1.1891064473998778 L-1.8142075170240926,1.1832959561898346 L-1.8605341456210165,1.1798388080507531 L-1.906812567530387,1.1787433315553097 L-1.952931293980313,1.180012165802335 L-1.998779220919254,1.183642254058991 L-2.0442458966754096,1.1896248511247094 L-2.089221788044472,1.197945544399145 L-2.133598544164711,1.2085842886033928 L-2.1772692575436885,1.2215154540708215 L-2.2201287216077716,1.2367078884911833 L-2.262073684153984,1.2541249919592596 L-2.3030030960936076,1.2737248051472378 L-2.342818354888282,1.295460110388405 " />
			<path d="M-2.3428183548882857,1.295460110388407 L-2.3922103614435555,1.326453190604325 L-2.4394063528534966,1.3607648680505369 L-2.484218463184402,1.3982585634302005 L-2.5264683156568615,1.4387850312697021 L-2.565987732683191,1.4821829539975053 L-2.6026194053064753,1.5282795840765697 L-2.6362175193765065,1.576891431634305 L-2.666648335970085,1.6278249948529118 L-2.6937907237452867,1.680877530212755 L-2.717536641110654,1.7358378595227806 L-2.737791566289985,1.7924872105255532 L-2.754474873570857,1.850600087730838 L-2.7675201542391816,1.9099451700113428 L-2.776875480922314,1.9702862313876894 L-2.7825036142884825,2.031383081337384 L-2.7843821512797517,2.0929925208848377 " />
			<path d="M2.878767986916354,2.495977536366738 L2.880861975078646,2.561310535630966 L2.8871346483696705,2.626651659945401 L2.8975581744276546,2.691710985424955 L2.9120863032193665,2.7561998385488984 L2.93065457225527,2.8198320770287615 L2.9531805926148387,2.8823253594449474 L2.9795644145128986,2.9434023980185864 L3.0096889707849597,3.002792188959971 L3.0434205963237457,3.0602312149344217 L3.0806096211621554,3.1154646143101417 L3.121091034571082,3.168247312000015 L3.1646852172254443,3.2183451068797084 L3.211198738189748,3.265535710957114 L3.260425213186884,3.3096097356822582 L3.312146220341959,3.3503716210213366 L3.3661322693379283,3.387640503172494 L3.4221438196828,3.421251017073229 L3.4799323435702942,3.451054030138632 L3.5392414286179372,3.4769173039747985 L3.5998079155896665,3.498726081131342 L3.6613630660547734,3.5163835942895405 L3.7236337548021856,3.5298114956268 L3.7863436817192535,3.538950204452321 L3.8492145977578294,3.5437591715714705 L3.911967539547934,3.544217059205857 L3.9743240671809286,3.540321835670791 L4.036007499670043,3.5320907843900335 L4.096744142606428,3.51956042720784 L4.156264502563515,3.502786362338565 L4.214304482861277,3.481843017672862 L4.2706065553846875,3.456823320535075 L4.324920903256915,3.4278382853571463 " />
			<path d="M4.324920903256922,3.427838285357142 L4.363526090460815,3.404019850316896 L4.400828202796532,3.3781756661738327 L4.436737376208178,3.3503679938312367 L4.471167102351732,3.3206638244074456 L4.504034437001226,3.289134717848379 L4.535260199868652,3.255856630533362 L4.564769165356208,3.2209097322895515 L4.592490243781354,3.1843782132558047 L4.6183566526380835,3.1463500810612564 L4.642306077481832,3.1069169488072346 L4.664280822050429,3.0661738143632737 L4.684227947259449,3.024218831508926 L4.7020993987371,2.98115307347271 L4.7178521225914185,2.9370802894378505 L4.731448169130864,2.892106654601407 L4.7428547842884505,2.8463405143889253 L4.752044488529162,2.7998921234408183 L4.758995143050559,2.7528733799992784 L4.763690003117093,2.705397556335612 L4.766117758399645,2.6575790258674155 L4.766272560223091,2.609532987622995 L4.76415403565628,2.5613751887168186 L4.759767288410455,2.5132216455045753 L4.753122886543963,2.4651883640896153 L4.744236837002883,2.4173910608540865 L4.733130547058885,2.3699448836880324 L4.7198307727372395,2.3229641345880405 L4.704369554359212,2.27656199429372 L4.686784139354115,2.2308502496253872 L4.667116892526999,2.1859390241798247 L4.645415193998116,2.1419365130328893 L4.621731325060067,2.0989487220880982 L4.596122342227586,2.057079212699124 L4.5686499397833975,2.0164288521814204 L4.539380301151289,1.9770955708140256 L4.5083839394544425,1.9391741259169422 L4.475735527643145,1.9027558735724532 L4.441513718601115,1.8679285485403194 L4.4058009556638105,1.8347760528970558 L4.368683274005216,1.803378253908483 L4.33025009337157,1.7738107916224868 L4.290594002661372,1.7461448966455184 L4.249810536870603,1.7204472185418231 L4.207997946940564,1.6967796652688039 L4.165256963062747,1.6751992540353275 L4.121690552010981,1.6557579739422768 L4.077403669085456,1.6385026607362507 L4.032503005266214,1.6234748839781499 L3.9870967301852285,1.610710846898462 L3.941294231536289,1.6002412991805093 L3.8952058515504664,1.5920914628817693 L3.8489426211720126,1.586280971671726 L3.8026159925750886,1.5828238235326446 L3.756337570665718,1.5817283470372012 L3.710218844215792,1.5829971812842265 L3.6643709172768513,1.5866272695408825 L3.6189042415206956,1.5926098666066009 L3.573928350151633,1.6009305598810364 L3.529551594031394,1.6115693040852843 L3.4858808806524166,1.624500469552713 L3.4430214165883335,1.6396929039730748 L3.401076454042121,1.6571100074411511 L3.3601470421024975,1.6767098206291293 L3.320331783307823,1.6984451258702964 " />
			<path d="M3.3203317833078194,1.6984451258702984 L3.2709397767525497,1.7294382060862166 L3.2237437853426085,1.7637498835324283 L3.178931675011703,1.801243578912092 L3.1366818225392437,1.8417700467515936 L3.0971624055129143,1.8851679694793968 L3.06053073288963,1.9312645995584612 L3.0269326188195986,1.9798764471161965 L2.99650180222602,2.030810010334803 L2.9693594144508184,2.0838625456946467 L2.9456134970854513,2.138822875004672 L2.92535857190612,2.1954722260074444 L2.908675264625248,2.253585103212729 L2.8956299839569235,2.3129301854932343 L2.886274657273791,2.373271246869581 L2.8806465239076227,2.4343680968192754 L2.8787679869163534,2.495977536366729 " />
			<path d="M-4.719291781830087,-3.27316292336753 L-4.719291781830087,2.6015212308977107 " />
			<path d="M-4.719291781830088,-3.2731629233675306 L-4.715534707847549,-3.396381802462456 L-4.704278441115212,-3.5185755023618444 L-4.685567787748948,-3.6392576251145377 L-4.6594772264122994,-3.7579477896755478 L-4.626110611850555,-3.8741735440861165 L-4.585600761491892,-3.987472246091662 L-4.538108926761158,-4.097392904711715 L-4.483824151210754,-4.2034979754314 L-4.422962518023597,-4.305365101868613 L-4.355766289883535,-4.402588796984084 L-4.282502944636967,-4.494782057142212 L-4.203464110584308,-4.581577902597819 L-4.118964405639388,-4.662630838276824 L-4.029340184977578,-4.737618229036151 L-3.934948202157696,-4.806241583928573 L-3.8361641890471705,-4.868227744360402 " />
			<path d="M-4.719291781830087,2.6015212308977094 L-4.717017944377374,2.69776873155029 L-4.71020190989282,2.794107972276716 L-4.698860098800516,2.8903068634077584 L-4.683019834516806,2.9861336533886553 L-4.6627192776257935,3.0813574870889067 L-4.638007333947148,3.175748961952506 L-4.608943536717702,3.2690806806487904 L-4.575597903170669,3.361127798892527 L-4.538050765857996,3.4516685671134915 L-4.49639257912221,3.5404848646706046 L-4.4507237011839855,3.627362725323663 L-4.401154152370394,3.7120928526967534 L-4.347803350066308,3.7944711244915483 L-4.290799821027459,3.87429908423581 L-4.230280891748219,3.951384419382411 L-4.166392357630054,4.025541424607106 L-4.099288131747628,4.096591449188923 L-4.0291298740587305,4.164363327395395 L-3.95608660195127,4.228693790835809 L-3.8803342830655874,4.289427861789055 L-3.802055411372999,4.346419226558528 L-3.721438567531833,4.3995305879546445 L-3.6386779645801024,4.448633996055795 L-3.553972980059292,4.493611156450916 L-3.467527675696392,4.534353715221079 L-3.3795503058013265,4.570763519973581 L-3.290252815564082,4.602752856299651 L-3.199850330460174,4.630244659086145 L-3.108560637994542,4.653172698172151 L-3.0166036630323676,4.671481737903254 L-2.9242009379808147,4.6851276701990585 L-2.8315750690980703,4.69407762081342 " />
			<path d="M-2.8315750690980526,4.69407762081342 L2.8315750690980526,5.097062636295313 " />
			<path d="M3.836164189047156,4.86822774436041 L3.7795043136145448,4.89971853397367 L3.7216785144769475,4.929043490693957 L3.6627579155820262,4.956166545729864 L3.6028149874473447,4.981054338561078 L3.541923458023868,5.003676257970787 L3.48015822201286,5.024004479696532 L3.4175952487477144,5.0420140006531895 L3.354311488754016,5.057682669686 L3.2903847791027747,5.070991214815795 L3.22589374767323,5.081923266942946 L3.1609177164429845,5.090465379980845 L3.095536603924421,5.09660704739418 L3.0298308268674035,5.100340715121646 L2.9638812013491527,5.10166179086721 L2.897768843372969,5.10056864974849 L2.8315750690980606,5.097062636295314 " />
			<path d="M-1.941988225110844,-2.7483074067820907 L-1.9256290641397624,-2.799654913560063 L-1.9121478869050978,-2.8520799167588167 L-1.9015875200307513,-2.9054158741056746 L-1.893981511392588,-2.9594933494344975 L-1.8893540235444908,-3.014140550945717 L-1.8877197569594393,-3.069183876949686 L-1.889083903329463,-3.124448467359633 L-1.8934421290728194,-3.179758759182256 L-1.9007805891007938,-3.234939044241295 L-1.911075970800388,-3.2898140273623113 L-1.9242955680931724,-3.3442093832454596 L-1.9403973853350323,-3.397952310257186 L-1.959330270726749,-3.450872079381588 L-1.9810340788115932,-3.502800576587541 L-2.0054398615437155,-3.5535728368886135 L-2.0324700873203567,-3.6030275683991877 L-2.0620388872820588,-3.6510076647219765 L-2.0940523280984356,-3.6973607040391965 L-2.1284087103729323,-3.741939433321906 L-2.164998891718599,-3.784602236119274 L-2.2037066334785527,-3.8252135824417333 L-2.244408969989664,-3.86364445930883 L-2.2869765992164126,-3.8997727805940245 L-2.331274293513948,-3.9334837748644564 L-2.37716132921546,-3.9646703499835994 L-2.42449193367916,-3.993233433318541 L-2.4731157483746977,-4.019082286471132 L-2.5228783065379066,-4.042134793533171 L-2.5736215238764646,-4.062317721949909 L-2.625184200767617,-4.0795669551631635 L-2.6774025343526002,-4.093827696294996 L-2.730110638900939,-4.105054642224886 " />
			<path d="M3.022557046552534,-3.681120472047206 L2.9779670274224195,-3.6926980641357146 L2.933039499295167,-3.702069626742994 " />
			<path d="M-1.941988225110844,3.126376747483149 L-1.9256290641397626,3.075029240705177 L-1.9121478869050978,3.0226042375064237 L-1.9015875200307515,2.9692682801595653 L-1.893981511392588,2.9151908048307424 L-1.8893540235444908,2.860543603319523 L-1.8877197569594393,2.805500277315554 L-1.889083903329463,2.7502356869056075 L-1.8934421290728194,2.6949253950829846 L-1.9007805891007936,2.6397451100239455 L-1.911075970800388,2.584870126902929 L-1.9242955680931721,2.530474771019781 L-1.940397385335032,2.4767318440080546 L-1.959330270726749,2.4238120748836525 L-1.981034078811593,2.3718835776776994 L-2.005439861543715,2.321111317376627 L-2.0324700873203563,2.2716565858660527 L-2.0620388872820583,2.223676489543264 L-2.0940523280984356,2.177323450226044 L-2.128408710372932,2.1327447209433346 L-2.1649988917185987,2.0900819181459664 L-2.2037066334785522,2.049470571823507 L-2.2444089699896637,2.01103969495641 L-2.2869765992164126,1.9749113736712154 L-2.3312742935139474,1.9412003794007835 L-2.3771613292154594,1.9100138042816408 L-2.424491933679159,1.8814507209466993 L-2.4731157483746973,1.8556018677941082 L-2.522878306537906,1.832549360732069 L-2.5736215238764637,1.812366432315331 L-2.6251842007676167,1.7951171991020762 L-2.6774025343526002,1.780856457970244 L-2.730110638900938,1.7696295120403547 " />
			<path d="M3.721161913085261,3.5293617629650402 L3.7375210740563425,3.478014256187068 L3.7510022512910073,3.4255892529883147 L3.761562618165354,3.3722532956414564 L3.769168626803517,3.3181758203126335 L3.7737961146516144,3.263528618801414 L3.775430381236666,3.208485292797445 L3.774066234866642,3.1532207023874985 L3.7697080091232857,3.097910410564875 L3.762369549095311,3.042730125505836 L3.752074167395717,2.9878551423848196 L3.7388545701029328,2.9334597865016714 L3.722752752861073,2.879716859489945 L3.703819867469356,2.8267970903655435 L3.6821160593845117,2.7748685931595904 L3.6577102766523897,2.724096332858518 L3.6306800508757484,2.6746416013479433 L3.6011112509140464,2.6266615050251545 L3.569097810097669,2.5803084657079345 L3.534741427823173,2.5357297364252256 L3.498151246477506,2.4930669336278575 L3.4594435047175525,2.4524555873053977 L3.418741168206441,2.414024710438301 L3.376173538979692,2.377896389153107 L3.331875844682157,2.3441853948826745 L3.285988808980645,2.3129988197635316 L3.238658204516945,2.2844357364285903 L3.190034389821407,2.258586883275999 L3.140271831658198,2.2355343762139603 L3.0895286143196405,2.2153514477972225 L3.0379659374284875,2.1981022145839675 L2.985747603843504,2.1838414734521354 L2.933039499295166,2.172614527522246 " />
			<path d="M4.860870535284991,-1.5927502992855718 L4.857113461302453,-1.4695314201906484 L4.845857194570116,-1.347337720291259 L4.827146541203851,-1.2266555975385645 L4.801055979867202,-1.1079654329775548 L4.767689365305459,-0.9917396785669849 L4.727179514946796,-0.8784409765614403 L4.6796876802160625,-0.7685203179413889 L4.625402904665657,-0.6624152472217029 L4.564541271478501,-0.5605481207844889 L4.497345043338438,-0.46332442566901855 L4.42408169809187,-0.37113116551088976 L4.345042864039211,-0.2843353200552834 L4.260543159094292,-0.20328238437627988 L4.170918938432482,-0.1282949936169524 L4.076526955612599,-0.05967163872452885 L3.9777429425020667,0.0023145217073032853 " />
			<path d="M3.9777429425020596,0.002314521707307282 L3.898112424912703,0.04578513218964564 L3.8162536010334565,0.08498475856560206 L3.732363675941031,0.11981896550175475 L3.6466447478128656,0.1502038343424783 L3.5593033210549105,0.17606616527733543 L3.4705498088144324,0.1973436536858315 L3.3805980260763073,0.21398504023470277 L3.2896646745639964,0.22595023436613948 L3.197968820686114,0.2332104108794515 L3.105731367786262,0.23574807937350206 L3.013174523967521,0.2335571263826155 L2.9205212667736733,0.22664283010445208 L2.8279948060167657,0.21502184768436639 L2.7358180460451207,0.19872217508688572 L2.6442130487472415,0.17778307965098095 L2.5534004985852707,0.1522550054916052 L2.463599170946786,0.12219945197540305 L2.3750254050957365,0.08768882556335056 L2.287892582992204,0.048806265377249414 L2.2024106152365697,0.005645442910297227 L2.118785435376492,-0.04168966363574178 L2.037218503794955,-0.09308501984313211 L1.9579063223745574,-0.14841680979706906 L1.8810399611072686,-0.20755173436906071 L1.8068045977900788,-0.2703473323462058 L1.7353790719154691,-0.33665232363273256 L1.666935453831409,-0.4063069736970002 L1.6016386302088144,-0.4791434783859789 L1.5396459068151196,-0.554986368180147 L1.4811066295509023,-0.6336529309149366 L1.4261618246625265,-0.7149536519503437 L1.3749438589975642,-0.7986926707282916 L1.3275761211214667,-0.8846682526178729 L1.2841727240637009,-0.9726732749117437 L1.2448382304094678,-1.0624957258028687 L1.2096674003992747,-1.1539192151395352 L1.1787449636432175,-1.2467234957281776 L1.1521454149999277,-1.3406849939281615 L1.129932835111932,-1.4355773482602694 L1.112160736029772,-1.5311719547313265 L1.0988719322967895,-1.6272385175612456 L1.0900984378051384,-1.7235456039857326 L1.0858613886715167,-1.8198612017980857 L1.0861709923184089,-1.9159532782869255 L1.0910265028835116,-2.0115903392233183 L1.1004162230165808,-2.106541986550651 L1.114317532059374,-2.2005794734337303 L1.1326969405407965,-2.2934762553299457 L1.1555101708559699,-2.38500853575491 L1.1827022639348614,-2.474955805427797 L1.214207711643499,-2.563101373497516 L1.2499506145988009,-2.649232889569947 L1.289844865016839,-2.733142855278642 L1.333794354154033,-2.814629124166564 L1.3816932038415302,-2.8934953886746078 L1.4334260215549903,-2.969551653063704 L1.4888681784052817,-3.0426146911311975 L1.5478861093803924,-3.112508487618818 L1.6103376351152436,-3.179064662248852 L1.6760723044142334,-3.2421228753669857 L1.7449317567013425,-3.301531214214569 L1.816750103524634,-3.357146558899761 L1.8913543281960679,-3.408834927185887 L1.968564702603838,-3.4564717972663708 " />
			<path d="M1.9685647026038526,-3.4564717972663797 L2.0223515557744314,-3.486432902954073 L2.0771933983483226,-3.5144418676222453 L2.133029379016275,-3.540467613136193 L2.1897975433951453,-3.5644812618978188 L2.2474349027711313,-3.5864561688875813 L2.3058775039906685,-3.6063679512292253 L2.365060500421452,-3.6241945152444917 L2.424918223904841,-3.639916080967775 L2.4853842576198115,-3.653515204093545 L2.54639150977761,-3.664976795332162 L2.6078722880653333,-3.674288137152628 L2.6697583747558395,-3.6814388978936776 L2.731981102400646,-3.6864211432275615 L2.794471430021829,-3.6892293449638096 L2.857160019718383,-3.689860387183183 L2.9199773136020393,-3.6883135696950364 L2.982853610977177,-3.6845906088142275 L3.045719145679191,-3.6786956354567377 L3.108504163485505,-3.6706351905560943 L3.1711389995133272,-3.6604182178056957 L3.2335541555182843,-3.648056053735083 L3.2956803770081518,-3.633562415131177 L3.3574487300861255,-3.6169533838184282 L3.4187906779383646,-3.5982473888147806 L3.4796381568809425,-3.577465185883231 L3.5399236518818222,-3.554629834501693 L3.599580271474059,-3.5297666722767014 L3.658541821977108,-3.50290328682936 L3.7167428809438885,-3.47406948518472 L3.774118869752097,-3.443297260698554 L3.830606125259235,-3.4106207575582346 L3.886141970441842,-3.376076232897084 L3.940664783940545,-3.3397020165642552 L3.9941140684337797,-3.301538468594769 L4.046430517764286,-3.261627934426901 L4.097556082743931,-3.2200146979166115 L4.147434035563813,-3.1767449322011436 L4.1960090327382025,-3.131866648466323 L4.243227176512461,-3.0854296426743946 L4.289036074666809,-3.037485440311513 L4.333384898649594,-2.9880872392161884 L4.376224439975534,-2.937289850552127 L4.417507164826376,-2.8851496379909687 L4.457187266793387,-2.83172445517238 L4.495220717703138,-2.7770735815109298 L4.531565316470206,-2.7212576564209394 L4.566180735922574,-2.6643386120323216 L4.599028567547779,-2.6063796044720378 L4.630072364110156,-2.5474449437874442 L4.6592776800919005,-2.4876000225892683 L4.686612109913051,-2.4269112434933975 L4.712045323888021,-2.36544594544199 L4.735549101878751,-2.303272328985656 L4.757097364607159,-2.2404593806096176 L4.77666620259213,-2.177076796187816 L4.7942339026789655,-2.1131949036498914 L4.809780972131813,-2.04888458494685 L4.823290160262388,-1.9842171974020035 L4.834746477570958,-1.919264494534441 L4.844137212378358,-1.8540985464428954 L4.851451944930601,-1.7887916598383353 L4.856682558960405,-1.7234162978140248 L4.859823250692824,-1.658044999442053 L4.860870535284991,-1.5927502992855787 " />
			<path d="M2.0292954661869382,-1.7942428070265184 L2.031389454349231,-1.72890980776229 L2.0376621276402553,-1.6635686834478551 L2.04808565369824,-1.5985093579683012 L2.0626137824899513,-1.5340205048443576 L2.081182051525855,-1.4703882663644947 L2.1037080718854235,-1.4078949839483088 L2.130091893783484,-1.3468179453746698 L2.160216450055544,-1.287428154433285 L2.1939480755943306,-1.2299891284588345 L2.2311371004327403,-1.1747557290831143 L2.2716185138416667,-1.121973031393241 L2.3152126964960287,-1.0718752365135478 L2.361726217460333,-1.0246846324361423 L2.4109526924574687,-0.9806106077109982 L2.462673699612544,-0.9398487223719194 L2.5166597486085127,-0.902579840220762 L2.572671298953385,-0.8689693263200271 L2.630459822840879,-0.8391663132546241 L2.6897689078885216,-0.8133030394184577 L2.7503353948602514,-0.7914942622619139 L2.811890545325358,-0.7738367491037155 L2.8741612340727705,-0.7604088477664561 L2.9368711609898384,-0.7512701389409351 L2.9997420770284142,-0.7464611718217858 L3.062495018818519,-0.7460032841873991 L3.1248515464515134,-0.7498985077224654 L3.186534978940628,-0.7581295590032227 L3.2472716218770135,-0.7706599161854163 L3.3067919818341,-0.7874339810546914 L3.3648319621318614,-0.8083773257203944 L3.4211340346552723,-0.8333970228581813 L3.4754483825275004,-0.86238205803611 " />
			<path d="M3.4754483825275075,-0.8623820580361142 L3.5140535697314,-0.8862004930763605 L3.551355682067117,-0.9120446772194236 L3.5872648554787627,-0.9398523495620196 L3.6216945816223167,-0.9695565189858107 L3.654561916271811,-1.001085625544877 L3.6857876791392368,-1.0343637128598944 L3.7152966446267923,-1.0693106111037045 L3.7430177230519384,-1.1058421301374515 L3.7688841319086683,-1.1438702623319998 L3.7928335567524174,-1.1833033945860216 L3.814808301321014,-1.2240465290299827 L3.8347554265300334,-1.2660015118843304 L3.852626878007684,-1.3090672699205461 L3.868379601862003,-1.3531400539554057 L3.881975648401449,-1.3981136887918493 L3.893382263559036,-1.4438798290043309 L3.9025719677997466,-1.490328219952438 L3.9095226223211434,-1.5373469633939776 L3.914217482387678,-1.5848227870576441 L3.916645237670229,-1.6326413175258407 L3.9168000394936753,-1.6806873557702608 L3.9146815149268646,-1.7288451546764374 L3.910294767681039,-1.7769986978886811 L3.903650365814548,-1.825031979303641 L3.8947643162734678,-1.8728292825391697 L3.8836580263294698,-1.9202754597052238 L3.870358252007825,-1.9672562088052157 L3.8548970336297965,-2.0136583490995363 L3.8373116186247,-2.059370093767869 L3.8176443717975834,-2.1042813192134315 L3.7959426732687005,-2.1482838303603673 L3.7722588043306517,-2.191271621305158 L3.7466498214981705,-2.2331411306941322 L3.719177419053983,-2.2737914912118358 L3.689907780421874,-2.3131247725792305 L3.658911418725027,-2.351046217476314 L3.62626300691373,-2.387464469820803 L3.5920411978717004,-2.4222917948529368 L3.556328434934395,-2.4554442904962004 L3.5192107532758,-2.486842089484773 L3.4807775726421553,-2.5164095517707694 L3.4411214819319564,-2.544075446747738 L3.400338016141188,-2.569773124851433 L3.3585254262111492,-2.5934406781244523 L3.315784442333332,-2.6150210893579287 L3.2722180312815654,-2.6344623694509792 L3.2279311483560407,-2.6517176826570052 L3.1830304845367987,-2.6667454594151065 L3.1376242094558133,-2.679509496494794 L3.0918217108068737,-2.689979044212747 L3.0457333308210512,-2.698128880511487 L2.9994701004425974,-2.70393937172153 L2.9531434718456735,-2.7073965198606116 L2.906865049936303,-2.708491996356055 L2.860746323486377,-2.7072231621090297 L2.814898396547436,-2.7035930738523737 L2.7694317207912804,-2.6976104767866556 L2.724455829422218,-2.68928978351222 L2.680079073301979,-2.678651039307972 L2.636408359923001,-2.665719873840543 L2.593548895858919,-2.6505274394201814 L2.551603933312706,-2.633110335952105 L2.5106745213730823,-2.613510522764127 L2.470859262578408,-2.59177521752296 " />
			<path d="M2.4708592625784043,-2.591775217522958 L2.4214672560231345,-2.5607821373070396 L2.374271264613193,-2.526470459860828 L2.329459154282288,-2.4889767644811642 L2.2872093018098285,-2.4484502966416626 L2.247689884783499,-2.4050523739138594 L2.211058212160215,-2.358955743834795 L2.1774600980901835,-2.3103438962770597 L2.1470292814966054,-2.2594103330584527 L2.119886893721403,-2.20635779769861 L2.096140976356036,-2.151397468388584 L2.0758860511767048,-2.094748117385812 L2.059202743895833,-2.0366352401805266 L2.046157463227509,-1.977290157900022 L2.0368021365443756,-1.9169490965236753 L2.0311740031782075,-1.8558522465739808 L2.0292954661869382,-1.794242807026527 " />
			<path d="M3.7824934545470805,0.11573321438526885 L3.762613475731446,0.2230688248761935 L3.7387978215136624,0.32927017729800834 L3.711080310613164,0.434186463543223 L3.679500302466228,0.537668700324785 L3.6441026413347632,0.6395699407354117 L3.6049375926265363,0.7397454829152227 L3.5620607715172548,0.8380530755313665 L3.515533063975874,0.9343531197778393 L3.465420540305268,1.0285088676086627 L3.4117943613210366,1.1203866159229263 L3.354730677301686,1.2098558964259483 L3.2943105198536573,1.2967896608969363 L3.2306196868447867,1.3810644616000762 L3.1637486205695593,1.4625606265828623 L3.093792279319189,1.541162429612736 L3.020850002538892,1.6167582545107133 L2.945025369763827,1.6892407536486638 L2.866426053534025,1.7585070003851468 L2.7851636664971604,1.824458635223368 L2.7013536029162952,1.887002005483689 L2.6151148748076514,1.9460482982923564 L2.526569942941094,2.001513666697615 L2.4358445429433173,2.053319348734111 L2.3430675067506623,2.101391779266495 L2.248370579665121,2.145662694453434 L2.1518882332732896,2.186069228683673 L2.0537574744939455,2.222554003846498 L1.9541176510254024,2.2550652108098297 L1.8531102534689117,2.2835566829902643 L1.7508787144090925,2.307987961910567 L1.6475682047367064,2.3283243546515493 L1.5433254275030037,2.344536983116721 L1.4382984095983735,2.35660282503979 L1.332636291551107,2.3645047466767477 L1.2264891157447746,2.368231527136141 L1.1200076133549546,2.367777874312972 L1.0133429903078595,2.3631444324035913 L0.9066467125648077,2.354337780990929 L0.8000702910374338,2.3413704257013483 L0.6937650664390798,2.3242607804464055 L0.587881994377865,2.3030331412747067 L0.4825714309966118,2.277717651871026 L0.3779829194640256,2.2483502607516503 L0.2742649776203172,2.214972670216743 L0.17156488707881445,2.177632277132222 L0.07002848408303053,2.1363821056252355 L-0.030200047583797796,2.091280731788804 L-0.1289783813426557,2.042392200502568 L-0.22616624992542023,1.989785934487735 L-0.32162564455727427,1.9335366357253907 L-0.41522101093200314,1.8737241793781418 L-0.5068194417019054,1.8104335003657477 L-0.5962908652089638,1.7437544727557746 L-0.6835082301892776,1.6737817821405776 L-0.7683476861884684,1.6006147911818087 L-0.8506887594318833,1.5243573985133883 L-0.9304145238998314,1.445117891203306 L-1.0074117673649419,1.3630087909837552 L-1.0815711521558575,1.2781466944679547 L-1.1527873704189782,1.19065210758056 L-1.2209592936577858,1.1006492744367624 L-1.2859901163373908,1.0082660009130908 L-1.3477874933503773,0.9136334731604382 L-1.4062636711487686,0.8168860713170211 L-1.4613356123558665,0.7181611786858174 L-1.512925113681037,0.6175989866474471 L-1.5609589169699931,0.5153422955855241 L-1.6053688132328836,0.41153631210717423 L-1.6460917395024648,0.30632844284665495 L-1.68306986838481,0.19986808514490373 L-1.716250690175399,0.09230641490224278 L-1.7455870874239832,-0.01620382809452059 L-1.7710374018423312,-0.12550855706573316 L-1.7925654934598616,-0.23545255704529766 L-1.8101407919431387,-0.34587970528911993 L-1.8237383400063827,-0.4566331929726174 L-1.8333388288513222,-0.5675557478624894 L-1.8389286255860902,-0.67848985764652 L-1.840499792584212,-0.7892779936042994 L-1.838050098756193,-0.8997628343012615 L-1.8315830227177172,-1.009787488988355 L-1.821107747849939,-1.11919572039014 L-1.8066391492588907,-1.2278321665649359 L-1.7881977726525315,-1.3355425615219758 L-1.7658098051654134,-1.4421739542822978 L-1.7395070381724107,-1.5475749260722789 L-1.70932682214432,-1.6515958053414086 L-1.675312013609414,-1.7540888802989785 L-1.6375109142962936,-1.854908608667865 L-1.5959772025444376,-1.9539118243575615 L-1.5507698570798545,-2.0509579407629737 L-1.5019530732640805,-2.145909150400292 L-1.4495961719354358,-2.238630620596462 L-1.393773500972015,-2.3289906849543565 L-1.3345643297161667,-2.4168610303217615 L-1.272052736410394,-2.502116878998703 L-1.2063274888045181,-2.5846371659243523 L-1.137481918103648,-2.6643047105918978 L-1.0656137864359443,-2.7410063834472855 L-0.9908251480283881,-2.814633266535507 L-0.9132222042876705,-2.885080808166352 L-0.8329151529920111,-2.9522489713799476 L-0.7500180318080496,-3.016042376001309 L-0.6646485563550022,-3.076370434082148 L-0.5769279530460618,-3.133147478537627 L-0.4869807869443943,-3.1862928847953875 L-0.394934784878185,-3.235731185284098 L-0.3009206540659122,-3.2813921765989593 L-0.2050718965093994,-3.323211019191988 L-0.10752461941822844,-3.361128329445511 L-0.008417341934703781,-3.39509026399812 L0.09210920156618929,-3.4250485962033577 L0.19391226132249484,-3.4509607846125476 L0.2968472748928851,-3.4727900333845283 L0.4007680724383058,-3.490505344536505 L0.5055270842861549,-3.5040815619618226 L0.6109755504822644,-3.5134994071521564 L0.7169637320330939,-3.5187455065733904 L0.8233411235381785,-3.5198124106563116 L0.9299566669109065,-3.5166986043751507 L1.0366589658841103,-3.5094085093989515 L1.1432965009958815,-3.4979524778127074 L1.2497178447503303,-3.48234677741719 L1.3557718766477425,-3.462613568628337 L1.461307997778811,-3.438780873009001 L1.566176344678182,-3.410882533477759 L1.6702280021336582,-3.3789581662512678 L1.7733152146488484,-3.343053104588429 " />
			<path d="M2.325990818861528,0.9618026538070494 L2.246360301272172,1.0052732642893878 L2.164501477392925,1.0444728906653442 L2.0806115523004998,1.079307097601497 L1.9948926241723344,1.1096919664422205 L1.9075511974143795,1.1355542973770776 L1.8187976851739012,1.1568317857855737 L1.728845902435776,1.173473172334445 L1.637912550923465,1.1854383664658816 L1.5462166970455828,1.1926985429791936 L1.4539792441457307,1.1952362114732442 L1.36142240032699,1.1930452584823577 L1.2687691431331423,1.1861309622041942 L1.1762426823762344,1.1745099797841085 L1.0840659224045892,1.1582103071866279 L0.9924609251067105,1.137271211750723 L0.9016483749447395,1.1117431375913474 L0.8118470473062545,1.0816875840751452 L0.7232732814552051,1.0471769576630927 L0.6361404593516731,1.0082943974769916 L0.5506584915960384,0.9651335750100394 L0.46703331173596074,0.9177984684640004 L0.38546638015442347,0.86640311225661 L0.30615419873402616,0.8110713223026731 L0.2292878374667373,0.7519363977306814 L0.1550524741495476,0.6891407997535364 L0.08362694827493788,0.6228358084670096 L0.015183330190877697,0.553181158402742 L-0.05011349343171689,0.4803446537137632 L-0.11210621682541166,0.40450176391959514 L-0.17064549408962892,0.3258352011848056 L-0.22559029897800476,0.2445344801493985 L-0.27680826464296704,0.1607954613714505 L-0.32417600251906453,0.0748198794818693 L-0.3675793995768304,-0.01318514281200156 L-0.4069138932310634,-0.1030075937031264 L-0.4420847232412566,-0.19443108303979295 L-0.4730071599973138,-0.28723536362843555 L-0.4996067086406035,-0.3811968618284194 L-0.5218192885285993,-0.47608921616052735 L-0.5395913876107592,-0.5716838226315845 L-0.5528801913437418,-0.6677503854615034 L-0.5616536858353929,-0.7640574718859904 L-0.5658907349690145,-0.8603730696983436 L-0.5655811313221224,-0.9564651461871833 L-0.5607256207570197,-1.0521022071235762 L-0.5513359006239504,-1.147053854450909 L-0.5374345915811574,-1.2410913413339881 L-0.5190551830997348,-1.3339881232302035 L-0.4962419527845614,-1.4255204036551679 L-0.4690498597056698,-1.5154676733280548 L-0.4375444119970322,-1.6036132413977737 L-0.4018015090417304,-1.689744757470205 L-0.3619072586236922,-1.7736547231789 L-0.31795776948649834,-1.855140992066822 L-0.2700589197990011,-1.9340072565748656 L-0.21832610208554093,-2.010063520963962 L-0.16288394523524952,-2.0831265590314554 L-0.10386601426013886,-2.1530203555190757 L-0.04141448852528762,-2.21957653014911 L0.024320180773702127,-2.2826347432672436 L0.09317963306081123,-2.342043082114827 L0.1649979798841028,-2.3976584268000187 L0.2396022045555366,-2.4493467950861447 L0.3168125789633067,-2.4969836651666286 " />
			<path d="M-4.719291781830087,-3.27316292336753 L-3.7282405076457685,-3.8488558026273756 " />
			<path d="M-4.719291781830087,2.6015212308977107 L-3.7282405076457685,2.0258283516378652 " />
			<path d="M-2.8315750690980526,4.69407762081342 L-1.840523794913734,4.118384741553575 " />
			<path d="M2.8315750690980526,5.097062636295313 L3.822626343282371,4.521369757035467 " />
			<path d="M-3.836164189047156,-4.868227744360409 L-2.8451129148628373,-5.443920623620254 " />
			<path d="M3.836164189047156,4.868227744360409 L4.827215463231474,4.2925348651005635 " />
			<path d="M0.3168125789633218,-2.496983665166637 L1.9685647026038526,-3.4564717972663797 " />
			<path d="M2.3259908188615284,0.9618026538070498 L3.977742942502059,0.002314521707307282 " />

       </g>
    </g>
    <g transform="translate(20,210.0)" stroke="rgb(0,0,255)">
        <line x1="30" y1="-30" x2="75" y2="-33" stroke-width="3" stroke="#000000" />
         <text x="80" y="-30" style="stroke:#000000">X </text>

        <line x1="30" y1="-30" x2="30" y2="-75" stroke-width="3" stroke="#000000" />
         <text x="25" y="-85" style="stroke:#000000">Y </text>

        <line x1="30" y1="-30" x2="58" y2="-15" stroke-width="3" stroke="#000000" />
         <text x="65" y="-5" style="stroke:#000000">Z </text>
        <!--
            <line x1="0" y1="0" x2="16.699103372017724" y2="0" stroke-width="3" />
            <text x="0" y="20" style="stroke:#000000">1  mm </text>
        -->
    </g>
</svg>
