<?xml version="1.0" encoding="UTF-8" standalone="no"?>
<svg
   xmlns:svg="http://www.w3.org/2000/svg"
   xmlns="http://www.w3.org/2000/svg"
   width="800.0"
   height="240.0"

>
    <g transform="scale(7.665233089633121, -7.665233089633121)   translate(38.09183538991018,-5.0489262201973)" stroke-width="0.1304591769495509"  fill="none">
       <!-- hidden lines -->
       <g  stroke="rgb(160,160,160)" fill="none" stroke-dasharray="0.1304591769495509,0.1304591769495509" >
			<path d="M11.326300276392208,-17.79719645754281 L11.407202224547552,-17.845826630245494 L11.48305355586279,-17.894792120352616 L11.553820686641961,-17.944071248058375 L11.619472284253675,-17.993642194691784 L11.679979281003863,-18.043483012377024 L11.735314887005687,-18.093571633751022 L11.78545460204095,-18.14388588173393 L11.830376226407733,-18.19440347934817 L11.870059870749461,-18.24510205958173 L11.904487964861069,-18.29595917529129 L11.933645265468307,-18.346952309140885 L11.957518862976816,-18.398058883571572 L11.976098187187945,-18.449256270797814 L11.989375011978769,-18.5005218028261 L11.997343458944261,-18.551832781491328 L12.0,-18.603166488506584 " />
			<path d="M-12.0,-18.603166488506595 L-11.997118927284195,-18.549707659737212 L-11.988477092566779,-18.496274500763324 L-11.974078645473455,-18.44289266905434 L-11.953930499833067,-18.389587797433407 L-11.92804233035773,-18.336385481769057 L-11.896426567997231,-18.283311268684646 L-11.859098393969964,-18.230390643291372 L-11.816075732473207,-18.17764901695089 L-11.767379242076332,-18.12511171507331 L-11.713032305800978,-18.072803964956464 L-11.653061019893027,-18.020750883672296 L-11.587494181291737,-17.968977466006187 L-11.516363273802067,-17.917508572454977 L-11.439702452976825,-17.866368917289485 L-11.357548529715883,-17.815583056687245 L-11.269940952590373,-17.765175376941144 L-11.176921788900323,-17.715170082749644 L-11.078535704474826,-17.665591185594206 L-10.974829942224456,-17.61646249220947 L-10.865854299456227,-17.56780759315179 L-10.75166110396199,-17.51964985147152 L-10.632305188891713,-17.472012391494598 L-10.507843866423801,-17.42491808771872 L-10.378336900244975,-17.3783895538295 L-10.243846476853024,-17.332449131841855 L-10.104437175696182,-17.287118881371843 L-9.96017593816343,-17.2424205690441 L-9.811132035440666,-17.19837565803997 L-9.498984767475232,-17.112330313825186 L-9.168594845812267,-17.02914809748356 L-8.820596779199136,-16.948988759178256 L-8.455658892553922,-16.87200624368181 L-8.074482043457742,-16.79834839472756 L-7.67779827616857,-16.728156671078054 L-7.266369415741524,-16.661565874855643 L-6.8409856049556135,-16.59870389265713 L-6.40246378685672,-16.53969144994951 L-5.9516461358310755,-16.48464187921856 L-5.489398440222352,-16.433660902315584 L-5.016608439598507,-16.386846427420195 L-4.534184119861624,-16.34428836100919 L-4.043051969475016,-16.306068435192532 L-3.5441552001564145,-16.272260050748102 L-3.0384519354544173,-16.24292813615664 L-2.526913370686998,-16.218129022907583 L-2.0105219077758796,-16.197910337315342 L-1.4902692685588002,-16.18231090905366 L-0.9671545902030245,-16.171360696583847 L-0.44218250637782813,-16.16508072962002 L0.08363878212896522,-16.163483068741844 L0.609299443645042,-16.166570782232384 L1.1337899549797463,-16.174337940185524 L1.6561030401977899,-16.18676962589424 L2.175235605077157,-16.203841964497926 L2.6901906635360655,-16.22552216883368 L3.1999792523293644,-16.25176860240355 L3.703622330337196,-16.2825308593368 L4.200152658798347,-16.317749861193573 L4.688616658877374,-16.357357970424154 L5.168076242998052,-16.40127912026584 L5.637610616426083,-16.449428960827962 L6.096318045641171,-16.501715021084568 L6.543317590102361,-16.55803688646359 L6.977750794080733,-16.61828639169149 L7.398783335310389,-16.682347828523003 L7.805606627291506,-16.750098167957013 L8.197439372168223,-16.821407296511875 L8.573529061199112,-16.896138266106348 L8.93315341993863,-16.974147557066253 L9.275621795354033,-17.05528535375182 L9.60027648221386,-17.13939583227629 L9.906493986200708,-17.22631745976329 L10.05250360324964,-17.270780490420268 L10.193686221322427,-17.31588330456825 L10.329974047520931,-17.361604244792687 L10.461301639322217,-17.407921356868016 L10.587605936002696,-17.454812400299588 L10.70882628891852,-17.5022548590031 L10.824904490627794,-17.550225952116318 L10.935784802840544,-17.598702644938 L11.041413983183068,-17.647661659988636 L11.141741310763777,-17.69707948818781 L11.236718610528323,-17.746932400142782 L11.326300276392189,-17.7971964575428 " />

       </g>

       <!-- solid lines -->
       <g  stroke="rgb(0,0,0)" fill="none">
			<path d="M12.0,-18.603166488506595 L11.996385824354451,-18.66304077118318 L11.985545474462068,-18.722878987830725 L11.967485480144283,-18.782645094145018 L11.942216720066362,-18.842303089258408 L11.90975441518452,-18.901817037425403 L11.87011811957737,-18.961151089668988 L11.823331708667295,-19.020269505374742 L11.769423364838765,-19.079136673819622 L11.708425560462343,-19.137717135622538 L11.640375038334527,-19.19597560410377 L11.56531278954528,-19.253876986540323 L11.483284028786507,-19.311386405304496 L11.394338167116441,-19.36846921887284 L11.29852878219625,-19.42509104269292 L11.195913586016868,-19.4812177698953 L11.086554390135442,-19.53681559183822 L10.970517068442367,-19.591851018472685 L10.84787151748132,-19.646290898515595 L10.718691614346184,-19.700102439418846 L10.583055172180261,-19.753253227122347 L10.441043893304538,-19.80571124557902 L10.292743320003265,-19.85744489604007 L10.138242782996487,-19.90842301608892 L9.977635347630546,-19.958614898412236 L9.811017757819007,-20.007990309296908 L9.638490377767743,-20.05651950684168 L9.46015713151928,-20.104173258872578 L9.276125440352846,-20.150922860551265 L9.086506158077814,-20.19674015166577 L8.891413504259509,-20.241597533593147 L8.690964995417604,-20.285467985923848 L8.485281374238571,-20.328325082737805 L8.05870745816422,-20.410896573722916 L7.612719409963741,-20.489113084594283 L7.148391653909197,-20.562786184926264 L6.666842796235226,-20.631738389767154 L6.169232930318661,-20.695803587215995 L5.656760841911974,-20.754827438600685 L5.1306611211633895,-20.808667750293356 L4.592201188381084,-20.857194816267288 L4.04267824070665,-20.90029173057008 L3.4834161270535593,-20.937854668960334 L2.91576215883918,-20.969793139029342 L2.341083864193544,-20.996030198205226 L1.7607656934643372,-21.016502639114343 L1.1762056839547255,-21.03116114185336 L0.5888120919290163,-21.039970392805255 L2.238944716679575e-15,-21.04290916971288 L-0.588812091929012,-21.039970392805255 L-1.176205683954721,-21.03116114185336 L-1.760765693464333,-21.016502639114343 L-2.3410838641935396,-20.996030198205226 L-2.9157621588391756,-20.969793139029342 L-3.4834161270535553,-20.937854668960334 L-4.042678240706645,-20.900291730570082 L-4.59220118838108,-20.857194816267288 L-5.130661121163386,-20.808667750293356 L-5.6567608419119715,-20.754827438600685 L-6.169232930318659,-20.695803587215998 L-6.666842796235223,-20.631738389767154 L-7.148391653909195,-20.562786184926264 L-7.61271940996374,-20.489113084594283 L-8.058707458164212,-20.410896573722916 L-8.485281374238568,-20.328325082737805 L-8.6909649954176,-20.285467985923848 L-8.891413504259514,-20.241597533593147 L-9.086506158077817,-20.19674015166577 L-9.276125440352846,-20.150922860551265 L-9.460157131519278,-20.104173258872578 L-9.638490377767742,-20.05651950684168 L-9.811017757819005,-20.007990309296908 L-9.977635347630542,-19.95861489841224 L-10.138242782996484,-19.90842301608892 L-10.292743320003265,-19.857444896040075 L-10.441043893304537,-19.80571124557902 L-10.583055172180257,-19.753253227122347 L-10.71869161434618,-19.70010243941885 L-10.847871517481318,-19.646290898515595 L-10.970517068442366,-19.59185101847269 L-11.086554390135438,-19.536815591838224 L-11.195913586016864,-19.481217769895302 L-11.298528782196247,-19.425091042692923 L-11.394338167116436,-19.368469218872843 L-11.483284028786503,-19.3113864053045 L-11.565312789545276,-19.253876986540327 L-11.640375038334525,-19.195975604103772 L-11.708425560462342,-19.137717135622538 L-11.769423364838763,-19.079136673819622 L-11.823331708667293,-19.020269505374745 L-11.870118119577372,-18.961151089668988 L-11.90975441518452,-18.901817037425403 L-11.942216720066362,-18.842303089258408 L-11.967485480144283,-18.782645094145018 L-11.985545474462068,-18.722878987830725 L-11.996385824354451,-18.66304077118318 L-12.0,-18.603166488506616 " />
			<path d="M11.326300276392208,0.8059700309637842 L11.407202224547552,0.7573398582611013 L11.48305355586279,0.7083743681539809 L11.553820686641961,0.6590952404482214 L11.619472284253675,0.6095242938148128 L11.679979281003863,0.5596834761295725 L11.735314887005687,0.5095948547555736 L11.78545460204095,0.45928060677266613 L11.830376226407733,0.4087630091584248 L11.870059870749461,0.3580644289248671 L11.904487964861069,0.307207313215303 L11.933645265468307,0.2562141793657088 L11.957518862976816,0.20510760493502442 L11.976098187187945,0.15391021770878094 L11.989375011978769,0.10264468568049617 L11.997343458944261,0.05133370701526745 L12.0,1.1303502164519938e-14 " />
			<path d="M12.0,4.688681691762286e-16 L11.996385824354451,-0.05987428267658543 L11.985545474462068,-0.1197124993241306 L11.967485480144283,-0.17947860563842158 L11.942216720066362,-0.23913660075181437 L11.90975441518452,-0.2986505489188077 L11.87011811957737,-0.35798460116239456 L11.823331708667295,-0.4171030168681477 L11.769423364838765,-0.47597018531302576 L11.708425560462343,-0.5345506471159429 L11.640375038334527,-0.5928091155971735 L11.56531278954528,-0.6507104980337289 L11.483284028786507,-0.7082199167979014 L11.394338167116441,-0.7653027303662435 L11.29852878219625,-0.8219245541863252 L11.195913586016868,-0.8780512813887035 L11.086554390135442,-0.9336491033316267 L10.970517068442367,-0.9886845299660912 L10.84787151748132,-1.043124410008999 L10.718691614346184,-1.0969359509122514 L10.583055172180261,-1.1500867386157514 L10.441043893304538,-1.2025447570724221 L10.292743320003265,-1.2542784075334774 L10.138242782996487,-1.305256527582325 L9.977635347630546,-1.3554484099056423 L9.811017757819007,-1.4048238207903128 L9.638490377767743,-1.4533530183350853 L9.46015713151928,-1.5010067703659826 L9.276125440352846,-1.5477563720446703 L9.086506158077814,-1.593573663159177 L8.891413504259509,-1.638431045086553 L8.690964995417604,-1.6823014974172514 L8.485281374238571,-1.7251585942312109 L8.05870745816422,-1.8077300852163198 L7.612719409963741,-1.885946596087688 L7.148391653909197,-1.959619696419668 L6.666842796235226,-2.0285719012605594 L6.169232930318661,-2.092637098709401 L5.656760841911974,-2.1516609500940898 L5.1306611211633895,-2.2055012617867606 L4.592201188381084,-2.2540283277606923 L4.04267824070665,-2.2971252420634847 L3.4834161270535593,-2.334688180453738 L2.91576215883918,-2.366626650522746 L2.341083864193544,-2.392863709698632 L1.7607656934643372,-2.4133361506077473 L1.1762056839547255,-2.4279946533467665 L0.5888120919290163,-2.436803904298659 L2.238944716679575e-15,-2.439742681206282 L-0.588812091929012,-2.436803904298659 L-1.176205683954721,-2.4279946533467665 L-1.760765693464333,-2.4133361506077478 L-2.3410838641935396,-2.3928637096986325 L-2.9157621588391756,-2.366626650522746 L-3.4834161270535553,-2.3346881804537385 L-4.042678240706645,-2.297125242063485 L-4.59220118838108,-2.2540283277606927 L-5.130661121163386,-2.205501261786761 L-5.6567608419119715,-2.1516609500940898 L-6.169232930318659,-2.0926370987094014 L-6.666842796235223,-2.02857190126056 L-7.148391653909195,-1.9596196964196686 L-7.61271940996374,-1.8859465960876887 L-8.058707458164212,-1.8077300852163216 L-8.485281374238568,-1.7251585942312118 L-8.6909649954176,-1.6823014974172525 L-8.891413504259514,-1.6384310450865522 L-9.086506158077817,-1.5935736631591764 L-9.276125440352846,-1.5477563720446708 L-9.460157131519278,-1.5010067703659837 L-9.638490377767742,-1.4533530183350867 L-9.811017757819005,-1.4048238207903139 L-9.977635347630542,-1.3554484099056432 L-10.138242782996484,-1.3052565275823262 L-10.292743320003265,-1.2542784075334787 L-10.441043893304537,-1.2025447570724235 L-10.583055172180257,-1.1500867386157525 L-10.71869161434618,-1.0969359509122525 L-10.847871517481318,-1.043124410009 L-10.970517068442366,-0.9886845299660922 L-11.086554390135438,-0.9336491033316285 L-11.195913586016864,-0.8780512813887066 L-11.298528782196247,-0.8219245541863281 L-11.394338167116436,-0.7653027303662466 L-11.483284028786503,-0.7082199167979046 L-11.565312789545276,-0.650710498033732 L-11.640375038334525,-0.5928091155971766 L-11.708425560462342,-0.534550647115944 L-11.769423364838763,-0.475970185313027 L-11.823331708667293,-0.41710301686814893 L-11.870118119577372,-0.35798460116239367 L-11.90975441518452,-0.2986505489188068 L-11.942216720066362,-0.2391366007518145 L-11.967485480144283,-0.1794786056384228 L-11.985545474462068,-0.11971249932413183 L-11.996385824354451,-0.05987428267658667 L-12.0,-2.2436918466391893e-14 " />
			<path d="M-12.0,-1.7008586264798318e-16 L-11.997118927284195,0.05345882876938434 L-11.988477092566779,0.10689198774327115 L-11.974078645473455,0.16027381945225372 L-11.953930499833067,0.2135786910731893 L-11.92804233035773,0.26678100673753685 L-11.896426567997231,0.31985521982195003 L-11.859098393969964,0.37277584521522367 L-11.816075732473207,0.4255174715557039 L-11.767379242076332,0.4780547734332845 L-11.713032305800978,0.5303625235501319 L-11.653061019893027,0.5824156048342984 L-11.587494181291737,0.6341890225004071 L-11.516363273802067,0.6856579160516174 L-11.439702452976825,0.7367975712171092 L-11.357548529715883,0.7875834318193502 L-11.269940952590373,0.8379911115654519 L-11.176921788900323,0.8879964057569508 L-11.078535704474826,0.9375753029123897 L-10.974829942224456,0.9867039962971228 L-10.865854299456227,1.0353588953548047 L-10.75166110396199,1.0835166370350744 L-10.632305188891713,1.131154097011997 L-10.507843866423801,1.1782484007878744 L-10.378336900244975,1.2247769346770936 L-10.243846476853024,1.270717356664738 L-10.104437175696182,1.3160476071347516 L-9.96017593816343,1.3607459194624956 L-9.811132035440666,1.404790830466622 L-9.498984767475232,1.4908361746814083 L-9.168594845812267,1.574018391023036 L-8.820596779199136,1.6541777293283393 L-8.455658892553922,1.7311602448247845 L-8.074482043457742,1.8048180937790321 L-7.67779827616857,1.875009817428543 L-7.266369415741524,1.941600613650952 L-6.8409856049556135,2.0044625958494637 L-6.40246378685672,2.0634750385570872 L-5.9516461358310755,2.118524609288035 L-5.489398440222352,2.1695055861910113 L-5.016608439598507,2.2163200610863982 L-4.534184119861624,2.2588781274974035 L-4.043051969475016,2.297098053314062 L-3.5441552001564145,2.3309064377584923 L-3.0384519354544173,2.3602383523499575 L-2.526913370686998,2.385037465599011 L-2.0105219077758796,2.4052561511912547 L-1.4902692685588002,2.420855579452937 L-0.9671545902030245,2.431805791922748 L-0.44218250637782813,2.438085758886576 L0.08363878212896522,2.439683419764753 L0.609299443645042,2.4365957062742107 L1.1337899549797463,2.4288285483210714 L1.6561030401977899,2.416396862612354 L2.175235605077157,2.399324524008669 L2.6901906635360655,2.377644319672915 L3.1999792523293644,2.351397886103042 L3.703622330337196,2.3206356291697965 L4.200152658798347,2.285416627313024 L4.688616658877374,2.2458085180824394 L5.168076242998052,2.201887368240754 L5.637610616426083,2.1537375276786324 L6.096318045641171,2.1014514674220286 L6.543317590102361,2.0451296020430063 L6.977750794080733,1.984880096815103 L7.398783335310389,1.9208186599835932 L7.805606627291506,1.8530683205495837 L8.197439372168223,1.7817591919947195 L8.573529061199112,1.707028222400248 L8.93315341993863,1.6290189314403412 L9.275621795354033,1.5478811347547745 L9.60027648221386,1.4637706562303063 L9.906493986200708,1.3768490287433044 L10.05250360324964,1.332385998086326 L10.193686221322427,1.2872831839383474 L10.329974047520931,1.2415622437139082 L10.461301639322217,1.195245131638579 L10.587605936002696,1.1483540882070062 L10.70882628891852,1.1009116295034973 L10.824904490627794,1.0529405363902768 L10.935784802840544,1.0044638435685957 L11.041413983183068,0.9555048285179613 L11.141741310763777,0.9060870003187841 L11.236718610528323,0.856234088363812 L11.326300276392189,0.8059700309637954 " />
			<path d="M-12.000000000000002,-3.3306690738754696e-16 L-12.000000000000002,-18.603166488506595 " />
			<path d="M12.000000000000002,3.3306690738754696e-16 L12.000000000000002,-18.603166488506595 " />

       </g>
    </g>
    <g transform="translate(20,210.0)" stroke="rgb(0,0,255)">
        <line x1="30" y1="-30" x2="75" y2="-33" stroke-width="3" stroke="#000000" />
         <text x="80" y="-30" style="stroke:#000000">X </text>

        <line x1="30" y1="-30" x2="30" y2="-75" stroke-width="3" stroke="#000000" />
         <text x="25" y="-85" style="stroke:#000000">Y </text>

        <line x1="30" y1="-30" x2="58" y2="-15" stroke-width="3" stroke="#000000" />
         <text x="65" y="-5" style="stroke:#000000">Z </text>
        <!--
            <line x1="0" y1="0" x2="7.665233089633121" y2="0" stroke-width="3" />
            <text x="0" y="20" style="stroke:#000000">1  mm </text>
        -->
    </g>
</svg>
