<?xml version="1.0" encoding="UTF-8" standalone="no"?>
<svg
   xmlns:svg="http://www.w3.org/2000/svg"
   xmlns="http://www.w3.org/2000/svg"
   width="800.0"
   height="240.0"

>
    <g transform="scale(3.5568955175143233, -3.5568955175143233)   translate(79.82526827821694,-30.15825464730678)" stroke-width="0.28114404684533245"  fill="none">
       <!-- hidden lines -->
       <g  stroke="rgb(160,160,160)" fill="none" stroke-dasharray="0.28114404684533245,0.28114404684533245" >
			<path d="M23.596458909150435,1.6791042311745557 L23.59352278183049,2.06502996491462 L23.58471513056025,2.4504417918079184 L23.570038147226704,2.835243797615888 L23.549495484368716,3.219340219861097 L23.52309225426809,3.602635471658811 L23.490835027677278,3.9850341655049384 L23.452731832184213,4.366441137014309 L23.408792150214502,4.746761468603465 L23.359026916671667,5.125900513111969 L23.303448516215816,5.503763917356485 L23.24207078018162,5.880257645611696 L23.174908983136184,6.255288003012142 L23.101979839077813,6.628761658869319 L23.023301497276552,7.00058566989809 L22.93889353775749,7.370667503346732 L22.84877696642808,7.738915060024768 L22.75297420985055,8.105236697222933 L22.6515091096608,8.469541251519551 L22.544406916635126,8.831738061467602 L22.431694284406284,9.19173699015689 L22.313399262830394,9.549448447645645 L22.189551291006445,9.904783413256052 L22.060181189949986,10.2576534577281 L21.925321154922994,10.607970765226195 L21.785004747421688,10.955648155193202 L21.639266886824355,11.300599104046306 L21.488143841701273,11.642737766709445 L21.331673220788826,11.981978997976835 L21.169893963630162,12.318238373702394 L21.00284633088461,12.651432211809622 L20.83057189430834,12.981477593116907 L20.65311352640877,13.308292381972917 L20.470515389775223,13.631795246697003 L20.282822926088564,13.951905679819555 L20.09008284481248,14.268544018117234 L19.892343111569318,14.581631462438088 L19.68965293620324,14.891090097311631 L19.482062760533825,15.196842910339033 L19.269624245802994,15.49881381135856 L19.052390259818527,15.796927651381468 L18.83041486379728,16.09111024129375 L18.603753298911418,16.38128837031895 L18.372461972541018,16.66738982423749 L18.13659844423642,16.94934340335808 L17.896221411393867,17.22707894023653 L17.651390694647972,17.50052731713779 L17.40216722298464,17.769620483236686 L17.148613018578192,18.034291471553157 L16.89079118135642,18.294474415617785 L16.62876587329743,18.550104565863425 L16.36260230246218,18.801118305738893 L16.092366706766704,19.0474531675407 L15.818126337498015,19.289047847958855 L15.539949442577853,19.525842223332912 L15.257905249578375,19.75777736461446 L14.972063948494075,19.984795552032296 L14.68249667427419,20.20684028945665 L14.389275489119935,20.423856318458935 L14.092473364550958,20.63578963206344 L13.79216416324554,20.84258748818759 L13.488422620659012,21.044198422767444 L13.181324326424962,21.24057226256512 L12.870945705543853,21.43166013765499 L12.557363999363881,21.61741449358549 " />
			<path d="M-12.55736399936379,-21.617414493585542 L-12.222891566278802,-21.80769628178294 L-11.885028334731558,-21.991928314681715 L-11.543868032635766,-22.170059483778573 L-11.199505302557913,-22.342040373033868 L-10.852035675462117,-22.507823272580282 L-10.501555544208514,-22.667362191958215 L-10.14816213681256,-22.82061287287415 L-9.791953489472633,-22.967532801478534 L-9.433028419373452,-23.108081220159697 L-9.071486497272808,-23.24221913885056 L-8.707428019879297,-23.369909345845056 L-8.340953982028593,-23.491116418121116 L-7.972166048666125,-23.605806731167558 L-7.601166526643799,-23.713948468311944 L-7.228058336338677,-23.815511629546997 L-6.8529449831014375,-23.91046803985299 L-6.475930528542586,-23.998791357013904 L-6.097119561664303,-24.080457078925107 L-5.716617169846041,-24.155442550390596 L-5.334528909691821,-24.223726969407828 L-4.950960777747384,-24.28529139293851 L-4.566019181095283,-24.340118742163654 L-4.179810907836101,-24.388193807221462 L-3.7924430974639574,-24.429503251426766 L-3.404023211144535,-24.4640356149708 L-3.014659001903876,-24.49178131810032 L-2.6244584847362056,-24.51273266377514 L-2.2335299066390863,-24.526883839803418 L-1.8419817165842094,-24.534230920454025 L-1.4499225354321599,-24.534771867545594 L-1.0574611257994828,-24.528506531011953 L-0.6647063618864593,-24.515436648943755 L-0.27176719927387083,-24.495565847106285 L0.12124735530275998,-24.468899637933642 L0.5142282741931261,-24.435445418999528 L0.90706653907794,-24.395212470965024 L1.299653171212091,-24.348211955004025 L1.6918792616568634,-24.29445690970698 L2.083636001492769,-24.233962247463815 L2.4748147120046404,-24.166744750326995 L2.8653068748306136,-24.092823065356 L3.2550041620666033,-24.01221769944434 L3.6437984663179606,-23.924951013630665 L4.031581930689947,-23.83104721689551 L4.418246978708746,-23.7305323594454 L4.803686344164621,-23.62343432548616 L5.187793100869069,-23.509782825487413 L5.570460692317612,-23.38960938794056 L5.95158296125002,-23.262947350612272 L6.331054179099837,-23.12983185129619 L6.708769075324891,-22.990299818065168 L7.084622866610832,-22.844389959026966 L7.45851128593945,-22.692142751586033 L7.830330611513786,-22.533600431214573 L8.199977695531981,-22.3688069797358 L8.567349992801905,-22.197808113122804 L8.932345589188593,-22.020651268816295 L9.294863229886662,-21.837385592564797 L9.654802347509733,-21.648061924790962 L10.012063089989262,-21.45273278648773 L10.366546348274863,-21.251452364648255 L10.71815378382849,-21.04427649723373 L11.066787855904964,-20.831262657683148 L11.41235184861107,-20.612469938969355 L11.754749897735888,-20.387959037205878 L12.093887017344862,-20.157792234808994 L12.429669126130197,-19.922033383219684 L12.762003073510297,-19.680747885190414 L13.090796665471036,-19.434002676641473 L13.415958690141629,-19.181866208092064 L13.737398943098103,-18.924408425671146 L14.055028252387189,-18.661700751713443 L14.36875850326389,-18.393816064945895 L14.678502662635712,-18.120828680270094 L14.984174803206852,-17.842814328146318 L15.285690127315583,-17.559850133584835 L15.582964990458342,-17.27201459475039 L15.875916924493811,-16.97938756118573 L16.16446466052077,-16.68205021166021 L16.44852815142317,-16.380085031649713 L16.728028594076324,-16.07357579045404 L17.002888451207983,-15.762607517958152 L17.273031472908215,-15.447266481043695 L17.538382717782223,-15.127640159657394 L17.798868573740076,-14.803817222542909 L18.05441677841775,-14.475887502642907 L18.304956439223687,-14.143941972178144 L18.550418053005384,-13.808072717410557 L18.790733525330513,-13.468372913097218 L19.025836189377273,-13.124936796642423 L19.25566082442866,-12.777859641954903 L19.480143673965625,-12.427237733017545 L19.699222463353976,-12.073168337176886 L19.91283641712023,-11.715749678159817 L20.120926275811584,-11.355080908824954 L20.32343431243529,-10.991262083656276 L20.520304348472905,-10.624394131006639 L20.711481769465006,-10.254578825098857 L20.896913540162,-9.881918757792134 L21.076548219236805,-9.506517310121655 L21.250335973555394,-9.128478623619285 L21.41822859200119,-8.747907571423267 L21.580179498849514,-8.364909729184951 L21.736143766688315,-7.979591345780674 L21.886078128881646,-7.592059313836854 L22.029940991572445,-7.202421140076499 L22.16769244522122,-6.810784915495366 L22.299294275677532,-6.417259285376021 L22.424709974781095,-6.021953419148162 L22.54390475048968,-5.624976980103502 L22.656845536530867,-5.226440094973644 L22.76350100157512,-4.826453323379444 L22.863841557927497,-4.425127627160222 L22.957839369735716,-4.022574339591431 L23.04546836071218,-3.6189051344992773 L23.12670422136791,-3.2142319952808442 L23.201524415756325,-2.8086671838383888 L23.26990818772502,-2.4023232094363127 L23.331836566673832,-1.9953127974895501 L23.387292372817523,-1.5877488582919934 L23.436260221951695,-1.1797444556936174 L23.47872652972057,-0.7714127757349942 L23.514679515385513,-0.3628670952479869 L23.54410920509312,0.04577924956888957 L23.567007434642154,0.45441289459143164 L23.583367851748356,0.8629204792185394 L23.5931859178067,1.2711886778199961 L23.59645890915044,1.679104231174465 " />
			<path d="M17.29755359646203,-14.336700804592763 L17.556217324417872,-14.017790906810387 L17.809155819772286,-13.694088957692475 L18.05627197989493,-13.365719225831143 L18.29747093733937,-13.032807771771878 " />
			<path d="M12.352331223166912,17.081187325330202 L12.151563145550774,17.210685345917085 L11.949104264667016,17.33748875296214 L11.74498525277702,17.46157833591146 L11.539237033649975,17.582935295351962 " />
			<path d="M11.5392370336499,17.58293529535201 L11.332511579719768,17.701191585402043 L11.124228739906501,17.816695443879365 L10.914419880839652,17.929429476327744 L10.70311659896166,18.039376705416558 L10.49035071576954,18.14652057349753 L10.276154273022687,18.250844945098226 L10.060559527917494,18.352334109352032 L9.84359894822957,18.4509727823641 L9.625305207424162,18.54674610951311 L9.405711179735684,18.63963966768826 L9.184849935216992,18.729639467461396 L8.962754734759104,18.816731955193703 L8.739459025082287,18.90090401507689 L8.514996433699066,18.982142971108342 L8.289400763850066,19.0604365890001 L8.062705989413367,19.135773078021305 L7.834946249788141,19.20814109277381 L7.606155844753413,19.277529734900785 L7.376369229302625,19.34392855472796 L7.1456210084548415,19.4073275528373 L6.913945932043364,19.4677171815729 L6.681378889482532,19.525088346478793 L6.447954904513506,19.57943240766857 L6.21370912992982,19.630741181126513 L5.9786768422835035,19.67900693994007 L5.742893436572562,19.724222415463494 L5.506394420910614,19.766380798412495 L5.269215411179505,19.80547573988966 L5.03139212566569,19.84150135234061 L4.792960379681183,19.87445221044063 L4.5539560801699,19.904323351911682 L4.31441522030024,19.93111027826975 L4.074373874044585,19.954808955502227 L3.8338681907467356,19.975415814675518 L3.592934389677965,19.992927752472426 L3.351608754582478,20.00734213165952 L3.1099276282132546,20.018656781484324 L2.867927406858958,20.026869998002194 L2.6256445348627686,20.03198054433293 L2.3831154991340293,20.03398765084705 L2.1403768236534297,20.032891015281702 L1.8974650639726287,20.028690802786166 L1.654416801709136,20.02138764589699 L1.4112686390372533,20.01098264444274 L1.1680571931758996,19.997477365378373 L0.9248190908742304,19.980873842549226 L0.681590962895742,19.961174576384767 L0.4384094385018502,19.938382533522024 L0.19531113993563687,19.91250114635882 L-0.04766732309331956,19.883534312536856 L-0.2904893589222366,19.851486394354758 L-0.5331183994456816,19.816362218111127 L-0.7755179056226209,19.778167073377702 L-1.0176513729790277,19.736906712202792 L-1.2594823371053712,19.69258734824502 L-1.5009743791479584,19.64521565583758 L-1.7420911312935432,19.594798768983104 L-1.9827962822461627,19.541344280279297 L-2.223053582695444,19.484860239775543 L-2.4628268507756843,19.42535515376058 L-2.7020799775146704,19.362837983481477 L-2.940776932271553,19.297318143794126 L-3.178881768162947,19.228805501745384 L-3.416358627476381,19.157310375087132 L-3.653171747070351,19.082843530722467 L-3.8892854637601193,19.005416183084236 L-4.124664219688449,18.925039992446195 L-4.359272567680472,18.84172706316701 L-4.593075176581948,18.755489941867378 L-4.82603683657998,18.666341615540563 L-5.05812246450546,18.574295509596595 L-5.2892971091164895,18.47936548584046 L-5.519525956361928,18.38156584038456 L-5.74877433462425,18.28091130149575 L-5.977007719940913,18.177417027377363 L-6.2041917412035765,18.071098603886398 L-6.430292185334309,17.961972042186368 L-6.655275002437902,17.850053776336043 L-6.87910631092963,17.735360660814614 L-7.101752402637739,17.6179099679834 L-7.323179747879795,17.49771938548473 L-7.543355000512085,17.374807013578206 L-7.762245002951417,17.249191362414955 L-7.979816791168558,17.120891349249987 L-8.1960375996525,16.98992629559337 L-8.410874866344823,16.856315924300432 L-8.624296237543387,16.720080356601642 L-8.836269572774698,16.581240109072393 L-9.046762949634182,16.439816090543264 L-9.255744668593557,16.295829598951233 L-9.463183257774629,16.14930231813232 L-9.669047477688869,16.000256314556058 L-9.873306325942,15.848714034002338 L-10.075929041902818,15.694698298181187 L-10.276885111335584,15.53823230129592 L-10.4761442709954,15.379339606550143 L-10.673676513185779,15.21804414259923 L-10.869452090277631,15.054370199946739 L-11.063441519189158,14.88834242728641 L-11.255615585825895,14.719985827790119 L-11.4459453494803,14.549325755342478 L-11.634402147190055,14.376387910722642 L-11.820957598054628,14.20119833773391 L-12.005583607509298,14.023783419281589 L-12.188252371556166,13.844169873399803 L-12.368936380951283,13.662384749227876 L-12.547608425347434,13.478455422936864 L-12.724241597391927,13.292409593606777 L-12.89880929677879,13.104275279055152 L-13.071285234254585,12.914080811617762 L-13.241643435577533,12.721854833881824 L-13.40985824542917,12.5276262943725 L-13.575904331277865,12.331424443193423 L-13.739756687193836,12.133278827621709 L-13.901390637615005,11.933219287658194 L-14.060781841062965,11.731275951533735 L-14.217906293808753,11.527479231171965 L-14.372740333487753,11.321859817609313 L-14.5252606426631,11.11444867637315 L-14.675444252337245,10.905277042818447 L-14.823268545410997,10.694376417423802 L-14.968711260089565,10.481778561047635 L-15.111750493235093,10.267515490145136 L-15.252364703665194,10.051619471946672 L-15.390532715397015,9.834123019598445 L-15.526233720836213,9.615058887266148 L-15.65944728391051,9.394460065202338 L-15.790153343147296,9.172359774778219 L-15.918332214694832,8.948791463480553 L-16.04396459528656,8.723788799874665 L-16.167031565148054,8.497385668534077 L-16.287514590846325,8.269616164937617 L-16.405395528080877,8.040514590334702 L-16.520656624416183,7.810115446579751 L-16.633280521955083,7.578453430936358 L-16.74325025995286,7.345563430851971 L-16.85054927737149,7.111480518703955 L-16.955161415373624,6.876239946517833 L-17.057070919756068,6.639877140658511 L-17.15626244332231,6.4024276964951605 L-17.252721048193767,6.163927373040627 L-17.346432208059344,5.924412087566372 L-17.437381810363053,5.683917910193392 L-17.52555615842934,5.44248105846016 L-17.61094197352571,5.200137891868494 L-17.693526396862474,4.956924906407888 L-17.773296991529264,4.712878729059309 L-17.85024174436794,4.468036112279415 L-17.924349067781733,4.222433928465705 L-17.995607801480343,3.9761091644036313 L-18.064007214160583,3.729098915696624 L-18.129537005122483,3.481440381179585 L-18.192187305820568,3.233170857316833 L-18.25194868135001,2.9843277325854345 L-18.308812131867462,2.7349484818446763 L-18.362769093946437,2.4850706606924513 L-18.41381144186692,2.234731899809483 L-18.461931488839056,1.9839698992923227 L-18.507121988160783,1.7328224229758933 L-18.549376134309114,1.4813272927463503 L-18.588687563965067,1.2295223828452209 L-18.62505035697194,0.9774456141657002 L-18.658459037226848,0.7251349485419649 L-18.688908573505437,0.4726283830322002 L-18.71639438021954,0.2199639441963639 L-18.740912318107778,-0.0328203176304489 L-18.762458694858882,-0.28568633406820054 L-18.78103026566777,-0.5385960244249117 L-18.796624233724184,-0.7915113014315052 L-18.8092382506339,-1.0443940769775837 L-18.81887041677237,-1.297206267847306 L-18.8255192815708,-1.549909801454621 L-18.829183843734604,-1.8024666215769043 L-18.829863551394205,-2.054838694086042 L-18.82755830218813,-2.306988012676193 L-18.82226844327843,-2.5588766045874376 L-18.813994771298397,-2.8104665363243715 L-18.802738532232596,-3.06171991936871 L-18.78850142122923,-3.312598915885137 L-18.771285582344852,-3.5630657444195615 L-18.751093608221467,-3.8130826855889133 L-18.7279285396961,-4.062612087761505 L-18.70179386534288,-4.311616372727196 L-18.67269352094762,-4.560058041356557 L-18.640631888915156,-4.807899679248153 L-18.60561379760933,-5.055103962362968 L-18.56764452062589,-5.301633662645241 L-18.526729775998295,-5.547451653628889 L-18.482875725336577,-5.792520916028705 L-18.436088972899466,-6.036804543315183 L-18.386376564599782,-6.280265747272584 L-18.333745986943363,-6.522867863539149 L-18.2782051659016,-6.764574357128512 L-18.219762465717864,-7.005348827931781 L-18.15842668764782,-7.245155016199335 L-18.094207068634038,-7.483956808001276 L-18.027113279914936,-7.721718240666117 L-17.95715542556828,-7.9584035081967 L-17.884344040989625,-8.193976966662307 L-17.808690091305678,-8.428403139566587 L-17.730204969722962,-8.661646723190202 L-17.648900495812107,-8.893672591907414 L-17.564788913727817,-9.124445803475833 L-17.47788289036498,-9.353931604298635 L-17.38819551345104,-9.582095434658346 L-17.295740289575058,-9.808902933921381 L-17.200531142153686,-10.034319945712603 L-17.102582409334314,-10.258312523059164 L-17.001908841835817,-10.480846933502843 L-16.898525600727154,-10.701889664179987 L-16.79244825514416,-10.921407426868404 L-16.683692779944913,-11.139367163000465 L-16.572275553303932,-11.355736048641639 L-16.458213354245714,-11.570481499433637 L-16.341523360117897,-11.783571175501448 L-16.222223144004374,-11.994972986323646 L-16.100330672078883,-12.204655095565132 L-15.97586430089931,-12.41258592587154 L-15.848842774643355,-12.618734163624644 L-15.719285222285656,-12.8230687636581 L-15.587211154717032,-13.025558953932752 L-15.45264046180625,-13.226174240170778 L-15.31559340940468,-13.42488441044798 L-15.176090636294326,-13.621659539743613 L-15.034153151079671,-13.81646999444701 L-14.889802329023897,-14.009286436820279 L-14.743059908829853,-14.200079829416428 L-14.593947989366264,-14.388821439452292 L-14.442489026339722,-14.57548284313568 L-14.288705828912928,-14.76003592994579 L-14.132621556269768,-14.942452906866581 L-13.974259714127601,-15.122706302572308 L-13.81364415119733,-15.300768971564594 L-13.650799055591936,-15.476614098260484 L-13.485748951183837,-15.650215201030687 L-13.318518693911665,-15.821546136187669 L-13.149133468037018,-15.990581101922825 L-12.977618782351879,-16.15729464219206 L-12.80400046633705,-16.321661650549427 L-12.62830466627227,-16.48365737392807 L-12.450557841298785,-16.643257416367913 L-12.270786759434648,-16.8004377426896 L-12.089018493543508,-16.95517468211417 L-11.905280417257625,-17.107444931827693 L-11.719600200855464,-17.25722556049066 L-11.532005807094592,-17.404494011691334 L-11.342525487000708,-17.549228107342667 L-11.151187775613066,-17.69140605102221 L-10.958021487687187,-17.83100643125462 L-10.763055713355499,-17.968008224736145 L-10.566319813746492,-18.102390799500608 L-10.367843416563009,-18.234133918026533 L-10.167656411620396,-18.363217740284867 L-9.965788946345242,-18.4896228267268 L-9.762271421235301,-18.613330141211257 L-9.557134485281422,-18.734321053871614 " />
			<path d="M-9.557134485281269,-18.734321053871703 L-9.349788229508954,-18.852927004379406 L-9.14087534978387,-18.968763977304533 L-8.930427496139975,-19.081814423493913 L-8.71847655115781,-19.192061215949604 " />
			<path d="M14.628179939331169,-14.526651195858287 L14.897982576151318,-14.237030393168677 L15.162802943288172,-13.942515306740194 L15.422546166721123,-13.643211448964777 L15.677119191357043,-13.339226047850136 L15.926430814367984,-13.03066800860441 L16.17039171786533,-12.717647874620042 L16.408914500898643,-12.400277787870685 L16.641913710767767,-12.078671448735484 L16.869305873636932,-11.752944075264958 L17.09100952443993,-11.42321236190324 L17.30694523606562,-11.089594437681347 L17.517035647813344,-10.752209823896505 L17.72120549310801,-10.411179391292691 L17.91938162646493,-10.066625316757712 L18.111493049694808,-9.71867103955236 L18.297470937339373,-9.36744121708735 " />
			<path d="M10.429634837844503,9.887089070318709 L10.429634837844503,-9.695191443898757 " />
			<path d="M10.429634837844503,-9.695191443898757 L-8.447532289475845,-11.038474828838398 " />
			<path d="M10.429634837844503,-9.695191443898757 L18.29747093733939,-14.26554752501143 " />
			<path d="M1.1192488514778725,-12.903074377429796 L5.083453948215148,-12.620984866592472 " />
			<path d="M5.083453948215148,-15.205845894469178 L1.1192488514778738,-12.903074377429796 " />
			<path d="M1.1192488514778738,2.762750033944177 L5.083453948215148,0.45997851690479497 " />
			<path d="M1.1192488514778725,6.67920613678767 L1.1192488514778725,2.7627500339441764 " />
			<path d="M1.119248851477872,2.762750033944177 L5.083453948215148,3.0448395447815013 " />
			<path d="M1.1192488514778725,-8.986618274586304 L1.1192488514778725,-12.903074377429796 " />
			<path d="M3.1957372354831124,-8.838857102242942 L1.1192488514778718,-8.986618274586304 " />
			<path d="M3.1957372354831124,-10.192831926368836 L1.1192488514778738,-8.986618274586302 " />
			<path d="M-4.732672957991436,-6.8181750960408865 L3.1957372354831124,-6.2539960743662375 " />
			<path d="M3.1957372354831124,-11.42371813011965 L-4.7326729579914355,-6.818175096040886 " />
			<path d="M14.522037511875322,1.1316202093746144 L6.593627318400774,5.737163243453378 " />
			<path d="M6.593627318400773,3.1523022155766736 L6.593627318400773,5.737163243453377 " />
			<path d="M3.1957372354831124,0.32565017841083055 L-4.7326729579914355,4.931193212489594 " />
			<path d="M6.593627318400773,5.737163243453377 L-4.7326729579914355,4.931193212489593 " />
			<path d="M-4.732672957991436,4.931193212489593 L-4.732672957991436,-6.8181750960408865 " />
			<path d="M-9.557134485281269,-18.7343210538717 L-7.905382361640738,-19.693809185971443 " />
			<path d="M11.539237033649899,17.582935295352012 L13.19098915729043,16.62344716325227 " />

       </g>

       <!-- solid lines -->
       <g  stroke="rgb(0,0,0)" fill="none">
			<path d="M12.557363999363792,21.617414493585542 L12.311262268494586,21.758195791264157 L12.063306506812125,21.89570038468954 L11.81353405554207,22.029907566175705 L11.561982529496838,22.160797124614767 L11.308689811410982,22.288349348520686 L11.053694046236155,22.41254502899771 L10.797033635396641,22.53336546263319 L10.538747231006257,22.650792454314228 L10.278873730047437,22.764808319967802 L10.017452268513535,22.87539588922394 L9.754522215515092,22.982538508001483 L9.490123167350939,23.086220041016134 L9.224294941545201,23.1864248742104 L8.957077570850894,23.283137917104987 L8.688511297221135,23.376344605071367 L8.418636565748871,23.46603090152518 L8.147494018575983,23.552183300040063 L7.875124488772736,23.634788826381705 L7.601568994188464,23.713835040461678 L7.326868731274437,23.789310038210893 L7.0510650688798195,23.861202453372318 L6.774199542021685,23.929501459212663 L6.496313845629986,23.994196770152875 L6.2174498282684585,24.055278643317095 L5.9376494858323685,24.1127378799999 L5.656954955224102,24.1665658270516 L5.375408508007499,24.21675437818136 L5.0930525440418934,24.263295975177986 L4.809929585096874,24.306183609048166 L4.5260822684486515,24.345410821071994 L4.2415533404590295,24.380971703775632 L3.9563856501380057,24.41286090182094 L3.6706221426907994,24.441073612811994 L3.3843058530505026,24.465605588018295 L3.097479899397202,24.486453133014606 L2.8101874766644794,24.503613108237342 L2.522471850034453,24.51708292945735 L2.2343763484221917,24.526860568169095 L1.9459443579505393,24.53294455189616 L1.6572193154163255,24.535333964412978 L1.3682447017489459,24.534028445882797 L1.0790640354622774,24.52902819291192 L0.7897208661009802,24.520333958520048 L0.5002587676820678,24.507947052026893 L0.2107213321328416,24.491869338855025 L-0.07884783727391032,24.4721032402489 L-0.36840513248639795,24.448651732910257 L-0.657906947241031,24.421518348549853 L-0.9473096836293813,24.39070717335556 L-1.2365697586638529,24.356222847377026 L-1.5256436108411329,24.31807056382691 L-1.8144877067023781,24.27625606829878 L-2.1030585473892067,24.230785657901848 L-2.3913126751944542,24.181666180312668 L-2.679206680106768,24.128905032743887 L-2.9666972063479413,24.07251016083027 L-3.2537409589022133,24.012490057432082 L-3.5402947100362816,23.948853761356126 L-3.826315305809233,23.881610855994516 L-4.111759672571429,23.810771467881466 L-4.396584823451173,23.736346265168244 L-4.680747864828415,23.658346456016638 L-4.964206002794359,23.576783786910994 L-5.246916549596067,23.491670540889267 L-5.528836930065079,23.403019535693232 L-5.8099246880290885,23.310844121838194 L-6.09013749270567,23.215158180602433 L-6.369433145077128,23.115976121936733 L-6.647769584245552,23.013312882294315 L-6.925104893767017,22.907183922381442 L-7.201397307964017,22.7976052248291 L-7.4766052182152425,22.684593291786083 L-7.750687179221718,22.56816514243382 L-8.023601915248289,22.44833831042333 L-8.295308326339555,22.325130841234774 L-8.565765494509394,22.198561289459818 L-8.834932689903123,22.068648716007395 L-9.102769376931207,21.935412685233203 L-9.369235220373744,21.798873261993403 L-9.634290091454828,21.65905100862291 L-9.897894073885846,21.51596698183878 L-10.160007469876668,21.369642729569115 L-10.42059080611397,21.2201002877081 L-10.6796048397058,21.067362176797428 L-10.937010564091446,20.91145139863478 L-11.19276921491564,20.75239143280985 L-11.44684227586631,20.590206233168438 L-11.699191484475012,20.424920224205046 L-11.949778837879162,20.256558297384657 L-12.198566598545085,20.08514580739414 L-12.445517299951124,19.910708568324008 L-12.690593752229983,19.73327284978084 L-12.93375904776942,19.552865372931173 L-13.174976566770393,19.369513306477423 L-13.414209982761783,19.18324426256639 L-13.651423268071095,18.994086292630943 L-13.88658069925011,18.802067883165563 L-14.119646862454697,18.60721795143641 L-14.350586658777944,18.409565841126497 L-14.579365309535962,18.20914131791663 L-14.805948361505493,18.005974565002766 L-15.03030169211235,17.800096178550582 L-15.25239151457017,17.591537163087807 L-15.472184382968585,17.38032892683504 L-15.689647197310093,17.166503276975774 L-15.904747208494758,16.95009241486634 L-16.117452023252085,16.731128931186564 L-16.327729609019336,16.509645801031695 L-16.535548298765598,16.285676378946427 L-16.74087679576059,16.059254393901913 L-16.943684178287917,15.830413944216279 L-17.14393990430177,15.599189492419463 L-17.341613816026403,15.365615860063416 L-17.5366761444978,15.12972822247804 L-17.729097514046813,14.89156210347386 L-17.918848946722953,14.651153369992361 L-18.105901866658417,14.40853822670454 L-18.29022810437151,14.163753210558525 L-18.471799901008833,13.916835185277378 L-18.650589912525668,13.667821335807492 L-18.82657121380394,13.41674916271863 L-18.999717302706998,13.163656476556527 L-19.170002104070722,12.90858139214879 L-19.33739997363037,12.651562322864907 L-19.501885701882532,12.392637974831299 L-19.66343451788158,12.131847341102374 L-19.82202209297003,11.869229695788318 L-19.977624544442396,11.604824588140554 L-20.130218439141846,11.338671836595715 L-20.279780796989137,11.070811522779179 L-20.426289094443295,10.801283985468958 L-20.569721267893616,10.53012981452079 L-20.710055716982374,10.257389844755416 L-20.847271307857735,9.983105149809045 L-20.981347376356425,9.707317035947863 L-21.112263731115686,9.430067035847403 L-21.240000656614054,9.15139690233786 L-21.364538916140404,8.871348602116285 L-21.485859754690935,8.589964309426618 L-21.6039449017936,8.307286399708342 L-21.718776574259618,8.02335744321485 L-21.830337478861498,7.738220198602638 L-21.93861081493734,7.45191760649195 L-22.043580276921016,7.164492783000011 L-22.145230056797644,6.8759890132480255 L-22.243544846484273,6.586449744842541 L-22.338509840135217,6.29591858133233 L-22.43011073637173,6.00443927564198 L-22.518333740435768,5.712055723482798 L-22.603165566267453,5.4188119567422355 L-22.68459343850583,5.124752136852943 L-22.762605094412855,4.82992054814218 L-22.837188785720098,4.534361591162713 L-22.908333280398008,4.238119776006285 L-22.976027864347355,3.9412397156006245 L-23.0402623430128,3.6437661189908326 L-23.101027042918137,3.3457437846063467 L-23.158312813123064,3.047217593514489 L-23.212111026601313,2.7482325026615957 L-23.262413581539796,2.448833538102617 L-23.30921290255879,2.1490657882203195 L-23.35250194185268,1.8489743969351764 L-23.392274180251384,1.5486045569069162 L-23.42852362820208,1.248001502728627 L-23.46124482667126,0.9472105041145351 L-23.49043284796678,0.6462768590826169 L-23.516083296479998,0.34524588713291493 L-23.538192309347718,0.044162922422543716 L-23.55675655703393,-0.2569266930614962 L-23.57177324383121,-0.5579776163306391 L-23.583240108281768,-0.8589445102231661 L-23.591155423517993,-1.1597820502318736 L-23.595517997522524,-1.46044493132983 L-23.596327173307763,-1.760887874793088 L-23.593582829014814,-2.0610656350194603 L-23.587285377931835,-2.3609330063423695 L-23.577435768431798,-2.6604448298387187 L-23.56403548382966,-2.9595560001295986 L-23.547086542158983,-3.2582214721729645 L-23.526591495868058,-3.556396268047278 L-23.502553431435455,-3.8540354837250774 L-23.47497596890526,-4.151094295835307 L-23.443863261341896,-4.44752796841351 L-23.40921999420469,-4.743291859638939 L-23.37105138464223,-5.0383414285575086 L-23.32936318070672,-5.332632241789431 L-23.284161660488344,-5.626119980220707 L-23.235453631169776,-5.918760445677432 L-23.183246428001063,-6.210509567581974 L-23.127547913194974,-6.501323409589684 L-23.068366474742973,-6.791158176205641 L-23.005711025151996,-7.079970219380122 L-22.939591000102283,-7.367716045081744 L-22.8700163570264,-7.654352319847543 L-22.796997573609687,-7.939835877308914 L-22.720545646212326,-8.224123724692173 L-22.640672088213392,-8.50717304929318 L-22.5573889282769,-8.788941224924827 L-22.470708708540407,-9.069385818336261 L-22.38064448272618,-9.34846459560326 L-22.28720981417533,-9.626135528488518 L-22.190418773805263,-9.902356800770914 L-22.090285937990636,-10.177086814542841 L-21.986826386368215,-10.450284196474747 L-21.8800556995659,-10.721907804045834 L-21.769989956856403,-10.991916731739925 L-21.656645733735715,-11.260270317205661 L-21.540040099426935,-11.526928147380138 L-21.420190614309682,-11.791850064574996 L-21.297115327275556,-12.054996172523976 L-21.17083277301009,-12.316326842391138 L-21.04136196920146,-12.575802718738831 L-20.908722413676482,-12.833384725454511 L-20.77293408146432,-13.089034071635464 L-20.634017421788343,-13.342712257430476 L-20.49199335498654,-13.594381079837854 L-20.34688326936095,-13.84400263845867 L-20.198709017956702,-14.091539341204397 L-20.047492915271036,-14.336953909958094 L-19.89325773389282,-14.580209386188397 L-19.736026701073033,-14.821269136515365 L-19.575823495226864,-15.0600968582273 L-19.41267224236785,-15.296656584747776 L-19.246597512474573,-15.530912691052098 L-19.07762431579046,-15.762829899032333 L-18.905778099057397,-15.99237328281004 L-18.731084741683535,-16.219508273995928 L-18.55357055184593,-16.444200666895767 L-18.373262262528613,-16.666416623661704 L-18.190187027496716,-16.886122679388027 L-18.004372417207247,-17.103285747150878 L-17.815846414657045,-17.317873122991024 L-17.624637411168624,-17.529852490838987 L-17.430774202114584,-17.73919192738171 L-17.234285982581135,-17.945859906870048 L-17.035202342971402,-18.14982530586645 L-16.833553264549206,-18.351057407932117 L-16.629369114924042,-18.549525908252637 L-16.422680643477815,-18.74520091820188 L-16.21351897673403,-18.938052969843124 L-16.00191561367036,-19.128053020366742 L-15.787902420974955,-19.31517245646399 L-15.571511628247407,-19.49938309863609 L-15.352775823145166,-19.680657205437914 L-15.131727946475927,-19.858967477655728 L-14.908401287236794,-20.03428706241844 L-14.682829477601217,-20.20658955724145 L-14.455046487854023,-20.375849014002814 L-14.225086621275594,-20.54203994285092 L-13.992984508975967,-20.705137316043214 L-13.75877510467953,-20.865116571715188 L-13.5224936794611,-21.02195361757938 L-13.28417581643418,-21.175624834553595 L-13.04385740539233,-21.3261070803178 L-12.801574637404304,-21.4733776927993 L-12.557363999363973,-21.617414493585436 " />
			<path d="M26.239262306975284,0.14392321981496803 L26.23632617965534,0.5298489535550326 L26.2275185283851,0.9152607804483308 L26.212841545051553,1.3000627862563006 L26.192298882193565,1.6841592085015096 L26.16589565209294,2.0674544602992233 L26.133638425502127,2.4498531541453508 L26.095535230009062,2.8312601256547216 L26.05159554803935,3.211580457243877 L26.001830314496516,3.590719501752381 L25.946251914040666,3.9685829059968976 L25.88487417800647,4.345076634252108 L25.817712380961034,4.720106991652554 L25.744783236902663,5.093580647509731 L25.6661048951014,5.465404658538502 L25.58169693558234,5.835486491987145 L25.49158036425293,6.20373404866518 L25.3957776076754,6.570055685863346 L25.29431250748565,6.934360240159964 L25.187210314459975,7.296557050108015 L25.074497682231133,7.656555978797303 L24.956202660655244,8.014267436286058 L24.832354688831295,8.369602401896465 L24.702984587774836,8.722472446368513 L24.568124552747843,9.072789753866608 L24.427808145246537,9.420467143833616 L24.282070284649205,9.76541809268672 L24.130947239526122,10.107556755349858 L23.974476618613675,10.446797986617248 L23.81269736145501,10.783057362342806 L23.645649728709458,11.116251200450034 L23.473375292133188,11.44629658175732 L23.29591692423362,11.773111370613329 L23.113318787600072,12.096614235337416 L22.925626323913413,12.416724668459967 L22.732886242637328,12.733363006757646 L22.535146509394167,13.046450451078499 L22.33245633402809,13.355909085952042 L22.124866158358675,13.661661898979446 L21.912427643627844,13.963632799998972 L21.695193657643376,14.26174664002188 L21.47321826162213,14.555929229934165 L21.246556696736267,14.846107358959362 L21.015265370365867,15.132208812877902 L20.77940184206127,15.414162391998492 L20.539024809218716,15.691897928876944 L20.29419409247282,15.965346305778205 L20.04497062080949,16.2344394718771 L19.79141641640304,16.49911046019357 L19.53359457918127,16.759293404258198 L19.271569271122278,17.014923554503838 L19.005405700287028,17.265937294379306 L18.735170104591553,17.512272156181112 L18.460929735322864,17.75386683659927 L18.182752840402703,17.990661211973325 L17.900708647403224,18.222596353254872 L17.614867346318924,18.44961454067271 L17.32530007209904,18.671659278097064 L17.032078886944785,18.888675307099348 L16.735276762375808,19.100608620703852 L16.434967561070387,19.307406476828003 L16.13122601848386,19.509017411407857 L15.824127724249811,19.705391251205533 L15.513749103368703,19.896479126295404 L15.20016739718873,20.082233482225902 " />
			<path d="M15.200167397188642,20.082233482225956 L14.954065666319435,20.22301477990457 L14.706109904636975,20.360519373329954 L14.456337453366919,20.49472655481612 L14.204785927321687,20.62561611325518 L13.951493209235831,20.7531683371611 L13.696497444061004,20.877364017638122 L13.43983703322149,20.998184451273602 L13.181550628831106,21.11561144295464 L12.921677127872286,21.229627308608215 L12.660255666338385,21.340214877864355 L12.397325613339941,21.447357496641896 L12.132926565175788,21.551039029656547 L11.86709833937005,21.651243862850812 L11.599880968675743,21.7479569057454 L11.331314695045984,21.84116359371178 L11.06143996357372,21.930849890165593 L10.790297416400833,22.017002288680477 L10.517927886597585,22.099607815022118 L10.244372392013315,22.17865402910209 L9.969672129099287,22.254129026851306 L9.693868466704668,22.32602144201273 L9.417002939846533,22.394320447853076 L9.139117243454836,22.45901575879329 L8.860253226093308,22.52009763195751 L8.580452883657218,22.577556868640315 L8.29975835304895,22.631384815692012 L8.018211905832349,22.681573366821773 L7.735855941866743,22.7281149638184 L7.452732982921724,22.77100259768858 L7.168885666273501,22.810229809712407 L6.884356738283879,22.845790692416045 L6.599189047962855,22.877679890461355 L6.313425540515649,22.905892601452408 L6.027109250875352,22.93042457665871 L5.740283297222051,22.95127212165502 L5.452990874489329,22.968432096877756 L5.165275247859302,22.981901918097762 L4.877179746247041,22.99167955680951 L4.588747755775389,22.997763540536575 L4.300022713241175,23.00015295305339 L4.011048099573795,22.99884743452321 L3.7218674332871267,22.993847181552333 L3.4325242639258295,22.98515294716046 L3.143062165506917,22.972766040667306 L2.853524729957691,22.95668832749544 L2.563955560550939,22.936922228889312 L2.2743982653384514,22.91347072155067 L1.9848964505838183,22.886337337190266 L1.695493714195468,22.85552616199597 L1.4062336391609964,22.82104183601744 L1.1171597869837164,22.782889552467324 L0.8283156911224712,22.74107505693919 L0.5397448504356426,22.69560464654226 L0.25149072263039507,22.64648516895308 L-0.03640328228191869,22.5937240213843 L-0.323893808523092,22.537329149470683 L-0.610937561077364,22.477309046072495 L-0.8974913122114323,22.41367274999654 L-1.1835119079843839,22.34642984463493 L-1.4689562747465796,22.27559045652188 L-1.7537814256263236,22.201165253808657 L-2.037944467003566,22.12316544465705 L-2.32140260496951,22.041602775551407 L-2.6041131517712177,21.95648952952968 L-2.88603353224023,21.867838524333646 L-3.167121290204239,21.775663110478607 L-3.447334094880821,21.679977169242846 L-3.7266297472522787,21.580795110577146 L-4.0049661864207025,21.478131870934728 L-4.282301495942168,21.372002911021855 L-4.558593910139168,21.26242421346951 L-4.833801820390393,21.149412280426496 L-5.107883781396868,21.032984131074233 L-5.38079851742344,20.913157299063744 L-5.6525049285147055,20.789949829875187 L-5.922962096684545,20.66338027810023 L-6.192129292078274,20.53346770464781 L-6.459965979106357,20.400231673873616 L-6.726431822548895,20.263692250633817 L-6.991486693629978,20.123869997263323 L-7.255090676060997,19.980785970479193 L-7.517204072051818,19.83446171820953 L-7.77778740828912,19.684919276348513 L-8.03680144188095,19.53218116543784 L-8.294207166266597,19.376270387275195 L-8.54996581709079,19.217210421450265 L-8.80403887804146,19.05502522180885 L-9.056388086650163,18.88973921284546 L-9.306975440054313,18.72137728602507 L-9.555763200720236,18.549964796034555 L-9.802713902126275,18.37552755696442 L-10.047790354405134,18.198091838421252 L-10.290955649944571,18.017684361571586 L-10.532173168945544,17.834332295117836 L-10.771406584936933,17.648063251206803 L-11.008619870246246,17.458905281271356 L-11.243777301425261,17.266886871805976 L-11.476843464629848,17.072036940076824 L-11.707783260953095,16.87438482976691 L-11.936561911711113,16.673960306557042 L-12.163144963680644,16.47079355364318 L-12.3874982942875,16.264915167190996 L-12.609588116745321,16.05635615172822 L-12.829380985143736,15.845147915475454 L-13.046843799485243,15.631322265616188 L-13.261943810669909,15.414911403506753 L-13.474648625427236,15.195947919826978 L-13.684926211194487,14.974464789672108 L-13.892744900940748,14.75049536758684 L-14.098073397935742,14.524073382542326 L-14.300880780463068,14.295232932856692 L-14.501136506476922,14.064008481059876 L-14.698810418201553,13.830434848703828 L-14.893872746672951,13.594547211118453 L-15.086294116221964,13.356381092114272 L-15.276045548898104,13.115972358632774 L-15.463098468833568,12.873357215344953 L-15.647424706546662,12.628572199198938 L-15.828996503183983,12.381654173917791 L-16.00778651470082,12.132640324447905 L-16.183767815979092,11.881568151359044 L-16.35691390488215,11.628475465196939 L-16.527198706245873,11.373400380789203 L-16.69459657580552,11.116381311505318 L-16.859082304057683,10.857456963471712 L-17.02063112005673,10.596666329742785 L-17.17921869514518,10.33404868442873 L-17.334821146617546,10.069643576780965 L-17.487415041316996,9.803490825236128 L-17.636977399164287,9.53563051141959 L-17.783485696618445,9.26610297410937 L-17.926917870068767,8.994948803161204 L-18.067252319157525,8.722208833395829 L-18.204467910032886,8.447924138449459 L-18.338543978531575,8.172136024588276 L-18.469460333290836,7.894886024487815 L-18.597197258789205,7.616215890978272 L-18.721735518315555,7.336167590756697 L-18.843056356866086,7.05478329806703 L-18.96114150396875,6.772105388348755 L-19.07597317643477,6.488176431855263 L-19.18753408103665,6.203039187243051 L-19.295807417112492,5.916736595132362 L-19.400776879096167,5.629311771640423 L-19.502426658972794,5.340808001888438 L-19.600741448659424,5.051268733482954 L-19.695706442310367,4.7607375699727426 L-19.78730733854688,4.469258264282392 L-19.87553034261092,4.176874712123211 L-19.960362168442604,3.883630945382648 L-20.04179004068098,3.5895711254933556 L-20.119801696588006,3.2947395367825925 L-20.19438538789525,2.9991805798031255 L-20.26552988257316,2.7029387646466976 L-20.333224466522505,2.406058704241037 L-20.39745894518795,2.108585107631245 L-20.458223645093288,1.810562773246759 L-20.515509415298215,1.5120365821549013 L-20.569307628776464,1.213051491302008 L-20.619610183714947,0.9136525267430295 L-20.66640950473394,0.6138847768607318 L-20.70969854402783,0.3137933855755888 L-20.749470782426535,0.013423545547328608 L-20.78572023037723,-0.28717950863096053 L-20.81844142884641,-0.5879705072450525 L-20.84762945014193,-0.8889041522769707 L-20.87327989865515,-1.1899351242266727 L-20.89538891152287,-1.491018088937044 L-20.91395315920908,-1.7921077044210838 L-20.92896984600636,-2.0931586276902268 L-20.94043671045692,-2.3941255215827537 L-20.948352025693143,-2.6949630615914613 L-20.952714599697675,-2.9956259426894176 L-20.953523775482914,-3.2960688861526757 L-20.950779431189964,-3.596246646379048 L-20.944481980106985,-3.896114017701957 L-20.93463237060695,-4.195625841198306 L-20.92123208600481,-4.494737011489186 L-20.904283144334133,-4.793402483532552 L-20.88378809804321,-5.091577279406866 L-20.859750033610606,-5.389216495084665 L-20.83217257108041,-5.686275307194895 L-20.801059863517047,-5.982708979773098 L-20.76641659637984,-6.2784728709985265 L-20.72824798681738,-6.573522439917096 L-20.686559782881872,-6.867813253149019 L-20.641358262663495,-7.161300991580295 L-20.592650233344926,-7.453941457037019 L-20.540443030176213,-7.745690578941562 L-20.484744515370124,-8.03650442094927 L-20.425563076918124,-8.326339187565228 L-20.362907627327147,-8.61515123073971 L-20.296787602277433,-8.902897056441333 L-20.22721295920155,-9.18953333120713 L-20.154194175784838,-9.475016888668502 L-20.077742248387477,-9.75930473605176 L-19.997868690388543,-10.042354060652766 L-19.91458553045205,-10.324122236284413 L-19.827905310715558,-10.604566829695848 L-19.73784108490133,-10.883645606962848 L-19.64440641635048,-11.161316539848105 L-19.547615375980413,-11.4375378121305 L-19.447482540165787,-11.71226782590243 L-19.344022988543365,-11.985465207834334 L-19.23725230174105,-12.257088815405421 L-19.127186559031554,-12.527097743099514 L-19.013842335910866,-12.79545132856525 L-18.897236701602086,-13.062109158739727 L-18.777387216484833,-13.327031075934585 L-18.654311929450706,-13.590177183883565 L-18.52802937518524,-13.851507853750725 L-18.39855857137661,-14.110983730098418 L-18.265919015851633,-14.368565736814098 L-18.13013068363947,-14.62421508299505 L-17.991214023963494,-14.877893268790064 L-17.84918995716169,-15.129562091197442 L-17.704079871536102,-15.379183649818259 L-17.555905620131853,-15.626720352563986 L-17.404689517446187,-15.87213492131768 L-17.25045433606797,-16.115390397547984 L-17.093223303248184,-16.356450147874952 L-16.933020097402014,-16.595277869586887 L-16.769868844543,-16.831837596107363 L-16.603794114649723,-17.066093702411685 L-16.43482091796561,-17.29801091039192 L-16.262974701232547,-17.527554294169626 L-16.088281343858686,-17.754689285355514 L-15.91076715402108,-17.979381678255354 L-15.730458864703763,-18.20159763502129 L-15.547383629671867,-18.421303690747614 L-15.361569019382397,-18.638466758510464 L-15.173043016832196,-18.85305413435061 L-14.981834013343775,-19.065033502198574 L-14.787970804289735,-19.274372938741298 L-14.591482584756285,-19.481040918229635 L-14.392398945146553,-19.685006317226037 L-14.190749866724357,-19.886238419291704 L-13.986565717099193,-20.084706919612223 L-13.779877245652965,-20.280381929561468 L-13.57071557890918,-20.47323398120271 L-13.35911221584551,-20.66323403172633 L-13.145099023150106,-20.850353467823577 L-12.928708230422558,-21.034564109995678 L-12.709972425320316,-21.2158382167975 L-12.488924548651077,-21.394148489015315 L-12.265597889411945,-21.569468073778026 L-12.040026079776368,-21.741770568601037 L-11.812243090029174,-21.9110300253624 L-11.582283223450744,-22.077220954210507 L-11.350181111151118,-22.2403183274028 L-11.115971706854681,-22.400297583074774 L-10.87969028163625,-22.557134628938968 L-10.64137241860933,-22.710805845913182 L-10.401054007567481,-22.861288091677388 L-10.158771239579455,-23.008558704158887 L-9.914560601539124,-23.152595504945022 " />
			<path d="M-9.914560601538941,-23.15259550494513 L-9.580088168453953,-23.342877293142525 L-9.242224936906709,-23.527109326041302 L-8.901064634810917,-23.70524049513816 L-8.556701904733064,-23.877221384393454 L-8.209232277637268,-24.04300428393987 L-7.858752146383665,-24.202543203317802 L-7.505358738987711,-24.355793884233737 L-7.149150091647783,-24.50271381283812 L-6.790225021548602,-24.643262231519284 L-6.428683099447959,-24.77740015021015 L-6.064624622054447,-24.905090357204642 L-5.698150584203743,-25.026297429480703 L-5.329362650841276,-25.140987742527145 L-4.95836312881895,-25.24912947967153 L-4.5852549385138275,-25.350692640906583 L-4.210141585276588,-25.445649051212577 L-3.8331271307177364,-25.53397236837349 L-3.4543161638394535,-25.615638090284694 L-3.0738137720211913,-25.690623561750183 L-2.691725511866972,-25.758907980767415 L-2.308157379922535,-25.820472404298098 L-1.9232157832704333,-25.87529975352324 L-1.537007510011252,-25.92337481858105 L-1.149639699639108,-25.964684262786353 L-0.7612198133196859,-25.999216626330387 L-0.37185560407902685,-26.026962329459906 L0.01834491308864372,-26.047913675134726 L0.40927349118576295,-26.062064851163004 L0.8008216812406399,-26.06941193181361 L1.1928808623926894,-26.06995287890518 L1.5853422720253665,-26.06368754237154 L1.97809703593839,-26.05061766030334 L2.3710361985509785,-26.03074685846587 L2.7640507531276093,-26.00408064929323 L3.1570316720179754,-25.970626430359115 L3.5498699369027893,-25.93039348232461 L3.94245656903694,-25.883392966363612 L4.334682659481713,-25.829637921066567 L4.726439399317618,-25.7691432588234 L5.11761810982949,-25.70192576168658 L5.508110272655463,-25.628004076715587 L5.8978075598914526,-25.547398710803925 L6.28660186414281,-25.46013202499025 L6.674385328514797,-25.366228228255096 L7.061050376533595,-25.26571337080499 L7.4464897419894704,-25.158615336845745 L7.830596498693918,-25.044963836847 L8.213264090142461,-24.924790399300147 L8.59438635907487,-24.79812836197186 L8.973857576924686,-24.665012862655775 L9.35157247314974,-24.525480829424755 L9.727426264435682,-24.379570970386553 L10.101314683764299,-24.22732376294562 L10.473134009338636,-24.06878144257416 L10.84278109335683,-23.903987991095388 L11.210153390626754,-23.73298912448239 L11.575148987013442,-23.55583228017588 L11.937666627711511,-23.372566603924383 L12.297605745334582,-23.18324293615055 L12.654866487814111,-22.987913797847316 L13.009349746099712,-22.786633376007842 L13.360957181653339,-22.57945750859332 L13.709591253729814,-22.366443669042734 L14.05515524643592,-22.14765095032894 L14.397553295560737,-21.923140048565465 L14.736690415169711,-21.69297324616858 L15.072472523955046,-21.45721439457927 L15.404806471335146,-21.21592889655 L15.733600063295885,-20.96918368800106 L16.05876208796648,-20.71704721945165 L16.380202340922953,-20.459589437030733 L16.697831650212038,-20.19688176307303 L17.01156190108874,-19.928997076305482 L17.32130606046056,-19.65600969162968 L17.6269782010317,-19.377995339505905 L17.928493525140432,-19.09503114494442 L18.225768388283193,-18.80719560610998 L18.51872032231866,-18.51456857254532 L18.80726805834562,-18.217231223019798 L19.091331549248018,-17.9152660430093 L19.370831991901174,-17.608756801813627 L19.645691849032833,-17.29778852931774 L19.915834870733065,-16.98244749240328 L20.181186115607073,-16.662821171016983 L20.441671971564926,-16.338998233902498 L20.6972201762426,-16.011068514002496 L20.947759837048537,-15.67912298353773 L21.193221450830233,-15.343253728770144 L21.433536923155362,-15.003553924456806 L21.668639587202122,-14.66011780800201 L21.89846422225351,-14.313040653314491 L22.122947071790474,-13.962418744377132 L22.342025861178826,-13.608349348536475 L22.555639814945078,-13.250930689519404 L22.763729673636433,-12.890261920184543 L22.96623771026014,-12.526443095015864 L23.163107746297754,-12.159575142366226 L23.354285167289856,-11.789759836458444 L23.53971693798685,-11.417099769151722 L23.719351617061655,-11.041698321481242 L23.893139371380244,-10.663659634978874 L24.061031989826038,-10.283088582782856 L24.222982896674363,-9.900090740544538 L24.378947164513164,-9.514772357140263 L24.528881526706495,-9.127240325196443 L24.672744389397295,-8.737602151436086 L24.81049584304607,-8.345965926854953 L24.94209767350238,-7.952440296735609 L25.067513372605944,-7.55713443050775 L25.18670814831453,-7.160157991463089 L25.299648934355716,-6.761621106333232 L25.406304399399968,-6.361634334739032 L25.506644955752346,-5.96030863851981 L25.600642767560565,-5.557755350951019 L25.68827175853703,-5.154086145858865 L25.76950761919276,-4.749413006640432 L25.844327813581174,-4.343848195197976 L25.912711585549868,-3.9375042207959003 L25.97463996449868,-3.5304938088491378 L26.030095770642372,-3.122929869651581 L26.079063619776544,-2.714925467053205 L26.12152992754542,-2.306593787094582 L26.157482913210362,-1.8980481066075745 L26.18691260291797,-1.489401761790698 L26.209810832467003,-1.080768116768156 L26.226171249573206,-0.6722605321410482 L26.23598931563155,-0.2639923335395915 L26.239262306975288,0.14392321981487743 " />
			<path d="M22.463828881511215,-0.12473345717296436 L22.461362534562458,0.19944415916869307 L22.453964107495455,0.5231900937590632 L22.441635441495276,0.8464237786377575 L22.424379604694565,1.1690647733237336 L22.40220089141004,1.4910327848338119 L22.375104821073762,1.8122476876645583 L22.34309813685958,2.1326295437324294 L22.30618880400503,2.4520986222673207 L22.264386007829046,2.770575419654464 L22.217700151446135,3.087980679219859 L22.16614285317741,3.404235410954234 L22.10972694365924,3.7192609111706094 L22.04846646265021,4.032978782090637 L21.98237665553715,4.345310951354809 L21.911473969541138,4.656179691451666 L21.83577604962443,4.965507639061215 L21.75530173409931,5.2732178143076744 L21.670071049939917,5.5792336399168345 L21.58010520779835,5.883478960273195 L21.48542659672612,6.185878060372196 L21.386058778602376,6.486355684662752 L21.282026482270258,6.784837055775495 L21.173355597382834,7.081247893132015 L21.06007316796016,7.375514431430415 L20.942207385659064,7.667563439002701 L20.819787582757304,7.957322236039308 L20.692844224853914,8.244718712676342 L20.56140890328746,8.529681346940954 L20.425514327274183,8.812139222550421 L20.285194315767917,9.092022046560494 L20.140483789043852,9.36926016685861 L19.991418760008212,9.64378458949766 L19.838036325236033,9.915526995865893 L19.68037465573924,10.18441975968884 L19.51847298746733,10.450395963858888 L19.35237161154307,10.713389417088404 L19.18211186423557,10.97333467038218 L19.007736116673257,11.230167033325198 L18.829287764299362,11.4838225901816 L18.646811216072408,11.734238215800843 L18.460351883414557,11.981351591327158 L18.269956168910436,12.225101219708325 L18.075671454759302,12.465426440999899 L17.87754609098344,12.702267447461196 L17.675629383395695,12.935565298439094 L17.469971581329144,13.165261935036156 L17.26062386513194,13.391300194559225 L17.047638333430527,13.613623824745062 L16.83106799016424,13.83217749775935 L16.610966731394683,14.046906823965685 L16.387389331893075,14.257758365461083 L16.160391431508877,14.464679649374599 L15.930029521323178,14.667619180925847 L15.696360929590242,14.866526456240056 L15.45944380747068,15.061351974916555 L15.219337114559869,15.252047252347538 L14.976100604215167,15.438564831784 L14.729794808685593,15.620858296145919 L14.48048102404765,15.798882279573697 L14.228221294951098,15.972592478717981 L13.973078399178416,16.14194566376506 L13.715115832021814,16.30689968919511 L13.454397790481684,16.4674135042706 L13.190989157290506,16.62344716325222 " />
			<path d="M13.190989157290431,16.623447163252266 L12.984263703360298,16.7417034533023 L12.775980863547032,16.85720731177962 L12.566172004480183,16.969941344228 L12.354868722602191,17.079888573316815 L12.142102839410072,17.187032441397786 L11.927906396663218,17.291356812998483 L11.712311651558025,17.39284597725229 L11.4953510718701,17.491484650264358 L11.277057331064693,17.587257977413365 L11.057463303376215,17.680151535588518 L10.836602058857522,17.770151335361653 L10.614506858399633,17.85724382309396 L10.391211148722817,17.941415882977147 L10.166748557339597,18.0226548390086 L9.941152887490597,18.10094845690036 L9.714458113053897,18.176284945921562 L9.486698373428672,18.248652960674068 L9.257907968393944,18.318041602801042 L9.028121352943156,18.384440422628217 L8.797373132095373,18.44783942073756 L8.565698055683896,18.508229049473158 L8.333131013123062,18.56560021437905 L8.099707028154036,18.619944275568827 L7.865461253570351,18.67125304902677 L7.630428965924034,18.719518807840327 L7.3946455602130925,18.76473428336375 L7.158146544551145,18.806892666312752 L6.9209675348200355,18.845987607789915 L6.6831442493062205,18.882013220240868 L6.444712503321714,18.914964078340887 L6.205708203810431,18.94483521981194 L5.9661673439407705,18.971622146170006 L5.7261259976851155,18.995320823402484 L5.485620314387266,19.015927682575775 L5.244686513318496,19.033439620372683 L5.003360878223009,19.047853999559777 L4.7616797518537854,19.05916864938458 L4.519679530499489,19.06738186590245 L4.277396658503299,19.07249241223319 L4.03486762277456,19.074499518747306 L3.7921289472939606,19.07340288318196 L3.5492171876131593,19.069202670686423 L3.3061689253496667,19.061899513797247 L3.063020762677784,19.051494512342998 L2.81980931681643,19.03798923327863 L2.576571214514761,19.021385710449483 L2.3333430865362725,19.001686444285024 L2.090161562142381,18.97889440142228 L1.8470632635761675,18.953013014259078 L1.604084800547211,18.924046180437113 L1.361262764718294,18.891998262255015 L1.118633724194849,18.856874086011384 L0.8762342180179097,18.81867894127796 L0.6341007506615028,18.77741858010305 L0.3922697865351594,18.733099216145277 L0.1507777444925722,18.685727523737835 L-0.09033900765301262,18.63531063688336 L-0.3310441586056321,18.581856148179554 L-0.5713014590549133,18.5253721076758 L-0.8110747271351535,18.465867021660838 L-1.0503278538741396,18.403349851381734 L-1.289024808631022,18.337830011694383 L-1.5271296445224163,18.26931736964564 L-1.76460650383585,18.19782224298739 L-2.00141962342982,18.123355398622724 L-2.2375333401195885,18.045928050984493 L-2.472912096047918,17.96555186034645 L-2.7075204440399414,17.882238931067267 L-2.941323052941417,17.796001809767635 L-3.174284712939449,17.70685348344082 L-3.406370340864929,17.614807377496852 L-3.6375449854759587,17.519877353740718 L-3.8677738327213973,17.422077708284817 L-4.097022210983719,17.321423169396006 L-4.325255596300382,17.21792889527762 L-4.552439617563046,17.111610471786655 L-4.7785400616937785,17.002483910086625 L-5.003522878797371,16.8905656442363 L-5.227354187289099,16.77587252871487 L-5.450000278997209,16.658421835883658 L-5.671427624239264,16.538231253384986 L-5.891602876871554,16.415318881478463 L-6.110492879310886,16.28970323031521 L-6.328064667528027,16.161403217150244 L-6.54428547601197,16.030438163493628 L-6.759122742704292,15.896827792200689 L-6.972544113902856,15.760592224501899 L-7.184517449134168,15.62175197697265 L-7.395010825993651,15.480327958443521 L-7.603992544953027,15.33634146685149 L-7.811431134134098,15.189814186032578 L-8.017295354048338,15.040768182456315 L-8.22155420230147,14.889225901902595 L-8.424176918262287,14.735210166081444 L-8.625132987695054,14.578744169196177 L-8.82439214735487,14.4198514744504 L-9.021924389545248,14.258556010499486 L-9.2176999666371,14.094882067846996 L-9.411689395548628,13.928854295186667 L-9.603863462185364,13.760497695690376 L-9.79419322583977,13.589837623242737 L-9.982650023549525,13.416899778622899 L-10.169205474414097,13.241710205634167 L-10.353831483868767,13.064295287181846 L-10.536500247915635,12.88468174130006 L-10.717184257310752,12.702896617128133 L-10.895856301706903,12.518967290837121 L-11.072489473751396,12.332921461507034 L-11.24705717313826,12.144787146955409 L-11.419533110614054,11.954592679518019 L-11.589891311937002,11.762366701782081 L-11.75810612178864,11.568138162272756 L-11.924152207637334,11.37193631109368 L-12.088004563553305,11.173790695521966 L-12.249638513974475,10.97373115555845 L-12.409029717422435,10.771787819433992 L-12.566154170168222,10.567991099072223 L-12.720988209847222,10.362371685509572 L-12.87350851902257,10.154960544273408 L-13.023692128696714,9.945788910718704 L-13.171516421770466,9.734888285324061 L-13.316959136449034,9.522290428947894 L-13.459998369594562,9.308027358045393 L-13.600612580024663,9.09213133984693 L-13.738780591756484,8.874634887498704 L-13.874481597195683,8.655570755166405 L-14.007695160269979,8.434971933102595 L-14.138401219506765,8.212871642678476 L-14.266580091054301,7.989303331380811 L-14.39221247164603,7.764300667774923 L-14.515279441507523,7.537897536434335 L-14.635762467205794,7.310128032837874 L-14.753643404440346,7.08102645823496 L-14.868904500775653,6.8506273144800085 L-14.981528398314552,6.618965298836616 L-15.091498136312328,6.386075298752229 L-15.198797153730958,6.1519923866042125 L-15.303409291733093,5.916751814418091 L-15.405318796115537,5.680389008558769 L-15.504510319681778,5.442939564395418 L-15.600968924553236,5.204439240940885 L-15.694680084418813,4.96492395546663 L-15.785629686722523,4.72442977809365 L-15.873804034788808,4.482992926360418 L-15.959189849885178,4.240649759768752 L-16.041774273221943,3.997436774308146 L-16.121544867888733,3.7533905969595667 L-16.198489620727408,3.5085479801796726 L-16.272596944141203,3.2629457963659627 L-16.343855677839812,3.016621032303889 L-16.412255090520052,2.7696107835968817 L-16.477784881481952,2.5219522490798427 L-16.540435182180037,2.273682725217091 L-16.60019655770948,2.0248396004856923 L-16.65706000822693,1.7754603497449342 L-16.711016970305906,1.5255825285927092 L-16.762059318226388,1.2752437677097408 L-16.810179365198525,1.0244817671925803 L-16.855369864520252,0.7733342908761509 L-16.897624010668583,0.521839160646608 L-16.936935440324536,0.2700342507454785 L-16.97329823333141,0.01795748206595782 L-17.006706913586317,-0.23435318355777746 L-17.037156449864906,-0.48685974906754215 L-17.06464225657901,-0.7395241879033785 L-17.089160194467247,-0.9923084497301913 L-17.11070657121835,-1.245174466167943 L-17.12927814202724,-1.498084156524654 L-17.144872110083654,-1.7509994335312475 L-17.15748612699337,-2.003882209077326 L-17.16711829313184,-2.2566943999470483 L-17.173767157930268,-2.5093979335543635 L-17.177431720094074,-2.7619547536766467 L-17.178111427753674,-3.0143268261857843 L-17.1758061785476,-3.266476144775935 L-17.170516319637898,-3.5183647366871798 L-17.162242647657866,-3.7699546684241136 L-17.150986408592065,-4.021208051468452 L-17.1367492975887,-4.272087047984879 L-17.11953345870432,-4.522553876519304 L-17.099341484580936,-4.772570817688655 L-17.07617641605557,-5.022100219861247 L-17.050041741702348,-5.271104504826938 L-17.02094139730709,-5.519546173456299 L-16.988879765274625,-5.767387811347895 L-16.9538616739688,-6.01459209446271 L-16.91589239698536,-6.261121794744983 L-16.874977652357764,-6.5069397857286315 L-16.831123601696046,-6.752009048128447 L-16.784336849258935,-6.996292675414925 L-16.73462444095925,-7.239753879372326 L-16.681993863302832,-7.482355995638891 L-16.62645304226107,-7.724062489228254 L-16.568010342077333,-7.964836960031523 L-16.50667456400729,-8.204643148299077 L-16.442454944993507,-8.443444940101017 L-16.375361156274405,-8.68120637276586 L-16.30540330192775,-8.917891640296443 L-16.232591917349094,-9.15346509876205 L-16.156937967665147,-9.38789127166633 L-16.07845284608243,-9.621134855289945 L-15.997148372171576,-9.853160724007157 L-15.913036790087286,-10.083933935575576 L-15.82613076672445,-10.313419736398377 L-15.73644338981051,-10.541583566758089 L-15.643988165934527,-10.768391066021124 L-15.548779018513155,-10.993808077812346 L-15.450830285693783,-11.217800655158907 L-15.350156718195286,-11.440335065602586 L-15.246773477086624,-11.66137779627973 L-15.140696131503628,-11.880895558968145 L-15.031940656304382,-12.098855295100208 L-14.920523429663401,-12.315224180741382 L-14.806461230605183,-12.52996963153338 L-14.689771236477366,-12.74305930760119 L-14.570471020363843,-12.954461118423389 L-14.448578548438352,-13.164143227664873 L-14.32411217725878,-13.372074057971282 L-14.197090651002824,-13.578222295724387 L-14.067533098645125,-13.782556895757843 L-13.935459031076501,-13.985047086032495 L-13.80088833816572,-14.18566237227052 L-13.66384128576415,-14.384372542547723 L-13.524338512653795,-14.581147671843354 L-13.38240102743914,-14.775958126546751 L-13.238050205383367,-14.968774568920022 L-13.091307785189322,-15.15956796151617 L-12.942195865725733,-15.348309571552033 L-12.79073690269919,-15.53497097523542 L-12.636953705272397,-15.719524062045533 L-12.480869432629238,-15.901941038966324 L-12.32250759048707,-16.08219443467205 L-12.1618920275568,-16.260257103664337 L-11.999046931951405,-16.436102230360227 L-11.833996827543306,-16.60970333313043 L-11.666766570271134,-16.78103426828741 L-11.497381344396487,-16.950069234022568 L-11.325866658711348,-17.116782774291803 L-11.152248342696518,-17.28114978264917 L-10.976552542631739,-17.443145506027815 L-10.798805717658254,-17.602745548467656 L-10.619034635794117,-17.759925874789342 L-10.437266369902977,-17.914662814213912 L-10.253528293617094,-18.066933063927436 L-10.067848077214933,-18.216713692590403 L-9.880253683454061,-18.363982143791077 L-9.690773363360178,-18.50871623944241 L-9.499435651972535,-18.650894183121952 L-9.306269364046656,-18.790494563354365 L-9.111303589714968,-18.92749635683589 L-8.914567690105962,-19.06187893160035 L-8.716091292922478,-19.193622050126276 L-8.515904287979865,-19.32270587238461 L-8.314036822704711,-19.449110958826545 L-8.11051929759477,-19.572818273311 L-7.905382361640891,-19.693809185971357 " />
			<path d="M-7.905382361640738,-19.693809185971446 L-7.722098527090999,-19.798838424151995 L-7.537586649092001,-19.901703766812098 L-7.351868588786738,-20.002393026367994 L-7.1649663502278305,-20.10089427306035 L-6.97690207777047,-20.19719583636767 L-6.787698053448722,-20.291286306389022 L-6.597376694335544,-20.383154535195942 L-6.405960549886789,-20.472789638153202 L-6.213472299269503,-20.56018099520845 L-6.019934748674913,-20.645318252150503 L-5.825370828616286,-20.728191321836075 L-5.629803591212131,-20.808790385384977 L-5.433256207454953,-20.887105893343406 L-5.235751964465922,-20.963128566815406 L-5.0373142627358085,-21.036849398562254 L-4.837966613352464,-21.10825965406959 L-4.637732635215196,-21.17735087258236 L-4.436636052236393,-21.244114868107197 L-4.234700690530687,-21.308543730382343 L-4.031950475592012,-21.37062982581486 L-3.8284094294588815,-21.43036579838503 L-3.6241016678682545,-21.48774457051795 L-3.419051397398256,-21.54275934392206 L-3.21328291260018,-21.595403600394622 L-3.0068205931200254,-21.645671102594015 L-2.7996889008100014,-21.6935558947787 L-2.5919123768302326,-21.739052303512914 L-2.383515638741118,-21.782154938338824 L-2.1745233775866186,-21.822858692415217 L-1.964960354968837,-21.86115874312255 L-1.7548514001142292,-21.897050552634354 L-1.5442214069318254,-21.930529868454855 L-1.3330953310637774,-21.96159272392284 L-1.1214981869285836,-21.99023543868162 L-0.9094550447573555,-22.016454619115066 L-0.6969910276234828,-22.04024715874973 L-0.48413130846601327,-22.061610238622844 L-0.2709011071071581,-22.08054132761638 L-0.05732568726420162,-22.097038182756876 L0.1565696464437476,-22.111098849481237 L0.37075955149389106,-22.122721661868272 L0.5852186504623269,-22.13190524283611 L0.7999215340308128,-22.13864850430533 L1.0148427639972608,-22.142950647327893 L1.2299568762897106,-22.1448111621818 L1.4452383839833072,-22.14422982843147 L1.6606617803200354,-22.141206714953892 L1.8762015417307758,-22.135742179930418 L2.0918321308593626,-22.127836870804373 L2.3075279995882827,-22.117491724204296 L2.5232635920656232,-22.10470796583302 L2.7390133477329766,-22.089487110322395 L2.954751704353857,-22.071830961053887 L3.1704531010423462,-22.05174160994487 L3.3860919812915835,-22.029221437200786 L3.601642796001716,-22.00427311103315 L3.81708000650697,-21.976899587343397 L4.032378087601508,-21.947104109372688 L4.247511530563681,-21.914890207317615 L4.46245484617833,-21.880261697911966 L4.677182567756754,-21.843222683974513 L4.891669254154037,-21.80377755392289 L5.105889492783351,-21.761930981253673 L5.319817902626848,-21.717687923988624 L5.533429137242832,-21.671053624087307 L5.746697887768831,-21.622033606825973 L5.95959888592021,-21.570633680142937 L6.172106906983991,-21.516859933950464 L6.384196772807499,-21.4607187394132 L6.595843354781476,-21.402216748193332 L6.807021576817371,-21.341360891662475 L7.017706418318357,-21.278158380080473 L7.227872917143807,-21.212616701741062 L7.437496172566821,-21.14474362208471 L7.646551348224499,-21.074547182778517 L7.855013675060573,-21.002035700763447 L8.06285845426007,-20.927217767268942 L8.27006106017564,-20.850102246794993 L8.476596943245248,-20.7706982760619 L8.682441632900805,-20.689015262927718 L8.887570740467478,-20.60506288527362 L9.091959962053293,-20.51885108985725 L9.295585081428655,-20.430390091134218 L9.498421972895532,-20.33969037004788 L9.700446604145894,-20.24676267278755 L9.901635039109063,-20.15161800951529 L10.101963440787701,-20.054267653061395 L10.301408074082028,-19.95472313758879 L10.499945308601983,-19.852996257226458 L10.697551621466982,-19.749099064672038 L10.894203600092922,-19.643043869763837 L11.089877944966123,-19.534843238022333 L11.284551472403889,-19.424509989161397 L11.47820111730133,-19.31205719556941 L11.670803935864132,-19.197498180760427 L11.862337108326951,-19.080846517795614 L12.052777941657148,-18.962116027675066 L12.242103872243462,-18.841320777700304 L12.430292468569352,-18.71847507980756 L12.617321433870748,-18.593593488872102 L12.803168608777748,-18.466690800983724 L12.987811973940119,-18.337782051693722 L13.171229652636136,-18.206882514233456 L13.353399913364592,-18.074007697704758 L13.53430117241953,-17.93917334524242 L13.71391199644753,-17.802395432148902 L13.892211104987137,-17.66369016400159 L14.0691773729902,-17.523073974732714 L14.24478983332479,-17.38056352468228 L14.419027679259388,-17.236175698624095 L14.591870266928105,-17.089927603765283 L14.763297117776572,-16.94183656771937 L14.933287920988274,-16.791920136453324 L15.101822535890992,-16.640196072208656 L15.26888099434308,-16.48668235139697 L15.434443503099295,-16.331397162470083 L15.598490446155965,-16.174358903765036 L15.761002387075083,-16.01558618132425 L15.921960071287135,-15.855097806691052 L16.081344428372446,-15.692912794680883 L16.239136574320632,-15.529050361128402 L16.395317813767978,-15.363529920610755 L16.549869642212535,-15.196371084147344 L16.7027737482065,-15.027593656876274 L16.854012015525814,-14.857217635707833 L17.003566525316558,-14.685263206955234 L17.151419558218002,-14.511750743942933 L17.297553596462002,-14.336700804592798 " />
			<path d="M18.2974709373394,-13.03280777177184 L18.422068784812247,-12.855725208206838 L18.54498697393701,-12.677437604603607 L18.666212420418727,-12.497963939175289 L18.78573222015014,-12.317323316387977 L18.90353365058526,-12.135534964927071 L19.01960417209369,-11.952618235650455 L19.133931429295394,-11.76859259952867 L19.24650325237592,-11.583477645572252 L19.35730765838183,-11.397293078746554 L19.46633285249626,-11.210058717874208 L19.573567229294444,-11.021794493525459 L19.678999373979046,-10.832520445896627 L19.78261806359529,-10.642256722676873 L19.88441226822558,-10.45102357690353 L19.984371152163597,-10.258841364806244 L20.08248407506774,-10.065730543640083 L20.17874059309377,-9.871711669507938 L20.273130460006506,-9.676805395172387 L20.36564362827053,-9.481032467857247 L20.456270250119697,-9.284413727039126 L20.54500067860542,-9.08697010222907 L20.63182546862355,-8.888722610744718 L20.716735377919793,-8.68969235547305 L20.799721368073506,-8.489900522624044 L20.88077460545982,-8.289368379475466 L20.959886462189946,-8.088117272109024 L21.037048517029614,-7.886168623138141 L21.11225255629546,-7.683543929427594 L21.185490574729357,-7.480264759805203 L21.256754776350572,-7.276352752765901 L21.326037575285604,-7.071829614168403 L21.39333159657568,-6.866717114924635 L21.458629676961813,-6.6610370886823125 L21.5219248656473,-6.4548114295008 L21.58321042503762,-6.2480620895205465 L21.64247983145762,-6.040811076626358 L21.699726775845956,-5.833080452104704 L21.754945164426676,-5.62489232829535 L21.80812911935787,-5.416268866237592 L21.85927297935736,-5.20723227331124 L21.90837130030533,-4.997804800872724 L21.955418855823837,-4.788008741886504 L22.00041063783313,-4.577866428552026 L22.043341857084766,-4.367400229926557 L22.08420794367139,-4.15663254954402 L22.12300454751322,-3.945585823030229 L22.159727538821066,-3.734282515714683 L22.19437300853596,-3.5227451202391666 L22.226937268745253,-3.3109961541635027 L22.25741685307518,-3.099058157568602 L22.285808517059863,-2.886953690657146 L22.312109238486638,-2.674705331352107 L22.336316217717822,-2.4623356728933956 L22.358426877988652,-2.2498673214328884 L22.378438865681645,-2.037322893628043 L22.396350050577073,-1.8247250142344393 L22.412158526079775,-1.6120963136974167 L22.425862609422065,-1.3994594257431308 L22.437460841842874,-1.1868369849692888 L22.446951988743038,-0.9742516244357224 L22.454335039816705,-0.7617259732551807 L22.459609209158888,-0.5492826541845224 L22.462773935349123,-0.33694428121657705 L22.463828881511212,-0.12473345717303719 " />
			<path d="M20.812076757870685,0.834754674926778 L20.809845081922653,1.143133292483345 L20.80315055661338,1.451124860133792 L20.791994689434087,1.7586600235075045 L20.776379992492995,2.0656695310082025 L20.75630998194961,2.3720842494082195 L20.73178917722295,2.677835179416098 L20.702823099973862,2.982853471214046 L20.669418272861634,3.2870704399616857 L20.631582218075177,3.59041758126276 L20.589323455639207,3.8928265865910863 L20.54265150149565,4.194229358672446 L20.491576865360837,4.494558026818964 L20.436111048358867,4.793744962212363 L20.376266540431775,5.091722793132829 L20.312056817527026,5.388424420129945 L20.243496338562938,5.683783031132333 L20.17060054217279,5.977732116492572 L20.093385843228326,6.27020548396402 L20.01186962914339,6.561137273606178 L19.92607025595859,6.850461972615158 L19.83600704420784,7.138114430076103 L19.74170027456769,7.424029871634009 L19.643171183290512,7.708143914079763 L19.5404419574224,7.990392579848182 L19.433535729807087,8.270712311424617 L19.322476573876813,8.549039985657014 L19.207289498231376,8.825312927970163 L19.088000441006677,9.099468926478917 L18.964636264033864,9.37144624599723 L18.83722474679052,9.641183641939868 L18.705794580145216,9.908620374113617 L18.570375359896815,10.173696220394916 L18.43099758011002,10.43635149029086 L18.28769262624862,10.696527038380456 L18.140492768108047,10.954164277633119 L17.989431152548757,11.209205192601512 L17.834541796032152,11.461592352485582 L17.675859576960647,11.711268924064996 L17.513420227823662,11.958178684496989 L17.347260327151275,12.202266033976777 L17.17741729127739,12.44347600825769 L17.00392936591421,12.68175429102815 L16.82683561753996,12.917047226142762 L16.64617592460182,13.149301829704747 L16.46199096853595,13.37846580199702 L16.274322224606763,13.60448753925918 L16.083211952567417,13.827316145307742 L15.888703187143612,14.04690144299713 L15.690839728342969,14.26319398551867 L15.489666131591969,14.476145067535164 L15.285227697702892,14.685706736148493 L15.077570462672828,14.891831801697773 L14.866741187317182,15.094473848385656 L14.652787346739931,15.293587244730352 L14.435757119643068,15.489127153841071 L14.215699377477598,15.681049543514487 L13.99266367343851,15.869311196150043 L13.766700231306265,16.053869718481838 L13.537859934137286,16.234683551124775 L13.30619431280595,16.411711977933106 L13.071755534400735,16.58491513516894 L12.834596390477104,16.754254020478903 L12.59477028516975,16.919690501676776 L12.352331223166985,17.081187325330152 " />
			<path d="M-8.71847655115781,-19.192061215949604 L-8.546459629289384,-19.278924168121215 L-8.373502806940289,-19.3639439584599 L-8.199623128620573,-19.447112208454453 L-8.024837729785695,-19.52842072205888 L-7.849163835147845,-19.607861486500052 L-7.67261875697851,-19.68542667306738 L-7.495219893402366,-19.761108637884284 L-7.316984726682746,-19.834899922661513 L-7.137930821498793,-19.90679325543212 L-6.958075823214513,-19.976781551268108 L-6.777437456139845,-20.044857912978625 L-6.596033521783983,-20.11101563178969 L-6.413881897101075,-20.17524818800529 L-6.23100053272849,-20.237549251649924 L-6.047407451217812,-20.29791268309237 L-5.863120745258768,-20.356332533650754 L-5.678158575896235,-20.412803046178777 L-5.492539170740505,-20.46731865563306 L-5.306280822170992,-20.51987398962158 L-5.119401885533565,-20.5704638689331 L-4.931920777331662,-20.619083308047557 L-4.743855973411393,-20.665727515627395 L-4.555226007140783,-20.71039189498974 L-4.366049467583349,-20.753072044559364 L-4.1763449976661855,-20.793763758302486 L-3.986131292342751,-20.83246302614124 L-3.795427096750526,-20.869166034348886 L-3.6042512043637043,-20.90386916592562 L-3.4126224551411646,-20.936569000955025 L-3.220559733669803,-20.967262316941117 L-3.028081967303528,-20.995946089125887 L-2.8352081242979947,-21.022617490787407 L-2.6419572119413255,-21.047273893518373 L-2.4483482746809972,-21.069912867485154 L-2.2544003922470335,-21.090532181667236 L-2.0601326777717617,-21.109129804077075 L-1.865564275906239,-21.125703901960357 L-1.6707143609335942,-21.14025284197661 L-1.4756021348794561,-21.152775190360178 L-1.2802468256196133,-21.163269713061467 L-1.0846676849851764,-21.17173537586862 L-0.8888839868653322,-21.178171344509405 L-0.6929150253079539,-21.18257698473343 L-0.4967801126182152,-21.18495186237465 L-0.3004985774554043,-21.185295743394157 L-0.10408976292813299,-21.183608593903244 L0.09242697531190047,-21.179890580166738 L0.2890322709773445,-21.174142068586622 L0.48570674905371747,-21.166363625665923 L0.6824310277087628,-21.156556017952887 L0.879185720202486,-21.144720211965428 L1.0759514367976772,-21.1308573740959 L1.2727087866707232,-21.114968870496135 L1.4694383798225437,-21.097056266942808 L1.6661208289894154,-21.07712132868315 L1.862736751553529,-21.055166020260977 L2.0592667714531654,-21.031192505323084 L2.255691521092091,-21.00520314640604 L2.451991643248231,-20.977200504703344 L2.6481477929812662,-20.947187339813027 L2.844140639539054,-20.91516660946573 L3.0399508682626024,-20.881141469233178 L3.235559182489503,-20.84511527221725 L3.4309463054555795,-20.807091568719503 L3.626092982194553,-20.767074105891332 L3.8209799814355936,-20.725066827364664 L4.209898152186405,-20.635099577795152 L4.597547513403176,-20.53722528342639 L4.983775260922176,-20.4314825244837 L5.368429150953332,-20.31791298279471 L5.751357560091905,-20.196561425359118 L6.132409545085612,-20.06747568670243 L6.511434902333644,-19.93070665002043 L6.888284227094139,-19.78630822712201 L7.262808972376727,-19.634337337178096 L7.634861507497026,-19.474853884285217 L8.004295176269881,-19.30792073385238 L8.37096435481851,-19.133603687820738 L8.734724508976733,-18.95197145872565 L9.095432251261641,-18.76309564261152 L9.452945397394277,-18.56705069080992 L9.80712302234604,-18.363913880592314 L10.157825515888696,-18.153765284708737 L10.504914637626143,-17.93668773982467 L10.848253571486186,-17.712766813868313 L11.187706979650908,-17.48209077230134 L11.523141055904311,-17.244750543326276 L11.854423578376224,-17.000839682044287 L12.181423961661704,-16.750454333577522 L12.504013308295413,-16.49369319517048 L12.822064459560535,-16.230657477285387 L13.135452045612436,-15.961450863706943 L13.444052534897068,-15.686179470672071 L13.747744282844865,-15.404951805040888 L14.046407579820725,-15.117878721525312 L14.339924698311336,-14.825073378992215 L14.628179939331138,-14.52665119585832 " />
			<path d="M18.297470937339398,-9.36744121708731 L18.449025691895912,-9.069724498629036 L18.596160034604225,-8.769857065711513 L18.738836710604392,-8.467914845674407 L18.877019593731145,-8.163974291199743 L19.010673695661144,-7.858112360953854 L19.139765174772133,-7.550406500101222 L19.264261344711716,-7.240934620695137 L19.38413068267367,-6.929775081950121 L19.499342837379604,-6.617006670401123 L19.609868636763988,-6.302708579954551 L19.715680095360607,-5.986960391836137 L19.816750421388587,-5.669842054440725 L19.913054023536127,-5.351433863089079 L20.00456651744031,-5.031816439696886 L20.091264731861305,-4.711070712361046 L20.17312671454937,-4.389277894868423 L20.250131737803258,-4.06651946613226 L20.322260303718515,-3.7428771495614903 L20.389494149124417,-3.4184328923681218 L20.451816250208243,-3.0932688448179464 L20.50921082682578,-2.7674673394298432 L20.56166334649689,-2.4411108701289423 L20.60916052808517,-2.1142820713589145 L20.651690345160805,-1.7870636971586904 L20.68924202904566,-1.4595386002088577 L20.721806071539966,-1.1317897108531338 L20.749374227329806,-0.803900016100149 L20.77193951607489,-0.475952538610908 L20.78949622417594,-0.14803031567714675 L20.802039906221452,0.17978362180392105 L20.80956738611325,0.5074062703532578 L20.81207675787068,0.8347546749267052 " />
			<path d="M-8.447532289475848,8.543805685379068 L10.429634837844503,9.887089070318707 " />
			<path d="M-8.447532289475847,-11.0384748288384 L-8.447532289475847,8.543805685379068 " />
			<path d="M10.429634837844503,9.887089070318709 L18.29747093733939,5.316732989206036 " />
			<path d="M18.29747093733939,-14.26554752501143 L18.29747093733939,5.316732989206036 " />
			<path d="M-8.447532289475847,8.543805685379068 L-0.579696189980961,3.9734496042663956 " />
			<path d="M5.083453948215146,4.376434619748289 L-0.579696189980961,3.9734496042663965 " />
			<path d="M5.083453948215148,4.376434619748288 L1.1192488514778738,6.67920613678767 " />
			<path d="M8.670115702406012,7.216519490763526 L1.119248851477872,6.67920613678767 " />
			<path d="M12.634320799143287,4.913747973724144 L8.670115702406013,7.216519490763526 " />
			<path d="M18.29747093733939,5.316732989206036 L12.634320799143286,4.913747973724145 " />
			<path d="M-8.447532289475847,-11.038474828838398 L-0.579696189980961,-15.60883090995107 " />
			<path d="M-0.5796961899809592,3.9734496042663956 L-0.5796961899809592,-15.60883090995107 " />
			<path d="M12.634320799143286,-14.668532540493322 L18.29747093733939,-14.265547525011431 " />
			<path d="M12.634320799143287,-14.668532540493322 L8.670115702406013,-12.36576102345394 " />
			<path d="M5.083453948215148,-12.620984866592472 L8.670115702406012,-12.36576102345394 " />
			<path d="M-0.5796961899809592,-15.60883090995107 L5.083453948215146,-15.205845894469178 " />
			<path d="M12.634320799143287,-14.668532540493322 L12.634320799143287,-10.752076437649828 " />
			<path d="M12.634320799143289,-10.75207643764983 L14.522037511875322,-10.617748099155866 " />
			<path d="M14.522037511875322,-10.617748099155865 L14.522037511875322,1.1316202093746153 " />
			<path d="M14.522037511875322,1.1316202093746144 L12.634320799143287,0.9972918708806504 " />
			<path d="M12.634320799143287,0.9972918708806517 L12.634320799143287,4.913747973724144 " />
			<path d="M5.083453948215148,4.376434619748288 L5.083453948215148,0.4599785169047945 " />
			<path d="M5.083453948215146,0.45997851690479463 L3.1957372354831133,0.32565017841083077 " />
			<path d="M3.1957372354831124,0.32565017841083055 L3.1957372354831124,-11.42371813011965 " />
			<path d="M3.1957372354831124,-11.42371813011965 L5.083453948215148,-11.289389791625686 " />
			<path d="M5.083453948215148,-11.289389791625686 L5.083453948215148,-15.205845894469178 " />
			<path d="M8.670115702406012,3.3000633879200336 L8.670115702406012,7.216519490763526 " />
			<path d="M5.083453948215148,3.0448395447815013 L8.670115702406012,3.3000633879200323 " />
			<path d="M12.634320799143287,0.9972918708806509 L8.670115702406013,3.3000633879200327 " />
			<path d="M8.670115702406013,-8.449304920610448 L12.634320799143287,-10.75207643764983 " />
			<path d="M8.670115702406012,-12.36576102345394 L8.670115702406012,-8.449304920610446 " />
			<path d="M8.670115702406012,-8.449304920610448 L3.1957372354831124,-8.838857102242942 " />
			<path d="M5.083453948215148,-11.289389791625684 L3.1957372354831124,-10.192831926368836 " />
			<path d="M14.522037511875322,-10.617748099155865 L6.593627318400774,-6.012205065077101 " />
			<path d="M3.1957372354831124,-6.2539960743662375 L6.593627318400772,-6.012205065077103 " />
			<path d="M6.593627318400773,-6.012205065077103 L6.593627318400773,3.1523022155766736 " />
			<path d="M15.200167397188642,20.082233482225952 L12.557363999363792,21.61741449358554 " />
			<path d="M-9.914560601538943,-23.152595504945126 L-12.557363999363792,-21.61741449358554 " />

       </g>
    </g>
    <g transform="translate(20,210.0)" stroke="rgb(0,0,255)">
        <line x1="30" y1="-30" x2="75" y2="-33" stroke-width="3" stroke="#000000" />
         <text x="80" y="-30" style="stroke:#000000">X </text>

        <line x1="30" y1="-30" x2="30" y2="-75" stroke-width="3" stroke="#000000" />
         <text x="25" y="-85" style="stroke:#000000">Y </text>

        <line x1="30" y1="-30" x2="58" y2="-15" stroke-width="3" stroke="#000000" />
         <text x="65" y="-5" style="stroke:#000000">Z </text>
        <!--
            <line x1="0" y1="0" x2="3.5568955175143233" y2="0" stroke-width="3" />
            <text x="0" y="20" style="stroke:#000000">1  mm </text>
        -->
    </g>
</svg>
