<?xml version="1.0" encoding="UTF-8" standalone="no"?>
<svg
   xmlns:svg="http://www.w3.org/2000/svg"
   xmlns="http://www.w3.org/2000/svg"
   width="800.0"
   height="240.0"

>
    <g transform="scale(3.251095413663469, -3.251095413663469)   translate(86.05804423208114,-33.35500576556071)" stroke-width="0.3075886348328235"  fill="none">
       <!-- hidden lines -->
       <g  stroke="rgb(160,160,160)" fill="none" stroke-dasharray="0.3075886348328235,0.3075886348328235" >
			<path d="M-24.540317265516453,-27.20323306890424 L24.54031726551646,-23.710696268061177 " />
			<path d="M24.540317265516453,-23.710696268061177 L26.192069389156984,-24.67018440016092 " />
			<path d="M24.540317265516453,-23.710696268061177 L24.540317265516453,27.20323306890424 " />
			<path d="M17.052317514497894,-14.276155270182628 L16.092784976040598,-12.621194115833836 " />
			<path d="M-0.896665438547716,-13.830149162279513 L16.092784976040598,-12.621194115833838 " />
			<path d="M16.092784976040598,-12.621194115833836 L16.092784976040598,5.002858346961885 " />
			<path d="M16.092784976040598,-12.621194115833836 L18.735588373865447,-14.156375127193424 " />
			<path d="M5.049642206558195,-11.703356491286605 L2.4068388087333457,-10.168175479927017 " />
			<path d="M2.4068388087333457,-10.168175479927019 L5.049642206558195,-9.980115806035469 " />
			<path d="M15.432084126584387,-0.19429634675019702 L12.789280728759538,1.3408846646093908 " />
			<path d="M12.789280728759538,-0.38235602064174756 L12.789280728759538,1.3408846646093906 " />
			<path d="M5.049642206558195,-0.9331022084669991 L2.4068388087333457,0.6020788028925887 " />
			<path d="M12.789280728759538,1.3408846646093906 L2.4068388087333457,0.602078802892589 " />
			<path d="M2.4068388087333457,0.6020788028925885 L2.4068388087333457,-10.168175479927019 " />

       </g>

       <!-- solid lines -->
       <g  stroke="rgb(0,0,0)" fill="none">
			<path d="M-24.540317265516453,-27.20323306890424 L-22.888565141875922,-28.162721201003983 " />
			<path d="M-22.888565141875922,-28.162721201003983 L-22.888565141875922,22.751208135961434 " />
			<path d="M-24.540317265516453,23.710696268061177 L-22.888565141875922,22.751208135961434 " />
			<path d="M-24.540317265516453,-27.20323306890424 L-24.540317265516453,23.710696268061177 " />
			<path d="M-22.888565141875922,-28.162721201003983 L26.19206938915699,-24.67018440016092 " />
			<path d="M-22.888565141875922,22.751208135961434 L26.19206938915699,26.243744936804497 " />
			<path d="M26.192069389156984,-24.67018440016092 L26.192069389156984,26.243744936804497 " />
			<path d="M-15.809627469130792,-20.315634738820066 L19.113131716411853,-17.830560476681732 " />
			<path d="M19.113131716411853,-17.830560476681732 L19.113131716411853,18.39665847462058 " />
			<path d="M19.113131716411853,18.39665847462058 L-15.809627469130792,15.911584212482246 " />
			<path d="M-15.809627469130792,15.911584212482246 L-15.809627469130792,-20.315634738820066 " />
			<path d="M-24.540317265516453,23.710696268061177 L24.54031726551646,27.20323306890424 " />
			<path d="M24.540317265516453,27.20323306890424 L26.192069389156984,26.243744936804497 " />
			<path d="M19.113131716411853,-17.830560476681732 L17.052317514497894,-14.276155270182628 " />
			<path d="M-15.809627469130792,-20.315634738820066 L-0.896665438547716,-13.830149162279513 " />
			<path d="M19.113131716411853,18.39665847462058 L16.092784976040598,5.002858346961885 " />
			<path d="M-15.809627469130792,15.911584212482246 L-0.896665438547716,3.7939033005162077 " />
			<path d="M16.092784976040598,5.002858346961885 L-0.8966654385477142,3.7939033005162095 " />
			<path d="M-0.896665438547716,3.7939033005162077 L-0.896665438547716,-13.830149162279513 " />
			<path d="M-0.896665438547716,-13.830149162279513 L1.7461379592771333,-15.365330173639101 " />
			<path d="M1.7461379592771333,-15.365330173639101 L18.735588373865447,-14.156375127193426 " />
			<path d="M16.092784976040598,5.002858346961885 L18.735588373865447,3.467677335602297 " />
			<path d="M18.735588373865447,-14.156375127193424 L18.735588373865447,3.4676773356022963 " />
			<path d="M-0.896665438547716,3.7939033005162077 L1.7461379592771333,2.25872228915662 " />
			<path d="M18.735588373865447,3.467677335602297 L1.746137959277135,2.258722289156622 " />
			<path d="M1.7461379592771333,2.25872228915662 L1.7461379592771333,-15.365330173639101 " />
			<path d="M5.049642206558195,-11.703356491286605 L15.432084126584387,-10.964550629569803 " />
			<path d="M15.432084126584387,-10.964550629569803 L15.432084126584387,-0.19429634675019614 " />
			<path d="M15.432084126584387,-0.19429634675019702 L5.049642206558195,-0.9331022084669987 " />
			<path d="M5.049642206558195,-0.9331022084669991 L5.049642206558195,-11.703356491286605 " />
			<path d="M15.432084126584387,-10.964550629569803 L12.789280728759538,-9.429369618210215 " />
			<path d="M5.049642206558195,-9.980115806035469 L12.789280728759538,-9.429369618210217 " />
			<path d="M12.789280728759538,-9.429369618210217 L12.789280728759538,-0.38235602064174756 " />

       </g>
    </g>
    <g transform="translate(20,210.0)" stroke="rgb(0,0,255)">
        <line x1="30" y1="-30" x2="75" y2="-33" stroke-width="3" stroke="#000000" />
         <text x="80" y="-30" style="stroke:#000000">X </text>

        <line x1="30" y1="-30" x2="30" y2="-75" stroke-width="3" stroke="#000000" />
         <text x="25" y="-85" style="stroke:#000000">Y </text>

        <line x1="30" y1="-30" x2="58" y2="-15" stroke-width="3" stroke="#000000" />
         <text x="65" y="-5" style="stroke:#000000">Z </text>
        <!--
            <line x1="0" y1="0" x2="3.251095413663469" y2="0" stroke-width="3" />
            <text x="0" y="20" style="stroke:#000000">1  mm </text>
        -->
    </g>
</svg>
