<?xml version="1.0" encoding="UTF-8" standalone="no"?>
<svg
   xmlns:svg="http://www.w3.org/2000/svg"
   xmlns="http://www.w3.org/2000/svg"
   width="800.0"
   height="240.0"

>
    <g transform="scale(5.183641428534833, -5.183641428534833)   translate(38.58291565057778,-20.079310700142198)" stroke-width="0.19291457825288894"  fill="none">
       <!-- hidden lines -->
       <g  stroke="rgb(160,160,160)" fill="none" stroke-dasharray="0.19291457825288894,0.19291457825288894" >
			<path d="M0.0,-12.728482334241354 L49.08063453103291,-9.235945533398292 " />
			<path d="M7.598059768746445,-17.14212774190017 L7.530641478616989,-17.101602597981266 L7.467432035854291,-17.060798022892 L7.40845942687165,-17.0197320831372 L7.353749762195221,-16.978422960942694 L7.3033272649033965,-16.93688894620499 L7.257214259901875,-16.895148428393327 L7.215431164039156,-16.85321988840757 L7.17799647706684,-16.811121890395704 L7.1449267734487325,-16.768873073534408 L7.116236695022392,-16.726492143776436 L7.091938944516361,-16.683997865568443 L7.072044279925935,-16.64140905354287 L7.056561509749994,-16.598744564187665 L7.045497489090975,-16.55602328749743 L7.038857116619733,-16.51326413860974 L7.036643332406616,-16.470486049430367 " />
			<path d="M7.036643332406616,-16.47048604943035 L7.038502473887609,-16.431283545249908 L7.044079207049181,-16.392095617669806 L7.053371458304142,-16.35293683787038 L7.06637577253054,-16.313821766194014 L7.083087314356371,-16.274764946731153 L7.103499869957513,-16.23578090191244 L7.127605849368196,-16.19688412710884 L7.155396289303166,-16.15808908524185 L7.186860856490492,-16.119410201405795 L7.2219878515137665,-16.080861857504146 L7.260764213162281,-16.04245838690194 L7.303175523287548,-16.004214069096218 L7.349206012164384,-15.966143124406509 L7.398838564354538,-15.92825970868731 L7.452054725070695,-15.890577908064543 L7.508834707038481,-15.853111733697935 L7.569157397853948,-15.81587511657126 L7.633000367833745,-15.778881902312424 L7.771150890682609,-15.705680607274962 L7.9230808215911335,-15.633616711716265 L8.088564214175182,-15.562797387255056 L8.267354965682216,-15.493327954615133 L8.459187182989144,-15.42531172699501 L8.663775578031908,-15.35884985642314 L8.880815892078735,-15.294041183327138 L9.109985348216096,-15.230982089540783 L9.350943131374443,-15.169766354967368 L9.603330895179838,-15.110485018112582 L9.866773294877678,-15.053226240694324 L10.14087854553603,-14.998075176530808 L10.42523900469834,-14.945113844901936 L10.719431778619082,-14.894421008572293 L11.023019351180729,-14.846072056657118 L11.335550234556761,-14.800138892505522 L11.656559640653036,-14.756689826767618 L11.985570172328991,-14.715789475804637 L12.322092533370697,-14.677498665593102 L12.665626256159932,-14.64187434126595 L13.015660445957064,-14.608969482425165 L13.371674540690904,-14.578833024351843 L13.733139085125545,-14.551509785230865 " />
			<path d="M13.733139085125565,-14.551509785230863 L14.200247645081612,-14.520865380351502 L14.674189330687346,-14.494917782430553 L15.153822374909753,-14.473729501504149 L15.637991299734406,-14.45735158199692 L16.125529699813217,-14.445823479751489 L16.615263052437076,-14.439172966975912 L17.106011547063932,-14.43741606533798 L17.596592927585743,-14.440557007367625 L18.085825340486974,-14.448588226260384 L18.57253018203325,-14.461490374106493 L19.055534937630977,-14.479232368501696 L19.533676006517695,-14.50177146742748 L20.00580150497825,-14.52905337222034 L20.47077404133354,-14.561012358382015 L20.927473456016703,-14.59757143391557 L21.374799520135618,-14.638642524805846 L21.811674586020686,-14.684126687197486 L22.23704618337246,-14.733914345759343 L22.649889554754765,-14.787885557661061 L23.049210124325132,-14.84591030152585 L23.434045893855117,-14.907848790663369 L23.803469760268285,-14.973551809828116 L24.15659174911274,-15.04286107469202 L24.49256115858752,-15.115609613165246 L24.810568608957766,-15.191622167646596 L25.109847992421358,-15.270715617234409 L25.252237538950148,-15.31135841048407 L25.389678318729768,-15.35269941888086 L25.522087542573722,-15.394713740147157 L25.649385452116668,-15.437376066426852 L25.771495367857874,-15.480660699529835 L25.888343735350077,-15.524541566411646 L25.999860169505943,-15.568992234878884 L26.105977496995408,-15.613985929510982 L26.206631796708372,-15.659495547788717 L26.30176243825839,-15.705493676419755 L26.391312118504164,-15.751952607851386 L26.475226896066772,-15.798844356960519 " />
			<path d="M23.171722648785728,-13.879868092761043 L26.47522689606679,-15.79884435696053 " />
			<path d="M23.17172264878573,-13.879868092761045 L27.03664333240662,-13.604843577514595 " />
			<path d="M49.080634531032906,-9.235945533398292 L53.37519005249828,-11.730614676857622 " />
			<path d="M49.080634531032906,-9.235945533398292 L49.080634531032906,16.22101913508442 " />
			<path d="M28.787679869163533,6.944077290587318 L28.597453317121797,6.926562254171852 L28.40753596278588,6.9011183380750065 L28.21823650128601,6.867786899301892 L28.029862623418136,6.82662211538077 L27.842720515517698,6.777690896301927 L27.65711436177877,6.7210727757609465 L27.47334584982753,6.656859781883194 L27.291713680353702,6.58515628763962 L27.112513081596976,6.506078841197038 L26.936035329477686,6.419755976478601 L26.762567274151596,6.3263280042424235 L26.59239087375842,6.225946784017914 L26.42578273612195,6.118775477270539 L26.263013669146623,6.004988282196184 L26.104348240641443,5.884770150576244 L25.950044348286614,5.758316487153618 L25.800352800441978,5.625832832018284 L25.655516908478514,5.487534526518681 L25.515772091295602,5.343646363241968 L25.381345492666863,5.194402220632039 L25.252455612036513,5.040044682839249 L25.129311949366397,4.8808246454197075 L25.012114664610916,4.717000907525065 L24.901054252373406,4.548839751245661 L24.796311232272725,4.376614508790755 L24.69805585552337,4.200605118209374 L24.606447828206072,4.021097668373894 L24.521636051678577,3.8383839339659795 L24.443758380548708,3.652760901220697 L24.372941398602954,3.464530285199671 L24.309300213054875,3.2739980393779207 L24.252938267447743,3.081473858341508 L24.203947173515505,2.8872706744043084 L24.162406562275432,2.691704148962122 L24.12838395459438,2.4950921594108886 L24.10193465143916,2.297754282462966 L24.08310164398933,2.1000112747013295 L24.071915543758564,1.9021845512159654 L24.06839453283811,1.704595663169914 L24.072544334343313,1.5075657751441622 L24.084358203111144,1.3114151431108714 L24.103816936663932,1.1164625938834836 L24.13088890642139,0.9230250068898045 L24.16553010911031,0.7314167991104035 L24.207684238288284,0.5419494140195267 L24.2572827758652,0.35493081535918725 L24.31424510347383,0.17066498656929174 L24.378478633508365,-0.010548563312592574 L24.449878959618005,-0.18841528647867767 L24.528330026410956,-0.3626460751143328 L24.613704318092957,-0.5329577313192133 L24.70586306573381,-0.6990734274222752 L24.80465647282489,-0.8607231559425212 L24.856491406459952,-0.9397908781603017 L24.909923958761166,-1.017644168464086 L24.96493241496117,-1.094251387599996 L25.0214944198518,-1.1695814027123004 L25.079586986869145,-1.243603599995684 L25.139186507435223,-1.3162878971365624 L25.20026876055237,-1.387604755538416 L25.262808922646574,-1.4575251923261456 L25.326781577655673,-1.5260207921246018 L25.392160727358334,-1.5930637186064684 L25.458919801939615,-1.6586267258048348 L25.527031670788837,-1.7226831691858377 L25.596468653525356,-1.7852070164768983 L25.667202531247728,-1.8461728582461152 L25.739204558001788,-1.9055559182285702 L25.812445472462876,-1.9633320633952898 L25.88689550982749,-2.0194778137608 L25.96252441390962,-2.0739703519253125 L26.03930144943671,-2.1267875323476084 L26.117195414540358,-2.177907890344898 L26.196174653436614,-2.2273106508159812 L26.276207069290738,-2.2749757366841368 " />
			<path d="M26.276207069290773,-2.274975736684158 L26.417856757872304,-2.353702710717307 L26.562421255716295,-2.4270151025180238 L26.7097227529536,-2.4948227401077925 L26.859580073290303,-2.5570422221858284 L27.011808896848997,-2.613597020710101 L27.166221986876515,-2.6644175750244634 L27.32262942003938,-2.7094413774161095 L27.480838820023624,-2.748613049998133 L27.640655594151724,-2.78188441282262 L27.80188317272559,-2.8092145431404973 L27.964323250801204,-2.8305698257352456 L28.12777603209761,-2.8459239942685826 L28.292040474740155,-2.8552581635872483 L28.45691453853578,-2.858560852951157 L28.622195433476243,-2.855828000154357 L28.78767986916353,-2.8470629665214164 " />
			<path d="M28.817039838749913,-2.8449737357029514 L28.787679869163533,-2.8470629665214164 " />
			<path d="M45.323034053800754,5.320453116520286 L45.24874444808347,5.470708295058223 L45.169185807912946,5.617758648275531 L45.08445815873032,5.761419296485711 L44.99466802473549,5.901509621723408 L44.89992829495904,6.037853494827118 L44.80035808133207,6.170279496878329 L44.696082568932184,6.298621134718694 L44.587232858594035,6.422717050274264 L44.47394580208221,6.542411223423624 L44.35636383003381,6.657553168154852 L44.23463477288686,6.7679981217647 L44.108911675019904,6.873607226862139 L43.9793526023363,6.974247705947388 L43.84612044353516,7.069793028347009 L43.70938270531886,7.16012306929513 L43.569311301794535,7.245124260960814 " />
			<path d="M43.569311301794514,7.245124260960825 L43.42766161321299,7.323851234993974 L43.283097115368996,7.397163626794692 L43.135795618131695,7.4649712643844595 L42.98593829779499,7.5271907464624945 L42.833709474236294,7.583745544986769 L42.679296384208776,7.63456609930113 L42.522888951045914,7.6795899016927756 L42.36467955106166,7.718761574274799 L42.20486277693357,7.752032937099287 L42.0436351983597,7.779363067417165 L41.88119512028409,7.800718350011913 L41.71774233898768,7.8160725185452495 L41.553477896345136,7.825406687863916 L41.38860383254951,7.828709377227824 L41.22332293760905,7.8259765244310255 L41.05783850192178,7.817211490798085 " />
			<path d="M28.787679869163533,6.944077290587316 L41.057838501921765,7.817211490798082 " />
			<path d="M13.733139085125547,10.905454883251844 L13.733139085125547,4.0516567032757305 " />
			<path d="M13.733139085125547,4.05165670327573 L13.371674540690883,4.02433346415475 L13.015660445957044,3.9941970060814267 L12.665626256159916,3.9612921472406426 L12.32209253337068,3.92566782291349 L11.985570172328972,3.887377012701954 L11.656559640653022,3.8464766617389747 L11.335550234556749,3.803027596001071 L11.023019351180716,3.7570944318494743 L10.719431778619068,3.7087454799343 L10.425239004698328,3.6580526436046554 L10.14087854553602,3.6050913119757855 L9.866773294877667,3.5499402478122684 L9.603330895179827,3.49268147039401 L9.350943131374436,3.433400133539224 L9.109985348216089,3.3721843989658096 L8.880815892078727,3.309125305179454 L8.6637755780319,3.2443166320834513 L8.459187182989139,3.1778547615115817 L8.267354965682213,3.1098385338914603 L8.088564214175179,3.0403691012515353 L7.92308082159113,2.9695497767903274 L7.771150890682607,2.8974858812316304 L7.633000367833741,2.8242845861941697 L7.569157397853946,2.787291371935333 L7.5088347070384796,2.7500547548086587 L7.452054725070692,2.712588580442049 L7.398838564354536,2.6749067798192825 L7.349206012164382,2.6370233641000844 L7.303175523287544,2.5989524194103746 L7.260764213162279,2.560708101604652 L7.2219878515137665,2.522304631002445 L7.18686085649049,2.483756287100796 L7.155396289303166,2.4450774032647407 L7.127605849368194,2.406282361397753 L7.103499869957513,2.367385586594151 L7.083087314356371,2.328401541775439 L7.066375772530538,2.2893447223125807 L7.053371458304142,2.250229650636211 L7.044079207049181,2.211070870836788 L7.038502473887609,2.171882943256684 L7.036643332406616,2.1326804390762537 " />
			<path d="M7.036643332406616,2.1326804390762444 L7.038857116619733,2.0899023498968563 L7.045497489090975,2.0471432010091655 L7.056561509749994,2.0044219243189283 L7.072044279925935,1.9617574349637246 L7.091938944516361,1.9191686229381533 L7.1162366950223905,1.876674344730159 L7.144926773448731,1.8342934149721897 L7.17799647706684,1.7920445981108917 L7.215431164039158,1.7499466000990238 L7.257214259901875,1.7080180601132677 L7.303327264903395,1.666277542301602 L7.3537497621952195,1.624743527563902 L7.408459426871648,1.5834344053693947 L7.467432035854291,1.542368465614595 L7.530641478616989,1.501563890525328 L7.5980597687464275,1.461038746606434 " />
			<path d="M13.733139085125547,4.051656703275729 L4.294555521465378,3.3800150108059097 " />
			<path d="M23.17172264878573,4.723298395745549 L13.733139085125547,4.051656703275729 " />
			<path d="M23.171722648785728,-13.879868092761045 L23.171722648785728,-7.026069912784932 " />
			<path d="M23.171722648785728,11.577096575721663 L23.171722648785728,4.72329839574555 " />
			<path d="M13.733139085125561,-14.551509785230865 L13.733139085125561,-7.697711605254751 " />
			<path d="M26.47522689606679,-15.79884435696053 L26.47522689606679,-8.945046176984416 " />
			<path d="M26.47522689606679,2.804322131546065 L26.391312118504167,2.8512138806552074 L26.301762438258393,2.8976728120868387 L26.206631796708372,2.9436709407178756 L26.105977496995408,2.9891805589956117 L25.999860169505943,3.0341742536277105 L25.888343735350077,3.0786249220949484 L25.771495367857874,3.1225057889767585 L25.64938545211667,3.165790422079742 L25.522087542573725,3.208452748359435 L25.38967831872977,3.250467069625733 L25.252237538950148,3.291808078022523 L25.10984799242136,3.3324508712721856 L24.810568608957766,3.4115443208599983 L24.49256115858752,3.4875568753413484 L24.156591749112735,3.5603054138145755 L23.80346976026828,3.629614678678479 L23.43404589385511,3.6953176978432265 L23.04921012432513,3.7572561869807455 L22.64988955475476,3.8152809308455327 L22.237046183372456,3.8692521427472513 L21.811674586020683,3.9190398013091094 L21.37479952013561,3.9645239637007483 L20.927473456016696,4.005595054591024 L20.470774041333534,4.042154130124579 L20.00580150497824,4.074113116286256 L19.533676006517684,4.1013950210791155 L19.055534937630963,4.123934120004899 L18.572530182033237,4.141676114400101 L18.08582534048696,4.1545782622462095 L17.59659292758573,4.162609481138969 L17.10601154706392,4.165750423168614 L16.61526305243706,4.163993521530682 L16.125529699813203,4.157343008755105 L15.63799129973439,4.145814906509674 L15.153822374909733,4.129436987002443 L14.674189330687327,4.10824870607604 L14.200247645081593,4.082301108155091 L13.733139085125567,4.0516567032757305 " />
			<path d="M26.47522689606679,9.658120311522179 L26.47522689606679,2.8043221315460656 " />
			<path d="M23.171722648785728,4.72329839574555 L26.47522689606679,2.8043221315460656 " />
			<path d="M26.47522689606679,2.804322131546065 L26.391312118504167,2.8512138806552074 L26.301762438258393,2.8976728120868387 L26.206631796708372,2.9436709407178756 L26.105977496995408,2.9891805589956117 L25.999860169505943,3.0341742536277105 L25.888343735350077,3.0786249220949484 L25.771495367857874,3.1225057889767585 L25.64938545211667,3.165790422079742 L25.522087542573725,3.208452748359435 L25.38967831872977,3.250467069625733 L25.252237538950148,3.291808078022523 L25.10984799242136,3.3324508712721856 L24.810568608957766,3.4115443208599983 L24.49256115858752,3.4875568753413484 L24.156591749112735,3.5603054138145755 L23.80346976026828,3.629614678678479 L23.43404589385511,3.6953176978432265 L23.04921012432513,3.7572561869807455 L22.64988955475476,3.8152809308455327 L22.237046183372456,3.8692521427472513 L21.811674586020683,3.9190398013091094 L21.37479952013561,3.9645239637007483 L20.927473456016696,4.005595054591024 L20.470774041333534,4.042154130124579 L20.00580150497824,4.074113116286256 L19.533676006517684,4.1013950210791155 L19.055534937630963,4.123934120004899 L18.572530182033237,4.141676114400101 L18.08582534048696,4.1545782622462095 L17.59659292758573,4.162609481138969 L17.10601154706392,4.165750423168614 L16.61526305243706,4.163993521530682 L16.125529699813203,4.157343008755105 L15.63799129973439,4.145814906509674 L15.153822374909733,4.129436987002443 L14.674189330687327,4.10824870607604 L14.200247645081593,4.082301108155091 L13.733139085125567,4.0516567032757305 " />
			<path d="M26.47522689606679,9.658120311522179 L26.47522689606679,2.8043221315460656 " />
			<path d="M12.317351550576529,1.7968595928413353 L7.59805976874644,1.4610387466064254 " />
			<path d="M13.733139085125547,4.05165670327573 L13.371674540690883,4.02433346415475 L13.015660445957044,3.9941970060814267 L12.665626256159916,3.9612921472406426 L12.32209253337068,3.92566782291349 L11.985570172328972,3.887377012701954 L11.656559640653022,3.8464766617389747 L11.335550234556749,3.803027596001071 L11.023019351180716,3.7570944318494743 L10.719431778619068,3.7087454799343 L10.425239004698328,3.6580526436046554 L10.14087854553602,3.6050913119757855 L9.866773294877667,3.5499402478122684 L9.603330895179827,3.49268147039401 L9.350943131374436,3.433400133539224 L9.109985348216089,3.3721843989658096 L8.880815892078727,3.309125305179454 L8.6637755780319,3.2443166320834513 L8.459187182989139,3.1778547615115817 L8.267354965682213,3.1098385338914603 L8.088564214175179,3.0403691012515353 L7.92308082159113,2.9695497767903274 L7.771150890682607,2.8974858812316304 L7.633000367833741,2.8242845861941697 L7.569157397853946,2.787291371935333 L7.5088347070384796,2.7500547548086587 L7.452054725070692,2.712588580442049 L7.398838564354536,2.6749067798192825 L7.349206012164382,2.6370233641000844 L7.303175523287544,2.5989524194103746 L7.260764213162279,2.560708101604652 L7.2219878515137665,2.522304631002445 L7.18686085649049,2.483756287100796 L7.155396289303166,2.4450774032647407 L7.127605849368194,2.406282361397753 L7.103499869957513,2.367385586594151 L7.083087314356371,2.328401541775439 L7.066375772530538,2.2893447223125807 L7.053371458304142,2.250229650636211 L7.044079207049181,2.211070870836788 L7.038502473887609,2.171882943256684 L7.036643332406616,2.1326804390762537 " />
			<path d="M26.475226896066793,2.804322131546065 L21.755935114236703,2.468501285311155 " />
			<path d="M21.755935114236703,2.468501285311155 L21.679035545224856,2.5102166892090714 L21.59322033359018,2.5512070405631597 L21.498654286122665,2.5913936180360357 L21.39551901545754,2.630699243925653 L21.284012591290963,2.6690484323838892 L21.164349159990245,2.706367534385955 L21.03675853332906,2.742584879172206 L20.901485747137464,2.777630911890734 L20.758790590714383,2.8114383271763863 L20.60894710790625,2.8439421984096813 L20.452243070810045,2.875080102407378 L20.288979427111414,2.904792239305238 L20.11946972211928,2.933021547402742 L19.944039496606923,2.9597138127492046 L19.763025661615934,2.984817773260831 L19.576775851423772,3.008285217168757 L19.385647755917486,3.030071075609009 L19.190008433655805,3.0501335091765593 L18.990233606938858,3.0684339882772615 L18.786706940239263,3.0849373671233384 L18.57981930338045,3.099611951230327 L18.369968020877188,3.112429558285846 L18.157556108879977,3.1233655722732934 L17.942991501188768,3.1323989907465237 L17.509055813648178,3.144692334210025 L17.07149282496035,3.149215197311559 L16.633662253155357,3.14593285237739 L16.19892587083333,3.1348705020726015 L15.770621692633942,3.1161130858887276 L15.55991199900811,3.1038914548089505 L15.35203834512536,3.0898046279571045 L15.14739994913094,3.0738796588668302 L14.946389815907239,3.056147131195578 L14.749393982313968,3.0366410999891666 L14.556790775810335,3.015399026279593 L14.36895008788298,2.9924617051416984 L14.18623266367511,2.9678731873468553 L14.00898940918098,2.941680694764142 L13.837560717336377,2.9139345296714714 L13.672275814299221,2.8846879781508417 L13.513452127175814,2.8539972077532387 L13.361394674406977,2.82192115962972 L13.216395479984836,2.788521435335843 L13.078733012625268,2.7538621785268314 L12.948671650973004,2.7180099517706706 L12.826461175866541,2.681033608715725 L12.712336290637875,2.643004161858367 L12.6065161703684,2.603994646164577 L12.50920404096652,2.5640799788074133 L12.420586788875438,2.5233368152897406 L12.340834602160626,2.4818434022285163 L12.270100643666272,2.4396794270833735 L12.208520756868392,2.3969258651180807 L12.156213204989541,2.3536648238888 L12.113278443876112,2.3099793855577877 L12.079798929074435,2.2659534473353906 L12.066625694757562,2.2438391918835516 L12.05583895747617,2.2216715603567407 L12.047443896792675,2.1994611971813507 L12.041444543837125,2.1772187673026075 L12.037843779371535,2.1549549510634884 L12.036643332406616,2.1326804390762493 " />
			<path d="M12.036643332406616,2.132680439076245 L12.037750224513175,2.1112913944865506 L12.041070410748794,2.0899118200427056 L12.046602421078305,2.068551181697587 L12.054343806166276,2.0472189370199847 L12.076440013714503,2.0046773919032024 L12.107319904736727,1.9623625185935685 L12.146928796154246,1.9203492495947565 L12.195196547300917,1.8787119833200736 L12.252037684130453,1.8375244523454202 L12.317351550576522,1.7968595928413396 " />
			<path d="M21.755935114236678,8.650657772817436 L21.755935114236678,2.46850128531117 " />
			<path d="M12.317351550576529,8.65065777281745 L12.317351550576529,1.7968595928413365 " />
			<path d="M7.036643332406616,-16.47048604943035 L7.038502473887609,-16.431283545249908 L7.044079207049181,-16.392095617669806 L7.053371458304142,-16.35293683787038 L7.06637577253054,-16.313821766194014 L7.083087314356371,-16.274764946731153 L7.103499869957513,-16.23578090191244 L7.127605849368196,-16.19688412710884 L7.155396289303166,-16.15808908524185 L7.186860856490492,-16.119410201405795 L7.2219878515137665,-16.080861857504146 L7.260764213162281,-16.04245838690194 L7.303175523287548,-16.004214069096218 L7.349206012164384,-15.966143124406509 L7.398838564354538,-15.92825970868731 L7.452054725070695,-15.890577908064543 L7.508834707038481,-15.853111733697935 L7.569157397853948,-15.81587511657126 L7.633000367833745,-15.778881902312424 L7.771150890682609,-15.705680607274962 L7.9230808215911335,-15.633616711716265 L8.088564214175182,-15.562797387255056 L8.267354965682216,-15.493327954615133 L8.459187182989144,-15.42531172699501 L8.663775578031908,-15.35884985642314 L8.880815892078735,-15.294041183327138 L9.109985348216096,-15.230982089540783 L9.350943131374443,-15.169766354967368 L9.603330895179838,-15.110485018112582 L9.866773294877678,-15.053226240694324 L10.14087854553603,-14.998075176530808 L10.42523900469834,-14.945113844901936 L10.719431778619082,-14.894421008572293 L11.023019351180729,-14.846072056657118 L11.335550234556761,-14.800138892505522 L11.656559640653036,-14.756689826767618 L11.985570172328991,-14.715789475804637 L12.322092533370697,-14.677498665593102 L12.665626256159932,-14.64187434126595 L13.015660445957064,-14.608969482425165 L13.371674540690904,-14.578833024351843 L13.733139085125545,-14.551509785230865 " />
			<path d="M21.755935114236703,-16.13466520319544 L26.475226896066793,-15.79884435696053 " />
			<path d="M13.733139085125565,-14.551509785230863 L14.200247645081612,-14.520865380351502 L14.674189330687346,-14.494917782430553 L15.153822374909753,-14.473729501504149 L15.637991299734406,-14.45735158199692 L16.125529699813217,-14.445823479751489 L16.615263052437076,-14.439172966975912 L17.106011547063932,-14.43741606533798 L17.596592927585743,-14.440557007367625 L18.085825340486974,-14.448588226260384 L18.57253018203325,-14.461490374106493 L19.055534937630977,-14.479232368501696 L19.533676006517695,-14.50177146742748 L20.00580150497825,-14.52905337222034 L20.47077404133354,-14.561012358382015 L20.927473456016703,-14.59757143391557 L21.374799520135618,-14.638642524805846 L21.811674586020686,-14.684126687197486 L22.23704618337246,-14.733914345759343 L22.649889554754765,-14.787885557661061 L23.049210124325132,-14.84591030152585 L23.434045893855117,-14.907848790663369 L23.803469760268285,-14.973551809828116 L24.15659174911274,-15.04286107469202 L24.49256115858752,-15.115609613165246 L24.810568608957766,-15.191622167646596 L25.109847992421358,-15.270715617234409 L25.252237538950148,-15.31135841048407 L25.389678318729768,-15.35269941888086 L25.522087542573722,-15.394713740147157 L25.649385452116668,-15.437376066426852 L25.771495367857874,-15.480660699529835 L25.888343735350077,-15.524541566411646 L25.999860169505943,-15.568992234878884 L26.105977496995408,-15.613985929510982 L26.206631796708372,-15.659495547788717 L26.30176243825839,-15.705493676419755 L26.391312118504164,-15.751952607851386 L26.475226896066772,-15.798844356960519 " />
			<path d="M7.59805976874644,-17.14212774190017 L12.317351550576529,-16.80630689566526 " />
			<path d="M12.31735155057653,-16.80630689566526 L12.252037684130453,-16.765642036161175 L12.195196547300919,-16.72445450518652 L12.146928796154246,-16.682817238911838 L12.107319904736727,-16.640803969913026 L12.076440013714503,-16.598489096603394 L12.054343806166276,-16.55594755148661 L12.046602421078305,-16.53461530680901 L12.041070410748794,-16.51325466846389 L12.037750224513175,-16.491875094020045 L12.036643332406616,-16.47048604943036 " />
			<path d="M12.036643332406616,-16.47048604943035 L12.037843779371535,-16.448211537443104 L12.041444543837125,-16.425947721203986 L12.047443896792677,-16.40370529132524 L12.05583895747617,-16.381494928149852 L12.066625694757562,-16.359327296623043 L12.079798929074435,-16.337213041171204 L12.113278443876112,-16.293187102948806 L12.156213204989541,-16.249501664617792 L12.208520756868392,-16.206240623388513 L12.270100643666272,-16.16348706142322 L12.340834602160626,-16.12132308627808 L12.420586788875438,-16.079829673216853 L12.50920404096652,-16.03908650969918 L12.606516170368401,-15.999171842342017 L12.712336290637877,-15.960162326648227 L12.826461175866541,-15.922132879790869 L12.948671650973004,-15.885156536735924 L13.078733012625268,-15.849304309979763 L13.216395479984838,-15.81464505317075 L13.361394674406977,-15.781245328876874 L13.513452127175816,-15.749169280753355 L13.672275814299223,-15.718478510355752 L13.837560717336379,-15.689231958835123 L14.00898940918098,-15.661485793742452 L14.18623266367511,-15.63529330115974 L14.368950087882983,-15.610704783364897 L14.556790775810335,-15.587767462227001 L14.749393982313968,-15.566525388517428 L14.946389815907239,-15.547019357311017 L15.14739994913094,-15.529286829639764 L15.352038345125358,-15.51336186054949 L15.55991199900811,-15.499275033697645 L15.770621692633942,-15.487053402617867 L16.19892587083333,-15.468295986433994 L16.633662253155357,-15.457233636129203 L17.07149282496035,-15.453951291195036 L17.509055813648178,-15.45847415429657 L17.942991501188764,-15.47076749776007 L18.157556108879977,-15.479800916233302 L18.369968020877185,-15.490736930220748 L18.579819303380447,-15.503554537276267 L18.78670694023926,-15.518229121383255 L18.990233606938855,-15.534732500229332 L19.190008433655805,-15.553032979330034 L19.385647755917482,-15.573095412897585 L19.576775851423772,-15.594881271337837 L19.763025661615934,-15.618348715245762 L19.94403949660692,-15.64345267575739 L20.119469722119277,-15.670144941103851 L20.28897942711141,-15.698374249201356 L20.45224307081004,-15.728086386099216 L20.608947107906246,-15.759224290096912 L20.758790590714376,-15.791728161330207 L20.901485747137464,-15.82553557661586 L21.036758533329056,-15.860581609334387 L21.164349159990245,-15.896798954120639 L21.28401259129096,-15.934118056122704 L21.395519015457538,-15.97246724458094 L21.498654286122665,-16.01177287047056 L21.593220333590175,-16.051959447943435 L21.679035545224856,-16.09294979929752 L21.755935114236692,-16.134665203195436 " />
			<path d="M12.317351550576504,-16.806306895665244 L12.317351550576504,-9.952508715689131 " />
			<path d="M21.755935114236703,-16.13466520319544 L21.755935114236703,-9.952508715689145 " />
			<path d="M26.47522689606679,-15.79884435696053 L26.47522689606679,-8.945046176984416 " />
			<path d="M21.755935114236703,-16.13466520319544 L21.755935114236703,-9.952508715689145 " />
			<path d="M12.317351550576504,-16.806306895665244 L12.317351550576504,-9.952508715689131 " />
			<path d="M21.755935114236703,-16.13466520319544 L21.82124898068278,-16.175330062699523 L21.878090117512315,-16.216517593674176 L21.926357868658986,-16.25815485994886 L21.965966760076505,-16.30016812894767 L21.99684665109873,-16.342483002257307 L22.018942858646955,-16.385024547374087 L22.026684243734927,-16.40635679205169 L22.032216254064437,-16.427717430396807 L22.035536440300056,-16.449097004840652 L22.036643332406616,-16.470486049430345 " />
			<path d="M22.036643332406616,-16.47048604943035 L22.035442885441697,-16.492760561417594 L22.03184212097611,-16.51502437765671 L22.025842768020556,-16.537266807535456 L22.017447707337062,-16.559477170710846 L22.00666097005567,-16.581644802237655 L21.993487735738796,-16.603759057689494 L21.96000822093712,-16.64778499591189 L21.91707345982369,-16.691470434242905 L21.86476590794484,-16.734731475472184 L21.80318602114696,-16.77748503743748 L21.732452062652605,-16.81964901258262 L21.65269987593779,-16.861142425643845 L21.564082623846712,-16.901885589161516 L21.46677049444483,-16.941800256518682 L21.360950374175353,-16.98080977221247 L21.24682548894669,-17.01883921906983 L21.124615013840227,-17.055815562124774 L20.994553652187964,-17.091667788880937 L20.856891184828395,-17.126327045689948 L20.711891990406258,-17.159726769983823 L20.559834537637418,-17.19180281810734 L20.40101085051401,-17.222493588504946 L20.235725947476855,-17.251740140025575 L20.06429725563225,-17.279486305118244 L19.88705400113812,-17.30567879770096 L19.704336576930253,-17.330267315495803 L19.516495889002897,-17.353204636633695 L19.323892682499263,-17.37444671034327 L19.126896848905997,-17.393952741549683 L18.925886715682296,-17.411685269220932 L18.721248319687874,-17.427610238311207 L18.51337466580512,-17.441697065163055 L18.302664972179286,-17.45391869624283 L17.8743607939799,-17.472676112426704 L17.439624411657878,-17.483738462731495 L17.00179383985288,-17.48702080766566 L16.564230851165057,-17.48249794456413 L16.13029516362447,-17.470204601100626 L15.915730555933258,-17.461171182627396 L15.703318643936047,-17.45023516863995 L15.493467361432788,-17.437417561584432 L15.286579724573974,-17.42274297747744 L15.083053057874379,-17.406239598631366 L14.883278231157432,-17.387939119530664 L14.687638908895753,-17.36787668596311 L14.496510813389463,-17.34609082752286 L14.310261003197299,-17.322623383614935 L14.12924716820631,-17.29751942310331 L13.953816942693955,-17.270827157756845 L13.784307237701823,-17.242597849659344 L13.62104359400319,-17.212885712761484 L13.464339556906989,-17.181747808763784 L13.314496074098853,-17.149243937530493 L13.17180091767577,-17.11543652224484 L13.036528131484173,-17.08039048952631 L12.908937504822987,-17.044173144740057 L12.789274073522272,-17.006854042737995 L12.677767649355692,-16.968504854279757 L12.574632378690566,-16.92919922839014 L12.480066331223057,-16.889012650917266 L12.394251119588375,-16.848022299563176 L12.317351550576545,-16.80630689566527 " />
			<path d="M7.59805976874644,-17.14212774190017 L12.317351550576529,-16.80630689566526 " />
			<path d="M26.47522689606679,-15.79884435696053 L26.47522689606679,-8.945046176984416 " />
			<path d="M26.47522689606679,-15.79884435696053 L26.542645186196243,-15.839369500879432 L26.60585462895894,-15.880174075968698 L26.664827237941584,-15.921240015723498 L26.71953690261801,-15.962549137918005 L26.769959399909837,-16.004083152655706 L26.816072404911356,-16.04582367046737 L26.857855500774072,-16.08775221045313 L26.89529018774639,-16.129850208464994 L26.9283598913645,-16.172099025326293 L26.95704996979084,-16.21447995508426 L26.98134772029687,-16.256974233292258 L27.0012423848873,-16.29956304531783 L27.016725155063238,-16.342227534673032 L27.027789175722255,-16.38494881136327 L27.0344295481935,-16.42770796025096 L27.036643332406616,-16.47048604943034 " />
			<path d="M21.755935114236703,-16.13466520319544 L26.475226896066793,-15.79884435696053 " />
			<path d="M12.317351550576529,8.65065777281745 L12.317351550576529,1.7968595928413365 " />
			<path d="M21.755935114236678,8.650657772817436 L21.755935114236678,2.46850128531117 " />
			<path d="M12.317351550576529,1.7968595928413356 L12.394251119588374,1.7551441889434196 L12.480066331223053,1.7141538375893313 L12.574632378690563,1.6739672601164552 L12.677767649355689,1.6346616342268385 L12.789274073522268,1.5963124457686015 L12.908937504822983,1.5589933437665362 L13.03652813148417,1.5227759989802854 L13.171800917675766,1.487729966261757 L13.31449607409885,1.4539225509761042 L13.464339556906982,1.4214186797428094 L13.621043594003186,1.390280775745113 L13.784307237701817,1.3605686388472527 L13.953816942693951,1.3323393307497486 L14.129247168206309,1.305647065403286 L14.310261003197294,1.28054310489166 L14.496510813389458,1.257075660983734 L14.687638908895746,1.2352898025434818 L14.883278231157423,1.2152273689759316 L15.083053057874372,1.1969268898752294 L15.286579724573969,1.1804235110291523 L15.493467361432781,1.1657489269221637 L15.703318643936047,1.1529313198666444 L15.915730555933251,1.1419953058791976 L16.130295163624464,1.1329618874059668 L16.56423085116505,1.1206685439424655 L17.00179383985288,1.1161456808409318 L17.439624411657878,1.1194280257751004 L17.874360793979896,1.1304903760798892 L18.302664972179286,1.149247792263763 L18.51337466580512,1.16146942334354 L18.72124831968787,1.175556250195386 L18.92588671568229,1.19148121928566 L19.12689684890599,1.2092137469569124 L19.323892682499263,1.228719778163324 L19.516495889002893,1.249961851872897 L19.704336576930245,1.2728991730107917 L19.887054001138118,1.2974876908056352 L20.064297255632248,1.323680183388348 L20.23572594747685,1.3514263484810185 L20.401010850514005,1.3806729000016482 L20.559834537637414,1.4113636703992507 L20.71189199040625,1.4434397185227699 L20.85689118482839,1.4768394428166465 L20.99455365218796,1.5114986996256583 L21.124615013840227,1.5473509263818193 L21.24682548894669,1.5843272694367647 L21.360950374175353,1.6223567162941226 L21.46677049444483,1.6613662319879128 L21.56408262384671,1.7012808993450759 L21.65269987593779,1.742024062862749 L21.732452062652605,1.7835174759239731 L21.80318602114696,1.8256814510691162 L21.86476590794484,1.868435013034409 L21.91707345982369,1.9116960542636896 L21.96000822093712,1.9553814925947017 L21.993487735738796,1.9994074308170993 L22.00666097005567,2.021521686268938 L22.01744770733706,2.043689317795749 L22.025842768020553,2.0658996809711385 L22.03184212097611,2.0881421108498817 L22.035442885441697,2.1104059270890017 L22.036643332406616,2.132680439076236 " />
			<path d="M22.036643332406616,2.1326804390762457 L22.035536440300056,2.15406948366594 L22.032216254064437,2.1754490581097854 L22.026684243734927,2.196809696454904 L22.018942858646955,2.2181419411325054 L21.99684665109873,2.2606834862492886 L21.965966760076505,2.3029983595589223 L21.926357868658986,2.3450116285577343 L21.878090117512315,2.386648894832417 L21.82124898068278,2.4278364258070706 L21.755935114236703,2.4685012853111545 " />
			<path d="M26.47522689606679,9.658120311522179 L26.47522689606679,2.8043221315460656 " />
			<path d="M26.475226896066793,2.804322131546065 L21.755935114236703,2.468501285311155 " />
			<path d="M27.036643332406616,2.132680439076246 L27.0344295481935,2.175458528255635 L27.027789175722255,2.2182176771433255 L27.016725155063238,2.2609389538335622 L27.0012423848873,2.303603443188766 L26.98134772029687,2.3461922552143366 L26.95704996979084,2.3886865334223315 L26.9283598913645,2.4310674631803013 L26.89529018774639,2.473316280041599 L26.857855500774072,2.5154142780534663 L26.816072404911356,2.5573428180392233 L26.769959399909837,2.5990833358508896 L26.71953690261801,2.6406173505885895 L26.664827237941584,2.681926472783096 L26.60585462895894,2.7229924125378955 L26.542645186196246,2.7637969876271624 L26.475226896066793,2.8043221315460642 " />
			<path d="M12.317351550576529,1.7968595928413353 L7.59805976874644,1.4610387466064254 " />
			<path d="M7.036643332406616,2.132680439076246 L7.036643332406616,8.98647861905236 " />
			<path d="M7.036643332406616,-9.616687869454235 L7.036643332406616,-16.47048604943035 " />
			<path d="M26.276207069290773,-2.274975736684155 L30.570762590756154,-4.769644880143485 " />
			<path d="M43.569311301794514,7.245124260960826 L47.86386682325989,4.750455117501496 " />
			<path d="M7.036643332406616,2.132680439076246 L7.036643332406616,8.98647861905236 " />
			<path d="M12.036643332406616,2.132680439076246 L12.036643332406616,8.98647861905236 " />
			<path d="M7.036643332406616,-9.616687869454235 L7.036643332406616,-16.47048604943035 " />
			<path d="M12.036643332406616,-9.616687869454235 L12.036643332406616,-16.47048604943035 " />
			<path d="M22.03664333240662,-9.616687869454235 L22.03664333240662,-16.47048604943035 " />
			<path d="M22.03664333240662,2.132680439076246 L22.03664333240662,8.98647861905236 " />

       </g>

       <!-- solid lines -->
       <g  stroke="rgb(0,0,0)" fill="none">
			<path d="M0.0,-12.728482334241354 L7.598059768746441,-17.14212774190017 " />
			<path d="M0.0,-12.728482334241354 L0.0,12.728482334241354 " />
			<path d="M7.598059768746442,8.31483692658254 L8.881784197001252e-16,12.728482334241354 " />
			<path d="M7.598059768746442,8.31483692658254 L7.598059768746442,1.4610387466064267 " />
			<path d="M4.29455552146538,3.38001501080591 L7.598059768746442,1.4610387466064256 " />
			<path d="M4.29455552146538,-8.36935329772457 L4.29455552146538,3.380015010805911 " />
			<path d="M4.29455552146538,-8.369353297724569 L7.598059768746442,-10.288329561924055 " />
			<path d="M7.598059768746442,-17.14212774190017 L7.598059768746442,-10.288329561924055 " />
			<path d="M27.03664333240662,-13.604843577514595 L53.3751900524983,-11.730614676857622 " />
			<path d="M0.0,12.728482334241354 L49.08063453103291,16.22101913508442 " />
			<path d="M41.057838501921765,-1.9739287663106508 L28.817039838749913,-2.8449737357029514 " />
			<path d="M41.05783850192176,-1.9739287663106508 L41.2062560312115,-1.9609459270648935 L41.35452673234069,-1.9431327870194326 L41.50250392240459,-1.9205069685575462 L41.650041208866384,-1.8930908552030767 L41.796992634382036,-1.8609115694766118 L41.94321282119461,-1.824000946063403 L42.08855711495519,-1.7823955003195988 L42.2328817278282,-1.7361363921479183 L42.37604388073942,-1.6852693852785232 L42.51790194462606,-1.6298448019953589 L42.658315580549214,-1.5699174733527586 L42.79714587852985,-1.5055466849315677 L42.934255494971296,-1.4367961181884321 L43.069508788532055,-1.363733787456296 L43.20277195431457,-1.286431972658415 L43.33391315623725,-1.2049671478024648 L43.46280265745875,-1.1194199053254743 L43.58931294872548,-1.0298748763644316 L43.7133188745154,-0.9364206470314502 L43.834697756853295,-0.839149670776294 L43.95332951667499,-0.7381581769230006 L44.06909679262054,-0.6335460754710449 L44.181885057138786,-0.5254168582552614 L44.291582729788445,-0.41387749656227335 L44.39808128762368,-0.29903833530473944 L44.50127537255492,-0.1810129838580954 L44.60106289557862,-0.05991820366780276 L44.697345137773105,0.06412620726173479 L44.79002684796026,0.19099753288228039 L44.879016336936765,0.3205702605036782 L44.96422556818131,0.452716204962456 L45.045570244948486,0.5873046354342826 L45.1229698936627,0.7242024047648279 L45.196347943530036,0.8632740811910753 L45.26563180228908,1.0043820823227774 L45.33075292802576,1.147386811251506 L45.3916468969813,1.2921467946526541 L45.44825346728609,1.438518822743753 L45.50051663855637,1.5863580909606556 L45.54838470729501,1.7355183432114185 L45.591810318041254,1.8858520165661772 L45.630750510219116,2.0372103872398584 L45.66516676063785,2.18944371772331 L45.69502502160266,2.342401404917314 L45.72029575459773,2.495932129122908 L45.74095395950845,2.649884003740639 L45.75697919935383,2.8041047255306415 L45.768355620504565,2.9584417252849025 L45.77507196836696,3.1127423187626353 L45.777121598516956,3.2668538577394637 L45.7745024832734,3.4206238810209753 L45.767217213704065,3.573900265271236 L45.75527299706225,3.7265313755070792 L45.73868164965677,3.878366215109269 L45.717459585162146,4.029254575202118 L45.69162779838074,4.1790471832538225 L45.66121184447275,4.32759585075047 L45.62624181367472,4.4747536197976325 L45.58675230153152,4.6203749085045205 L45.542782374671326,4.764315655006877 L45.49437553215729,4.906433459986114 L45.44157966245434,5.046587727543716 L45.3844469960535,5.184639804291515 L45.32303405380076,5.320453116520268 " />
			<path d="M13.733139085125547,10.905454883251844 L13.371674540690883,10.878131644130864 L13.015660445957044,10.847995186057542 L12.665626256159916,10.815090327216756 L12.32209253337068,10.779466002889604 L11.985570172328972,10.74117519267807 L11.656559640653022,10.700274841715089 L11.335550234556749,10.656825775977186 L11.023019351180716,10.610892611825589 L10.719431778619068,10.562543659910414 L10.425239004698328,10.511850823580769 L10.14087854553602,10.458889491951899 L9.866773294877667,10.403738427788383 L9.603330895179827,10.346479650370124 L9.350943131374436,10.287198313515338 L9.109985348216089,10.225982578941924 L8.880815892078727,10.162923485155568 L8.6637755780319,10.098114812059565 L8.459187182989139,10.031652941487696 L8.267354965682213,9.963636713867574 L8.088564214175179,9.894167281227649 L7.92308082159113,9.823347956766442 L7.771150890682607,9.751284061207745 L7.633000367833741,9.678082766170284 L7.569157397853946,9.641089551911447 L7.5088347070384796,9.603852934784774 L7.452054725070692,9.566386760418164 L7.398838564354536,9.528704959795396 L7.349206012164382,9.490821544076198 L7.303175523287544,9.452750599386489 L7.260764213162279,9.414506281580767 L7.2219878515137665,9.37610281097856 L7.18686085649049,9.337554467076911 L7.155396289303166,9.298875583240855 L7.127605849368194,9.260080541373867 L7.103499869957513,9.221183766570265 L7.083087314356371,9.182199721751553 L7.066375772530538,9.143142902288695 L7.053371458304142,9.104027830612326 L7.044079207049181,9.064869050812902 L7.038502473887609,9.025681123232799 L7.036643332406616,8.986478619052368 " />
			<path d="M7.036643332406616,8.98647861905236 L7.038857116619733,8.94370052987297 L7.045497489090975,8.90094138098528 L7.056561509749994,8.858220104295043 L7.072044279925935,8.81555561493984 L7.091938944516361,8.772966802914267 L7.1162366950223905,8.730472524706274 L7.144926773448731,8.688091594948304 L7.17799647706684,8.645842778087006 L7.215431164039158,8.603744780075138 L7.257214259901875,8.561816240089382 L7.303327264903395,8.520075722277717 L7.3537497621952195,8.478541707540016 L7.408459426871648,8.437232585345509 L7.467432035854291,8.396166645590709 L7.530641478616989,8.355362070501442 L7.5980597687464275,8.314836926582549 " />
			<path d="M26.47522689606679,9.658120311522179 L26.391312118504167,9.705012060631322 L26.301762438258393,9.751470992062954 L26.206631796708372,9.79746912069399 L26.105977496995408,9.842978738971725 L25.999860169505943,9.887972433603824 L25.888343735350077,9.932423102071063 L25.771495367857874,9.976303968952873 L25.64938545211667,10.019588602055856 L25.522087542573725,10.06225092833555 L25.38967831872977,10.104265249601848 L25.252237538950148,10.145606257998637 L25.10984799242136,10.1862490512483 L24.810568608957766,10.265342500836113 L24.49256115858752,10.341355055317463 L24.156591749112735,10.41410359379069 L23.80346976026828,10.483412858654592 L23.43404589385511,10.549115877819341 L23.04921012432513,10.61105436695686 L22.64988955475476,10.669079110821647 L22.237046183372456,10.723050322723365 L21.811674586020683,10.772837981285225 L21.37479952013561,10.818322143676863 L20.927473456016696,10.859393234567138 L20.470774041333534,10.895952310100693 L20.00580150497824,10.92791129626237 L19.533676006517684,10.95519320105523 L19.055534937630963,10.977732299981014 L18.572530182033237,10.995474294376216 L18.08582534048696,11.008376442222325 L17.59659292758573,11.016407661115084 L17.10601154706392,11.01954860314473 L16.61526305243706,11.017791701506797 L16.125529699813203,11.01114118873122 L15.63799129973439,10.99961308648579 L15.153822374909733,10.983235166978558 L14.674189330687327,10.962046886052155 L14.200247645081593,10.936099288131206 L13.733139085125567,10.905454883251846 " />
			<path d="M23.171722648785728,11.577096575721665 L26.47522689606679,9.658120311522179 " />
			<path d="M23.17172264878573,11.577096575721663 L53.3751900524983,13.726349991625087 " />
			<path d="M49.080634531032906,16.22101913508442 L53.37519005249828,13.726349991625089 " />
			<path d="M4.294555521465378,-8.36935329772457 L13.733139085125561,-7.697711605254749 " />
			<path d="M13.733139085125561,-7.697711605254749 L23.17172264878573,-7.026069912784931 " />
			<path d="M53.37519005249828,-11.730614676857622 L53.37519005249828,13.726349991625087 " />
			<path d="M33.08223539062891,4.449408147127988 L32.892008838587174,4.431893110712522 L32.702091484251255,4.406449194615677 L32.51279202275139,4.3731177558425625 L32.324418144883516,4.3319529719214405 L32.137276036983074,4.283021752842597 L31.951669883244147,4.226403632301617 L31.767901371292908,4.162190638423864 L31.58626920181908,4.09048714418029 L31.407068603062353,4.011409697737708 L31.230590850943063,3.925086833019271 L31.057122795616973,3.8316588607830933 L30.886946395223795,3.731277640558585 L30.720338257587326,3.6241063338112087 L30.557569190612,3.5103191387368544 L30.39890376210682,3.390101007116914 L30.24459986975199,3.2636473436942883 L30.094908321907354,3.131163688558954 L29.95007242994389,2.992865383059352 L29.81032761276098,2.8489772197826375 L29.67590101413224,2.6997330771727093 L29.54701113350189,2.5453755393799193 L29.423867470831773,2.3861555019603773 L29.306670186076293,2.222331764065736 L29.195609773838783,2.0541706077863315 L29.0908667537381,1.8819453653314255 L28.992611376988748,1.7059359747500444 L28.90100334967145,1.526428524914564 L28.816191573143954,1.3437147905066498 L28.738313902014085,1.1580917577613672 L28.66749692006833,0.9698611417403411 L28.603855734520252,0.7793288959185909 L28.54749378891312,0.5868047148821784 L28.498502694980882,0.3926015309449786 L28.45696208374081,0.19703500550279207 L28.422939476059756,0.00042301595155902483 L28.396490172904535,-0.19691486099636357 L28.377657165454707,-0.39465786875800024 L28.36647106522394,-0.5924845922433644 L28.362950054303486,-0.7900734802894158 L28.36709985580869,-0.9871033683151675 L28.37891372457652,-1.1832540003484584 L28.39837245812931,-1.3782065495758462 L28.425444427886767,-1.5716441365695253 L28.460085630575687,-1.7632523443489263 L28.50223975975366,-1.952719729439803 L28.551838297330576,-2.1397383281001425 L28.608800624939207,-2.3240041568900383 L28.67303415497374,-2.5052177067719223 L28.74443448108338,-2.6830844299380074 L28.822885547876332,-2.8573152185736626 L28.908259839558333,-3.027626874778543 L29.000418587199185,-3.193742570881605 L29.09921199429027,-3.355392299401851 L29.15104692792533,-3.4344600216196315 L29.204479480226542,-3.512313311923416 L29.259487936426545,-3.5889205310593257 L29.316049941317175,-3.66425054617163 L29.374142508334522,-3.738272743455014 L29.4337420289006,-3.810957040595892 L29.494824282017746,-3.8822738989977457 L29.55736444411195,-3.9521943357854754 L29.62133709912105,-4.020689935583931 L29.68671624882371,-4.087732862065798 L29.75347532340499,-4.153295869264165 L29.821587192254214,-4.2173523126451675 L29.891024174990733,-4.279876159936228 L29.961758052713105,-4.340842001705445 L30.033760079467164,-4.4002250616879 L30.107000993928253,-4.45800120685462 L30.181451031292866,-4.514146957220129 L30.257079935374996,-4.568639495384643 L30.333856970902087,-4.621456675806938 L30.411750936005735,-4.672577033804227 L30.49073017490199,-4.7219797942753114 L30.570762590756114,-4.769644880143467 " />
			<path d="M30.57076259075615,-4.769644880143488 L30.71241227933768,-4.848371854176637 L30.85697677718167,-4.921684245977353 L31.004278274418976,-4.989491883567123 L31.15413559475568,-5.051711365645158 L31.306364418314374,-5.1082661641694305 L31.46077750834189,-5.159086718483794 L31.617184941504757,-5.204110520875439 L31.775394341489,-5.243282193457462 L31.9352111156171,-5.27655355628195 L32.096438694190965,-5.303883686599827 L32.25887877226658,-5.325238969194576 L32.42233155356299,-5.340593137727913 L32.58659599620553,-5.349927307046578 L32.75147006000116,-5.353229996410487 L32.91675095494162,-5.350497143613687 L33.08223539062891,-5.341732109980747 " />
			<path d="M45.35239402338714,-4.468597909769981 L33.08223539062891,-5.341732109980747 " />
			<path d="M45.352394023387134,-4.468597909769981 L45.54262057542887,-4.451082873354514 L45.73253792976479,-4.425638957257668 L45.92183739126466,-4.392307518484554 L46.110211269132535,-4.351142734563432 L46.29735337703297,-4.30221151548459 L46.4829595307719,-4.245593394943608 L46.666728042723136,-4.181380401065855 L46.848360212196965,-4.10967690682228 L47.027560810953695,-4.030599460379699 L47.204038563072984,-3.9442765956612607 L47.377506618399075,-3.8508486234250836 L47.54768301879225,-3.750467403200577 L47.714291156428715,-3.6432960964532017 L47.877060223404044,-3.5295089013788474 L48.035725651909225,-3.409290769758907 L48.19002954426405,-3.2828371063362805 L48.33972109210869,-3.1503534512009455 L48.48455698407216,-3.0120551457013436 L48.624301801255065,-2.8681669824246288 L48.75872839988381,-2.718922839814699 L48.887618280514154,-2.5645653020219092 L49.01076194318428,-2.4053452646023663 L49.127959227939755,-2.241521526707724 L49.23901964017726,-2.073360370428323 L49.343762660277946,-1.9011351279734199 L49.442018037027296,-1.725125737392038 L49.533626064344595,-1.5456182875565574 L49.61843784087209,-1.3629045531486423 L49.69631551200196,-1.1772815204033589 L49.76713249394771,-0.9890509043823326 L49.83077367949579,-0.7985186585605817 L49.88713562510293,-0.6059944775241677 L49.93612671903516,-0.41179129358696787 L49.97766733027524,-0.21622476814478064 L50.01168993795629,-0.01961277859354582 L50.03813924111151,0.17772509835437278 L50.05697224856134,0.37546810611600456 L50.0681583487921,0.5732948296013709 L50.07167935971256,0.7708837176474244 L50.067529558207355,0.9679136056731761 L50.05571568943952,1.1640642377064672 L50.036256955886735,1.3590167869338543 L50.00918498612928,1.5524543739275336 L49.97454378344035,1.744062581706936 L49.93238965426238,1.9335299667978154 L49.88279111668547,2.1205485654581544 L49.82582878907684,2.3048143942480506 L49.7615952590423,2.486027944129931 L49.69019493293266,2.6638946672960113 L49.61174386613972,2.8381254559316687 L49.52636957445771,3.008437112136552 L49.43421082681686,3.174552808239613 L49.33541741972577,3.3362025367598593 L49.283582486090715,3.4152702589776407 L49.2301499337895,3.493123549281424 L49.1751414775895,3.5697307684173336 L49.11857947269887,3.645060783529638 L49.06048690568152,3.7190829808130217 L49.00088738511544,3.7917672779539022 L48.9398051319983,3.8630841363557566 L48.87726496990409,3.933004573143486 L48.81329231489499,4.001500172941943 L48.74791316519233,4.06854309942381 L48.68115409061105,4.134106106622175 L48.61304222176182,4.198162550003177 L48.54360523902531,4.260686397294236 L48.472871361302936,4.321652239063454 L48.40086933454888,4.381035299045908 L48.3276284200878,4.438811444212625 L48.253178382723185,4.494957194578136 L48.17754947864105,4.549449732742648 L48.100772443113954,4.6022669131649465 L48.02287847801031,4.653387271162236 L47.94389923911405,4.70279003163332 L47.86386682325991,4.750455117501485 " />
			<path d="M47.86386682325989,4.750455117501495 L47.72221713467837,4.829182091534644 L47.57765263683437,4.902494483335362 L47.43035113959707,4.97030212092513 L47.280493819260364,5.032521603003165 L47.12826499570167,5.089076401527439 L46.97385190567415,5.139896955841801 L46.81744447251129,5.184920758233446 L46.65923507252704,5.224092430815469 L46.49941829839894,5.257363793639957 L46.33819071982508,5.284693923957835 L46.17575064174947,5.306049206552583 L46.01229786045305,5.32140337508592 L45.84803341781051,5.330737544404586 L45.68315935401488,5.334040233768494 L45.517878459074424,5.331307380971696 L45.352394023387156,5.322542347338755 " />
			<path d="M33.08223539062891,4.449408147127986 L45.35239402338714,5.322542347338752 " />
			<path d="M7.598059768746445,-10.288329561924057 L7.530641478616989,-10.247804418005153 L7.467432035854291,-10.206999842915886 L7.40845942687165,-10.165933903161086 L7.353749762195221,-10.12462478096658 L7.3033272649033965,-10.08309076622888 L7.257214259901875,-10.041350248417213 L7.215431164039156,-9.999421708431456 L7.17799647706684,-9.95732371041959 L7.1449267734487325,-9.915074893558293 L7.116236695022392,-9.872693963800323 L7.091938944516361,-9.830199685592328 L7.072044279925935,-9.787610873566758 L7.056561509749994,-9.744946384211554 L7.045497489090975,-9.702225107521317 L7.038857116619733,-9.659465958633625 L7.036643332406616,-9.616687869454255 " />
			<path d="M7.036643332406616,-9.616687869454235 L7.038502473887609,-9.577485365273796 L7.044079207049181,-9.538297437693693 L7.053371458304142,-9.49913865789427 L7.06637577253054,-9.460023586217899 L7.083087314356371,-9.42096676675504 L7.103499869957513,-9.381982721936328 L7.127605849368196,-9.343085947132726 L7.155396289303166,-9.30429090526574 L7.186860856490492,-9.265612021429684 L7.2219878515137665,-9.227063677528035 L7.260764213162281,-9.188660206925828 L7.303175523287548,-9.150415889120104 L7.349206012164384,-9.112344944430395 L7.398838564354538,-9.074461528711197 L7.452054725070695,-9.03677972808843 L7.508834707038481,-8.999313553721821 L7.569157397853948,-8.962076936595146 L7.633000367833745,-8.92508372233631 L7.771150890682609,-8.851882427298849 L7.9230808215911335,-8.779818531740151 L8.088564214175182,-8.708999207278943 L8.267354965682216,-8.63952977463902 L8.459187182989144,-8.571513547018897 L8.663775578031908,-8.505051676447026 L8.880815892078735,-8.440243003351025 L9.109985348216096,-8.37718390956467 L9.350943131374443,-8.315968174991255 L9.603330895179838,-8.256686838136469 L9.866773294877678,-8.19942806071821 L10.14087854553603,-8.144276996554694 L10.42523900469834,-8.091315664925823 L10.719431778619082,-8.04062282859618 L11.023019351180729,-7.992273876681004 L11.335550234556761,-7.946340712529408 L11.656559640653036,-7.902891646791504 L11.985570172328991,-7.861991295828524 L12.322092533370697,-7.823700485616989 L12.665626256159932,-7.788076161289837 L13.015660445957064,-7.755171302449052 L13.371674540690904,-7.725034844375729 L13.733139085125545,-7.697711605254751 " />
			<path d="M13.733139085125565,-7.69771160525475 L14.200247645081612,-7.667067200375389 L14.674189330687346,-7.64111960245444 L15.153822374909753,-7.619931321528036 L15.637991299734406,-7.603553402020806 L16.125529699813217,-7.592025299775376 L16.615263052437076,-7.5853747869997985 L17.106011547063932,-7.583617885361866 L17.596592927585743,-7.586758827391511 L18.085825340486974,-7.594790046284271 L18.57253018203325,-7.6076921941303794 L19.055534937630977,-7.625434188525583 L19.533676006517695,-7.647973287451366 L20.00580150497825,-7.675255192244226 L20.47077404133354,-7.707214178405903 L20.927473456016703,-7.743773253939458 L21.374799520135618,-7.784844344829733 L21.811674586020686,-7.830328507221372 L22.23704618337246,-7.88011616578323 L22.649889554754765,-7.934087377684948 L23.049210124325132,-7.992112121549736 L23.434045893855117,-8.054050610687256 L23.803469760268285,-8.119753629852003 L24.15659174911274,-8.189062894715907 L24.49256115858752,-8.261811433189132 L24.810568608957766,-8.337823987670482 L25.109847992421358,-8.416917437258295 L25.252237538950148,-8.457560230507957 L25.389678318729768,-8.498901238904747 L25.522087542573722,-8.540915560171044 L25.649385452116668,-8.583577886450739 L25.771495367857874,-8.626862519553722 L25.888343735350077,-8.670743386435532 L25.999860169505943,-8.71519405490277 L26.105977496995408,-8.760187749534868 L26.206631796708372,-8.805697367812604 L26.30176243825839,-8.851695496443641 L26.391312118504164,-8.898154427875273 L26.475226896066772,-8.945046176984405 " />
			<path d="M23.171722648785728,-7.02606991278493 L26.47522689606679,-8.945046176984414 " />
			<path d="M26.47522689606679,9.658120311522179 L26.391312118504167,9.705012060631322 L26.301762438258393,9.751470992062954 L26.206631796708372,9.79746912069399 L26.105977496995408,9.842978738971725 L25.999860169505943,9.887972433603824 L25.888343735350077,9.932423102071063 L25.771495367857874,9.976303968952873 L25.64938545211667,10.019588602055856 L25.522087542573725,10.06225092833555 L25.38967831872977,10.104265249601848 L25.252237538950148,10.145606257998637 L25.10984799242136,10.1862490512483 L24.810568608957766,10.265342500836113 L24.49256115858752,10.341355055317463 L24.156591749112735,10.41410359379069 L23.80346976026828,10.483412858654592 L23.43404589385511,10.549115877819341 L23.04921012432513,10.61105436695686 L22.64988955475476,10.669079110821647 L22.237046183372456,10.723050322723365 L21.811674586020683,10.772837981285225 L21.37479952013561,10.818322143676863 L20.927473456016696,10.859393234567138 L20.470774041333534,10.895952310100693 L20.00580150497824,10.92791129626237 L19.533676006517684,10.95519320105523 L19.055534937630963,10.977732299981014 L18.572530182033237,10.995474294376216 L18.08582534048696,11.008376442222325 L17.59659292758573,11.016407661115084 L17.10601154706392,11.01954860314473 L16.61526305243706,11.017791701506797 L16.125529699813203,11.01114118873122 L15.63799129973439,10.99961308648579 L15.153822374909733,10.983235166978558 L14.674189330687327,10.962046886052155 L14.200247645081593,10.936099288131206 L13.733139085125567,10.905454883251846 " />
			<path d="M12.317351550576529,8.65065777281745 L7.59805976874644,8.31483692658254 " />
			<path d="M13.733139085125547,10.905454883251844 L13.371674540690883,10.878131644130864 L13.015660445957044,10.847995186057542 L12.665626256159916,10.815090327216756 L12.32209253337068,10.779466002889604 L11.985570172328972,10.74117519267807 L11.656559640653022,10.700274841715089 L11.335550234556749,10.656825775977186 L11.023019351180716,10.610892611825589 L10.719431778619068,10.562543659910414 L10.425239004698328,10.511850823580769 L10.14087854553602,10.458889491951899 L9.866773294877667,10.403738427788383 L9.603330895179827,10.346479650370124 L9.350943131374436,10.287198313515338 L9.109985348216089,10.225982578941924 L8.880815892078727,10.162923485155568 L8.6637755780319,10.098114812059565 L8.459187182989139,10.031652941487696 L8.267354965682213,9.963636713867574 L8.088564214175179,9.894167281227649 L7.92308082159113,9.823347956766442 L7.771150890682607,9.751284061207745 L7.633000367833741,9.678082766170284 L7.569157397853946,9.641089551911447 L7.5088347070384796,9.603852934784774 L7.452054725070692,9.566386760418164 L7.398838564354536,9.528704959795396 L7.349206012164382,9.490821544076198 L7.303175523287544,9.452750599386489 L7.260764213162279,9.414506281580767 L7.2219878515137665,9.37610281097856 L7.18686085649049,9.337554467076911 L7.155396289303166,9.298875583240855 L7.127605849368194,9.260080541373867 L7.103499869957513,9.221183766570265 L7.083087314356371,9.182199721751553 L7.066375772530538,9.143142902288695 L7.053371458304142,9.104027830612326 L7.044079207049181,9.064869050812902 L7.038502473887609,9.025681123232799 L7.036643332406616,8.986478619052368 " />
			<path d="M7.036643332406616,8.98647861905236 L7.038857116619733,8.94370052987297 L7.045497489090975,8.90094138098528 L7.056561509749994,8.858220104295043 L7.072044279925935,8.81555561493984 L7.091938944516361,8.772966802914267 L7.1162366950223905,8.730472524706274 L7.144926773448731,8.688091594948304 L7.17799647706684,8.645842778087006 L7.215431164039158,8.603744780075138 L7.257214259901875,8.561816240089382 L7.303327264903395,8.520075722277717 L7.3537497621952195,8.478541707540016 L7.408459426871648,8.437232585345509 L7.467432035854291,8.396166645590709 L7.530641478616989,8.355362070501442 L7.5980597687464275,8.314836926582549 " />
			<path d="M26.475226896066793,9.658120311522179 L21.755935114236703,9.32229946528727 " />
			<path d="M21.755935114236703,9.32229946528727 L21.679035545224856,9.364014869185185 L21.59322033359018,9.405005220539273 L21.498654286122665,9.44519179801215 L21.39551901545754,9.484497423901766 L21.284012591290963,9.522846612360004 L21.164349159990245,9.56016571436207 L21.03675853332906,9.59638305914832 L20.901485747137464,9.631429091866849 L20.758790590714383,9.665236507152501 L20.60894710790625,9.697740378385795 L20.452243070810045,9.728878282383493 L20.288979427111414,9.758590419281353 L20.11946972211928,9.786819727378855 L19.944039496606923,9.813511992725319 L19.763025661615934,9.838615953236944 L19.576775851423772,9.862083397144872 L19.385647755917486,9.883869255585124 L19.190008433655805,9.903931689152673 L18.990233606938858,9.922232168253375 L18.786706940239263,9.938735547099453 L18.57981930338045,9.953410131206441 L18.369968020877188,9.96622773826196 L18.157556108879977,9.977163752249407 L17.942991501188768,9.986197170722638 L17.509055813648178,9.99849051418614 L17.07149282496035,10.003013377287672 L16.633662253155357,9.999731032353505 L16.19892587083333,9.988668682048715 L15.770621692633942,9.969911265864841 L15.55991199900811,9.957689634785066 L15.35203834512536,9.94360280793322 L15.14739994913094,9.927677838842945 L14.946389815907239,9.909945311171692 L14.749393982313968,9.890439279965282 L14.556790775810335,9.869197206255707 L14.36895008788298,9.846259885117812 L14.18623266367511,9.821671367322969 L14.00898940918098,9.795478874740256 L13.837560717336377,9.767732709647586 L13.672275814299221,9.738486158126957 L13.513452127175814,9.707795387729353 L13.361394674406977,9.675719339605834 L13.216395479984836,9.642319615311958 L13.078733012625268,9.607660358502946 L12.948671650973004,9.571808131746785 L12.826461175866541,9.53483178869184 L12.712336290637875,9.496802341834481 L12.6065161703684,9.457792826140691 L12.50920404096652,9.417878158783529 L12.420586788875438,9.377134995265855 L12.340834602160626,9.33564158220463 L12.270100643666272,9.293477607059488 L12.208520756868392,9.250724045094195 L12.156213204989541,9.207463003864914 L12.113278443876112,9.163777565533902 L12.079798929074435,9.119751627311505 L12.066625694757562,9.097637371859665 L12.05583895747617,9.075469740332855 L12.047443896792675,9.053259377157465 L12.041444543837125,9.031016947278722 L12.037843779371535,9.008753131039603 L12.036643332406616,8.986478619052363 " />
			<path d="M12.036643332406616,8.98647861905236 L12.037750224513175,8.965089574462665 L12.041070410748794,8.94371000001882 L12.046602421078305,8.922349361673701 L12.054343806166276,8.9010171169961 L12.076440013714503,8.858475571879316 L12.107319904736727,8.816160698569682 L12.146928796154246,8.77414742957087 L12.195196547300917,8.732510163296189 L12.252037684130453,8.691322632321535 L12.317351550576522,8.650657772817453 " />
			<path d="M7.036643332406616,2.1326804390762444 L7.038857116619733,2.0899023498968563 L7.045497489090975,2.0471432010091655 L7.056561509749994,2.0044219243189283 L7.072044279925935,1.9617574349637246 L7.091938944516361,1.9191686229381533 L7.1162366950223905,1.876674344730159 L7.144926773448731,1.8342934149721897 L7.17799647706684,1.7920445981108917 L7.215431164039158,1.7499466000990238 L7.257214259901875,1.7080180601132677 L7.303327264903395,1.666277542301602 L7.3537497621952195,1.624743527563902 L7.408459426871648,1.5834344053693947 L7.467432035854291,1.542368465614595 L7.530641478616989,1.501563890525328 L7.5980597687464275,1.461038746606434 " />
			<path d="M21.755935114236678,9.322299465287283 L21.755935114236678,8.650657772817436 " />
			<path d="M7.598059768746442,8.31483692658254 L7.598059768746442,1.4610387466064267 " />
			<path d="M7.598059768746445,-17.14212774190017 L7.530641478616989,-17.101602597981266 L7.467432035854291,-17.060798022892 L7.40845942687165,-17.0197320831372 L7.353749762195221,-16.978422960942694 L7.3033272649033965,-16.93688894620499 L7.257214259901875,-16.895148428393327 L7.215431164039156,-16.85321988840757 L7.17799647706684,-16.811121890395704 L7.1449267734487325,-16.768873073534408 L7.116236695022392,-16.726492143776436 L7.091938944516361,-16.683997865568443 L7.072044279925935,-16.64140905354287 L7.056561509749994,-16.598744564187665 L7.045497489090975,-16.55602328749743 L7.038857116619733,-16.51326413860974 L7.036643332406616,-16.470486049430367 " />
			<path d="M7.598059768746445,-10.288329561924057 L7.530641478616989,-10.247804418005153 L7.467432035854291,-10.206999842915886 L7.40845942687165,-10.165933903161086 L7.353749762195221,-10.12462478096658 L7.3033272649033965,-10.08309076622888 L7.257214259901875,-10.041350248417213 L7.215431164039156,-9.999421708431456 L7.17799647706684,-9.95732371041959 L7.1449267734487325,-9.915074893558293 L7.116236695022392,-9.872693963800323 L7.091938944516361,-9.830199685592328 L7.072044279925935,-9.787610873566758 L7.056561509749994,-9.744946384211554 L7.045497489090975,-9.702225107521317 L7.038857116619733,-9.659465958633625 L7.036643332406616,-9.616687869454255 " />
			<path d="M7.036643332406616,-9.616687869454235 L7.038502473887609,-9.577485365273796 L7.044079207049181,-9.538297437693693 L7.053371458304142,-9.49913865789427 L7.06637577253054,-9.460023586217899 L7.083087314356371,-9.42096676675504 L7.103499869957513,-9.381982721936328 L7.127605849368196,-9.343085947132726 L7.155396289303166,-9.30429090526574 L7.186860856490492,-9.265612021429684 L7.2219878515137665,-9.227063677528035 L7.260764213162281,-9.188660206925828 L7.303175523287548,-9.150415889120104 L7.349206012164384,-9.112344944430395 L7.398838564354538,-9.074461528711197 L7.452054725070695,-9.03677972808843 L7.508834707038481,-8.999313553721821 L7.569157397853948,-8.962076936595146 L7.633000367833745,-8.92508372233631 L7.771150890682609,-8.851882427298849 L7.9230808215911335,-8.779818531740151 L8.088564214175182,-8.708999207278943 L8.267354965682216,-8.63952977463902 L8.459187182989144,-8.571513547018897 L8.663775578031908,-8.505051676447026 L8.880815892078735,-8.440243003351025 L9.109985348216096,-8.37718390956467 L9.350943131374443,-8.315968174991255 L9.603330895179838,-8.256686838136469 L9.866773294877678,-8.19942806071821 L10.14087854553603,-8.144276996554694 L10.42523900469834,-8.091315664925823 L10.719431778619082,-8.04062282859618 L11.023019351180729,-7.992273876681004 L11.335550234556761,-7.946340712529408 L11.656559640653036,-7.902891646791504 L11.985570172328991,-7.861991295828524 L12.322092533370697,-7.823700485616989 L12.665626256159932,-7.788076161289837 L13.015660445957064,-7.755171302449052 L13.371674540690904,-7.725034844375729 L13.733139085125545,-7.697711605254751 " />
			<path d="M7.598059768746442,-17.14212774190017 L7.598059768746442,-10.288329561924055 " />
			<path d="M21.755935114236703,-9.280867023219326 L26.475226896066793,-8.945046176984416 " />
			<path d="M13.733139085125565,-7.69771160525475 L14.200247645081612,-7.667067200375389 L14.674189330687346,-7.64111960245444 L15.153822374909753,-7.619931321528036 L15.637991299734406,-7.603553402020806 L16.125529699813217,-7.592025299775376 L16.615263052437076,-7.5853747869997985 L17.106011547063932,-7.583617885361866 L17.596592927585743,-7.586758827391511 L18.085825340486974,-7.594790046284271 L18.57253018203325,-7.6076921941303794 L19.055534937630977,-7.625434188525583 L19.533676006517695,-7.647973287451366 L20.00580150497825,-7.675255192244226 L20.47077404133354,-7.707214178405903 L20.927473456016703,-7.743773253939458 L21.374799520135618,-7.784844344829733 L21.811674586020686,-7.830328507221372 L22.23704618337246,-7.88011616578323 L22.649889554754765,-7.934087377684948 L23.049210124325132,-7.992112121549736 L23.434045893855117,-8.054050610687256 L23.803469760268285,-8.119753629852003 L24.15659174911274,-8.189062894715907 L24.49256115858752,-8.261811433189132 L24.810568608957766,-8.337823987670482 L25.109847992421358,-8.416917437258295 L25.252237538950148,-8.457560230507957 L25.389678318729768,-8.498901238904747 L25.522087542573722,-8.540915560171044 L25.649385452116668,-8.583577886450739 L25.771495367857874,-8.626862519553722 L25.888343735350077,-8.670743386435532 L25.999860169505943,-8.71519405490277 L26.105977496995408,-8.760187749534868 L26.206631796708372,-8.805697367812604 L26.30176243825839,-8.851695496443641 L26.391312118504164,-8.898154427875273 L26.475226896066772,-8.945046176984405 " />
			<path d="M7.59805976874644,-10.288329561924055 L12.317351550576529,-9.952508715689145 " />
			<path d="M12.31735155057653,-9.952508715689145 L12.252037684130453,-9.911843856185062 L12.195196547300919,-9.870656325210408 L12.146928796154246,-9.829019058935724 L12.107319904736727,-9.787005789936913 L12.076440013714503,-9.74469091662728 L12.054343806166276,-9.702149371510496 L12.046602421078305,-9.680817126832894 L12.041070410748794,-9.659456488487775 L12.037750224513175,-9.63807691404393 L12.036643332406616,-9.616687869454244 " />
			<path d="M12.036643332406616,-9.616687869454235 L12.037843779371535,-9.594413357466992 L12.041444543837125,-9.572149541227873 L12.047443896792677,-9.54990711134913 L12.05583895747617,-9.52769674817374 L12.066625694757562,-9.505529116646928 L12.079798929074435,-9.48341486119509 L12.113278443876112,-9.439388922972693 L12.156213204989541,-9.39570348464168 L12.208520756868392,-9.3524424434124 L12.270100643666272,-9.309688881447107 L12.340834602160626,-9.267524906301963 L12.420586788875438,-9.22603149324074 L12.50920404096652,-9.185288329723067 L12.606516170368401,-9.145373662365904 L12.712336290637877,-9.106364146672114 L12.826461175866541,-9.068334699814756 L12.948671650973004,-9.03135835675981 L13.078733012625268,-8.99550613000365 L13.216395479984838,-8.960846873194637 L13.361394674406977,-8.927447148900761 L13.513452127175816,-8.895371100777242 L13.672275814299223,-8.864680330379638 L13.837560717336379,-8.83543377885901 L14.00898940918098,-8.807687613766339 L14.18623266367511,-8.781495121183626 L14.368950087882983,-8.756906603388783 L14.556790775810335,-8.733969282250888 L14.749393982313968,-8.712727208541315 L14.946389815907239,-8.693221177334904 L15.14739994913094,-8.67548864966365 L15.352038345125358,-8.659563680573376 L15.55991199900811,-8.645476853721531 L15.770621692633942,-8.633255222641754 L16.19892587083333,-8.61449780645788 L16.633662253155357,-8.60343545615309 L17.07149282496035,-8.600153111218923 L17.509055813648178,-8.604675974320456 L17.942991501188764,-8.616969317783957 L18.157556108879977,-8.626002736257188 L18.369968020877185,-8.636938750244635 L18.579819303380447,-8.649756357300154 L18.78670694023926,-8.664430941407142 L18.990233606938855,-8.680934320253218 L19.190008433655805,-8.69923479935392 L19.385647755917482,-8.719297232921472 L19.576775851423772,-8.741083091361723 L19.763025661615934,-8.764550535269649 L19.94403949660692,-8.789654495781276 L20.119469722119277,-8.816346761127738 L20.28897942711141,-8.844576069225242 L20.45224307081004,-8.874288206123103 L20.608947107906246,-8.905426110120798 L20.758790590714376,-8.937929981354094 L20.901485747137464,-8.971737396639746 L21.036758533329056,-9.006783429358274 L21.164349159990245,-9.043000774144526 L21.28401259129096,-9.080319876146591 L21.395519015457538,-9.118669064604827 L21.498654286122665,-9.157974690494445 L21.593220333590175,-9.19816126796732 L21.679035545224856,-9.239151619321408 L21.755935114236692,-9.28086702321932 " />
			<path d="M21.755935114236703,-9.952508715689145 L21.755935114236703,-9.280867023219326 " />
			<path d="M21.755935114236703,-9.952508715689145 L21.755935114236703,-9.280867023219326 " />
			<path d="M21.755935114236703,-9.280867023219326 L21.82124898068278,-9.32153188272341 L21.878090117512315,-9.362719413698063 L21.926357868658986,-9.404356679972746 L21.965966760076505,-9.446369948971558 L21.99684665109873,-9.488684822281192 L22.018942858646955,-9.531226367397975 L22.026684243734927,-9.552558612075577 L22.032216254064437,-9.573919250420696 L22.035536440300056,-9.59529882486454 L22.036643332406616,-9.61668786945423 " />
			<path d="M22.036643332406616,-9.616687869454235 L22.035442885441697,-9.638962381441479 L22.03184212097611,-9.661226197680598 L22.025842768020556,-9.683468627559341 L22.017447707337062,-9.70567899073473 L22.00666097005567,-9.727846622261543 L21.993487735738796,-9.74996087771338 L21.96000822093712,-9.793986815935778 L21.91707345982369,-9.83767225426679 L21.86476590794484,-9.880933295496071 L21.80318602114696,-9.923686857461364 L21.732452062652605,-9.965850832606508 L21.65269987593779,-10.007344245667731 L21.564082623846712,-10.048087409185404 L21.46677049444483,-10.088002076542567 L21.360950374175353,-10.127011592236357 L21.24682548894669,-10.165041039093715 L21.124615013840227,-10.20201738214866 L20.994553652187964,-10.237869608904822 L20.856891184828395,-10.272528865713834 L20.711891990406258,-10.30592859000771 L20.559834537637418,-10.33800463813123 L20.40101085051401,-10.368695408528833 L20.235725947476855,-10.397941960049462 L20.06429725563225,-10.425688125142132 L19.88705400113812,-10.451880617724845 L19.704336576930253,-10.476469135519688 L19.516495889002897,-10.499406456657583 L19.323892682499263,-10.520648530367156 L19.126896848905997,-10.540154561573567 L18.925886715682296,-10.55788708924482 L18.721248319687874,-10.573812058335095 L18.51337466580512,-10.587898885186942 L18.302664972179286,-10.600120516266717 L17.8743607939799,-10.61887793245059 L17.439624411657878,-10.629940282755381 L17.00179383985288,-10.633222627689548 L16.564230851165057,-10.628699764588015 L16.13029516362447,-10.616406421124514 L15.915730555933258,-10.607373002651283 L15.703318643936047,-10.596436988663836 L15.493467361432788,-10.583619381608317 L15.286579724573974,-10.568944797501329 L15.083053057874379,-10.552441418655253 L14.883278231157432,-10.53414093955455 L14.687638908895753,-10.514078505987 L14.496510813389463,-10.492292647546748 L14.310261003197299,-10.468825203638822 L14.12924716820631,-10.443721243127195 L13.953816942693955,-10.417028977780733 L13.784307237701823,-10.388799669683229 L13.62104359400319,-10.359087532785368 L13.464339556906989,-10.327949628787673 L13.314496074098853,-10.295445757554377 L13.17180091767577,-10.261638342268725 L13.036528131484173,-10.226592309550197 L12.908937504822987,-10.190374964763945 L12.789274073522272,-10.15305586276188 L12.677767649355692,-10.114706674303644 L12.574632378690566,-10.075401048414026 L12.480066331223057,-10.03521447094115 L12.394251119588375,-9.994224119587063 L12.317351550576545,-9.952508715689154 " />
			<path d="M7.598059768746442,-17.14212774190017 L7.598059768746442,-10.288329561924055 " />
			<path d="M7.59805976874644,-10.288329561924055 L12.317351550576529,-9.952508715689145 " />
			<path d="M27.036643332406616,-16.47048604943035 L27.034242438476777,-16.515035073404835 L27.027040909545597,-16.559562705883074 L27.015042203634493,-16.60404756564056 L26.998252082267506,-16.64846829199134 L26.976678607704724,-16.692803555044964 L26.950332139070976,-16.73703206594864 L26.919225327381586,-16.781132587109703 L26.88337310946762,-16.825083942393434 L26.84279270080356,-16.86886502729142 L26.79750358724076,-16.91245481905546 L26.747527515650802,-16.955832386792263 L26.692888483483063,-16.99897690151402 L26.633612727241673,-17.04186764614003 L26.569728709887304,-17.084484025444606 L26.501267107169852,-17.126805575946474 L26.42826079289859,-17.168811975734894 L26.350744823156884,-17.210483054227808 L26.26875641946897,-17.25179880185734 L26.182334950926993,-17.29273937967795 L26.091521915286805,-17.333285128892687 L25.996360919041607,-17.37341658029291 L25.896897656483045,-17.413114463607013 L25.685257415944093,-17.491133494994592 L25.45700764548677,-17.56719238870931 L25.21258669527384,-17.6411450748192 L24.95246397196931,-17.71284952833152 L24.67713903725017,-17.782168041949546 L24.387140648405897,-17.848967490537298 L24.083025742868216,-17.913119586784337 L23.765378368621406,-17.974501127579543 L23.434808562547094,-18.0329942306208 L23.091951178857887,-18.088486560806142 L22.737464669869624,-18.140871545971567 L22.372029821453886,-18.190048581561253 L21.996348445599182,-18.235923223837045 L21.61114203259191,-18.27840737125619 L21.217150365405377,-18.317419433669013 L20.815130098957972,-18.35288448901152 L20.40585330696913,-18.38473442719207 L19.990105999203628,-18.41290808089576 L19.56868661195196,-18.43735134305531 L19.142404474645783,-18.45801727076286 L18.712078255553184,-18.47486617542306 L18.278534389538947,-18.487865698974463 L17.842605490909143,-18.49699087603264 L17.405128754388144,-18.502224181835828 L16.966944347299147,-18.503555565900974 L16.528893796035756,-18.500982471325525 L16.091818369923498,-18.49450983969791 L15.656557465575126,-18.484150101607312 L15.223946994842326,-18.469923152770907 L14.794817779459901,-18.451856315824443 L14.36999395546548,-18.42998428784955 L13.950291390458961,-18.404349073738512 L13.536516116741332,-18.374999905524536 L13.12946278334214,-18.341993147832383 L12.729913129908248,-18.30539218963098 L12.338634485384889,-18.265267322495877 L11.95637829437231,-18.221695605615373 L11.583878673987982,-18.174760717799522 L11.221851004006005,-18.124552796776268 L10.870990552981295,-18.071168266083344 L10.53197114299703,-18.014709649888335 L10.205443855599764,-17.955285376092615 L9.89203578140736,-17.893009568097224 L9.592348815791091,-17.828001825630633 L9.306958502944923,-17.760386995059328 L9.036412930561731,-17.690294929622272 L8.781231677239358,-17.61786024004977 L8.541904814637926,-17.543222036045638 L8.318891966304768,-17.466523659129166 L8.112621424974515,-17.38791240734993 L8.015889590216789,-17.347936496422246 L7.923489330039498,-17.30753925240418 L7.835465013087397,-17.26674007319532 L7.751858906770135,-17.225558549696004 L7.672711156966345,-17.18401445640019 L7.598059768746474,-17.142127741900186 " />
			<path d="M26.47522689606679,-8.945046176984416 L26.542645186196243,-8.985571320903318 L26.60585462895894,-9.026375895992585 L26.664827237941584,-9.067441835747385 L26.71953690261801,-9.108750957941892 L26.769959399909837,-9.150284972679591 L26.816072404911356,-9.192025490491258 L26.857855500774072,-9.233954030477014 L26.89529018774639,-9.27605202848888 L26.9283598913645,-9.31830084535018 L26.95704996979084,-9.36068177510815 L26.98134772029687,-9.403176053316145 L27.0012423848873,-9.445764865341715 L27.016725155063238,-9.488429354696917 L27.027789175722255,-9.531150631387156 L27.0344295481935,-9.573909780274846 L27.036643332406616,-9.616687869454227 " />
			<path d="M27.036643332406616,-9.616687869454235 L27.034242438476777,-9.661236893428722 L27.027040909545597,-9.705764525906961 L27.015042203634493,-9.750249385664446 L26.998252082267506,-9.794670112015227 L26.976678607704724,-9.839005375068849 L26.950332139070976,-9.883233885972526 L26.919225327381586,-9.927334407133587 L26.88337310946762,-9.971285762417322 L26.84279270080356,-10.015066847315307 L26.79750358724076,-10.058656639079345 L26.747527515650802,-10.102034206816151 L26.692888483483063,-10.145178721537908 L26.633612727241673,-10.188069466163917 L26.569728709887304,-10.230685845468493 L26.501267107169852,-10.27300739597036 L26.42826079289859,-10.315013795758778 L26.350744823156884,-10.356684874251695 L26.26875641946897,-10.398000621881227 L26.182334950926993,-10.438941199701837 L26.091521915286805,-10.479486948916573 L25.996360919041607,-10.519618400316798 L25.896897656483045,-10.5593162836309 L25.685257415944093,-10.63733531501848 L25.45700764548677,-10.713394208733195 L25.21258669527384,-10.787346894843086 L24.95246397196931,-10.85905134835541 L24.67713903725017,-10.928369861973431 L24.387140648405897,-10.995169310561185 L24.083025742868216,-11.059321406808223 L23.765378368621406,-11.120702947603428 L23.434808562547094,-11.179196050644688 L23.091951178857887,-11.234688380830029 L22.737464669869624,-11.287073365995456 L22.372029821453886,-11.336250401585142 L21.996348445599182,-11.382125043860931 L21.61114203259191,-11.424609191280078 L21.217150365405377,-11.4636212536929 L20.815130098957972,-11.499086309035405 L20.40585330696913,-11.530936247215953 L19.990105999203628,-11.559109900919646 L19.56868661195196,-11.5835531630792 L19.142404474645783,-11.604219090786744 L18.712078255553184,-11.621067995446948 L18.278534389538947,-11.63406751899835 L17.842605490909143,-11.643192696056525 L17.405128754388144,-11.648426001859715 L16.966944347299147,-11.649757385924863 L16.528893796035756,-11.647184291349411 L16.091818369923498,-11.640711659721795 L15.656557465575126,-11.630351921631197 L15.223946994842326,-11.616124972794793 L14.794817779459901,-11.598058135848332 L14.36999395546548,-11.576186107873436 L13.950291390458961,-11.550550893762399 L13.536516116741332,-11.521201725548423 L13.12946278334214,-11.488194967856268 L12.729913129908248,-11.451594009654865 L12.338634485384889,-11.411469142519763 L11.95637829437231,-11.36789742563926 L11.583878673987982,-11.320962537823407 L11.221851004006005,-11.270754616800154 L10.870990552981295,-11.21737008610723 L10.53197114299703,-11.160911469912222 L10.205443855599764,-11.101487196116501 L9.89203578140736,-11.03921138812111 L9.592348815791091,-10.97420364565452 L9.306958502944923,-10.906588815083214 L9.036412930561731,-10.836496749646157 L8.781231677239358,-10.764062060073655 L8.541904814637926,-10.689423856069524 L8.318891966304768,-10.61272547915305 L8.112621424974515,-10.534114227373816 L8.015889590216789,-10.494138316446133 L7.923489330039498,-10.453741072428066 L7.835465013087397,-10.412941893219205 L7.751858906770135,-10.371760369719889 L7.672711156966345,-10.330216276424078 L7.598059768746474,-10.288329561924074 " />
			<path d="M21.755935114236703,-9.280867023219326 L26.475226896066793,-8.945046176984416 " />
			<path d="M21.755935114236678,9.322299465287283 L21.755935114236678,8.650657772817436 " />
			<path d="M12.317351550576529,8.65065777281745 L12.394251119588374,8.608942368919534 L12.480066331223053,8.567952017565446 L12.574632378690563,8.527765440092569 L12.677767649355689,8.488459814202953 L12.789274073522268,8.450110625744715 L12.908937504822983,8.41279152374265 L13.03652813148417,8.3765741789564 L13.171800917675766,8.341528146237872 L13.31449607409885,8.307720730952218 L13.464339556906982,8.275216859718924 L13.621043594003186,8.244078955721227 L13.784307237701817,8.214366818823367 L13.953816942693951,8.186137510725864 L14.129247168206309,8.1594452453794 L14.310261003197294,8.134341284867775 L14.496510813389458,8.110873840959847 L14.687638908895746,8.089087982519596 L14.883278231157423,8.069025548952046 L15.083053057874372,8.050725069851344 L15.286579724573969,8.034221691005266 L15.493467361432781,8.019547106898278 L15.703318643936047,8.00672949984276 L15.915730555933251,7.9957934858553115 L16.130295163624464,7.986760067382081 L16.56423085116505,7.97446672391858 L17.00179383985288,7.969943860817046 L17.439624411657878,7.973226205751215 L17.874360793979896,7.984288556056003 L18.302664972179286,8.003045972239878 L18.51337466580512,8.015267603319653 L18.72124831968787,8.0293544301715 L18.92588671568229,8.045279399261775 L19.12689684890599,8.063011926933026 L19.323892682499263,8.082517958139437 L19.516495889002893,8.103760031849012 L19.704336576930245,8.126697352986906 L19.887054001138118,8.151285870781749 L20.064297255632248,8.177478363364463 L20.23572594747685,8.205224528457133 L20.401010850514005,8.234471079977762 L20.559834537637414,8.265161850375366 L20.71189199040625,8.297237898498885 L20.85689118482839,8.33063762279276 L20.99455365218796,8.365296879601772 L21.124615013840227,8.401149106357934 L21.24682548894669,8.43812544941288 L21.360950374175353,8.476154896270238 L21.46677049444483,8.515164411964028 L21.56408262384671,8.55507907932119 L21.65269987593779,8.595822242838864 L21.732452062652605,8.637315655900087 L21.80318602114696,8.679479631045231 L21.86476590794484,8.722233193010524 L21.91707345982369,8.765494234239805 L21.96000822093712,8.809179672570815 L21.993487735738796,8.853205610793214 L22.00666097005567,8.875319866245052 L22.01744770733706,8.897487497771863 L22.025842768020553,8.919697860947252 L22.03184212097611,8.941940290825997 L22.035442885441697,8.964204107065116 L22.036643332406616,8.98647861905235 " />
			<path d="M22.036643332406616,8.98647861905236 L22.035536440300056,9.007867663642054 L22.032216254064437,9.0292472380859 L22.026684243734927,9.050607876431018 L22.018942858646955,9.07194012110862 L21.99684665109873,9.114481666225403 L21.965966760076505,9.156796539535037 L21.926357868658986,9.198809808533849 L21.878090117512315,9.240447074808532 L21.82124898068278,9.281634605783184 L21.755935114236703,9.32229946528727 " />
			<path d="M26.475226896066793,9.658120311522179 L21.755935114236703,9.32229946528727 " />
			<path d="M7.598059768746442,8.31483692658254 L7.598059768746442,1.4610387466064267 " />
			<path d="M7.598059768746442,8.31483692658254 L7.6727111569663435,8.272950212082517 L7.751858906770131,8.231406118786708 L7.83546501308739,8.190224595287393 L7.923489330039491,8.14942541607853 L8.015889590216783,8.109028172060464 L8.112621424974511,8.06905226113278 L8.318891966304761,7.990441009353546 L8.54190481463792,7.9137426324370725 L8.781231677239353,7.839104428432941 L9.036412930561724,7.76666973886044 L9.306958502944916,7.696577673423382 L9.592348815791084,7.6289628428520775 L9.892035781407348,7.563955100385488 L10.205443855599757,7.5016792923900955 L10.531971142997019,7.442255018594374 L10.870990552981286,7.385796402399366 L11.221851004006002,7.332411871706441 L11.583878673987973,7.282203950683189 L11.9563782943723,7.235269062867337 L12.338634485384878,7.1916973459868325 L12.72991312990823,7.151572478851732 L13.129462783342127,7.114971520650328 L13.536516116741321,7.081964762958174 L13.950291390458949,7.052615594744196 L14.369993955465477,7.026980380633158 L14.794817779459887,7.005108352658264 L15.223946994842313,6.987041515711803 L15.656557465575121,6.972814566875398 L16.091818369923487,6.9624548287848 L16.528893796035742,6.955982197157184 L16.966944347299144,6.953409102581732 L17.405128754388137,6.95474048664688 L17.84260549090914,6.95997379245007 L18.278534389538944,6.969098969508245 L18.71207825555318,6.982098493059647 L19.14240447464578,6.99894739771985 L19.568686611951957,7.019613325427395 L19.990105999203625,7.044056587586949 L20.405853306969128,7.072230241290641 L20.81513009895796,7.10408017947119 L21.217150365405367,7.139545234813694 L21.611142032591907,7.178557297226517 L21.99634844559917,7.221041444645663 L22.372029821453875,7.266916086921452 L22.737464669869624,7.316093122511139 L23.091951178857876,7.368478107676565 L23.434808562547083,7.423970437861906 L23.7653783686214,7.482463540903165 L24.08302574286821,7.54384508169837 L24.38714064840589,7.607997177945409 L24.677139037250168,7.674796626533162 L24.95246397196931,7.744115140151186 L25.212586695273835,7.815819593663507 L25.45700764548676,7.889772279773398 L25.685257415944093,7.965831173488114 L25.89689765648304,8.043850204875694 L25.996360919041603,8.083548088189797 L26.091521915286805,8.12367953959002 L26.182334950926993,8.164225288804754 L26.268756419468968,8.205165866625368 L26.350744823156887,8.2464816142549 L26.42826079289859,8.288152692747815 L26.50126710716985,8.330159092536233 L26.5697287098873,8.372480643038102 L26.633612727241673,8.415097022342678 L26.692888483483063,8.457987766968687 L26.747527515650802,8.501132281690444 L26.79750358724076,8.544509849427248 L26.842792700803557,8.588099641191288 L26.88337310946762,8.631880726089273 L26.919225327381586,8.675832081373008 L26.950332139070976,8.719932602534067 L26.976678607704724,8.764161113437744 L26.998252082267506,8.808496376491368 L27.015042203634493,8.852917102842145 L27.027040909545597,8.897401962599632 L27.03424243847678,8.941929595077873 L27.036643332406616,8.986478619052342 " />
			<path d="M27.036643332406616,8.986478619052361 L27.0344295481935,9.029256708231749 L27.027789175722255,9.072015857119439 L27.016725155063238,9.114737133809676 L27.0012423848873,9.15740162316488 L26.98134772029687,9.19999043519045 L26.95704996979084,9.242484713398445 L26.9283598913645,9.284865643156415 L26.89529018774639,9.327114460017713 L26.857855500774072,9.369212458029581 L26.816072404911356,9.411140998015338 L26.769959399909837,9.452881515827004 L26.71953690261801,9.494415530564703 L26.664827237941584,9.53572465275921 L26.60585462895894,9.57679059251401 L26.542645186196246,9.617595167603277 L26.475226896066793,9.658120311522179 " />
			<path d="M7.598059768746442,1.4610387466064256 L7.6727111569663435,1.4191520321064033 L7.751858906770131,1.377607938810594 L7.83546501308739,1.3364264153112788 L7.923489330039491,1.295627236102417 L8.015889590216783,1.2552299920843502 L8.112621424974511,1.2152540811566654 L8.318891966304761,1.1366428293774316 L8.54190481463792,1.0599444524609578 L8.781231677239353,0.9853062484568269 L9.036412930561724,0.9128715588843255 L9.306958502944916,0.8427794934472685 L9.592348815791084,0.775164662875963 L9.892035781407348,0.7101569204093736 L10.205443855599757,0.6478811124139807 L10.531971142997019,0.5884568386182603 L10.870990552981286,0.531998222423252 L11.221851004006002,0.47861369173032653 L11.583878673987973,0.42840577070707475 L11.9563782943723,0.38147088289122233 L12.338634485384878,0.33789916601071845 L12.72991312990823,0.2977742988756178 L13.129462783342127,0.2611733406742134 L13.536516116741321,0.22816658298205938 L13.950291390458949,0.19881741476808212 L14.369993955465477,0.17318220065704382 L14.794817779459887,0.15131017268214975 L15.223946994842313,0.13324333573568814 L15.656557465575121,0.11901638689928351 L16.091818369923487,0.10865664880868575 L16.528893796035742,0.10218401718106973 L16.966944347299144,0.09961092260561832 L17.405128754388137,0.10094230667076554 L17.84260549090914,0.10617561247395546 L18.278534389538944,0.11530078953213074 L18.71207825555318,0.12830031308353318 L19.14240447464578,0.14514921774373613 L19.568686611951957,0.16581514545128062 L19.990105999203625,0.19025840761083468 L20.405853306969128,0.21843206131452675 L20.81513009895796,0.2502819994950749 L21.217150365405367,0.28574705483757956 L21.611142032591907,0.3247591172504025 L21.99634844559917,0.3672432646695487 L22.372029821453875,0.41311790694533834 L22.737464669869624,0.4622949425350251 L23.091951178857876,0.5146799277004506 L23.434808562547083,0.5701722578857917 L23.7653783686214,0.6286653609270512 L24.08302574286821,0.6900469017222561 L24.38714064840589,0.7541989979692945 L24.677139037250168,0.8209984465570477 L24.95246397196931,0.8903169601750711 L25.212586695273835,0.9620214136873932 L25.45700764548676,1.0359740997972842 L25.685257415944093,1.112032993512 L25.89689765648304,1.1900520248995803 L25.996360919041603,1.229749908213682 L26.091521915286805,1.2698813596139062 L26.182334950926993,1.3104271088286406 L26.268756419468968,1.3513676866492528 L26.350744823156887,1.3926834342787862 L26.42826079289859,1.434354512771701 L26.50126710716985,1.4763609125601187 L26.5697287098873,1.518682463061987 L26.633612727241673,1.5612988423665648 L26.692888483483063,1.6041895869925729 L26.747527515650802,1.6473341017143293 L26.79750358724076,1.6907116694511342 L26.842792700803557,1.734301461215173 L26.88337310946762,1.7780825461131582 L26.919225327381586,1.8220339013968927 L26.950332139070976,1.8661344225579535 L26.976678607704724,1.9103629334616303 L26.998252082267506,1.9546981965152526 L27.015042203634493,1.9991189228660318 L27.027040909545597,2.0436037826235185 L27.03424243847678,2.0881314151017585 L27.036643332406616,2.132680439076227 " />
			<path d="M12.317351550576529,8.65065777281745 L7.59805976874644,8.31483692658254 " />
			<path d="M33.08223539062892,-5.341732109980743 L28.829626061185756,-2.871429136757291 " />
			<path d="M45.35239402338714,-4.4685979097699775 L41.057838501921765,-1.9739287663106477 " />
			<path d="M27.03664333240662,-9.616687869454235 L27.03664333240662,-16.47048604943035 " />
			<path d="M27.03664333240662,2.132680439076246 L27.03664333240662,8.98647861905236 " />

       </g>
    </g>
    <g transform="translate(20,210.0)" stroke="rgb(0,0,255)">
        <line x1="30" y1="-30" x2="75" y2="-33" stroke-width="3" stroke="#000000" />
         <text x="80" y="-30" style="stroke:#000000">X </text>

        <line x1="30" y1="-30" x2="30" y2="-75" stroke-width="3" stroke="#000000" />
         <text x="25" y="-85" style="stroke:#000000">Y </text>

        <line x1="30" y1="-30" x2="58" y2="-15" stroke-width="3" stroke="#000000" />
         <text x="65" y="-5" style="stroke:#000000">Z </text>
        <!--
            <line x1="0" y1="0" x2="5.183641428534833" y2="0" stroke-width="3" />
            <text x="0" y="20" style="stroke:#000000">1  mm </text>
        -->
    </g>
</svg>
