<?xml version="1.0" encoding="UTF-8" standalone="no"?>
<svg
   xmlns:svg="http://www.w3.org/2000/svg"
   xmlns="http://www.w3.org/2000/svg"
   width="800.0"
   height="240.0"

>
    <g transform="scale(5.65889323864026, -5.65889323864026)   translate(35.342599968904295,-18.59408042664959)" stroke-width="0.1767129998445215"  fill="none">
       <!-- hidden lines -->
       <g  stroke="rgb(160,160,160)" fill="none" stroke-dasharray="0.1767129998445215,0.1767129998445215" >
			<path d="M8.305953536020954,-13.371121317263611 L13.426385119306602,-16.345534526772813 " />
			<path d="M8.305953536020954,-13.371121317263611 L8.305953536020954,-2.600867034444004 " />
			<path d="M13.92191075639876,-5.86312668358313 L8.305953536020954,-2.600867034444006 " />
			<path d="M13.92191075639876,-5.86312668358313 L13.92191075639876,-2.92578460645051 " />
			<path d="M13.92191075639876,-2.92578460645051 L8.305953536020954,0.33647504268861406 " />
			<path d="M8.305953536020954,0.3364750426886154 L8.305953536020954,11.106729325508223 " />
			<path d="M8.305953536020954,-13.371121317263611 L14.870609412028195,-12.903985909359923 " />
			<path d="M8.305953536020954,0.33647504268861406 L15.481598007574082,0.8470878867589076 " />
			<path d="M8.305953536020954,-2.600867034444006 L36.09773421838565,-0.6232272235172314 " />
			<path d="M39.64205096737273,7.71646523692761 L39.64205096737273,15.05982042975916 " />
			<path d="M42.28485436519758,-10.95321122437226 L39.64205096737273,-9.418030213012672 " />
			<path d="M39.64205096737273,-9.418030213012672 L39.64205096737273,-2.0746750201811217 " />
			<path d="M39.64205096737273,-2.0746750201811226 L40.96345266628516,-5.2900505901381 " />
			<path d="M40.96345266628516,-5.290050590138101 L40.96345266628516,9.396659795525 " />
			<path d="M40.96345266628516,9.396659795525 L39.64205096737273,7.71646523692761 " />
			<path d="M1.321401698912425,4.989599965500141 L39.64205096737273,7.71646523692761 " />
			<path d="M0.0,-12.238925321385917 L39.64205096737273,-9.418030213012674 " />
			<path d="M15.573662880039294,-5.47283610088333 L13.921910756398756,-5.86312668358313 " />
			<path d="M15.573662880039294,-2.5354940237507098 L13.921910756398756,-2.9257846064505095 " />
			<path d="M1.321401698912425,6.575764687151757 L40.96345266628516,9.396659795525 " />
			<path d="M1.321401698912425,-8.110945698511344 L40.96345266628516,-5.2900505901381 " />
			<path d="M1.321401698912425,-4.801540291608592 L39.64205096737273,-2.0746750201811226 " />

       </g>

       <!-- solid lines -->
       <g  stroke="rgb(0,0,0)" fill="none">
			<path d="M8.305953536020954,11.106729325508223 L13.426385119306602,8.132316115999021 " />
			<path d="M13.426385119306602,8.132316115999021 L7.763234981110497,7.729331100517129 " />
			<path d="M8.305953536020954,11.106729325508223 L42.28485436519758,13.524639418399573 " />
			<path d="M0.0,12.238925321385917 L7.763234981110498,7.729331100517127 " />
			<path d="M39.64205096737273,15.059820429759162 L42.28485436519758,13.524639418399573 " />
			<path d="M0.0,12.238925321385917 L39.64205096737273,15.05982042975916 " />
			<path d="M13.426385119306602,8.132316115999021 L15.573662880039292,0.5207403771486776 " />
			<path d="M15.573662880039294,-11.228627931381801 L15.573662880039294,0.5207403771486767 " />
			<path d="M13.426385119306603,-16.345534526772813 L15.573662880039294,-11.2286279313818 " />
			<path d="M15.573662880039294,0.5207403771486786 L9.910512741843188,0.11775536166678652 " />
			<path d="M7.763234981110497,7.729331100517129 L9.910512741843188,0.11775536166678346 " />
			<path d="M14.870609412028195,-12.903985909359923 L42.28485436519758,-10.95321122437226 " />
			<path d="M42.28485436519758,13.524639418399573 L42.28485436519758,-10.95321122437226 " />
			<path d="M15.481598007574082,0.8470878867589076 L36.09773421838565,2.3141148536153886 " />
			<path d="M36.09773421838565,-0.6232272235172311 L36.09773421838565,2.314114853615389 " />
			<path d="M0.0,4.8955701285543665 L0.0,12.238925321385917 " />
			<path d="M9.910512741843188,0.11775536166678435 L9.910512741843188,-11.631612946863694 " />
			<path d="M1.321401698912425,6.575764687151757 L-2.220446049250313e-16,4.895570128554367 " />
			<path d="M7.7632349811104975,-16.748519542254705 L9.910512741843188,-11.631612946863692 " />
			<path d="M1.321401698912425,-8.110945698511344 L1.321401698912425,6.575764687151757 " />
			<path d="M0.0,-12.238925321385917 L7.763234981110498,-16.748519542254705 " />
			<path d="M0.0,-4.8955701285543665 L1.321401698912425,-8.110945698511344 " />
			<path d="M0.0,-12.238925321385917 L0.0,-4.8955701285543665 " />
			<path d="M0.0,4.8955701285543665 L1.321401698912425,4.989599965500141 " />
			<path d="M7.7632349811104975,-16.748519542254705 L13.426385119306602,-16.345534526772813 " />
			<path d="M36.09773421838565,-0.6232272235172311 L15.573662880039294,-5.47283610088333 " />
			<path d="M36.09773421838565,2.314114853615389 L15.573662880039294,-2.5354940237507098 " />
			<path d="M9.910512741843188,-11.631612946863694 L15.573662880039294,-11.228627931381801 " />
			<path d="M0.0,-4.8955701285543665 L1.321401698912425,-4.801540291608592 " />

       </g>
    </g>
    <g transform="translate(20,210.0)" stroke="rgb(0,0,255)">
        <line x1="30" y1="-30" x2="75" y2="-33" stroke-width="3" stroke="#000000" />
         <text x="80" y="-30" style="stroke:#000000">X </text>

        <line x1="30" y1="-30" x2="30" y2="-75" stroke-width="3" stroke="#000000" />
         <text x="25" y="-85" style="stroke:#000000">Y </text>

        <line x1="30" y1="-30" x2="58" y2="-15" stroke-width="3" stroke="#000000" />
         <text x="65" y="-5" style="stroke:#000000">Z </text>
        <!--
            <line x1="0" y1="0" x2="5.65889323864026" y2="0" stroke-width="3" />
            <text x="0" y="20" style="stroke:#000000">1  mm </text>
        -->
    </g>
</svg>
