<?xml version="1.0" encoding="UTF-8" standalone="no"?>
<svg
   xmlns:svg="http://www.w3.org/2000/svg"
   xmlns="http://www.w3.org/2000/svg"
   width="800.0"
   height="240.0"

>
    <g transform="scale(21.626438186000385, -21.626438186000385)   translate(11.135656585210324,-4.9904181166530845)" stroke-width="0.046239699362391445"  fill="none">
       <!-- hidden lines -->
       <g  stroke="rgb(160,160,160)" fill="none" stroke-dasharray="0.046239699362391445,0.046239699362391445" >
			<path d="M0.9352355455082184,0.1985965372202535 L0.9268867562818187,0.25079614020939645 L0.9157706607921157,0.3022469680920763 L0.9019204471718167,0.35279540965604256 L0.8853774665165544,0.4022905478469819 L0.86619110942736,0.4505846103453625 L0.8444186585504505,0.49753341075438184 L0.8201251175545812,0.5429967790818097 L0.7933830170565722,0.5868389802304829 L0.7642721980744343,0.62892911924801 L0.7328795736546136,0.6691415321257755 L0.699298869385042,0.7073561609804785 L0.6636303435687116,0.7434589124980628 L0.6259804878932271,0.7773419985698727 L0.5864617094900069,0.8089042581040368 L0.5451919953323806,0.8380514590512774 L0.5022945599745559,0.86469657974342 " />
			<path d="M0.5022945599745523,0.864696579743422 L0.46247930117987424,0.886431884984591 L0.4215498892402508,0.9060316981725693 L0.37960492669403817,0.9234488016406457 L0.33674546262995536,0.9386412360610075 L0.29307474925097804,0.9515724015284361 L0.24869799313073887,0.9622111457326842 L0.20372210176167627,0.9705318390071197 L0.15825542600552073,0.976514436072838 L0.11240749906657965,0.980144524329494 L0.06628877261665361,0.9814133585765193 L0.020010350707283242,0.9803178820810762 L-0.026316277889640693,0.9768607339419945 L-0.07257950826809473,0.9710502427319515 L-0.11866788825391722,0.9629004064332113 L-0.16447038690285676,0.9524308587152587 L-0.20987666198384225,0.9396668216355708 L-0.25477732580308465,0.9246390448774697 L-0.29906420872860934,0.9073837316714436 L-0.34263061978037546,0.887942451578393 L-0.3853716036581927,0.8663620403449168 L-0.4271841935882316,0.8426944870718974 L-0.46796765937900014,0.8169968089682021 L-0.5076237500891989,0.7893309139912338 L-0.5460569307228434,0.759763451705238 L-0.5831746123814382,0.7283656527166653 L-0.6188873753187432,0.695213157073402 L-0.6531091843607731,0.6603858320412681 L-0.6857575961720705,0.6239675796967787 L-0.7167539578689179,0.5860461347996947 L-0.7460235965010265,0.5467128534322999 L-0.7734959989452145,0.5060624929145964 L-0.7991049817776955,0.4641929835256223 L-0.8227888507157444,0.42120519258083167 L-0.8444905492446272,0.3772026814338963 L-0.8641577960717438,0.3322914559883338 L-0.8817432110768404,0.28657971132000054 L-0.8972044294548689,0.24017757102567927 L-0.9105042037765139,0.19319682192568732 L-0.9216104937205116,0.14575064475963334 L-0.9304965432615918,0.09795334152410475 L-0.937140945128083,0.04992006010914519 L-0.9415276923739085,0.0017665168969017225 L-0.9436462169407195,-0.04639128200927483 L-0.9434914151172733,-0.09443732025369465 L-0.941063659834722,-0.14225585072189106 L-0.9363687997681873,-0.18973167438555755 L-0.9294181452467907,-0.23675041782709716 L-0.9202284410060796,-0.2831988087752048 L-0.9088218258484928,-0.32896494898768697 L-0.895225779309047,-0.3739385838241305 L-0.8794730554547281,-0.41801136785899007 L-0.8616016039770773,-0.46107712589520566 L-0.8416544787680582,-0.5030321087495532 L-0.8196797341994613,-0.5437752431935141 L-0.7957303093557125,-0.5832083754475359 L-0.7698639004989826,-0.6212365076420839 L-0.7421428220738369,-0.6577680266758308 L-0.7126338565862814,-0.692714924919641 L-0.6814080937188558,-0.7259930122346582 L-0.6485407590693609,-0.757522118793725 L-0.6141110329258064,-0.7872262882175166 L-0.5782018595141606,-0.8150339605601126 L-0.5408997471784437,-0.8408781447031755 L-0.5022945599745586,-0.8646965797434176 " />
			<path d="M-0.5022945599745513,-0.8646965797434218 L-0.45789747768313577,-0.8887600687046523 L-0.4121333000595715,-0.9101700821598067 L-0.3651386602950379,-0.9288626985306226 L-0.31705386523940704,-0.9447821092795309 L-0.2680224765021475,-0.9578807855312129 L-0.2181908818358425,-0.9681196199744609 L-0.16770785808199506,-0.9754680436206778 L-0.11672412698398688,-0.979904117070424 L-0.06539190519335397,-0.9814145960155257 L-0.013864449812873604,-0.9799949707811851 L0.037704399166710756,-0.9756494797900316 L0.08916067817023182,-0.9683910969079179 L0.14035075971061217,-0.9582414927092427 L0.1911218110579574,-0.9452309697774436 L0.2413222505358265,-0.929398372233826 L0.2908022000823668,-0.910790969764844 " />
			<path d="M1.7900680673753584,0.749039441629383 L0.8950340336876791,3.4587289018039433 " />
			<path d="M1.7900680673753586,-0.4942799560987112 L1.8128016897869625,-0.41719059572927436 L1.8325796761264261,-0.3394210376412222 L1.8493697798826227,-0.26109807921812633 L1.8631446260610365,-0.182349420120957 L1.8738817558166199,-0.10330345408344188 L1.8815636630712413,-0.024089059575794436 L1.8861778230560249,0.055164610321889906 L1.8877167127320353,0.13432833849396253 L1.886177823056025,0.21327305446795508 L1.8815636630712418,0.29187004485422674 L1.8738817558166199,0.3699911632034145 L1.863144626061037,0.44750903893952587 L1.8493697798826232,0.5242972850280315 L1.8325796761264266,0.6002307040403679 L1.8128016897869634,0.6751854922788783 L1.790068067375362,0.7490394416293734 " />
			<path d="M0.8950340336876792,3.4587289018039433 L0.8660556460167219,3.5351086281265807 L0.8307021855709791,3.6081692642697005 L0.7892338906898911,3.6773730077554503 L0.7419560112715784,3.742210446858339 L0.6892165618152425,3.8022043104068044 L0.6314037596715039,3.8569129809967913 L0.5689431673578238,3.905933745756411 L0.5022945599745553,3.9489057607326705 " />
			<path d="M0.8950340336876792,-3.331349159038606 L1.7900680673753586,-0.49427995609870967 " />
			<path d="M-0.5022945599745516,-3.9489057607326727 L-0.4563441475828707,-3.9737507023359155 L-0.40893589256914437,-3.9957539036631684 L-0.3602212459274565,-4.014845073017067 L-0.31035583206664064,-4.030963221513375 L-0.25949895165063025,-4.044056857916823 L-0.2078130726946008,-4.054084153135646 L-0.1554633115426518,-4.061013073849308 L-0.1026169053851042,-4.064821484842545 L-0.049442678000517215,-4.065497219718797 L0.003889499570829069,-4.06303811976712 L0.05720925169904684,-4.057452040858444 L0.11034624244872193,-4.048756828349099 L0.16313071973618565,-4.036980260071824 L0.21539405762160801,-4.022159957596367 L0.26696929500349753,-4.004343266043147 L0.3176916689946872,-3.9835871028339547 L0.3673991412758795,-3.9599577758628595 L0.41593291574525176,-3.9335307716681918 L0.4631379458104352,-3.9043905142823228 L0.5088634297022641,-3.8726300955296127 L0.5529632922279604,-3.838350977634124 L0.595296651424741,-3.8016626690871544 L0.6357282686230654,-3.7626823748100637 L0.6741289804817536,-3.7215346217299916 L0.7103761116147816,-3.678350860964608 L0.7443538664915778,-3.633269047886755 L0.7759536993588477,-3.586433201410517 L0.8050746610021723,-3.5379929439066298 L0.8316237212396074,-3.4881030232170147 L0.8555160661170478,-3.4369228182954226 L0.8766753688559266,-3.3846158300534674 L0.8950340336876785,-3.331349159038609 " />
			<path d="M-0.4719291781830087,-3.1177912656127424 L-0.47088218410186244,-3.0851247659806282 L-0.46774584745635034,-3.0524542038234106 L-0.4625340844273581,-3.019924541083634 L-0.45527002003150224,-2.987680114521662 L-0.44598588551355056,-2.9558639952817307 L-0.43472287533376625,-2.9246173540736375 L-0.42153096438473614,-2.8940788347868183 L-0.4064686862487058,-2.864383939316126 L-0.3896028734793127,-2.8356644263289006 L-0.3710083610601078,-2.8080477266410404 L-0.35076765435564466,-2.7816563777961036 L-0.3289705630284635,-2.756607480356257 L-0.3057138025463116,-2.733012178317554 L-0.28110056504774367,-2.710975165954982 L-0.25524006147020595,-2.690594223285443 L-0.22824703697222148,-2.671959782209864 L-0.20024126179978544,-2.655154525259497 L-0.17134699985603835,-2.640253018726795 L-0.14169245733221703,-2.627321381808712 L-0.11140921384635233,-2.61641699323044 L-0.0806316386137988,-2.607588236651341 L-0.04949629424009269,-2.6008742859827114 L-0.0181413307815588,-2.596304931569951 L0.013294127237729103,-2.593900448010376 L0.04467059813278154,-2.593671504193183 L0.07584886194927878,-2.595619115960716 L0.10669057819383598,-2.5997346416010947 L0.13705889966202867,-2.6059998201921912 L0.16681907964057202,-2.614386852626829 L0.19583906978945276,-2.6248585249596803 L0.22399010605115827,-2.637368373528574 L0.25114727998727215,-2.651860891117538 " />
			<path d="M0.2511472799872758,-2.6518608911175403 L0.2922134703848621,-2.6789948862741304 L0.32996555236584035,-2.7107245768409167 L0.3639753646532068,-2.7466901038612774 L0.39385718852906526,-2.7864835680838564 " />
			<path d="M-0.06350676380095913,-3.5738324203145937 L-0.11287741049674607,-3.567588828574152 L-0.16096786988398956,-3.5558630372747086 L-0.20723272906299003,-3.5387880332480677 L-0.251147279987274,-3.5165574708609633 " />
			<path d="M-0.25114727998727576,-3.516557470860962 L-0.2994412789698814,-3.483905092029897 L-0.34297226037156375,-3.444895010420314 L-0.3810478051963705,-3.4001477340168806 L-0.41306227052817535,-3.3503750286287097 L-0.43850642309845983,-3.296368596293775 L-0.45697553932856155,-3.2389874821897466 L-0.46817584300429005,-3.179144410361321 L-0.4719291781830088,-3.1177912656127464 " />
			<path d="M-0.4719291781830087,3.05062709636576 L-0.47088218410186244,3.083293595997874 L-0.46774584745635034,3.1159641581550916 L-0.4625340844273581,3.1484938208948683 L-0.45527002003150224,3.18073824745684 L-0.44598588551355056,3.2125543666967715 L-0.43472287533376625,3.2438010079048647 L-0.42153096438473614,3.274339527191684 L-0.4064686862487058,3.3040344226623763 L-0.3896028734793127,3.3327539356496017 L-0.3710083610601078,3.360370635337462 L-0.35076765435564466,3.3867619841823986 L-0.3289705630284635,3.4118108816222454 L-0.3057138025463116,3.435406183660948 L-0.28110056504774367,3.45744319602352 L-0.25524006147020595,3.4778241386930593 L-0.22824703697222148,3.496458579768638 L-0.20024126179978544,3.5132638367190054 L-0.17134699985603835,3.528165343251707 L-0.14169245733221703,3.5410969801697902 L-0.11140921384635233,3.552001368748062 L-0.0806316386137988,3.5608301253271613 L-0.04949629424009269,3.567544075995791 L-0.0181413307815588,3.5721134304085513 L0.013294127237729103,3.5745179139681262 L0.04467059813278154,3.5747468577853194 L0.07584886194927878,3.5727992460177864 L0.10669057819383598,3.5686837203774076 L0.13705889966202867,3.562418541786311 L0.16681907964057202,3.5540315093516734 L0.19583906978945276,3.543559837018822 L0.22399010605115827,3.5310499884499285 L0.25114727998727215,3.516557470860964 " />
			<path d="M0.2511472799872758,3.516557470860962 L0.29221347038486223,3.489423475704372 L0.32996555236584046,3.457693785137585 L0.36397536465320696,3.4217282581172244 L0.3938571885290655,3.3819347938946454 " />
			<path d="M-0.06350676380095999,2.5945859416639085 L-0.11287741049674688,2.6008295334043505 L-0.16096786988398998,2.6125553247037936 L-0.20723272906299003,2.6296303287304346 L-0.251147279987274,2.651860891117539 " />
			<path d="M-0.25114727998727576,2.6518608911175403 L-0.2994412789698814,2.684513269948605 L-0.34297226037156375,2.723523351558188 L-0.3810478051963705,2.7682706279616216 L-0.41306227052817535,2.8180433333497925 L-0.43850642309845983,2.8720497656847273 L-0.45697553932856155,2.9294308797887556 L-0.46817584300429005,2.9892739516171813 L-0.4719291781830088,3.050627096365756 " />
			<path d="M1.7900680673753586,0.7490394416293825 L2.1204184921034646,0.5571418152094341 " />
			<path d="M0.8950340336876792,3.458728901803943 L1.2253844584157854,3.2668312753839945 " />
			<path d="M1.7900680673753584,-0.4942799560987102 L2.1204184921034646,-0.6861775825186587 " />
			<path d="M2.1418878596063626,0.4876932229596016 L2.160750882437664,0.4172323407685188 L2.1769701673473474,0.3458916620352822 L2.1905222880199333,0.27377422763104486 L2.201387670457179,0.20098420033359687 L2.2095506212497775,0.12762671437991424 L2.2149993502441183,0.05380772361558006 L2.2177259875713946,-0.02036615153959742 L2.217726595014441,-0.09478777808872951 L2.2150011716958993,-0.16934966519533334 L2.209553654079479,-0.24394411943766658 L2.2013919102843356,-0.31846340035566045 L2.1905277287207516,-0.3927998760657977 L2.1769768010635553,-0.4668461787191648 L2.160758699587857,-0.5404953595781476 L2.141896848899844,-0.6136410434877835 L2.1204184921034663,-0.6861775825186538 " />
			<path d="M0.8950340336876792,-3.331349159038606 L1.2253844584157854,-3.5232467854585545 " />
			<path d="M1.6515896866683342,-2.1722660610437616 L2.1204184921034646,-0.686177582518658 " />
			<path d="M1.7461379592771327,-0.09115137254947495 L1.7433201537902292,0.0012627867717176222 L1.7348779537409766,0.09290806169625962 L1.7208449637162773,0.18341965376078037 L1.701277042713791,0.2724372771815379 L1.6762520817924833,0.3596065929894652 L1.645869694023486,0.4445806194936237 L1.6102508179754358,0.527021113458662 L1.5695372363126325,0.6065999164984269 L1.5238910114222655,0.6830002613263373 L1.473493840317218,0.7559180326629399 L1.4185463313822917,0.8250629777815366 L1.359267205842798,0.8901598618732411 L1.2958924271341086,0.9509495636324938 L1.2286742616377508,1.0071901067019895 L1.1578802745228385,1.0586576228713072 L1.0837922646899392,1.1051472431951814 " />
			<path d="M-0.4230914152337211,-1.4889424960350808 L-0.3416198934253685,-1.5324200488019801 L-0.2571667846402516,-1.5699495945086603 L-0.17010681419360923,-1.601364611507215 L-0.08082627425797995,-1.6265257088111273 L0.010278690146597047,-1.6453212445844179 L0.10280383888026884,-1.6576678215055543 L0.19633863032976112,-1.6635106568081535 L0.29046804301491885,-1.6628238253565735 L0.38477441707278276,-1.6556103746778494 L0.47883930744838493,-1.6419023114395677 L0.5722453405695034,-1.6217604594336787 L0.664578066267163,-1.5952741896963816 L0.7554277967247562,-1.5625610239615662 L0.8443914242962205,-1.5237661132073164 L0.9310742101274623,-1.479061593609212 L1.0150915356447707,-1.4286458227581094 L1.096070609138724,-1.3727424995313726 L1.1736521198713377,-1.3115996715227547 L1.2474918323670414,-1.2454886344350382 L1.3172621138134966,-1.1747027283189309 L1.3826533877950395,-1.0995560359993917 L1.4433755079084294,-1.0203819894645816 L1.4991590451660441,-0.9375318904010008 L1.5497564834742235,-0.8513733514393245 L1.5949433178823147,-0.7622886650272473 L1.6345190507294054,-0.6706731071667886 L1.6683080812687583,-0.5769331835425094 L1.6961604848226135,-0.4814848258227148 L1.717952678010181,-0.38475154613679896 L1.7335879670971577,-0.2871625579174677 L1.7429969770336937,-0.1891508714458147 L1.7461379592771327,-0.09115137254948005 " />
			<path d="M1.7283323055651374,0.1525021471988317 L0.5022945599745523,0.8646965797434217 " />
			<path d="M0.7237431856160339,-1.5768910122880115 L-0.5022945599745512,-0.8646965797434215 " />
			<path d="M0.581497704715382,-2.8437585175374887 L0.2511472799872758,-2.6518608911175403 " />
			<path d="M0.07920314474083034,-3.7084550972809103 L-0.2511472799872758,-3.516557470860962 " />
			<path d="M0.581497704715382,3.3246598444410136 L0.2511472799872758,3.516557470860962 " />
			<path d="M0.07920314474083034,2.459963264697592 L-0.2511472799872758,2.6518608911175403 " />

       </g>

       <!-- solid lines -->
       <g  stroke="rgb(0,0,0)" fill="none">
			<path d="M2.169896101956603,-0.6450302632976082 L2.168017564965334,-0.5834208237501459 L2.162389431599166,-0.5223239738004517 L2.153034104916033,-0.46198291242410455 L2.139988824247709,-0.40263783014359916 L2.1233055169668367,-0.3445249529383147 L2.1030505917875053,-0.2878756019355423 L2.0793046744221386,-0.23291527262551626 L2.0521622866469365,-0.17986273726567348 L2.0217314700533584,-0.1289291740470666 L1.9881333559833267,-0.0803173264893311 L1.9515016833600427,-0.03422069641026704 L1.9119822663337134,0.009177226317536147 L1.8697324138612537,0.049703694157038236 L1.824920303530349,0.08719738953670186 L1.7777243121204074,0.12150906698291353 L1.7283323055651407,0.15250214719882982 " />
			<path d="M1.7283323055651372,0.15250214719883182 L1.688517046770459,0.174237452440001 L1.6475876348308358,0.1938372656279792 L1.605642672284623,0.21125436909605555 L1.5627832082205404,0.22644680351641733 L1.519112494841563,0.2393779689838459 L1.4747357387213238,0.25001671318809393 L1.4297598473522612,0.25833740646252956 L1.3842931715961058,0.2643200035282479 L1.3384452446571646,0.2679500917849039 L1.2923265182072385,0.2692189260319292 L1.2460480962978682,0.2681234495364859 L1.1997214677009445,0.2646663013974042 L1.1534582373224904,0.25885581018736137 L1.1073698573366677,0.25070597388862104 L1.0615673586877286,0.24023642617066865 L1.016161083606743,0.22747238909098078 L0.9712604197875004,0.2124446123328797 L0.9269735368619758,0.19518929912685345 L0.8834071258102097,0.17574801903380288 L0.8406661419323924,0.1541676078003268 L0.7988535520023536,0.13050005452730729 L0.758070086211585,0.10480237642361212 L0.7184139955013863,0.07713648144664365 L0.6799808148677419,0.04756901916064782 L0.642863133209147,0.016171220172075285 L0.6071503702718422,-0.016981275471188106 L0.5729285612298121,-0.05180860050332192 L0.5402801494185148,-0.08822685284781129 L0.5092837877216674,-0.12614829774489533 L0.48001414908955875,-0.1654815791122901 L0.45254174664537083,-0.20613193962999365 L0.4269327638128897,-0.24800144901896765 L0.40324889487484095,-0.29098923996375825 L0.381547196345958,-0.3349917511106937 L0.3618799495188415,-0.3799029765562561 L0.3442945345137449,-0.4256147212245894 L0.3288333161357163,-0.47201686151891065 L0.31553354181407145,-0.5189976106189026 L0.3044272518700736,-0.5664437877849566 L0.2955412023289936,-0.6142410910204852 L0.2888968004625023,-0.6622743724354446 L0.2845100532166768,-0.710427915647688 L0.28239152864986594,-0.7585857145538647 L0.282546330473312,-0.8066317527982845 L0.28497408575586336,-0.8544502832664811 L0.289668945822398,-0.9019261069301474 L0.29661960034379453,-0.948944850371687 L0.30580930458450584,-0.9953932413197947 L0.3172159197420925,-1.0411593815322768 L0.3308119662815383,-1.0861330163687204 L0.3465646901358571,-1.1302058004035798 L0.364436141613508,-1.1732715584397955 L0.3843832668225271,-1.2152265412941428 L0.40635801139112404,-1.255969675738104 L0.43030743623487266,-1.2954028079921258 L0.45617384509160275,-1.3334309401866737 L0.48389492351674845,-1.3699624592204205 L0.5134038890043038,-1.4049093574642306 L0.5446296518717294,-1.4381874447792478 L0.5774969865212243,-1.4697165513383146 L0.6119267126647788,-1.4994207207621062 L0.6478358860764246,-1.5272283931047022 L0.6851379984121415,-1.5530725772477654 L0.7237431856160266,-1.5768910122880073 " />
			<path d="M0.7237431856160339,-1.5768910122880115 L0.778057533488269,-1.6058760474659444 L0.8343596060116802,-1.6308957446037313 L0.8923995863094418,-1.6518390892694343 L0.951919946266528,-1.6686131541387095 L1.0126565892029127,-1.681143511320903 L1.0743400216920271,-1.6893745626016605 L1.136696549325022,-1.6932697861367267 L1.1994494911151272,-1.69281189850234 L1.262320407153703,-1.6880029313831906 L1.3250303340707712,-1.6788642225576695 L1.3873010228181835,-1.6654363212204104 L1.44885617328329,-1.647778808062212 L1.509422660255019,-1.6259700309056684 L1.5687317453026617,-1.600106757069502 L1.6265202691901561,-1.5703037440040988 L1.6825318195350283,-1.536693230103364 L1.7365178685309974,-1.4994243479522065 L1.788238875686073,-1.4586624626131277 L1.837465350683209,-1.4145884378879834 L1.8839788716475123,-1.3673978338105783 L1.9275730543018743,-1.3173000389308855 L1.9680544677108007,-1.264517341241012 L2.0052434925492104,-1.2092839418652916 L2.038975118087997,-1.1518449158908408 L2.069099674360058,-1.0924551249494558 L2.095483496258118,-1.0313780863758168 L2.1180095166176867,-0.9688848039596307 L2.13657778565359,-0.9052525654797676 L2.151105914445302,-0.8407637123558236 L2.1615294405032865,-0.7757043868762696 L2.1678021137943104,-0.7103632625618344 L2.169896101956603,-0.6450302632976113 " />
			<path d="M0.9438583563660182,0.06716416924698217 L0.9417001862802259,0.13318488583063381 L0.9352355455082189,0.19859653722024923 " />
			<path d="M0.29080220008236773,-0.9107909697648434 L0.3604101902801089,-0.8792754090310115 L0.4277927207434732,-0.8423305012060068 L0.4925337180306136,-0.8001843735930306 L0.5542334196306141,-0.7530972699712325 L0.6125108424158138,-0.7013599436432243 L0.6670061351352508,-0.64529186209248 L0.71738280042306,-0.5852392343365026 L0.7633297726013728,-0.5215728731564476 L0.8045633384477084,-0.4546859054035018 L0.8408288890665065,-0.38499134452041217 L0.8719024920473532,-0.3129195402673505 L0.89759227420214,-0.23891552139953684 L0.9177396063430354,-0.16343624770505172 L0.9322200827855056,-0.08694778837094162 L0.9409442895281532,-0.0099224441006363 L0.9438583563660183,0.06716416924697789 " />
			<path d="M2.737094847625815,-0.6668509682262457 L2.7353895832281525,-0.5949128454813106 L2.730277898166462,-0.5233907183445712 L2.721772106937788,-0.4524568898848971 L2.7098927007382194,-0.3822822459081181 L2.694668298097805,-0.3130358432781463 L2.6761355759360046,-0.2448845026441856 L2.654339181203781,-0.17799240655517645 L2.629331623325183,-0.11252070392965341 L2.6011731476975446,-0.04862712183388451 L2.5699315905550417,0.013534414496445324 L2.535682215545269,0.0738141524756083 L2.4985075324125168,0.13206687293493014 L2.458497098224569,0.18815223996848984 L2.4157473016218836,0.24193513901460584 L2.3703611306089165,0.29328600235864943 L2.3224479244469984,0.3420811212730206 L2.272123110246474,0.38820294404230715 L2.2195079248926843,0.4315403591556639 L2.164729122975694,0.47198896298417314 L2.107918671427377,0.5094513112983321 L2.0492134316015216,0.5438371540197382 L1.988754829562839,0.5750636526414317 L1.9266885153791888,0.6030555797931147 L1.8631640122378064,0.6277455004704757 L1.798334356230849,0.6490739344920209 L1.7323557276780448,0.6669894997920418 L1.6653870748746225,0.6814490362045134 L1.597589731170947,0.6924177094397119 L1.5291270263063463,0.699869095003071 L1.4601638929334628,0.7037852418541048 L1.3908664692810504,0.7041567156520352 L1.321401698912425,0.7009826214839454 L1.2519369285437996,0.6942706060207045 L1.1826395048913874,0.6840368390954661 L1.1136763715185052,0.6703059747491256 L1.0452136666539034,0.6531110918365746 L0.9774163229502274,0.6324936143368436 L0.9104476701468053,0.6085032115591076 L0.8444690415940012,0.5811976784849688 L0.7796393855870442,0.5506427965352849 L0.7161148824456621,0.5169121750969647 L0.6540485682620122,0.4800870741915062 L0.5935899662233299,0.44025620871248883 L0.534884726397473,0.39751553470362233 L0.4780742748491551,0.3519680181922358 L0.4232954729321652,0.3037233871350973 L0.37068028757837634,0.25289786707415307 L0.32035547337785175,0.1996139011390201 L0.27244226721593345,0.14399985507075996 L0.2270560962029673,0.08618970797756642 L0.18430629960028222,0.026322729567357706 L0.1442958654123334,-0.03545685536514909 L0.10712118227958012,-0.09900021438859785 L0.07287180726980802,-0.16415426598535898 L0.041630250127306034,-0.23076204833831637 L0.013471774499666855,-0.2986630974656286 L-0.011535783378930686,-0.3676938337925188 L-0.03333217811115374,-0.4376879562287972 L-0.051864900272954095,-0.5084768428027535 L-0.06708930291336901,-0.5798899568862583 L-0.07896870911293763,-0.6517552580324332 L-0.08747450034161153,-0.7238996164361586 L-0.09258618540330188,-0.7961492300189418 L-0.0942914498009646,-0.8683300431333432 L-0.09258618540330188,-0.9402681658782777 L-0.08747450034161108,-1.0117902930150173 L-0.07896870911293719,-1.082724121474691 L-0.06708930291336856,-1.1528987654514715 L-0.05186490027295343,-1.2221451680814444 L-0.03333217811115308,-1.2902965087154044 L-0.011535783378929798,-1.3571886048044126 L0.013471774499667966,-1.422660307429936 L0.041630250127307145,-1.4865538895257049 L0.07287180726980957,-1.548715425856034 L0.10712118227958167,-1.6089951638351963 L0.1442958654123343,-1.6672478842945184 L0.18430629960028244,-1.7233332513280777 L0.22705609620296774,-1.7771161503741932 L0.2724422672159341,-1.8284670137182364 L0.32035547337785286,-1.8772621326326084 L0.37068028757837845,-1.9233839554018959 L0.4232954729321675,-1.966721370515252 L0.47807427484915765,-2.0071699743437605 L0.5348847263974744,-2.04463232265792 L0.5935899662233302,-2.079018165379326 L0.6540485682620126,-2.1102446640010193 L0.7161148824456628,-2.138236591152702 L0.7796393855870446,-2.1629265118300633 L0.8444690415940016,-2.184254945851608 L0.9104476701468056,-2.202170511151629 L0.977416322950228,-2.2166300475641005 L1.0452136666539047,-2.227598720799299 L1.1136763715185067,-2.2350501063626584 L1.1826395048913894,-2.2389662532136922 L1.2519369285438016,-2.2393377270116224 L1.3214016989124266,-2.2361636328435326 L1.3908664692810522,-2.2294516173802914 L1.4601638929334642,-2.2192178504550526 L1.5291270263063468,-2.2054869861087125 L1.5975897311709488,-2.1882921031961615 L1.6653870748746256,-2.1676746256964305 L1.7323557276780477,-2.1436842229186936 L1.7983343562308516,-2.116378689844555 L1.8631640122378088,-2.085823807894871 L1.9266885153791906,-2.052093186456551 L1.9887548295628403,-2.0152680855510923 L2.049213431601523,-1.9754372200720747 L2.1079186714273783,-1.9326965460632088 L2.1647291229756953,-1.8871490295518232 L2.2195079248926852,-1.8389043984946845 L2.2721231102464743,-1.7880788784337405 L2.3224479244469998,-1.7347949124986064 L2.3703611306089183,-1.6791808664303451 L2.415747301621885,-1.6213707193371516 L2.4584970982245697,-1.561503740926943 L2.498507532412518,-1.4997241559944372 L2.53568221554527,-1.4361807969709894 L2.5699315905550426,-1.3710267453742284 L2.601173147697545,-1.3044189630212712 L2.629331623325184,-1.2365179138939588 L2.654339181203781,-1.1674871775670685 L2.676135575936005,-1.0974930551307875 L2.694668298097805,-1.0267041685568314 L2.7098927007382203,-0.9552910544733277 L2.721772106937788,-0.8834257533271541 L2.730277898166462,-0.8112813949234288 L2.7353895832281525,-0.7390317813406456 L2.7370948476258152,-0.6668509682262702 " />
			<path d="M0.5022945599745517,3.9489057607326727 L0.4563441475828706,3.9737507023359155 L0.4089358925691445,3.9957539036631684 L0.36022124592745686,4.014845073017067 L0.31035583206664075,4.030963221513375 L0.25949895165063014,4.044056857916823 L0.20781307269460098,4.054084153135646 L0.15546331154265214,4.061013073849308 L0.10261690538510426,4.064821484842545 L0.04944267800051716,4.065497219718797 L-0.003889499570828958,4.06303811976712 L-0.05720925169904656,4.057452040858444 L-0.11034624244872177,4.048756828349099 L-0.16313071973618565,4.036980260071824 L-0.21539405762160785,4.022159957596367 L-0.26696929500349725,4.004343266043147 L-0.31769166899468715,3.9835871028339547 L-0.3673991412758795,3.9599577758628595 L-0.41593291574525204,3.9335307716681918 L-0.463137945810435,3.9043905142823228 L-0.508863429702264,3.8726300955296127 L-0.5529632922279605,3.838350977634124 L-0.5952966514247404,3.801662669087155 L-0.6357282686230653,3.7626823748100637 L-0.6741289804817536,3.721534621729992 L-0.7103761116147816,3.678350860964608 L-0.744353866491578,3.6332690478867544 L-0.7759536993588481,3.5864332014105162 L-0.8050746610021727,3.537992943906629 L-0.8316237212396078,3.488103023217014 L-0.8555160661170483,3.4369228182954217 L-0.8766753688559267,3.384615830053467 L-0.8950340336876768,3.331349159038614 " />
			<path d="M-0.8950340336876792,3.331349159038606 L-1.7900680673753586,0.49427995609870967 " />
			<path d="M-0.8950340336876791,-3.4587289018039433 L-0.8660556460167217,-3.5351086281265816 L-0.8307021855709789,-3.608169264269701 L-0.7892338906898912,-3.67737300775545 L-0.7419560112715784,-3.742210446858339 L-0.6892165618152426,-3.8022043104068044 L-0.6314037596715043,-3.856912980996791 L-0.5689431673578239,-3.9059337457564105 L-0.502294559974559,-3.9489057607326687 " />
			<path d="M-1.7900680673753593,0.49427995609870967 L-1.8128016897869625,0.41719059572927414 L-1.8325796761264264,0.33942103764122156 L-1.8493697798826232,0.26109807921812533 L-1.863144626061037,0.18234942012095556 L-1.8738817558166199,0.10330345408344044 L-1.8815636630712418,0.024089059575792215 L-1.886177823056025,-0.055164610321893126 L-1.887716712732035,-0.13432833849396575 L-1.8861778230560247,-0.2132730544679584 L-1.8815636630712413,-0.29187004485423074 L-1.8738817558166194,-0.3699911632034194 L-1.8631446260610363,-0.4475090389395292 L-1.8493697798826227,-0.5242972850280329 L-1.832579676126426,-0.60023070404037 L-1.8128016897869625,-0.6751854922788816 L-1.7900680673753637,-0.7490394416293682 " />
			<path d="M-1.7900680673753584,-0.749039441629383 L-0.8950340336876791,-3.4587289018039433 " />
			<path d="M0.39385718852906537,-2.7864835680838564 L0.41143298887488056,-2.815126060074417 L0.4269040920506773,-2.8451450544320767 L0.4401913551876249,-2.876386988136418 L0.4512268069127956,-2.9086920421859714 L0.4599539950586581,-2.9418949591568704 L0.46632827544574823,-2.9758258885819067 L0.47031704026124016,-3.010311255825434 L0.47189988486514134,-3.0451746500093577 L0.4710687121708096,-3.0802377264480056 L0.4678277740658299,-3.115321118975445 L0.46219364966136334,-3.150245357498213 L0.45419516048123076,-3.1848317860796898 L0.44387322302458776,-3.2189034768596283 L0.43128063945640766,-3.2522861351336627 L0.41648182749650364,-3.2848089909628313 L0.3995524908888482,-3.316305672752062 L0.38057923213691547,-3.3466150583288026 L0.3596591094861087,-3.375582099168086 L0.33689914041954216,-3.40305861354767 L0.31241575420705925,-3.428904044575861 L0.2863341963079866,-3.4529861792142937 L0.25878788767442157,-3.475181824617494 L0.2299177422325519,-3.4953774383293865 L0.199871446033454,-3.5134697091129654 L0.16880270176089343,-3.5293660854418643 L0.13687044246086955,-3.5429852489503286 L0.10423801851509285,-3.5542575304196298 L0.07107236201745643,-3.563125266172936 L0.037543132828155995,-3.5695430930554957 L0.0038218506738436353,-3.5734781804911453 L-0.02991898226641665,-3.5749103984280577 L-0.06350676380095707,-3.573832420314594 " />
			<path d="M0.3938571885290656,3.3819347938946454 L0.4114329888748808,3.353292301904085 L0.4269040920506775,3.323273307546425 L0.44019135518762514,3.2920313738420837 L0.4512268069127957,3.2597263197925304 L0.4599539950586582,3.2265234028216314 L0.46632827544574834,3.192592473396595 L0.4703170402612402,3.1581071061530674 L0.47189988486514134,3.123243711969144 L0.4710687121708095,3.088180635530496 L0.46782777406582987,3.0530972430030565 L0.4621936496613632,3.0181730044802886 L0.45419516048123065,2.983586575898812 L0.4438732230245876,2.9495148851188735 L0.4312806394564075,2.916132226844839 L0.41648182749650337,2.8836093710156705 L0.39955249088884787,2.85211268922644 L0.380579232136915,2.8218033036496992 L0.3596591094861082,2.792836262810416 L0.3368991404195417,2.7653597484308317 L0.3124157542070587,2.7395143174026404 L0.28633419630798607,2.715432182764208 L0.25878788767442107,2.693236537361008 L0.2299177422325514,2.6730409236491153 L0.19987144603345322,2.654948652865537 L0.16880270176089263,2.6390522765366375 L0.1368704424608687,2.625433113028173 L0.10423801851509196,2.6141608315588725 L0.07107236201745565,2.605293095805566 L0.037543132828155135,2.598875268923006 L0.003821850673842747,2.594940181487357 L-0.029918982266417482,2.5935079635504446 L-0.06350676380095788,2.5945859416639085 " />
			<path d="M2.737189233461451,-0.6668442518093203 L2.7343714279745477,-0.5744300924881277 L2.7259292279252954,-0.4827848175635857 L2.7118962379005955,-0.39227322549906496 L2.6923283168981094,-0.30325560207830743 L2.667303355976802,-0.21608628627038018 L2.6369209682078045,-0.13111225976622165 L2.601302092159754,-0.048671765801183375 L2.560588510496951,0.03090703723858157 L2.514942285606584,0.10730738206649193 L2.4645451145015365,0.18022515340309453 L2.40959760556661,0.24937009852169123 L2.3503184800271164,0.3144669826133958 L2.2869437013184273,0.3752566843726485 L2.2197255358220693,0.43149722744214414 L2.148931548707157,0.4829647436114618 L2.0748435388742577,0.5294543639353361 " />
			<path d="M2.0748435388742523,0.5294543639353392 L2.0151206506822352,0.5620573217970924 L1.9537265327728002,0.5914570415790598 L1.8908090889534812,0.6175826967811745 L1.826519892857357,0.6403713484117172 L1.761013822788891,0.65976809661286 L1.6944486886085324,0.6757262129192322 L1.6269848515549383,0.6882072528308855 L1.558784837920705,0.6971811484294631 L1.4900129475122936,0.7026262808144471 L1.4208348578374044,0.704529532184985 L1.351417224973349,0.70288631744182 L1.2819272820779632,0.6977005952331977 L1.212532436510282,0.6889848584181334 L1.1433998665315483,0.6767601039700227 L1.0746961185581392,0.6610557823930941 L1.0065867059366607,0.6419097267735622 L0.9392357102077972,0.6193680616364107 L0.8728053858195102,0.5934850918273714 L0.8074557692418611,0.5643231716877953 L0.7433442934251352,0.5319525548375813 L0.6806254085300769,0.49645122492805205 L0.6194502098439238,0.45790470777250947 L0.5599660737786261,0.4164058653070567 L0.5023163028281593,0.3720546718780632 L0.4466397803402671,0.32495797339520427 L0.3930706359343098,0.2752292299303093 L0.34173792237126466,0.22298824238210846 L0.2927653046543186,0.1683608638653742 L0.24627076210904764,0.11147869651974818 L0.20236630416088475,0.05247877446865601 L0.16115770049460276,-0.008496766307899195 L0.12274422624588133,-0.07130103039136026 L0.08721842283880799,-0.13578271680854614 L0.05466587504548359,-0.20178648352894923 L0.025165004804808655,-0.26915332169729295 L-0.001213117702836053,-0.3377209386997929 L-0.024404945269878686,-0.40732414914127474 L-0.04435460675234615,-0.4777952727912626 L-0.061014041668343344,-0.5489645385403435 L-0.07434311597996279,-0.6206604933936364 L-0.08430971877969995,-0.6927104155160758 L-0.09088983964843833,-0.764940730334441 L-0.09406762649865463,-0.8371774286937058 L-0.0938354237634853,-0.9092464860603356 L-0.09019379083965862,-0.9809742817626302 L-0.08315150073985644,-1.0521880172581297 L-0.07272551895776158,-1.1227161324204395 L-0.05894096259669479,-1.1923887188426008 L-0.041831039860314556,-1.261037929161324 L-0.021436970051145865,-1.3284983814159892 L0.002192115730332178,-1.3946075574682786 L0.028999292946808586,-1.4592061945226018 L0.05891998076033711,-1.5221386688041232 L0.09188209761323263,-1.5832533704700644 L0.12780623487885556,-1.642403068851097 L0.16660584816395052,-1.6994452671429194 L0.20818746580166914,-1.7542425456935398 L0.25245091403300224,-1.8066628930592548 L0.2992895583341406,-1.8565800240317807 L0.3485905603083832,-1.9038736838703807 L0.40023514952371486,-1.9484299380060683 L0.4540989096411836,-1.9901414465199618 L0.510052078144759,-2.0289077227345564 L0.5679598589505864,-2.0646353752949196 " />
			<path d="M0.5679598589505974,-2.0646353752949262 L0.64943138075895,-2.1081129280618254 L0.7338844895440669,-2.145642473768506 L0.8209444599907093,-2.1770574907670603 L0.9102249999263385,-2.2022185880709726 L1.0013299643309157,-2.221014123844263 L1.0938551130645875,-2.2333607007653997 L1.1873899045140797,-2.2392035360679987 L1.2815193171992374,-2.2385167046164187 L1.3758256912571012,-2.231303253937695 L1.4698905816327035,-2.217595190699413 L1.5632966147538219,-2.197453338693524 L1.6556293404514815,-2.170967068956227 L1.746479070909075,-2.1382539032214116 L1.835442698480539,-2.0994589924671616 L1.9221254843117808,-2.054754472869057 L2.006142809829089,-2.0043387020179546 L2.0871218833230425,-1.9484353787912179 L2.164703394055656,-1.8872925507826 L2.2385431065513597,-1.8211815136948837 L2.3083133879978153,-1.7503956075787763 L2.373704661979358,-1.6752489152592371 L2.434426782092748,-1.5960748687244268 L2.4902103193503624,-1.5132247696608463 L2.540807757658542,-1.42706623069917 L2.5859945920666334,-1.3379815442870928 L2.625570324913724,-1.246365986426634 L2.659359355453077,-1.1526260628023548 L2.687211759006932,-1.0571777050825601 L2.7090039521944993,-0.9604444253966442 L2.7246392412814764,-0.8628554371773131 L2.734048251218012,-0.76484375070566 L2.737189233461451,-0.6668442518093254 " />
			<path d="M2.1204184921034646,0.5571418152094345 L1.2253844584157854,3.2668312753839945 " />
			<path d="M2.120418492103465,0.5571418152094343 L2.1418878596063626,0.4876932229596036 " />
			<path d="M-0.8950340336876792,3.331349159038606 L-0.564683608959573,3.139451532618658 " />
			<path d="M1.2253844584157854,3.2668312753839945 L1.196406070744828,3.3432110017066323 L1.1610526102990852,3.4162716378497517 L1.1195843154179972,3.485475381335502 L1.0723064359996846,3.55031282043839 L1.0195669865433485,3.610306683986856 L0.96175418439961,3.665015354576843 L0.89929359208593,3.7140361193364626 L0.8326449847026615,3.7570081343127226 " />
			<path d="M0.8326449847026579,3.7570081343127244 L0.7866945723109768,3.781853075915967 L0.7392863172972506,3.80385627724322 L0.690571670655563,3.8229474465971185 L0.6407062567947469,3.8390655950934263 L0.5898493763787362,3.8521592314968753 L0.5381634974227072,3.862186526715698 L0.4858137362707583,3.86911544742936 L0.4329673301132104,3.872923858422597 L0.3797931027286233,3.873599593298848 L0.3264609251572772,3.8711404933471716 L0.2731411730290596,3.8655544144384955 L0.2200041822793844,3.85685920192915 L0.16721970499192051,3.8450826336518764 L0.11495636710649831,3.830262331176419 L0.06338112972460891,3.8124456396231987 L0.012658755733419014,3.7916894764140068 L-0.037048716547773364,3.768060149442911 L-0.08558249101714588,3.741633145248243 L-0.13278752108232883,3.712492887862375 L-0.17851300497415779,3.680732469109665 L-0.22261286749985432,3.6464533512141757 L-0.26494622669663426,3.6097650426672065 L-0.30537784389495914,3.5707847483901154 L-0.34377855575364746,3.5296369953100433 L-0.3800256868866755,3.4864532345446597 L-0.4140034417634718,3.4413714214668065 L-0.4456032746307419,3.3945355749905683 L-0.47472423627406657,3.3460953174866805 L-0.5012732965115017,3.2962053967970655 L-0.5251656413889422,3.2450251918754733 L-0.5463249441278205,3.1927182036335187 L-0.5646836089595706,3.139451532618666 " />
			<path d="M1.2253844584157854,-3.5232467854585545 L1.6515896866683342,-2.1722660610437616 " />
			<path d="M-1.7900680673753584,0.4942799560987102 L-1.4597176426472522,0.3023823296787618 " />
			<path d="M-0.564683608959573,3.139451532618658 L-1.4597176426472525,0.30238232967876133 " />
			<path d="M-0.8950340336876792,-3.458728901803943 L-0.564683608959573,-3.650626528223891 " />
			<path d="M-0.5646836089595729,-3.6506265282238917 L-0.5357052212886155,-3.72700625454653 L-0.5003517608428727,-3.8000668906896493 L-0.4588834659617851,-3.8692706341753986 L-0.41160558654347223,-3.9341080732782867 L-0.35886613708713644,-3.9941019368267527 L-0.30105333494339814,-4.04881060741674 L-0.23859274262971775,-4.097831372176359 L-0.1719441352464528,-4.140803387152617 " />
			<path d="M-0.17194413524644547,-4.140803387152621 L-0.1259937228547645,-4.165648328755863 L-0.0785854678410382,-4.187651530083117 L-0.02987082119935036,-4.206742699437015 L0.019994592661465527,-4.2228608479333225 L0.07085147307747591,-4.235954484336772 L0.12253735203350535,-4.245981779555595 L0.17488711318545436,-4.252910700269257 L0.22773351934300196,-4.256719111262494 L0.28090774672758895,-4.2573948461387445 L0.33423992429893523,-4.254935746187068 L0.387559676427153,-4.249349667278392 L0.4406966671768281,-4.240654454769047 L0.4934811444642918,-4.228877886491773 L0.5457444823497142,-4.214057584016316 L0.5973197197316037,-4.196240892463095 L0.6480420937227933,-4.1754847292539035 L0.6977495660039856,-4.151855402282807 L0.746283340473358,-4.12542839808814 L0.7934883705385414,-4.096288140702271 L0.8392138544303702,-4.0645277219495615 L0.8833137169560665,-4.030248604054073 L0.9256470761528471,-3.993560295507103 L0.9660786933511716,-3.9545800012300116 L1.0044794052098598,-3.91343224814994 L1.0407265363428877,-3.870248487384557 L1.074704291219684,-3.825166674306703 L1.1063041240869538,-3.778330827830465 L1.1354250857302786,-3.729890570326578 L1.1619741459677135,-3.680000649636963 L1.185866490845154,-3.628820444715371 L1.2070257935840327,-3.576513456473416 L1.2253844584157847,-3.523246785458557 " />
			<path d="M-1.7900680673753584,-0.7490394416293831 L-1.4597176426472522,-0.9409370680493315 " />
			<path d="M-1.4597176426472531,0.3023823296787612 L-1.4824512650588564,0.22529296930932569 L-1.5022292513983202,0.1475234112212731 L-1.519019355154517,0.06920045279817688 L-1.5327942013329308,-0.00954820629899289 L-1.5435313310885137,-0.08859417233650801 L-1.5512132383431356,-0.16780856684415624 L-1.555827398327919,-0.24706223674184158 L-1.5573662880039287,-0.3262259649139142 L-1.5558273983279185,-0.40517068088790686 L-1.5512132383431352,-0.4837676712741792 L-1.5435313310885133,-0.5618887896233679 L-1.53279420133293,-0.6394066653594777 L-1.5190193551545166,-0.7161949114479813 L-1.5022292513983198,-0.7921283304603185 L-1.4824512650588564,-0.86708311869883 L-1.4597176426472576,-0.9409370680493166 " />
			<path d="M-1.4597176426472522,-0.9409370680493314 L-0.5646836089595729,-3.6506265282238917 " />
			<path d="M-0.14157875345490256,-3.309688892032691 L-0.14053175937375628,-3.2770223924005766 L-0.13739542272824418,-3.244351830243359 L-0.13218365969925194,-3.2118221675035823 L-0.12491959530339608,-3.1795777409416104 L-0.1156354607854444,-3.1477616217016786 L-0.10437245060566008,-3.116514980493586 L-0.09118053965662998,-3.0859764612067666 L-0.07611826152059964,-3.0562815657360742 L-0.059252448751206555,-3.027562052748849 L-0.040657936332001654,-2.9999453530609888 L-0.020417229627538502,-2.973554004216052 L0.0013798616996426594,-2.948505106776205 L0.024636622181794576,-2.924909804737503 L0.049249859680362496,-2.9028727923749305 L0.07511036325790021,-2.8824918497053913 L0.10210338775588468,-2.8638574086298125 L0.13010916292832073,-2.847052151679445 L0.1590034248720678,-2.8321506451467435 L0.18865796739588914,-2.8192190082286603 L0.21894121088175383,-2.8083146196503885 L0.24971878611430737,-2.7994858630712893 L0.28085413048801344,-2.7927719124026593 L0.3122090939465474,-2.788202557989899 L0.34364455196583527,-2.7857980744303243 L0.3750210228608877,-2.785569130613131 L0.4061992866773849,-2.787516742380664 L0.43704100292194215,-2.7916322680210426 L0.46740932439013483,-2.7978974466121396 L0.4971695043686782,-2.806284479046777 L0.5261894945175589,-2.8167561513796286 L0.5543405307792644,-2.829265999948522 L0.5814977047153783,-2.8437585175374864 " />
			<path d="M0.581497704715382,-2.8437585175374887 L0.6194513544851867,-2.8685898271291435 L0.6546208042627866,-2.897345748012337 L0.6866673530212466,-2.9297493449493786 L0.7152823749775974,-2.965488553588157 L0.7401902918278369,-3.0042191858124423 L0.7611512267166449,-3.0455682444615966 L0.7779633143826298,-3.0891375154971343 L0.790464645231146,-3.1345074030215967 L0.7985348246121999,-3.1812409702164204 L0.8020961322867429,-3.228888147282352 L0.8011142709150605,-3.27699006585765 L0.7955986963589021,-3.3250834781712517 L0.7856025266163631,-3.3727052183720434 L0.7712220302665265,-3.4193966630691994 L0.75259569935042,-3.4647081481261472 L0.7299029156169541,-3.5082032991720102 L0.7033622229786195,-3.5494632341253496 L0.6732292228141417,-3.5880905972575885 L0.6397941123874783,-3.6237133859459 L0.6033788900895283,-3.655988533261818 L0.5643342544176065,-3.6846052118933006 L0.5230362265572028,-3.7092878275816576 L0.4798825290924109,-3.7297986732449213 L0.43528875572002756,-3.7459402182269845 L0.3896843688550651,-3.757557010625805 L0.34350856367292687,-3.7645371743801963 L0.2972060384197797,-3.766813486697459 L0.25122271172534616,-3.7643640254456185 L0.20600142816273714,-3.7572123802755413 L0.16197769341312884,-3.7454274254397033 L0.11957548010798119,-3.729122656495484 L0.07920314474083218,-3.708455097280911 " />
			<path d="M0.0792031447408304,-3.7084550972809103 L0.030909145758224787,-3.6758027184498454 L-0.01262183564345759,-3.6367926368402625 L-0.05069738046826433,-3.592045360436829 L-0.08271184580006918,-3.542272655048658 L-0.10815599837035367,-3.4882662227137233 L-0.1266251146004554,-3.430885108609695 L-0.1378254182761839,-3.3710420367812692 L-0.14157875345490262,-3.309688892032695 " />
			<path d="M-0.14157875345490256,2.8587294699458115 L-0.14053175937375628,2.8913959695779257 L-0.13739542272824418,2.9240665317351433 L-0.13218365969925194,2.95659619447492 L-0.12491959530339608,2.988840621036892 L-0.1156354607854444,3.0206567402768236 L-0.10437245060566008,3.0519033814849164 L-0.09118053965662998,3.0824419007717356 L-0.07611826152059964,3.112136796242428 L-0.059252448751206555,3.1408563092296533 L-0.040657936332001654,3.1684730089175135 L-0.020417229627538502,3.1948643577624503 L0.0013798616996426594,3.219913255202297 L0.024636622181794576,3.2435085572409994 L0.049249859680362496,3.265545569603572 L0.07511036325790021,3.285926512273111 L0.10210338775588468,3.3045609533486897 L0.13010916292832073,3.321366210299057 L0.1590034248720678,3.3362677168317587 L0.18865796739588914,3.349199353749842 L0.21894121088175383,3.3601037423281137 L0.24971878611430737,3.368932498907213 L0.28085413048801344,3.375646449575843 L0.3122090939465474,3.3802158039886034 L0.34364455196583527,3.382620287548178 L0.3750210228608877,3.382849231365371 L0.4061992866773849,3.380901619597838 L0.43704100292194215,3.3767860939574597 L0.46740932439013483,3.3705209153663627 L0.4971695043686782,3.362133882931725 L0.5261894945175589,3.3516622105988736 L0.5543405307792644,3.33915236202998 L0.5814977047153783,3.324659844441016 " />
			<path d="M0.581497704715382,3.3246598444410136 L0.6194513544851867,3.299828534849359 L0.6546208042627866,3.271072613966165 L0.6866673530212466,3.2386690170291237 L0.7152823749775974,3.202929808390345 L0.7401902918278369,3.16419917616606 L0.7611512267166449,3.1228501175169057 L0.7779633143826298,3.079280846481368 L0.790464645231146,3.0339109589569055 L0.7985348246121999,2.987177391762082 L0.8020961322867429,2.93953021469615 L0.8011142709150605,2.891428296120852 L0.7955986963589021,2.8433348838072505 L0.7856025266163631,2.795713143606459 L0.7712220302665265,2.749021698909303 L0.75259569935042,2.703710213852355 L0.7299029156169541,2.660215062806492 L0.7033622229786195,2.6189551278531527 L0.6732292228141417,2.5803277647209137 L0.6397941123874783,2.544704976032602 L0.6033788900895283,2.512429828716684 L0.5643342544176065,2.4838131500852016 L0.5230362265572028,2.4591305343968446 L0.4798825290924109,2.438619688733581 L0.43528875572002756,2.4224781437515177 L0.3896843688550651,2.4108613513526973 L0.34350856367292687,2.403881187598306 L0.2972060384197797,2.401604875281043 L0.25122271172534616,2.4040543365328837 L0.20600142816273714,2.411205981702961 L0.16197769341312884,2.422990936538799 L0.11957548010798119,2.439295705483018 L0.07920314474083218,2.459963264697591 " />
			<path d="M0.0792031447408304,2.459963264697592 L0.030909145758224787,2.492615643528657 L-0.01262183564345759,2.5316257251382397 L-0.05069738046826433,2.5763730015416733 L-0.08271184580006918,2.626145706929844 L-0.10815599837035367,2.680152139264779 L-0.1266251146004554,2.7375332533688073 L-0.1378254182761839,2.797376325197233 L-0.14157875345490262,2.8587294699458075 " />
			<path d="M1.0837922646899338,1.1051472431951845 L1.0240693764979165,1.1377502010569378 L0.9626752585884815,1.1671499208389051 L0.8997578147691627,1.1932755760410199 L0.8354686186730385,1.2160642276715625 L0.7699625486045725,1.2354609758727053 L0.7033974144242138,1.2514190921790775 L0.6359335773706198,1.2639001320907308 L0.5677335637363865,1.2728740276893085 L0.4989616733279751,1.2783191600742925 L0.42978358365308594,1.2802224114448304 L0.3603659507890304,1.2785791967016653 L0.2908760078936446,1.273393474493043 L0.22148116232596354,1.2646777376779788 L0.1523485923472298,1.252452983229868 L0.08364484437382053,1.2367486616529395 L0.015535431752342233,1.2176026060334075 L-0.05181556397652137,1.195060940896256 L-0.11824588836480832,1.1691779710872168 L-0.1835955049424574,1.1400160509476407 L-0.24770698075918335,1.1076454340974267 L-0.31042586565424163,1.0721441041878974 L-0.3716010643403947,1.0335975870323548 L-0.4310852004056925,0.9920987445669021 L-0.48873497135615923,0.9477475511379085 L-0.5444114938440514,0.9006508526550496 L-0.5979806382500088,0.8509221091901547 L-0.6493133518130538,0.7986811216419538 L-0.6982859695299999,0.7440537431252195 L-0.7447805120752709,0.6871715757795935 L-0.7886849700234337,0.6281716537285014 L-0.8298935736897157,0.5671961129519462 L-0.8683070479384372,0.5043918488684851 L-0.9038328513455105,0.4399101624512992 L-0.9363853991388349,0.3739063957308961 L-0.9658862693795098,0.30653955756255236 L-0.9922643918871545,0.23797194056005241 L-1.0154562194541972,0.1683687301185706 L-1.0354058809366646,0.09789760646858273 L-1.0520653158526618,0.02672834071950178 L-1.0653943901642813,-0.044967614133791106 L-1.0753609929640184,-0.11701753625623049 L-1.0819411138327568,-0.18924785107459566 L-1.0851189006829731,-0.26148454943386046 L-1.0848866979478038,-0.3335536068004903 L-1.081245065023977,-0.4052814025027849 L-1.074202774924175,-0.47649513799828447 L-1.06377679314208,-0.5470232531605941 L-1.0499922367810133,-0.6166958395827553 L-1.032882314044633,-0.6853450499014787 L-1.0124882442354644,-0.7528055021561437 L-0.9888591584539863,-0.8189146782084332 L-0.9620519812375099,-0.8835133152627564 L-0.9321312934239814,-0.9464457895442779 L-0.8991691765710859,-1.0075604912102192 L-0.8632450393054629,-1.0667101895912519 L-0.824445426020368,-1.1237523878830742 L-0.7828638083826494,-1.1785496664336943 L-0.7386003601513162,-1.2309700137994093 L-0.6917617158501779,-1.2808871447719354 L-0.6424607138759353,-1.3281808046105354 L-0.5908161246606036,-1.3727370587462229 L-0.5369523645431349,-1.4144485672601166 L-0.4809991960395596,-1.453214843474711 L-0.4230914152337321,-1.4889424960350743 " />
			<path d="M0.8326449847026578,3.7570081343127244 L0.5022945599745516,3.9489057607326727 " />
			<path d="M-0.17194413524644547,-4.140803387152621 L-0.5022945599745516,-3.9489057607326727 " />
			<path d="M2.0748435388742523,0.5294543639353386 L1.0837922646899338,1.105147243195184 " />
			<path d="M0.5679598589505973,-2.0646353752949262 L-0.4230914152337212,-1.4889424960350808 " />

       </g>
    </g>
    <g transform="translate(20,210.0)" stroke="rgb(0,0,255)">
        <line x1="30" y1="-30" x2="75" y2="-33" stroke-width="3" stroke="#000000" />
         <text x="80" y="-30" style="stroke:#000000">X </text>

        <line x1="30" y1="-30" x2="30" y2="-75" stroke-width="3" stroke="#000000" />
         <text x="25" y="-85" style="stroke:#000000">Y </text>

        <line x1="30" y1="-30" x2="58" y2="-15" stroke-width="3" stroke="#000000" />
         <text x="65" y="-5" style="stroke:#000000">Z </text>
        <!--
            <line x1="0" y1="0" x2="21.626438186000385" y2="0" stroke-width="3" />
            <text x="0" y="20" style="stroke:#000000">1  mm </text>
        -->
    </g>
</svg>
