<?xml version="1.0" encoding="UTF-8" standalone="no"?>
<svg
   xmlns:svg="http://www.w3.org/2000/svg"
   xmlns="http://www.w3.org/2000/svg"
   width="800.0"
   height="240.0"

>
    <g transform="scale(3.0466999255259983, -3.0466999255259983)   translate(75.55531035527108,-31.293511455414983)" stroke-width="0.3282239880671395"  fill="none">
       <!-- hidden lines -->
       <g  stroke="rgb(160,160,160)" fill="none" stroke-dasharray="0.3282239880671395,0.3282239880671395" >
			<path d="M-0.7078937672745127,-25.605249197989032 L4.955256370921592,-25.20226418250714 " />
			<path d="M-0.7078937672745129,-25.605249197989032 L-0.9231373590250642,-25.62248710714732 L-1.131207732800974,-25.6430458620977 L-1.3308676006162716,-25.666803210450055 L-1.5209296874579636,-25.693617879416905 L-1.70026379140268,-25.723330415890352 L-1.867803504348878,-25.75576413462807 L-2.022552553399848,-25.79072616890998 L-2.1635907251885604,-25.828008617417915 L-2.290079337915437,-25.867389780518273 L-2.4012662285596256,-25.90863547859629 L-2.4509112463348397,-25.92988127593465 L-2.496490225607397,-25.95150044460226 L-2.5379353824620567,-25.9734608331135 L-2.5751850807006353,-25.99572978252915 L-2.608183923505818,-26.018274175025965 L-2.6368828358259155,-26.041060483148637 L-2.661239137358049,-26.064054819671014 L-2.6812166060212297,-26.087222987992327 L-2.6967855318249256,-26.110530532993504 L-2.707922761053018,-26.133942792277974 L-2.714611730697425,-26.157424947720713 L-2.7168424930901947,-26.180942077248872 " />
			<path d="M-2.7168424930901947,-26.180942077248876 L-2.714186246084887,-26.206603248669 L-2.7062222088343986,-26.23221897848263 L-2.692964484305462,-26.2577439055527 L-2.674436549692128,-26.28313282953848 L-2.6506712148416165,-26.30834079093777 L-2.6217105641536134,-26.33332315070258 L-2.5876058820558923,-26.35803566928737 L-2.548417562188251,-26.38243458498982 " />
			<path d="M-2.5484175621882468,-26.382434584989824 L10.335249002207894,-33.86644201536781 " />
			<path d="M-9.910512741843183,-25.183074419865143 L3.3035042472810616,-24.242776050407397 " />
			<path d="M11.562264865483714,-3.191606432139051 L-0.7078937672745145,-4.0647406323498165 " />
			<path d="M11.562264865483714,-17.878316817802155 L11.562264865483714,-3.1916064321390536 " />
			<path d="M4.955256370921593,-25.20226418250714 L5.117400476239466,-25.18866190805305 L5.279446912011252,-25.17093935535687 L5.441298067523352,-25.14910719982166 L5.6028564496916875,-25.12317859232156 L5.7640247417879,-25.093169151280183 L5.924705862059299,-25.059096953262696 L6.0848030222072875,-25.020982522087145 L6.244219785689014,-24.978848816461674 L6.402860125807128,-24.932721216155073 L6.560628483552691,-24.882627506708946 L6.7174298251663345,-24.82859786270074 L6.873169699383052,-24.7706648295677 L7.027754294326101,-24.70886330400274 L7.1810904940157805,-24.643230512933943 L7.333085934459006,-24.573805991100485 L7.4836490592859315,-24.50063155723837 L7.6326891749000785,-24.423751288890386 L7.780116505108769,-24.34321149585545 L7.92584224520095,-24.259060692293307 L8.069778615439827,-24.17134956750142 L8.211838913938092,-24.080130955381637 L8.351937568883908,-23.98545980261501 L8.489990190086164,-23.887393135563993 L8.625913619807964,-23.78599002592186 L8.759625982857752,-23.68131155513015 L8.89104673590785,-23.573420777585504 L9.020096716010762,-23.462382682658003 L9.146698188283962,-23.34826415554405 L9.270774892734487,-23.231133936977223 L9.392252090195104,-23.111062581821397 L9.51105660734439,-22.988122416571162 L9.627116880783593,-22.86238749578504 L9.740363000143773,-22.733933557477776 L9.850726750197174,-22.602837977498606 L9.958141651947525,-22.469179722922927 L10.062543002674515,-22.3330393044855 L10.163867914908284,-22.194498728083765 L10.262055354310489,-22.053641445380585 L10.357046176439091,-21.910552303536065 L10.448783162374784,-21.765317494098806 L10.537211053187503,-21.61802450108733 L10.622276583222353,-21.468762048292994 L10.703928512184849,-21.317620045836076 L10.782117656006143,-21.16468953600729 L10.856796916469678,-21.01006263842732 L10.927921309581393,-20.85383249455739 L10.995447992666383,-20.696093211594356 L11.059336290175747,-20.536939805784016 L11.119547718188002,-20.3764681451869 L11.176046007590365,-20.214774891930936 L11.228797125925905,-20.051957443985778 L11.277769297893427,-19.88811387649394 L11.322933024487728,-19.723342882693967 L11.364261100768687,-19.557743714471343 L11.401728632248508,-19.39141612257285 L11.435313049887231,-19.22446029652046 L11.46499412368747,-19.05697680426091 L11.490753974880215,-18.88906653158732 L11.512577086694332,-18.720830621369384 L11.53045031370328,-18.552370412628672 L11.544362889743438,-18.38378737949579 L11.554306434399217,-18.215183070086177 L11.560274958051131,-18.0466590453313 L11.562264865483716,-17.87831681780218 " />
			<path d="M-0.7078937672745129,-4.064740632349817 L-0.9231373590250642,-4.081978541508108 L-1.131207732800974,-4.10253729645849 L-1.3308676006162716,-4.1262946448108435 L-1.5209296874579636,-4.153109313777694 L-1.70026379140268,-4.182821850251139 L-1.867803504348878,-4.215255568988856 L-2.022552553399848,-4.2502176032707695 L-2.1635907251885604,-4.2875000517787 L-2.290079337915437,-4.326881214879061 L-2.4012662285596256,-4.3681269129570754 L-2.4509112463348397,-4.389372710295437 L-2.496490225607397,-4.410991878963047 L-2.5379353824620567,-4.432952267474286 L-2.5751850807006353,-4.455221216889939 L-2.608183923505818,-4.4777656093867515 L-2.6368828358259155,-4.500551917509424 L-2.661239137358049,-4.523546254031803 L-2.6812166060212297,-4.546714422353114 L-2.6967855318249256,-4.570021967354291 L-2.707922761053018,-4.593434226638762 L-2.714611730697425,-4.6169163820815005 L-2.7168424930901947,-4.64043351160966 " />
			<path d="M-2.7168424930901947,-4.640433511609663 L-2.714186246084887,-4.666094683029787 L-2.7062222088343986,-4.6917104128434195 L-2.692964484305462,-4.717235339913489 L-2.674436549692128,-4.742624263899269 L-2.6506712148416165,-4.767832225298556 L-2.6217105641536134,-4.792814585063366 L-2.5876058820558923,-4.817527103648158 L-2.548417562188251,-4.841926019350606 " />
			<path d="M3.303504247281063,-24.242776050407397 L3.465648352598935,-24.229173775953306 L3.6276947883707216,-24.21145122325713 L3.789545943882821,-24.189619067721917 L3.9511043260511576,-24.163690460221815 L4.11227261814737,-24.13368101918044 L4.272953738418769,-24.099608821162953 L4.433050898566757,-24.061494389987402 L4.592467662048483,-24.01936068436193 L4.751108002166598,-23.97323308405533 L4.90887635991216,-23.923139374609203 L5.065677701525804,-23.869109730600996 L5.221417575742521,-23.811176697467957 L5.37600217068557,-23.749375171902997 L5.5293383703752506,-23.6837423808342 L5.681333810818476,-23.614317859000742 L5.831896935645402,-23.54114342513863 L5.9809370512595486,-23.464263156790643 L6.128364381468238,-23.383723363755706 L6.27409012156042,-23.299572560193564 L6.418026491799296,-23.211861435401676 L6.560086790297561,-23.120642823281894 L6.700185445243378,-23.02597167051527 L6.8382380664456335,-22.92790500346425 L6.974161496167434,-22.826501893822115 L7.1078738592172215,-22.721823423030408 L7.23929461226732,-22.61393264548576 L7.3683445923702315,-22.50289455055826 L7.494946064643431,-22.388776023444308 L7.619022769093958,-22.27164580487748 L7.740499966554575,-22.151574449721654 L7.859304483703859,-22.02863428447142 L7.975364757143062,-21.902899363685297 L8.088610876503244,-21.774445425378033 L8.198974626556643,-21.643349845398863 L8.306389528306994,-21.509691590823184 L8.410790879033984,-21.373551172385756 L8.512115791267755,-21.235010595984022 L8.610303230669958,-21.09415331328084 L8.705294052798562,-20.95106417143632 L8.797031038734255,-20.805829361999063 L8.885458929546973,-20.658536368987587 L8.970524459581823,-20.50927391619325 L9.052176388544318,-20.358131913736333 L9.130365532365612,-20.205201403907548 L9.205044792829147,-20.050574506327578 L9.276169185940862,-19.894344362457648 L9.343695869025852,-19.736605079494613 L9.407584166535218,-19.577451673684273 L9.467795594547471,-19.41698001308716 L9.524293883949834,-19.255286759831193 L9.577045002285374,-19.092469311886035 L9.626017174252896,-18.928625744394196 L9.671180900847197,-18.763854750594223 L9.712508977128156,-18.5982555823716 L9.749976508607977,-18.431927990473106 L9.7835609262467,-18.264972164420715 L9.81324200004694,-18.097488672161166 L9.839001851239685,-17.92957839948758 L9.860824963053801,-17.76134248926964 L9.878698190062751,-17.59288228052893 L9.892610766102907,-17.424299247396046 L9.902554310758687,-17.255694937986434 L9.908522834410602,-17.087170913231557 L9.910512741843185,-16.918828685702437 " />
			<path d="M10.335249002207892,-33.86644201536781 L10.406777751602561,-33.905122942608315 L10.478254093702834,-33.93803655387907 L10.549625659611806,-33.96515873421468 L10.620840157199423,-33.986469611883834 L10.69184540941559,-34.00195357294879 L10.76258939251897,-34.01159927270531 L10.83302027419346,-34.015399643994655 L10.903086451524393,-34.013351902381494 " />
			<path d="M-2.5484175621882463,-4.841926019350609 L1.0854371098209228,-6.95279990997004 " />
			<path d="M1.0854371098209228,-4.01545783283742 L1.0854371098209228,-6.9527999099700395 " />
			<path d="M-3.5394688363725653,-1.3288910629581432 L1.0854371098209228,-4.01545783283742 " />
			<path d="M-3.5394688363725653,-1.3288910629581432 L1.0854371098209228,-4.01545783283742 " />
			<path d="M1.0854371098209228,-4.01545783283742 L1.0854371098209228,-1.0781157557048 " />
			<path d="M-2.5484175621882463,1.0327581349146318 L1.0854371098209228,-1.0781157557048 " />
			<path d="M10.500424214571947,-30.53549173858973 L10.536188589269281,-30.554832202209987 L10.571926760319418,-30.571289007845362 L10.607612543273904,-30.584850098013167 L10.643219792067711,-30.595505536847746 L10.678722418175795,-30.603247517380222 L10.714094409727485,-30.60807036725848 L10.74930985056473,-30.609970552903153 L10.784342939230196,-30.608946682096573 " />
			<path d="M10.784342939230202,-30.608946682096573 L10.815928856872048,-30.605491283177997 L10.847324726314849,-30.599634592440587 L10.878511635860823,-30.59138013773585 L10.909470799681811,-30.58073289123864 L10.940183569135165,-30.56769926645212 L10.970631443996993,-30.55228711434451 L11.000796083605996,-30.53450571861994 L11.030659317911201,-30.5143657901263 L11.060203158416924,-30.49187946040344 L11.089409809018356,-30.46706027437556 L11.146741382239444,-30.41048453022321 L11.202515920792923,-30.344774853592366 L11.256599058930144,-30.27008954484952 L11.308860505634213,-30.186608527445085 L11.359174358502457,-30.09453291446207 L11.407419407056345,-29.99408452411702 L11.45347942474814,-29.88550534538052 L11.497243448960845,-29.76905695500455 L11.538606048326852,-29.645019887361208 L11.577467576721356,-29.513692958610807 L11.613734413318584,-29.37539254682759 L11.647319188132576,-29.230451829817227 L11.678140992499126,-29.079219982462302 L11.70612557399184,-28.92206133552944 L11.731205515302747,-28.759354497964573 L11.753320396656484,-28.59149144479083 L11.772416941366835,-28.418876572806376 L11.78844914418493,-28.241925726357096 L11.801378382129931,-28.06106519553115 L11.811173507535157,-27.87673068918881 L11.817810923085556,-27.689366285301656 L11.821274638665699,-27.499423361129825 L11.821556309881364,-27.307359505814684 L11.818655258161927,-27.1136374180065 L11.812578472395078,-26.918723791182856 L11.803340592089993,-26.72308818934318 L11.790963872109472,-26.527201915787963 L11.775478129056019,-26.331536877707812 L11.756920669441042,-26.13656444931769 L11.735336199810193,-25.942754336275158 L11.71077671904139,-25.750573444118295 L11.683301393074961,-25.56048475344937 L11.652976412377715,-25.372946204574006 L11.619874832484305,-25.18840959428288 L11.58407639800005,-25.00731948743368 L11.545667350489197,-24.83011214595543 L11.504740220711433,-24.657214477855273 L11.461393605707187,-24.489043008759715 L11.415731931268716,-24.32600287846789 L11.367865200369238,-24.168486864934298 L11.317908728156116,-24.01687443803231 L11.265982864146585,-23.871530845378018 L11.212212702295208,-23.73280623241672 L11.156727779631597,-23.60103479889188 L11.099661764194355,-23.476533993728676 L11.041152133013064,-23.35960375027173 L10.981339840914075,-23.250525763719406 L10.920368980947993,-23.14956281249541 L10.858386437256895,-23.05695812519256 L10.795541531217562,-22.97293479461377 L10.731985661713205,-22.897695240321983 L10.667871940400298,-22.831420720993698 L10.603354822849182,-22.774270897750934 L10.538589736447069,-22.72638344952362 L10.506162949603159,-22.705950047226885 L10.473732705959852,-22.68787374136898 L10.441318540283275,-22.672165420440635 L10.408939977654782,-22.658834546547006 L10.376616521709796,-22.647889149708057 L10.344367642889521,-22.63933582302156 L10.312212766712696,-22.633179718691697 L10.280171262074383,-22.62942454492551 L10.248262429578865,-22.628072563699263 L10.216505489913702,-22.6291245893959 " />
			<path d="M10.216505489913692,-22.6291245893959 L10.187090911233723,-22.632264719578803 L10.157839950913603,-22.63748668693458 L10.128767883404212,-22.64478776462339 L10.099889889741055,-22.654164140122464 L10.042776333507542,-22.679122118556535 L9.986618562306958,-22.712308498184147 L9.93153386010241,-22.75365397016273 L9.877637269781863,-22.80307218560937 L9.825041352894242,-22.860459935938092 L9.773855954567724,-22.925697368408162 L9.724187974101199,-22.99864823643324 L9.676141141708024,-23.079160184128625 L9.629815801878323,-23.167065064502363 L9.585308703812272,-23.26217929062559 L9.54271279936205,-23.364304219048815 L9.502117048904449,-23.4732265646633 L9.463606235549568,-23.58871884614116 L9.427260788073623,-23.710539861023857 L9.39315661294565,-23.838435189466924 L9.361364935798923,-23.97213772558882 L9.331952152678191,-24.111368235314224 L9.30497969137335,-24.255835939546742 L9.280503883129185,-24.405239121453064 L9.258575844999134,-24.559265756590275 L9.2392413730887,-24.71759416456035 L9.222540846911556,-24.879893680830826 L9.208509145058043,-25.04582534731859 L9.19717557235218,-25.21504262029455 L9.188563798649351,-25.387192094130675 L9.182691809402462,-25.561914239377952 L9.179571868099814,-25.738844153633774 L9.179210490653148,-25.917612323630582 L9.181608431789337,-26.09784539695418 L9.186760683474164,-26.27916696178 L9.194656485371462,-26.461198332998855 L9.205279347315782,-26.643559343090402 L9.21860708375165,-26.825869136092564 L9.234611860067487,-27.00774696300875 L9.253260250727436,-27.188812976991667 L9.27451330907968,-27.36868902664306 L9.298326648695438,-27.546999445772492 L9.324650536068821,-27.723371837965882 L9.353429994483886,-27.89743785432519 L9.384604918831993,-28.06883396275497 L9.418110201139683,-28.23720220718918 L9.453875866544886,-28.402190955172586 L9.491827219437502,-28.563455632235495 L9.53188499945913,-28.720659441528063 L9.573965547036153,-28.87347406721129 L9.617980978100457,-29.021580360135612 L9.663839367632894,-29.164669004375142 L9.711444941646164,-29.30244116322549 L9.760698277206153,-29.43460910331603 L9.811496510074004,-29.560896795533107 L9.863733549535256,-29.6810404914993 L9.917300299967385,-29.79478927440463 L9.972084888683014,-29.901905583039465 L10.027972899572955,-30.00216570793455 L10.08484761206111,-30.095360258572114 L10.142590244872183,-30.181294600692205 L10.20108020410312,-30.259789262780995 L10.260195335080155,-30.330680310892117 L10.319812177475502,-30.393819691018205 L10.379806223150851,-30.44907553829763 L10.440052176189203,-30.496332452410634 L10.500424214571941,-30.535491738589727 " />
			<path d="M10.500424214571947,3.733499161290841 L10.536188589269281,3.7141586976705856 L10.571926760319418,3.6977018920352096 L10.607612543273904,3.6841408018674033 L10.643219792067711,3.6734853630328264 L10.678722418175795,3.6657433825003496 L10.714094409727485,3.6609205326220886 L10.74930985056473,3.6590203469774165 L10.784342939230196,3.660044217783998 " />
			<path d="M10.784342939230202,3.6600442177839985 L10.815928856872048,3.6634996167025724 L10.847324726314849,3.669356307439982 L10.878511635860823,3.6776107621447216 L10.909470799681811,3.688258008641932 L10.940183569135165,3.701291633428449 L10.970631443996993,3.71670378553606 L11.000796083605996,3.7344851812606326 L11.030659317911201,3.754625109754272 L11.060203158416924,3.7771114394771335 L11.089409809018356,3.801930625505011 L11.146741382239444,3.858506369657359 L11.202515920792923,3.9242160462882048 L11.256599058930144,3.9989013550310535 L11.308860505634213,4.082382372435486 L11.359174358502457,4.1744579854185 L11.407419407056345,4.27490637576355 L11.45347942474814,4.383485554500052 L11.497243448960845,4.4999339448760205 L11.538606048326852,4.6239710125193625 L11.577467576721356,4.755297941269761 L11.613734413318584,4.893598353052979 L11.647319188132576,5.038539070063344 L11.678140992499126,5.1897709174182705 L11.70612557399184,5.346929564351132 L11.731205515302747,5.509636401916 L11.753320396656484,5.677499455089741 L11.772416941366835,5.850114327074196 L11.78844914418493,6.027065173523475 L11.801378382129931,6.20792570434942 L11.811173507535157,6.3922602106917585 L11.817810923085556,6.579624614578917 L11.821274638665699,6.769567538750746 L11.821556309881364,6.9616313940658845 L11.818655258161927,7.155353481874069 L11.812578472395078,7.3502671086977145 L11.803340592089993,7.54590271053739 L11.790963872109472,7.741788984092606 L11.775478129056019,7.93745402217276 L11.756920669441042,8.132426450562882 L11.735336199810193,8.326236563605413 L11.71077671904139,8.518417455762275 L11.683301393074961,8.708506146431201 L11.652976412377715,8.896044695306566 L11.619874832484305,9.080581305597692 L11.58407639800005,9.26167141244689 L11.545667350489197,9.438878753925142 L11.504740220711433,9.611776422025297 L11.461393605707187,9.779947891120853 L11.415731931268716,9.94298802141268 L11.367865200369238,10.100504034946272 L11.317908728156116,10.25211646184826 L11.265982864146585,10.39746005450255 L11.212212702295208,10.53618466746385 L11.156727779631597,10.66795610098869 L11.099661764194355,10.792456906151894 L11.041152133013064,10.909387149608841 L10.981339840914075,11.018465136161165 L10.920368980947993,11.11942808738516 L10.858386437256895,11.212032774688012 L10.795541531217562,11.296056105266802 L10.731985661713205,11.371295659558587 L10.667871940400298,11.437570178886872 L10.603354822849182,11.494720002129636 L10.538589736447069,11.54260745035695 L10.506162949603159,11.563040852653687 L10.473732705959852,11.581117158511592 L10.441318540283275,11.596825479439937 L10.408939977654782,11.610156353333565 L10.376616521709796,11.621101750172516 L10.344367642889521,11.629655076859008 L10.312212766712696,11.635811181188876 L10.280171262074383,11.639566354955063 L10.248262429578865,11.640918336181306 L10.216505489913702,11.63986631048467 " />
			<path d="M10.216505489913692,11.63986631048467 L10.187090911233723,11.63672618030177 L10.157839950913603,11.631504212945993 L10.128767883404212,11.62420313525718 L10.099889889741055,11.614826759758104 L10.042776333507542,11.589868781324038 L9.986618562306958,11.556682401696424 L9.93153386010241,11.51533692971784 L9.877637269781863,11.465918714271202 L9.825041352894242,11.408530963942479 L9.773855954567724,11.343293531472408 L9.724187974101199,11.270342663447332 L9.676141141708024,11.189830715751944 L9.629815801878323,11.101925835378207 L9.585308703812272,11.006811609254981 L9.54271279936205,10.904686680831755 L9.502117048904449,10.79576433521727 L9.463606235549568,10.680272053739412 L9.427260788073623,10.558451038856715 L9.39315661294565,10.430555710413648 L9.361364935798923,10.296853174291751 L9.331952152678191,10.157622664566347 L9.30497969137335,10.013154960333829 L9.280503883129185,9.863751778427506 L9.258575844999134,9.709725143290294 L9.2392413730887,9.55139673532022 L9.222540846911556,9.389097219049745 L9.208509145058043,9.22316555256198 L9.19717557235218,9.05394827958602 L9.188563798649351,8.881798805749897 L9.182691809402462,8.707076660502619 L9.179571868099814,8.530146746246796 L9.179210490653148,8.351378576249987 L9.181608431789337,8.17114550292639 L9.186760683474164,7.989823938100571 L9.194656485371462,7.807792566881716 L9.205279347315782,7.6254315567901685 L9.21860708375165,7.443121763788006 L9.234611860067487,7.261243936871823 L9.253260250727436,7.080177922888902 L9.27451330907968,6.900301873237509 L9.298326648695438,6.721991454108078 L9.324650536068821,6.54561906191469 L9.353429994483886,6.371553045555382 L9.384604918831993,6.200156937125601 L9.418110201139683,6.03178869269139 L9.453875866544886,5.866799944707983 L9.491827219437502,5.705535267645075 L9.53188499945913,5.548331458352505 L9.573965547036153,5.39551683266928 L9.617980978100457,5.247410539744959 L9.663839367632894,5.1043218955054295 L9.711444941646164,4.966549736655078 L9.760698277206153,4.834381796564541 L9.811496510074004,4.708094104347462 L9.863733549535256,4.587950408381273 L9.917300299967385,4.47420162547594 L9.972084888683014,4.367085316841106 L10.027972899572955,4.26682519194602 L10.08484761206111,4.173630641308456 L10.142590244872183,4.087696299188367 L10.20108020410312,4.0092016370995776 L10.260195335080155,3.938310588988455 L10.319812177475502,3.875171208862364 L10.379806223150851,3.8199153615829387 L10.440052176189203,3.7726584474699356 L10.500424214571941,3.733499161290844 " />
			<path d="M6.3710439054706205,-21.772530241219698 L6.438108250351759,-21.81014218929794 L6.505160310585627,-21.845056979795658 L6.572187803775215,-21.877268217125337 L6.639178452023637,-21.906770000928315 L6.706119984183154,-21.933556927155564 L6.773000138102961,-21.95762408905759 L6.83980666287534,-21.97896707808324 L6.906527321079741,-21.99758198468725 L6.973149891024396,-22.01346539904639 L7.039662168985052,-22.02661441168404 L7.106051971440415,-22.037026614003167 L7.17230713730389,-22.044700098727517 L7.238415530151212,-22.049633460250973 L7.3043650404435585,-22.051825794895038 L7.370143587745748,-22.05127670107438 L7.435739122939059,-22.047986279370356 " />
			<path d="M7.43573912293908,-22.047986279370356 L7.495047353910001,-22.042633626967273 L7.554186314096,-22.035028533425702 L7.613147097387197,-22.025172144044753 L7.671920824506506,-22.01306594316042 L7.730498644346809,-21.998711753922016 L7.788871735303905,-21.982111738017643 L7.847031306605009,-21.963268395348642 L7.9049685996326104,-21.942184563653107 L7.962674889243489,-21.91886341807853 L8.020141485082691,-21.893308470703666 L8.07735973289226,-21.865523570009582 L8.134321015814544,-21.835512900300124 L8.191016755689851,-21.803280981071765 L8.247438414348304,-21.768832666332976 L8.359425542992826,-21.69330793448183 L8.470214944889282,-21.608984198021098 L8.579739884644653,-21.515912250416562 L8.687934388530632,-21.41414815472927 L8.794733284223733,-21.303753209845254 L8.900072240062656,-21.18479391355139 L9.00388780379928,-21.057341922479583 L9.106117440819926,-20.921474008943527 L9.206699571813862,-20.7772720146939 L9.30557360986639,-20.624822801619977 L9.40267999695412,-20.46421819942728 L9.497960239820518,-20.295554950322767 L9.591356945210038,-20.118934650740975 L9.682813854439676,-19.934463690146117 L9.772275877287111,-19.74225318694704 L9.85968912517498,-19.54241892156366 L9.945000943631346,-19.33508126668515 L10.028159944006784,-19.120365114761967 L10.109116034428986,-18.898399802775273 L10.187820449976222,-18.669319034329185 L10.264225782051515,-18.43326079911274 L10.338286006939803,-18.190367289780042 L10.409956513530904,-17.940784816298745 L10.479194130191576,-17.684663717818374 L10.545957150770512,-17.42215827211168 L10.610205359720538,-17.153426602643435 L10.67190005632298,-16.87863058332281 L10.731004077999522,-16.597935740996554 L10.78748182269754,-16.31151115574184 L10.841299270335472,-16.01952935901871 L10.892424003295224,-15.722166229743603 L10.940825225949336,-15.419600888346485 L10.986473783211125,-15.112015588875355 L11.029342178096599,-14.799595609213263 L11.069404588287636,-14.48252913947382 L11.106636881686367,-14.161007168642524 L11.141016630951452,-13.835223369532116 L11.172523127007473,-13.505373982121343 L11.201137391519314,-13.171657695347317 L11.226842188323989,-12.834275527422736 L11.249622033813065,-12.493430704750025 L11.269463206259413,-12.149328539505351 L11.28635375408266,-11.802176305966254 L11.300283503048377,-11.452183115657359 L11.311244062396657,-11.099559791389414 L11.319228829896382,-10.744518740267527 L11.324232995822188,-10.387273825745055 L11.326253545851635,-10.028040238800243 L11.325289262880938,-9.667034368313283 L11.321340727758106,-9.304473670721666 L11.314410318933046,-8.940576539032591 L11.304502211024891,-8.575562171271223 L11.29162237230736,-8.20965043844392 L11.275778561113686,-7.843061752096219 L11.256980321163295,-7.47601693154514 L11.23523897581302,-7.108737070865895 L11.21056762123634,-6.741443405713077 L11.18298111853473,-6.374357180056579 L11.152496084785891,-6.007699512912501 L11.119130883034249,-5.641691265149315 L11.082905611229725,-5.276552906449544 L11.043842090121512,-4.912504382507066 L11.001963850114045,-4.5497649825400535 L10.95729611709317,-4.188553207199334 L10.909865797231031,-3.829086636951819 L10.85970146077878,-3.4715818010180937 L10.806833324856925,-3.1162540469433435 L10.751293235253684,-2.763317410880089 L10.693114647242254,-2.4129844886607303 L10.632332605428612,-2.0654663077378226 L10.568983722641967,-1.720972200069009 L10.503106157880534,-1.3797096760232872 L10.434739593326015,-1.0418842993845132 L10.363925210440495,-0.7076995635274708 L10.290705665160313,-0.37735676884106795 L10.215125062201686,-0.051054901472509684 L10.137228928493697,0.2710094865345125 L10.057064185754566,0.5886423956354268 L9.97467912222777,0.9016524956428498 L9.890123363594999,1.2098512409767377 L9.80344784308351,1.5130529842371967 L9.714704770785854,1.8110750880315294 L9.623947602210464,2.103738034988176 L9.531231006082063,2.3908655358912583 L9.436610831411258,2.672284635870623 L9.340144073853198,2.9478258185833823 L9.241888841375511,3.217323108324214 L9.141904319256238,3.480614170002946 L9.040250734432847,3.7375404069290887 L8.936989319223763,3.987947056344616 L8.832182274444307,4.231683282647239 L8.725892731939277,4.4686022682481 L8.618184716554651,4.698561302009251 L8.509123107571437,4.921421865207478 L8.398773599624807,5.137049714972804 L8.287202663132115,5.345314965151372 L8.1744775042536,5.546092164544019 L8.060666024409903,5.739260372473369 L7.945836779380797,5.924703231633995 L7.830058938009746,6.102309038181687 L7.71340224053918,6.271970809019695 L7.595936956601579,6.433586346241327 L7.477733842891679,6.587058298690156 L7.358864100545278,6.732294220600709 L7.239399332250341,6.869206627284351 L7.119411499116212,6.997713047826778 L6.9989728773269375,7.117736074765423 L6.8781560146047935,7.229203410716806 L6.75703368651025,7.332047911925786 L6.635678852604697,7.426207628710433 L6.514164612502327,7.511625842778217 L6.392564161837665,7.588251101390977 L6.270950748175267,7.656037248358123 L6.149397626888098,7.714943451839414 L6.088666559464856,7.741055276818669 L6.027978017031256,7.764934228940518 L5.967341139058563,7.78657671212261 L5.906765057237553,7.805979467086582 L5.846258894103335,7.823139571848909 L5.785831761661522,7.8380544421609315 L5.725492760015988,7.850721831898037 L5.665250975998431,7.861139833397932 L5.605115481799942,7.869306877747912 L5.545095333604755,7.8752217350211335 L5.485199570226414,7.878883514461849 L5.425437211746566,7.880291664619548 L5.365817258156577,7.87944597343199 L5.306348688002206,7.876346568257166 " />
			<path d="M5.306348688002162,7.876346568257162 L5.229460682916015,7.868970613134167 L5.152861858382568,7.857806380040854 L5.0765716180598135,7.842856697048832 L5.000609287436618,7.824125351142271 L4.924994108937295,7.801617087258599 L4.849745237047191,7.775337607086541 L4.77488173346057,7.745293567621795 L4.700422562251988,7.711492579480712 L4.626386585072402,7.673943204972407 L4.55279255637123,7.632654955929793 L4.47965911864555,7.587638291300102 L4.4070047977176845,7.538904614495454 L4.33484799804231,7.4864662705042075 L4.263206998044337,7.430336542763783 L4.1920999454887,7.370529649795765 L4.121544852883249,7.307060741604138 L4.051559592915908,7.239945895837538 L3.9821618939272474,7.169202113716562 L3.913369335419622,7.094847315727089 L3.8451993436040155,7.016900337080736 L3.7776691869857117,6.935380922943615 L3.710795971989919,6.850309723434599 L3.6445966386284474,6.761708288394292 L3.5790879562085474,6.669599061926155 L3.5142865190849837,6.574005376711064 L3.450208742456432,6.474951448096771 L3.3868708582072578,6.372462367963793 L3.3242889107957287,6.266564098369262 L3.2624787531897095,6.157283464970318 L3.201456042850861,6.044648150228779 L3.141236237768363,5.928686686398732 L3.081834592543175,5.809428448298897 " />
			<path d="M4.940961436567983,-20.316889005646992 L5.028007826601822,-20.442651373971074 L5.115503860836759,-20.563941917649643 L5.203420245879244,-20.68072002899504 L5.29172754760361,-20.792946611067563 L5.380396201006535,-20.90058409076502 L5.469396520105307,-21.003596431402087 L5.55869870787659,-21.101949144775244 L5.648272866232383,-21.19560930270935 L5.7380890060297975,-21.284545548081876 L5.828117057111331,-21.368728105321168 L5.918326878372257,-21.448128790375215 L6.00868826785177,-21.522721020147586 L6.09917097284451,-21.59247982139736 L6.18974470002907,-21.657381839100086 L6.280379125610099,-21.71740534426697 L6.371043905470601,-21.772530241219684 " />
			<path d="M0.5899114727287627,-24.778562945991276 L0.6256758474260976,-24.79790340961153 L0.661414018476234,-24.814360215246907 L0.6970998014307201,-24.827921305414712 L0.7327070502245281,-24.838576744249288 L0.768209676332611,-24.846318724781767 L0.8035816678843012,-24.851141574660026 L0.8387971087215462,-24.8530417603047 L0.8738301973870128,-24.852017889498118 " />
			<path d="M0.8738301973870186,-24.852017889498118 L0.9054161150288638,-24.848562490579543 L0.9368119844716654,-24.842705799842133 L0.9679988940176385,-24.834451345137396 L0.9989580578386266,-24.823804098640185 L1.0296708272919814,-24.810770473853665 L1.060118702153809,-24.795358321746058 L1.0902833417628115,-24.77757692602148 L1.1201465760680172,-24.757436997527844 L1.149690416573739,-24.73495066780498 L1.1788970671751713,-24.710131481777104 L1.2362286403962592,-24.653555737624757 L1.2920031789497386,-24.58784606099391 L1.3460863170869606,-24.51316075225106 L1.3983477637910295,-24.42967973484663 L1.4486616166592738,-24.337604121863617 L1.4969066652131602,-24.237155731518566 L1.542966682904956,-24.128576552782064 L1.5867307071176602,-24.012128162406096 L1.6280933064836678,-23.888091094762753 L1.6669548348781713,-23.756764166012353 L1.7032216714754003,-23.618463754229136 L1.7368064462893922,-23.473523037218772 L1.767628250655941,-23.322291189863847 L1.7956128321486569,-23.165132542930984 L1.8206927734595637,-23.002425705366118 L1.8428076548133001,-22.834562652192375 L1.8619041995236505,-22.66194778020792 L1.8779364023417475,-22.48499693375864 L1.8908656402867474,-22.304136402932695 L1.9006607656919732,-22.119801896590356 L1.9072981812423722,-21.9324374927032 L1.910761896822514,-21.74249456853137 L1.9110435680381808,-21.55043071321623 L1.9081425163187424,-21.356708625408046 L1.9020657305518935,-21.1617949985844 L1.8928278502468092,-20.966159396744725 L1.8804511302662879,-20.770273123189508 L1.8649653872128351,-20.574608085109357 L1.8464079275978575,-20.379635656719234 L1.8248234579670088,-20.185825543676703 L1.8002639771982059,-19.99364465151984 L1.7727886512317774,-19.803555960850915 L1.742463670534531,-19.61601741197555 L1.7093620906411215,-19.431480801684426 L1.6735636561568672,-19.250390694835225 L1.6351546086460136,-19.073183353356974 L1.5942274788682496,-18.90028568525682 L1.5508808638640026,-18.732114216161264 L1.5052191894255333,-18.56907408586944 L1.4573524585260544,-18.411558072335843 L1.4073959863129326,-18.259945645433856 L1.3554701223034,-18.114602052779563 L1.301699960452023,-17.975877439818266 L1.2462150377884122,-17.844106006293426 L1.189149022351171,-17.71960520113022 L1.130639391169879,-17.602674957673276 L1.0708270990708901,-17.49359697112095 L1.0098562391048096,-17.392634019896956 L0.9478736954137117,-17.300029332594104 L0.8850287893743781,-17.216006002015316 L0.8214729198700212,-17.14076644772353 L0.7573591985571138,-17.074491928395243 L0.6928420810059972,-17.01734210515248 L0.6280769946038843,-16.969454656925166 L0.5956502077599746,-16.94902125462843 L0.5632199641166682,-16.930944948770524 L0.53080579844009,-16.91523662784218 L0.49842723581159865,-16.90190575394855 L0.4661037798666114,-16.890960357109602 L0.4338549010463365,-16.882407030423106 L0.40170002486951195,-16.876250926093242 L0.3696585202311986,-16.872495752327055 L0.3377496877356813,-16.87114377110081 L0.3059927480705189,-16.872195796797445 " />
			<path d="M0.30599274807050714,-16.872195796797445 L0.27657816939053953,-16.87533592698035 L0.24732720907041894,-16.88055789433612 L0.2182551415610275,-16.887858972024937 L0.18937714789787136,-16.89723534752401 L0.13226359166435753,-16.922193325958077 L0.07610582046377523,-16.955379705585692 L0.021021118259226146,-16.996725177564276 L-0.03287547206132069,-17.046143393010915 L-0.08547138894894102,-17.103531143339637 L-0.13665678727546005,-17.168768575809707 L-0.18632476774198592,-17.241719443834782 L-0.23437160013516034,-17.32223139153017 L-0.28069693996486045,-17.41013627190391 L-0.32520403803091125,-17.505250498027134 L-0.3677999424811338,-17.60737542645036 L-0.408395692938736,-17.716297772064845 L-0.44690650629361595,-17.831790053542704 L-0.48325195376956076,-17.953611068425403 L-0.5173561288975357,-18.08150639686847 L-0.5491478060442612,-18.215208932990365 L-0.5785605891649925,-18.35443944271577 L-0.6055330504698351,-18.498907146948287 L-0.630008858713998,-18.64831032885461 L-0.65193689684405,-18.80233696399182 L-0.6712713687544847,-18.960665371961895 L-0.6879718949316271,-19.12296488823237 L-0.7020035967851408,-19.288896554720136 L-0.7133371694910042,-19.458113827696096 L-0.7219489431938335,-19.63026330153222 L-0.7278209324407221,-19.804985446779497 L-0.7309408737433698,-19.98191536103532 L-0.7313022511900356,-20.160683531032127 L-0.7289043100538466,-20.340916604355726 L-0.7237520583690193,-20.522238169181545 L-0.7158562564717215,-20.7042695404004 L-0.7052333945274016,-20.886630550491947 L-0.6919056580915346,-21.06894034349411 L-0.675900881775698,-21.250818170410295 L-0.6572524911157469,-21.431884184393212 L-0.6359994327635046,-21.611760234044606 L-0.6121860931477461,-21.790070653174038 L-0.5858622057743621,-21.966443045367427 L-0.5570827473592979,-22.140509061726732 L-0.5259078230111904,-22.311905170156514 L-0.4924025407035004,-22.480273414590727 L-0.45663687529829766,-22.645262162574134 L-0.4186855224056818,-22.80652683963704 L-0.3786277423840537,-22.96373064892961 L-0.3365471948070311,-23.116545274612836 L-0.2925317637427274,-23.264651567537157 L-0.24667337421029023,-23.407740211776687 L-0.19906780019702075,-23.545512370627037 L-0.14981446463703174,-23.677680310717577 L-0.0990162317691794,-23.803968002934653 L-0.04677919230792704,-23.924111698900845 L0.006787558124200843,-24.037860481806177 L0.061572146839830144,-24.14497679044101 L0.11746015772977175,-24.245236915336097 L0.17433487021792587,-24.33843146597366 L0.23207750302899927,-24.42436580809375 L0.2905674622599352,-24.50286047018254 L0.34968259323697043,-24.573751518293662 L0.4092994356323176,-24.63689089841975 L0.4692934813076674,-24.692146745699176 L0.5295394343460196,-24.73940365981218 L0.5899114727287575,-24.778562945991272 " />
			<path d="M0.5899114727287627,9.490427953889295 L0.6256758474260976,9.47108749026904 L0.661414018476234,9.454630684633663 L0.6970998014307201,9.441069594465858 L0.7327070502245281,9.430414155631281 L0.768209676332611,9.422672175098803 L0.8035816678843012,9.417849325220544 L0.8387971087215462,9.415949139575872 L0.8738301973870128,9.416973010382453 " />
			<path d="M0.8738301973870186,9.416973010382453 L0.9054161150288638,9.420428409301028 L0.9368119844716654,9.426285100038436 L0.9679988940176385,9.434539554743177 L0.9989580578386266,9.445186801240386 L1.0296708272919814,9.458220426026903 L1.060118702153809,9.473632578134515 L1.0902833417628115,9.491413973859087 L1.1201465760680172,9.511553902352727 L1.149690416573739,9.534040232075588 L1.1788970671751713,9.558859418103467 L1.2362286403962592,9.615435162255814 L1.2920031789497386,9.68114483888666 L1.3460863170869606,9.755830147629508 L1.3983477637910295,9.83931116503394 L1.4486616166592738,9.931386778016954 L1.4969066652131602,10.031835168362004 L1.542966682904956,10.140414347098506 L1.5867307071176602,10.256862737474474 L1.6280933064836678,10.380899805117817 L1.6669548348781713,10.512226733868216 L1.7032216714754003,10.650527145651434 L1.7368064462893922,10.795467862661798 L1.767628250655941,10.946699710016725 L1.7956128321486569,11.103858356949587 L1.8206927734595637,11.266565194514454 L1.8428076548133001,11.434428247688196 L1.8619041995236505,11.607043119672651 L1.8779364023417475,11.78399396612193 L1.8908656402867474,11.964854496947876 L1.9006607656919732,12.149189003290214 L1.9072981812423722,12.336553407177371 L1.910761896822514,12.5264963313492 L1.9110435680381808,12.71856018666434 L1.9081425163187424,12.912282274472524 L1.9020657305518935,13.10719590129617 L1.8928278502468092,13.302831503135844 L1.8804511302662879,13.49871777669106 L1.8649653872128351,13.694382814771215 L1.8464079275978575,13.889355243161337 L1.8248234579670088,14.083165356203867 L1.8002639771982059,14.27534624836073 L1.7727886512317774,14.465434939029656 L1.742463670534531,14.65297348790502 L1.7093620906411215,14.837510098196146 L1.6735636561568672,15.018600205045345 L1.6351546086460136,15.195807546523596 L1.5942274788682496,15.368705214623752 L1.5508808638640026,15.536876683719308 L1.5052191894255333,15.699916814011134 L1.4573524585260544,15.857432827544727 L1.4073959863129326,16.009045254446715 L1.3554701223034,16.154388847101007 L1.301699960452023,16.293113460062305 L1.2462150377884122,16.424884893587144 L1.189149022351171,16.54938569875035 L1.130639391169879,16.666315942207294 L1.0708270990708901,16.77539392875962 L1.0098562391048096,16.876356879983614 L0.9478736954137117,16.968961567286467 L0.8850287893743781,17.052984897865255 L0.8214729198700212,17.128224452157042 L0.7573591985571138,17.194498971485327 L0.6928420810059972,17.25164879472809 L0.6280769946038843,17.299536242955405 L0.5956502077599746,17.31996964525214 L0.5632199641166682,17.338045951110047 L0.53080579844009,17.35375427203839 L0.49842723581159865,17.36708514593202 L0.4661037798666114,17.37803054277097 L0.4338549010463365,17.386583869457464 L0.40170002486951195,17.39273997378733 L0.3696585202311986,17.396495147553516 L0.3377496877356813,17.39784712877976 L0.3059927480705189,17.396795103083125 " />
			<path d="M0.30599274807050714,17.396795103083125 L0.27657816939053953,17.393654972900222 L0.24732720907041894,17.38843300554445 L0.2182551415610275,17.381131927855634 L0.18937714789787136,17.37175555235656 L0.13226359166435753,17.346797573922494 L0.07610582046377523,17.31361119429488 L0.021021118259226146,17.272265722316295 L-0.03287547206132069,17.222847506869655 L-0.08547138894894102,17.165459756540933 L-0.13665678727546005,17.100222324070863 L-0.18632476774198592,17.02727145604579 L-0.23437160013516034,16.9467595083504 L-0.28069693996486045,16.858854627976662 L-0.32520403803091125,16.763740401853436 L-0.3677999424811338,16.66161547343021 L-0.408395692938736,16.552693127815726 L-0.44690650629361595,16.437200846337866 L-0.48325195376956076,16.315379831455168 L-0.5173561288975357,16.1874845030121 L-0.5491478060442612,16.053781966890206 L-0.5785605891649925,15.914551457164801 L-0.6055330504698351,15.770083752932283 L-0.630008858713998,15.62068057102596 L-0.65193689684405,15.466653935888749 L-0.6712713687544847,15.308325527918674 L-0.6879718949316271,15.1460260116482 L-0.7020035967851408,14.980094345160435 L-0.7133371694910042,14.810877072184475 L-0.7219489431938335,14.638727598348352 L-0.7278209324407221,14.464005453101073 L-0.7309408737433698,14.28707553884525 L-0.7313022511900356,14.108307368848441 L-0.7289043100538466,13.928074295524844 L-0.7237520583690193,13.746752730699026 L-0.7158562564717215,13.56472135948017 L-0.7052333945274016,13.382360349388623 L-0.6919056580915346,13.200050556386461 L-0.675900881775698,13.018172729470278 L-0.6572524911157469,12.837106715487357 L-0.6359994327635046,12.657230665835964 L-0.6121860931477461,12.478920246706533 L-0.5858622057743621,12.302547854513143 L-0.5570827473592979,12.128481838153837 L-0.5259078230111904,11.957085729724056 L-0.4924025407035004,11.788717485289846 L-0.45663687529829766,11.623728737306438 L-0.4186855224056818,11.46246406024353 L-0.3786277423840537,11.30526025095096 L-0.3365471948070311,11.152445625267735 L-0.2925317637427274,11.004339332343413 L-0.24667337421029023,10.861250688103883 L-0.19906780019702075,10.723478529253534 L-0.14981446463703174,10.591310589162996 L-0.0990162317691794,10.465022896945918 L-0.04677919230792704,10.344879200979728 L0.006787558124200843,10.231130418074395 L0.061572146839830144,10.12401410943956 L0.11746015772977175,10.023753984544474 L0.17433487021792587,9.930559433906911 L0.23207750302899927,9.84462509178682 L0.2905674622599352,9.766130429698032 L0.34968259323697043,9.695239381586909 L0.4092994356323176,9.632100001460818 L0.4692934813076674,9.576844154181394 L0.5295394343460196,9.529587240068391 L0.5899114727287575,9.490427953889299 " />
			<path d="M9.910512741843183,-16.91882868570241 L9.910512741843183,18.329276239889026 " />
			<path d="M9.910512741843185,18.329276239889033 L9.907224483837933,18.545250756866373 L9.897362982904303,18.760542316721263 L9.880938055030699,18.97493662150154 L9.857966049341123,19.18822026636913 L9.828469831821492,19.400180952019973 L9.792478762559194,19.61060769600356 L9.750028666518496,19.819291042731624 L9.701161797880925,20.026023271967095 L9.645926797986085,20.230598605585634 L9.584378646914821,20.432813412404087 L9.516578608762867,20.632466410871853 L9.4425941706595,20.829358869423494 L9.362498975591881,21.023294804293123 L9.276372749101933,21.214081174593673 L9.184301219928752,21.401528074466853 L9.086376034675517,21.585448922112576 L8.98269466658586,21.765660645509634 L8.87336031852047,21.941983864642822 L8.758481820230532,22.11424307005509 L8.638173520030248,22.28226679754697 L8.51255517097626,22.445887798849462 L8.38175181166726,22.60494320810042 L8.245893641782494,22.759274703958738 L8.105115892482955,22.908728667195042 L7.959558691804343,23.05315633360192 L7.809366925175739,23.192413942071553 L7.654690091202861,23.326362877693374 L7.495682152859404,23.454869809729203 L7.332501384234645,23.57780682432866 L7.165310212989812,23.695051551852682 L6.994275058680051,23.80648728867839 L6.819566167102948,23.912003113364094 " />
			<path d="M1.0854371098209228,-6.9527999099700395 L1.4913945181062471,-6.807060723268736 " />
			<path d="M6.30535284776098,-5.078844025016633 L11.562264865483716,-3.191606432139051 " />
			<path d="M11.562264865483714,-3.1916064321390536 L11.562264865483714,-0.2542643550064341 " />
			<path d="M11.562264865483714,-0.2542643550064341 L11.562264865483714,2.6830777221261854 " />
			<path d="M11.562264865483714,2.6830777221261854 L11.562264865483714,13.481081085416399 " />
			<path d="M1.0854371098209228,-4.01545783283742 L1.416902518286479,-3.8964613616228023 " />
			<path d="M5.892843124700857,-2.289593423290488 L11.562264865483716,-0.2542643550064314 " />
			<path d="M11.562264865483714,-0.2542643550064312 L-3.5394688363725653,-1.3288910629581432 " />
			<path d="M1.0854371098209228,-4.01545783283742 L1.416902518286479,-3.8964613616228023 " />
			<path d="M5.892843124700857,-2.289593423290488 L11.562264865483716,-0.2542643550064314 " />
			<path d="M-2.548417562188246,1.0327581349146315 L-2.587605882055892,1.0571570506170826 L-2.6217105641536134,1.0818695692018747 L-2.650671214841617,1.1068519289666847 L-2.6744365496921274,1.1320598903659718 L-2.692964484305462,1.1574488143517516 L-2.7062222088343986,1.1829737414218215 L-2.714186246084887,1.208589471235454 L-2.7168424930901947,1.2342506426555724 " />
			<path d="M-2.7168424930901947,1.234250642655578 L-2.714611730697425,1.2577677721837408 L-2.7079227610530174,1.2812499276264788 L-2.696785531824925,1.30466218691095 L-2.6812166060212297,1.3279697319121266 L-2.661239137358049,1.351137900233438 L-2.6368828358259155,1.3741322367558169 L-2.6081839235058184,1.3969185448784895 L-2.5751850807006353,1.4194629373753023 L-2.5379353824620563,1.4417318867909554 L-2.496490225607397,1.4636922753021937 L-2.4509112463348397,1.485311443969803 L-2.4012662285596256,1.5065572413081652 L-2.290079337915437,1.547802939386179 L-2.1635907251885604,1.5871841024865407 L-2.0225525533998474,1.6244665509944718 L-1.867803504348878,1.659428585276385 L-1.7002637914026797,1.691862304014101 L-1.5209296874579628,1.721574840487547 L-1.330867600616271,1.748389509454397 L-1.1312077328009733,1.7721468578067516 L-0.9231373590250638,1.7927056127571328 L-0.7078937672745196,1.809943521915423 " />
			<path d="M1.0854371098209228,-1.0781157557047996 L1.5481831300217208,-0.9119893905814683 " />
			<path d="M5.291106058345635,0.4317243397914301 L11.562264865483716,2.683077722126189 " />
			<path d="M11.562264865483714,2.683077722126189 L4.763910473235999,2.1993125237548115 " />
			<path d="M1.9279048290041878,1.9975047400022283 L-0.7078937672745145,1.809943521915423 " />
			<path d="M-2.7168424930901947,-26.180942077248876 L-2.7168424930901947,-4.640433511609661 " />
			<path d="M-2.7168424930901947,1.2342506426555777 L-2.7168424930901947,22.774759208294793 " />
			<path d="M10.21650548991369,-22.6291245893959 L5.497213708083601,-22.96494543563081 " />
			<path d="M10.784342939230203,-30.608946682096573 L6.065051157400115,-30.944767528331482 " />
			<path d="M10.21650548991369,11.63986631048467 L5.497213708083601,11.30404546424976 " />
			<path d="M10.784342939230203,3.6600442177839962 L6.065051157400115,3.3242233715490865 " />
			<path d="M5.306348688002163,7.876346568257161 L0.5870569061720738,7.5405257220222515 " />
			<path d="M7.435739122939078,-22.047986279370356 L2.7164473411089896,-22.383807125605266 " />
			<path d="M0.3059927480705067,-16.872195796797445 L-4.413299033759582,-17.208016643032355 " />
			<path d="M0.8738301973870186,-24.852017889498118 L-3.84546158444307,-25.187838735733028 " />
			<path d="M0.3059927480705067,17.396795103083125 L-4.413299033759582,17.060974256848215 " />
			<path d="M0.8738301973870186,9.41697301038245 L-3.84546158444307,9.08115216414754 " />

       </g>

       <!-- solid lines -->
       <g  stroke="rgb(0,0,0)" fill="none">
			<path d="M5.6159572203778065,-34.20226286160272 L-9.910512741843183,-25.183074419865143 " />
			<path d="M10.903086451524404,-34.013351902381494 L10.957571137325422,-34.00767935774282 L11.011777189047368,-33.99843652419697 L11.065680336858833,-33.98562754006437 L11.119256446548446,-33.96925814034834 L11.172481530330556,-33.94933565416727 L11.22533175758535,-33.92586900147319 L11.277783465528605,-33.89886868905799 L11.329813169806297,-33.86834680584919 L11.381397575009316,-33.83431701749733 L11.432513585103587,-33.79679456025739 L11.483138313770924,-33.755796234167065 L11.533249094655988,-33.71134039552477 L11.582823491514757,-33.66344694867099 L11.631839308259972,-33.61213733707639 L11.680274598899052,-33.557434533740924 L11.728107677360047,-33.49936303090803 L11.775317127201186,-33.43794882909865 L11.82188181119974,-33.37321942546997 L11.867780880815845,-33.305203801504 L11.912993785527076,-33.23393241003164 L11.957500282029597,-33.15943716159795 L12.001280443301745,-33.08175141017471 L12.044314667526022,-33.00090993822681 L12.086583686865472,-32.91694894113893 L12.12806857609052,-32.82990601100975 L12.168750761052417,-32.73982011982065 L12.247634526732572,-32.55068213629783 L12.323093724298387,-32.34987368582793 L12.394993226622717,-32.13775436233579 L12.463204281035171,-31.91470401447762 L12.527604739883518,-31.681122065434263 L12.588079279267273,-31.437426797651643 L12.644519605551782,-31.184054603809464 L12.696824649293006,-30.921459205359266 L12.744900746225703,-30.650110840031353 L12.788661804990932,-30.370495419765476 L12.828029461302535,-30.083113660573247 L12.86293321827648,-29.788480185890457 L12.89331057267183,-29.4871226050249 L12.919107126817234,-29.179580568349994 L12.940276686022528,-28.86640480093613 L12.956781341300989,-28.54815611635021 L12.96859153725415,-28.225404412389338 L12.975686124997559,-27.898727650547187 L12.978052400032745,-27.568710821040483 " />
			<path d="M12.978052400032743,-27.568710821040412 L12.978052400032743,5.721166053129281 " />
			<path d="M10.335249002207894,15.089259270175855 L10.400106644335043,15.049224915441417 L10.464925218643756,15.004496422484038 L10.529665680848597,14.955100734075367 L10.594289033715931,14.901067604331079 L10.658756350554418,14.8424295807881 L10.723028798662977,14.7792219847992 L10.787067662722173,14.71148289025672 L10.850834368114862,14.639253100658278 L10.914290504162109,14.562576124528288 L10.977397847260333,14.48149814921003 L11.04011838390579,14.396068013044136 L11.102414333592478,14.306337175950194 L11.164248171569696,14.212359688429217 L11.225582651445567,14.114192159005645 L11.286380827622859,14.01189372012848 L11.346606077553629,13.905525992552118 L11.406222123799289,13.795153048218303 L11.465193055882764,13.680841371661595 L11.523483351919637,13.56265981996156 L11.581057900015187,13.440679581265854 L11.637882019414494,13.314974131909127 L11.69392148139282,13.185619192153645 L11.74914252987372,13.052692680578222 L11.803511901762441,12.91627466714299 L11.856996846982357,12.77644732495824 L11.909565148202397,12.63329488078643 L12.011825729152843,12.337361556175406 L12.110047289917299,12.029187622609602 L12.203993206152695,11.709515498087828 L12.293437153918125,11.379115300758025 L12.378163654909063,11.038782993635204 L12.45796859556345,10.689338467056809 L12.532659718789171,10.331623563495087 L12.602057087128198,9.966500049484852 L12.665993516241715,9.594847539552402 L12.724314977671815,9.217561377147074 L12.776880969909556,8.835550477680467 L12.823564856875404,8.449735138869599 L12.864254172996628,8.061044823659099 L12.898850894146731,7.670415921063556 L12.927271673794149,7.278789490324378 L12.949448043791342,6.887108993815638 L12.96532657932057,6.496318024160585 L12.974869027598944,6.107358031034364 L12.978052400032745,5.721166053129351 " />
			<path d="M-2.5484175621882468,22.573266700553845 L10.335249002207894,15.089259270175855 " />
			<path d="M3.081834592543171,5.809428448298888 L3.0208205677435713,5.681677673862453 L2.9607281158079637,5.550414841250163 L2.90157376685015,5.415676057984529 L2.843373792932405,5.277498387745753 L2.7861442035893917,5.135919840176317 L2.729900741424283,4.990979360425367 L2.6746588777783264,4.842716818435759 L2.6204338084750134,4.6911729979767145 L2.5672404496400376,4.5363895854251 L2.5150934335982065,4.3784091582984175 L2.4139955161177244,4.053031955578307 L2.3172512876510085,3.7153993816864386 L2.2249671897280034,3.36588291229938 L2.137244756680296,3.004867098189118 L2.0541805039293424,2.6327491421262614 L1.9758658217966802,2.2499384618630636 L1.902386874952958,1.8568562396770787 L1.833824507616428,1.453934958971045 L1.7702541546051807,1.0416179284388782 L1.7117457583410118,0.6203587943212518 L1.658363691896212,0.19062104128747492 L1.610166688167964,-0.24712251750727088 L1.5672077752582787,-0.6923902606282102 L1.5295342181305216,-1.1446922882584376 L1.4971874666067952,-1.6035309612045836 L1.470203109763319,-2.068401448417611 L1.4486108367740362,-2.5387922824263525 L1.4324344042455,-3.0141859220726737 L1.4216916100789874,-3.494059321929149 L1.4163942738885984,-3.977884507772729 L1.4165482239968865,-4.465129157481234 L1.4221532910223278,-4.955257186713578 L1.4332033080656732,-5.447729338729315 L1.4496861174950064,-5.942003777698593 L1.471583584322003,-6.4375366848497 L1.4988716161547169,-6.933782856798304 L1.5315201897049011,-7.430196305400119 L1.5694933838207286,-7.92623085846699 L1.612749419008555,-8.421340760685453 L1.661240703400236,-8.914981274076638 L1.714913885115445,-9.406609277336873 L1.7737099109613546,-9.895683863399565 L1.8375640914051123,-10.381666934560894 L1.906406171747629,-10.864023794514514 L1.980160409420355,-11.342223736643955 L2.058745657320028,-11.815740627925424 L2.142075453089668,-12.284053487798518 L2.2300581142476217,-12.74664706136807 L2.32259683905997,-13.203012386306366 L2.419589813045332,-13.652647352832094 L2.520930320994871,-14.095057256149829 L2.6265068643842544,-14.529755340742277 L2.7362032840484116,-14.9562633359165 L2.8498988879840725,-15.374111982014751 L2.96746858413952,-15.782841546711078 L3.0887830180454303,-16.18200233082562 L3.2137087151353696,-16.571155163099995 L3.3421082275993976,-16.949871883389626 L3.4738402856091515,-17.317735813741095 L3.6087599527480654,-17.674342216836436 L3.746718785475713,-18.01929874129992 L3.8875649964507977,-18.35222585337735 L4.031143621533129,-18.672757254512923 L4.177296690280821,-18.980540284364295 L4.25128849593799,-19.12954477870184 L4.325863399755132,-19.275236308812325 L4.401000887813991,-19.417574798155428 L4.476680291441737,-19.556521092538716 L4.552880792896476,-19.692036970888083 L4.629581431093738,-19.824085155761537 L4.706761107372423,-19.952629323603407 L4.784398591298578,-20.077634114736156 L4.862472526505415,-20.199065143087047 L4.940961436567962,-20.316889005646964 " />
			<path d="M-9.910512741843183,23.772626865678525 L-9.910512741843183,-25.183074419865143 " />
			<path d="M3.3035042472810625,24.712925235136268 L-9.910512741843183,23.77262686567852 " />
			<path d="M6.819566167102924,23.91200311336411 L6.720936842565557,23.968051290925278 L6.621256603088785,24.02222087701052 L6.5205561019334715,24.07449521360956 L6.418866306107194,24.124858225531522 L6.316218486841393,24.173294425348303 L6.21264420997497,24.2197889181572 L6.108175326247293,24.264327406161332 L6.002843961503585,24.30689619306645 L5.8966825068157105,24.347482188292744 L5.789723608521415,24.386072911000433 L5.682000158185049,24.42265649392779 L5.573545282482889,24.457221687040537 L5.464392333016157,24.48975786099141 L5.354574876054878,24.52025501038884 L5.2441266822157075,24.548703756873774 L5.1330817160769335,24.57509535200367 L5.0214741257338344,24.5994216799428 L4.90933823229759,24.62167525995796 L4.796708519340988,24.641849248718945 L4.683619622294184,24.659937442402985 L4.570106317793754,24.675934278602497 L4.456203512988323,24.689834838035633 L4.341946234804063,24.701634846059022 L4.227369619173352,24.711330673982307 L4.112508900229921,24.71891934018401 L3.99739939947379,24.724398511028436 L3.882076514909351,24.72776650158331 L3.7665757101599127,24.72902227613791 L3.6509325035620743,24.72816544852156 L3.5351824572432697,24.72519628222239 L3.4193611661858516,24.720115690306326 L3.3035042472810896,24.712925235136275 " />
			<path d="M5.615957220377806,-34.20226286160272 L5.6874859697724744,-34.240943788843225 L5.758962311872747,-34.27385740011398 L5.830333877781719,-34.30097958044959 L5.9015483753693365,-34.322290458118744 L5.972553627585503,-34.3377744191837 L6.043297610688883,-34.34742011894022 L6.113728492363373,-34.351220490229565 L6.183794669694306,-34.349172748616404 " />
			<path d="M6.183794669694318,-34.349172748616404 L6.238279355495336,-34.34350020397773 L6.292485407217281,-34.33425737043188 L6.346388555028746,-34.32144838629928 L6.399964664718359,-34.30507898658325 L6.453189748500469,-34.28515650040218 L6.506039975755263,-34.2616898477081 L6.558491683698518,-34.2346895352929 L6.61052138797621,-34.2041676520841 L6.6621057931792285,-34.170137863732236 L6.713221803273501,-34.1326154064923 L6.763846531940837,-34.091617080401974 L6.813957312825901,-34.04716124175968 L6.86353170968467,-33.9992677949059 L6.912547526429885,-33.9479581833113 L6.960982817068965,-33.893255379975834 L7.008815895529959,-33.83518387714294 L7.056025345371099,-33.77376967533356 L7.102590029369654,-33.70904027170488 L7.148489098985758,-33.64102464773891 L7.19370200369699,-33.56975325626655 L7.2382085001995105,-33.49525800783286 L7.281988661471658,-33.41757225640962 L7.325022885695935,-33.33673078446172 L7.367291905035385,-33.25276978737384 L7.408776794260432,-33.16572685724466 L7.44945897922233,-33.07564096605556 L7.528342744902486,-32.88650298253274 L7.6038019424683,-32.68569453206284 L7.6757014447926295,-32.4735752085707 L7.743912499205084,-32.25052486071253 L7.808312958053432,-32.016942911669176 L7.868787497437186,-31.773247643886553 L7.925227823721695,-31.519875450044374 L7.97753286746292,-31.257280051594176 L8.025608964395616,-30.985931686266262 L8.069370023160845,-30.706316266000385 L8.108737679472448,-30.418934506808156 L8.143641436446392,-30.124301032125366 L8.174018790841743,-29.82294345125981 L8.199815344987147,-29.515401414584904 L8.220984904192441,-29.20222564717104 L8.237489559470902,-28.88397696258512 L8.249299755424063,-28.561225258624248 L8.256394343167472,-28.234548496782097 L8.258760618202658,-27.904531667275393 " />
			<path d="M5.6159572203778065,14.753438423940949 L-9.910512741843183,23.772626865678525 " />
			<path d="M5.6159572203778065,14.753438423940946 L5.680814862504955,14.713404069206506 L5.7456334368136694,14.668675576249127 L5.81037389901851,14.619279887840456 L5.874997251885845,14.565246758096166 L5.939464568724331,14.50660873455319 L6.00373701683289,14.44340113856429 L6.067775880892086,14.375662044021809 L6.131542586284775,14.303432254423367 L6.194998722332021,14.226755278293377 L6.258106065430246,14.145677302975116 L6.320826602075703,14.060247166809223 L6.38312255176239,13.970516329715283 L6.444956389739609,13.876538842194307 L6.506290869615481,13.778371312770734 L6.5670890457927715,13.67607287389357 L6.627314295723542,13.569705146317206 L6.686930341969202,13.45933220198339 L6.745901274052678,13.345020525426683 L6.80419157008955,13.22683897372665 L6.8617661181851,13.104858735030941 L6.918590237584406,12.979153285674215 L6.974629699562733,12.849798345918732 L7.029850748043635,12.716871834343308 L7.084220119932355,12.580453820908078 L7.13770506515227,12.440626478723331 L7.19027336637231,12.297474034551518 L7.292533947322755,12.001540709940492 L7.390755508087212,11.693366776374692 L7.4847014243226075,11.373694651852915 L7.574145372088038,11.043294454523114 L7.658871873078976,10.702962147400292 L7.738676813733364,10.353517620821897 L7.813367936959084,9.995802717260176 L7.882765305298112,9.63067920324994 L7.9467017344116275,9.259026693317491 L8.005023195841728,8.881740530912163 L8.057589188079469,8.499729631445556 L8.104273075045317,8.113914292634687 L8.14496239116654,7.725223977424187 L8.179559112316644,7.334595074828645 L8.207979891964062,6.942968644089467 L8.230156261961255,6.551288147580727 L8.246034797490482,6.160497177925674 L8.255577245768857,5.7715371847994525 L8.258760618202658,5.385345206894439 " />
			<path d="M8.258760618202656,5.385345206894374 L8.258760618202656,-27.90453166727532 " />
			<path d="M5.78113243274186,3.3976783150559275 L5.8168968074391945,3.3783378514356723 L5.852634978489331,3.3618810458002963 L5.888320761443817,3.34831995563249 L5.923928010237625,3.337664516797913 L5.959430636345708,3.3299225362654363 L5.994802627897398,3.3250996863871753 L6.030018068734643,3.3231995007425033 L6.065051157400109,3.3242233715490848 " />
			<path d="M6.065051157400116,3.324223371549085 L6.0966370750419605,3.327678770467659 L6.1280329444847625,3.3335354612050687 L6.159219854030735,3.3417899159098083 L6.190179017851723,3.3524371624070186 L6.220891787305079,3.365470787193536 L6.251339662166906,3.380882939301147 L6.281504301775908,3.3986643350257193 L6.311367536081114,3.418804263519359 L6.340911376586836,3.44129059324222 L6.370118027188268,3.4661097792700977 L6.427449600409356,3.522685523422446 L6.483224138962836,3.5883952000532915 L6.537307277100058,3.6630805087961402 L6.589568723804127,3.7465615262005727 L6.63988257667237,3.8386371391835867 L6.688127625226257,3.939085529528636 L6.734187642918053,4.047664708265139 L6.777951667130758,4.164113098641107 L6.8193142664967645,4.288150166284449 L6.8581757948912685,4.419477095034848 L6.894442631488497,4.5577775068180655 L6.928027406302489,4.70271822382843 L6.9588492106690385,4.853950071183357 L6.986833792161754,5.011108718116219 L7.01191373347266,5.173815555681086 L7.034028614826397,5.341678608854828 L7.053125159536748,5.5142934808392825 L7.0691573623548445,5.691244327288562 L7.082086600299844,5.872104858114507 L7.09188172570507,6.056439364456845 L7.098519141255469,6.243803768344003 L7.101982856835611,6.433746692515832 L7.102264528051277,6.625810547830971 L7.099363476331839,6.819532635639156 L7.093286690564991,7.014446262462801 L7.084048810259906,7.210081864302476 L7.071672090279385,7.405968137857693 L7.056186347225932,7.601633175937847 L7.037628887610954,7.796605604327969 L7.016044417980106,7.9904157173704995 L6.991484937211303,8.182596609527362 L6.964009611244874,8.372685300196288 L6.933684630547628,8.560223849071653 L6.900583050654219,8.744760459362778 L6.864784616169964,8.925850566211977 L6.8263755686591105,9.103057907690228 L6.785448438881346,9.275955575790384 L6.7421018238771,9.44412704488594 L6.69644014943863,9.607167175177766 L6.648573418539152,9.76468318871136 L6.59861694632603,9.916295615613347 L6.546691082316497,10.061639208267637 L6.49292092046512,10.200363821228937 L6.43743599780151,10.332135254753776 L6.380369982364268,10.456636059916981 L6.321860351182976,10.573566303373928 L6.2620480590839875,10.682644289926252 L6.201077199117907,10.783607241150246 L6.139094655426809,10.876211928453099 L6.076249749387475,10.960235259031888 L6.012693879883118,11.035474813323674 L5.948580158570211,11.10174933265196 L5.884063041019094,11.158899155894723 L5.819297954616982,11.206786604122037 L5.7868711677730715,11.227220006418774 L5.754440924129765,11.245296312276679 L5.722026758453187,11.261004633205024 L5.689648195824696,11.274335507098652 L5.657324739879709,11.285280903937602 L5.625075861059433,11.293834230624094 L5.592920984882609,11.299990334953963 L5.560879480244296,11.30374550872015 L5.528970647748778,11.305097489946393 L5.497213708083616,11.304045464249757 " />
			<path d="M5.4972137080836045,11.304045464249757 L5.4677991294036365,11.300905334066856 L5.438548169083516,11.29568336671108 L5.409476101574125,11.288382289022266 L5.380598107910968,11.279005913523191 L5.3234845516774545,11.254047935089124 L5.267326780476872,11.22086155546151 L5.2122420782723236,11.179516083482927 L5.1583454879517765,11.13009786803629 L5.105749571064156,11.072710117707565 L5.054564172737637,11.007472685237495 L5.0048961922711115,10.934521817212419 L4.956849359877936,10.85400986951703 L4.9105240200482365,10.766104989143294 L4.866016921982186,10.670990763020068 L4.823421017531963,10.568865834596842 L4.782825267074361,10.459943488982356 L4.744314453719481,10.344451207504498 L4.707969006243536,10.222630192621802 L4.673864831115561,10.094734864178735 L4.642073153968836,9.961032328056838 L4.612660370848104,9.821801818331434 L4.585687909543262,9.677334114098915 L4.561212101299099,9.527930932192593 L4.539284063169047,9.37390429705538 L4.519949591258612,9.215575889085306 L4.503249065081469,9.053276372814832 L4.489217363227956,8.887344706327067 L4.4778837905220925,8.718127433351107 L4.4692720168192634,8.545977959514984 L4.463400027572375,8.371255814267705 L4.460280086269727,8.194325900011883 L4.459918708823062,8.015557730015074 L4.46231664995925,7.835324656691475 L4.467468901644078,7.654003091865658 L4.475364703541375,7.471971720646803 L4.485987565485695,7.289610710555255 L4.499315301921563,7.107300917553093 L4.515320078237399,6.92542309063691 L4.53396846889735,6.744357076653989 L4.555221527249593,6.5644810270025955 L4.579034866865351,6.386170607873165 L4.605358754238734,6.209798215679776 L4.634138212653799,6.035732199320469 L4.665313137001906,5.864336090890688 L4.698818419309596,5.695967846456477 L4.7345840847147995,5.53097909847307 L4.772535437607415,5.369714421410162 L4.812593217629043,5.212510612117592 L4.854673765206066,5.059695986434367 L4.89868919627037,4.911589693510046 L4.944547585802807,4.768501049270516 L4.992153159816076,4.630728890420165 L5.041406495376065,4.498560950329628 L5.092204728243917,4.372273258112549 L5.14444176770517,4.25212956214636 L5.198008518137298,4.138380779241027 L5.252793106852927,4.031264470606192 L5.308681117742869,3.9310043457111066 L5.365555830231023,3.837809795073543 L5.423298463042096,3.7518754529534535 L5.481788422273032,3.673380790864664 L5.540903553250067,3.6024897427535416 L5.600520395645415,3.539350362627451 L5.660514441320764,3.4840945153480254 L5.720760394359116,3.4368376012350224 L5.781132432741854,3.3976783150559307 " />
			<path d="M5.78113243274186,-30.871312584824643 L5.8168968074391945,-30.890653048444896 L5.852634978489331,-30.907109854080275 L5.888320761443817,-30.92067094424808 L5.923928010237625,-30.931326383082656 L5.959430636345708,-30.939068363615135 L5.994802627897398,-30.943891213493394 L6.030018068734643,-30.945791399138066 L6.065051157400109,-30.944767528331486 " />
			<path d="M6.065051157400116,-30.944767528331486 L6.0966370750419605,-30.94131212941291 L6.1280329444847625,-30.9354554386755 L6.159219854030735,-30.927200983970764 L6.190179017851723,-30.916553737473553 L6.220891787305079,-30.903520112687033 L6.251339662166906,-30.888107960579426 L6.281504301775908,-30.87032656485485 L6.311367536081114,-30.85018663636121 L6.340911376586836,-30.82770030663835 L6.370118027188268,-30.802881120610472 L6.427449600409356,-30.746305376458125 L6.483224138962836,-30.68059569982728 L6.537307277100058,-30.60591039108443 L6.589568723804127,-30.522429373679998 L6.63988257667237,-30.430353760696985 L6.688127625226257,-30.329905370351934 L6.734187642918053,-30.221326191615432 L6.777951667130758,-30.104877801239464 L6.8193142664967645,-29.98084073359612 L6.8581757948912685,-29.84951380484572 L6.894442631488497,-29.711213393062504 L6.928027406302489,-29.56627267605214 L6.9588492106690385,-29.415040828697215 L6.986833792161754,-29.25788218176435 L7.01191373347266,-29.095175344199486 L7.034028614826397,-28.927312291025743 L7.053125159536748,-28.75469741904129 L7.0691573623548445,-28.57774657259201 L7.082086600299844,-28.396886041766063 L7.09188172570507,-28.212551535423724 L7.098519141255469,-28.02518713153657 L7.101982856835611,-27.835244207364738 L7.102264528051277,-27.643180352049598 L7.099363476331839,-27.449458264241414 L7.093286690564991,-27.25454463741777 L7.084048810259906,-27.058909035578093 L7.071672090279385,-26.863022762022876 L7.056186347225932,-26.667357723942725 L7.037628887610954,-26.472385295552602 L7.016044417980106,-26.27857518251007 L6.991484937211303,-26.08639429035321 L6.964009611244874,-25.896305599684283 L6.933684630547628,-25.70876705080892 L6.900583050654219,-25.524230440517794 L6.864784616169964,-25.343140333668593 L6.8263755686591105,-25.165932992190342 L6.785448438881346,-24.993035324090187 L6.7421018238771,-24.824863854994632 L6.69644014943863,-24.661823724702806 L6.648573418539152,-24.50430771116921 L6.59861694632603,-24.352695284267224 L6.546691082316497,-24.20735169161293 L6.49292092046512,-24.068627078651634 L6.43743599780151,-23.936855645126794 L6.380369982364268,-23.81235483996359 L6.321860351182976,-23.695424596506644 L6.2620480590839875,-23.58634660995432 L6.201077199117907,-23.485383658730324 L6.139094655426809,-23.39277897142747 L6.076249749387475,-23.308755640848684 L6.012693879883118,-23.233516086556897 L5.948580158570211,-23.16724156722861 L5.884063041019094,-23.110091743985848 L5.819297954616982,-23.062204295758534 L5.7868711677730715,-23.0417708934618 L5.754440924129765,-23.02369458760389 L5.722026758453187,-23.007986266675548 L5.689648195824696,-22.99465539278192 L5.657324739879709,-22.98370999594297 L5.625075861059433,-22.975156669256474 L5.592920984882609,-22.96900056492661 L5.560879480244296,-22.965245391160423 L5.528970647748778,-22.96389340993418 L5.497213708083616,-22.964945435630813 " />
			<path d="M5.4972137080836045,-22.964945435630813 L5.4677991294036365,-22.968085565813716 L5.438548169083516,-22.97330753316949 L5.409476101574125,-22.980608610858305 L5.380598107910968,-22.989984986357378 L5.3234845516774545,-23.014942964791445 L5.267326780476872,-23.04812934441906 L5.2122420782723236,-23.089474816397644 L5.1583454879517765,-23.138893031844283 L5.105749571064156,-23.196280782173005 L5.054564172737637,-23.261518214643075 L5.0048961922711115,-23.33446908266815 L4.956849359877936,-23.41498103036354 L4.9105240200482365,-23.502885910737277 L4.866016921982186,-23.598000136860502 L4.823421017531963,-23.70012506528373 L4.782825267074361,-23.809047410898213 L4.744314453719481,-23.924539692376072 L4.707969006243536,-24.04636070725877 L4.673864831115561,-24.174256035701838 L4.642073153968836,-24.307958571823733 L4.612660370848104,-24.447189081549137 L4.585687909543262,-24.591656785781655 L4.561212101299099,-24.741059967687978 L4.539284063169047,-24.895086602825188 L4.519949591258612,-25.053415010795263 L4.503249065081469,-25.21571452706574 L4.489217363227956,-25.381646193553504 L4.4778837905220925,-25.550863466529464 L4.4692720168192634,-25.72301294036559 L4.463400027572375,-25.897735085612865 L4.460280086269727,-26.074664999868688 L4.459918708823062,-26.253433169865495 L4.46231664995925,-26.433666243189094 L4.467468901644078,-26.614987808014913 L4.475364703541375,-26.797019179233768 L4.485987565485695,-26.979380189325315 L4.499315301921563,-27.161689982327477 L4.515320078237399,-27.343567809243662 L4.53396846889735,-27.52463382322658 L4.555221527249593,-27.704509872877974 L4.579034866865351,-27.882820292007406 L4.605358754238734,-28.059192684200795 L4.634138212653799,-28.2332587005601 L4.665313137001906,-28.404654808989882 L4.698818419309596,-28.573023053424095 L4.7345840847147995,-28.738011801407502 L4.772535437607415,-28.89927647847041 L4.812593217629043,-29.056480287762977 L4.854673765206066,-29.209294913446204 L4.89868919627037,-29.357401206370525 L4.944547585802807,-29.500489850610055 L4.992153159816076,-29.638262009460405 L5.041406495376065,-29.770429949550945 L5.092204728243917,-29.89671764176802 L5.14444176770517,-30.016861337734213 L5.198008518137298,-30.130610120639545 L5.252793106852927,-30.237726429274378 L5.308681117742869,-30.337986554169465 L5.365555830231023,-30.431181104807028 L5.423298463042096,-30.517115446927118 L5.481788422273032,-30.595610109015908 L5.540903553250067,-30.66650115712703 L5.600520395645415,-30.72964053725312 L5.660514441320764,-30.784896384532544 L5.720760394359116,-30.832153298645547 L5.781132432741854,-30.87131258482464 " />
			<path d="M1.6517521236405328,-22.108351087454608 L1.7188164685216705,-22.14596303553285 L1.7858685287555387,-22.180877826030567 L1.8528960219451271,-22.213089063360247 L1.91988667019355,-22.242590847163225 L1.9868282023530661,-22.269377773390474 L2.053708356272873,-22.2934449352925 L2.1205148810452523,-22.31478792431815 L2.187235539249653,-22.33340283092216 L2.2538581091943075,-22.3492862452813 L2.3203703871549637,-22.36243525791895 L2.386760189610327,-22.372847460238077 L2.453015355473802,-22.380520944962427 L2.5191237483211237,-22.385454306485883 L2.585073258613471,-22.387646641129948 L2.65085180591566,-22.38709754730929 L2.716447341108971,-22.383807125605266 " />
			<path d="M2.716447341108992,-22.383807125605266 L2.7757555720799134,-22.378454473202183 L2.834894532265912,-22.370849379660612 L2.8938553155571087,-22.360992990279662 L2.952629042676418,-22.34888678939533 L3.0112068625167208,-22.334532600156926 L3.0695799534738173,-22.317932584252553 L3.1277395247749213,-22.29908924158355 L3.1856768178025225,-22.278005409888017 L3.2433831074134014,-22.25468426431344 L3.300849703252603,-22.229129316938575 L3.358067951062173,-22.201344416244492 L3.415029233984456,-22.171333746535034 L3.4717249738597644,-22.139101827306675 L3.5281466325182156,-22.104653512567886 L3.640133761162737,-22.02912878071674 L3.7509231630591935,-21.944805044256007 L3.8604481028145647,-21.851733096651472 L3.9686426067005445,-21.749969000964178 L4.075441502393645,-21.639574056080164 L4.180780458232569,-21.520614759786298 L4.284596021969192,-21.393162768714493 L4.386825658989837,-21.257294855178436 L4.4874077899837745,-21.11309286092881 L4.586281828036301,-20.960643647854887 L4.683388215124033,-20.80003904566219 L4.778668457990431,-20.631375796557677 L4.872065163379949,-20.454755496975885 L4.963522072609589,-20.270284536381027 L5.052984095457023,-20.07807403318195 L5.140397343344891,-19.87823976779857 L5.225709161801258,-19.67090211292006 L5.308868162176697,-19.456185960996876 L5.389824252598898,-19.234220649010183 L5.468528668146134,-19.005139880564094 L5.544934000221427,-18.76908164534765 L5.618994225109715,-18.52618813601495 L5.690664731700815,-18.276605662533655 L5.759902348361489,-18.020484564053284 L5.826665368940423,-17.75797911834659 L5.89091357789045,-17.489247448878345 L5.952608274492893,-17.21445142955772 L6.011712296169433,-16.933756587231464 L6.068190040867452,-16.64733200197675 L6.122007488505384,-16.355350205253618 L6.173132221465136,-16.057987075978513 L6.221533444119249,-15.755421734581395 L6.267182001381037,-15.447836435110265 L6.310050396266511,-15.135416455448173 L6.350112806457548,-14.81834998570873 L6.387345099856279,-14.496828014877433 L6.421724849121363,-14.171044215767026 L6.453231345177385,-13.841194828356253 L6.481845609689225,-13.507478541582227 L6.5075504064939,-13.170096373657646 L6.530330251982976,-12.829251550984935 L6.550171424429324,-12.485149385740261 L6.567061972252572,-12.137997152201164 L6.58099172121829,-11.788003961892269 L6.591952280566568,-11.435380637624323 L6.599937048066295,-11.080339586502436 L6.6049412139921,-10.723094671979965 L6.6069617640215474,-10.363861085035152 L6.60599748105085,-10.002855214548193 L6.602048945928017,-9.640294516956576 L6.595118537102957,-9.2763973852675 L6.585210429194803,-8.911383017506132 L6.572330590477272,-8.545471284678829 L6.556486779283599,-8.178882598331128 L6.537688539333208,-7.81183777778005 L6.5159471939829325,-7.444557917100805 L6.491275839406252,-7.0772642519479865 L6.463689336704642,-6.710178026291489 L6.433204302955804,-6.34352035914741 L6.39983910120416,-5.9775121113842244 L6.363613829399637,-5.612373752684453 L6.324550308291424,-5.248325228741976 L6.282672068283956,-4.885585828774963 L6.238004335263082,-4.524374053434244 L6.190574015400944,-4.164907483186729 L6.140409678948693,-3.8074026472530034 L6.087541543026838,-3.4520748931782532 L6.032001453423596,-3.0991382571149986 L5.973822865412165,-2.74880533489564 L5.913040823598525,-2.4012871539727323 L5.849691940811878,-2.056793046303919 L5.783814376050447,-1.715530522258197 L5.715447811495926,-1.377705145619423 L5.6446334286104065,-1.0435204097623805 L5.571413883330225,-0.7131776150759777 L5.495833280371597,-0.3868757477074194 L5.417937146663608,-0.0648113597003972 L5.337772403924479,0.25282154940051704 L5.255387340397682,0.5658316494079401 L5.1708315817649115,0.874030394741828 L5.084156061253423,1.177232138002287 L4.995412988955766,1.4752542417966197 L4.904655820380376,1.767917188753266 L4.811939224251974,2.0550446896563486 L4.71731904958117,2.3364637896357134 L4.620852292023111,2.6120049723484726 L4.522597059545423,2.8815022620893043 L4.422612537426149,3.1447933237680363 L4.3209589526027585,3.401719560694179 L4.217697537393674,3.6521262101097065 L4.112890492614219,3.8958624364123295 L4.006600950109188,4.13278142201319 L3.8988929347245636,4.362740455774341 L3.789831325741349,4.585601018972568 L3.679481817794719,4.801228868737894 L3.5679108813020273,5.009494118916463 L3.4551857224235114,5.210271318309109 L3.3413742425798145,5.40343952623846 L3.2265449975507092,5.588882385399085 L3.1107671561796577,5.766488191946777 L2.9941104587090916,5.936149962784786 L2.8766451747714914,6.0977655000064175 L2.7584420610615905,6.251237452455246 L2.6395723187151905,6.396473374365799 L2.520107550420253,6.533385781049441 L2.4001197172861235,6.6618922015918685 L2.2796810954968496,6.781915228530513 L2.1588642327747056,6.893382564481897 L2.0377419046801624,6.996227065690876 L1.9163870707746085,7.090386782475523 L1.794872830672239,7.175804996543308 L1.6732723800075773,7.252430255156067 L1.5516589663451787,7.320216402123213 L1.4301058450580104,7.379122605604504 L1.3693747776347676,7.405234430583759 L1.3086862352011677,7.429113382705609 L1.2480493572284757,7.4507558658877 L1.1874732754074655,7.470158620851672 L1.1269671122732472,7.487318725613999 L1.0665399798314343,7.502233595926022 L1.0062009781858998,7.514900985663127 L0.9459591941683425,7.525318987163022 L0.8858236999698534,7.533486031513002 L0.8258035517746672,7.539400888786224 L0.7659077883963264,7.5430626682269395 L0.7061454299164774,7.544470818384639 L0.6465254763264889,7.54362512719708 L0.5870569061721185,7.540525722022256 " />
			<path d="M0.5870569061720743,7.540525722022252 L0.47675223612219586,7.528750233836375 L0.36706113492174364,7.509167856252214 L0.25804088176152584,7.481788814919158 L0.14974840552469026,7.4466274067976315 L0.04224025505924289,7.403701992693415 L-0.06442743035098664,7.353034987669881 L-0.17019895030151044,7.294652849343159 L-0.27501907235317025,7.228586064066327 L-0.37883306087376134,7.154869131009862 L-0.4815867056202294,7.073540544146644 L-0.5832263500465178,6.984642772150915 L-0.6836989193222793,6.888222236221747 L-0.7829519480478297,6.7843292858424995 L-0.880933607650856,6.673018172489035 L-0.9775927334505896,6.554347021300314 L-1.0728788513753025,6.42837780072627 L-1.166742204319175,6.29517629016871 L-1.2591337781247747,6.154812045632234 L-1.3500053271775805,6.007358363403023 L-1.4393093995991788,5.852892241774528 L-1.5269993620259865,5.6914943408400305 L-1.6130294239605543,5.523248940373021 L-1.697354661682736,5.348243895817468 L-1.7799310417082448,5.16657059241092 L-1.8607154437823272,4.97832389746436 L-1.939665683396579,4.783602110823823 L-2.016740533817111,4.582506913539541 L-2.0918997476125876,4.3751433147695025 L-2.1651040776708825,4.161619596945098 L-2.236315297693387,3.9420472592275306 L-2.305496222156256,3.7165409592844796 L-2.3726107257281805,3.4852184534174206 L-2.437623762134539,3.2482005350709127 L-2.5005013824580855,3.005610971755919 L-2.561210752866609,2.757576440420088 L-2.619720171758307,2.50422646129881 L-2.6759990863159313,2.24569333028151 L-2.73001810846105,1.982112049828542 L-2.781749030200099,1.7136202584747693 L-2.8311648383542094,1.4403581589565935 L-2.8782397286651236,1.1624684450000071 L-2.92294911926982,0.8800962268078898 L-2.9652696635368265,0.5933889552854428 L-3.0051792622575144,0.30249634504334555 L-3.0426570751860034,0.007570296218841754 L-3.077683531921645,-0.291235184844437 L-3.110240342128426,-0.5937640660164734 L-3.14031050508593,-0.8998583708587127 L-3.167878318566874,-1.2093582611171811 L-3.192929387036605,-1.5221021201878369 L-3.215450629170248,-1.8379266375105603 L-3.235430284683594,-2.156666893847685 L-3.252857920474157,-2.47815644740255 L-3.2677244360692024,-2.802227420733148 L-3.2800220683778862,-3.1287105884154194 L-3.2897443957450356,-3.4574354654104367 L-3.2968863413044476,-3.7882303960893893 L-3.301444175629963,-4.120922643869772 L-3.3034155186829155,-4.455338481416072 L-3.3027993410549614,-4.791303281357807 L-3.2995959645056194,-5.128641607477549 L-3.2938070617942525,-5.467177306321302 L-3.2854356558065767,-5.80673359918344 L-3.27448611797615,-6.147133174418119 L-3.260964166001674,-6.488198280028983 L-3.2448768608612815,-6.829750816488825 L-3.2262326031254007,-7.171612429740733 L-3.205041128570084,-7.513604604332127 L-3.1813135030931203,-7.855548756633078 L-3.155062116935583,-8.197266328090238 L-3.1263006782118037,-8.538578878467678 L-3.0950442057511944,-8.879308179025925 L-3.0613090212556084,-9.21927630559058 L-3.025112740776378,-9.558305731461875 L-2.986474265515459,-9.896219420116692 L-2.9454137719554696,-10.2328409176546 L-2.9019527013238156,-10.567994444939679 L-2.8561137483963757,-10.901504989389966 L-2.8079208496465933,-11.233198396366637 L-2.7573991707461856,-11.562901460115175 L-2.704575093423971,-11.890442014211029 L-2.649476201689694,-12.215649021462577 L-2.592131267430026,-12.538352663224401 L-2.5325702353842914,-12.858384428074256 L-2.4708242075077234,-13.175577199807433 L-2.4069254267304547,-13.489765344702546 L-2.340907260120704,-13.800784798013193 L-2.2728041814609434,-14.108473149640323 L-2.2026517532461654,-14.412669728940562 L-2.130486608113634,-14.713215688626228 L-2.0563464297138223,-15.009954087713202 L-1.9802699330325284,-15.302729973473364 L-1.9022968441744377,-15.591390462348793 L-1.8224678796186935,-15.87578481978546 L-1.7408247249573172,-16.15576453894474 L-1.657410013127556,-16.431183418251663 L-1.5722673021495464,-16.701897637739357 L-1.4854410523809158,-16.9677658341499 L-1.3969766033001947,-17.228649174752228 L-1.3069201498311553,-17.484411429838715 L-1.2153187182204608,-17.734919043862483 L-1.122220141481197,-17.98004120517823 L-1.0276730344151366,-18.219649914350313 L-0.9317267682267505,-18.453620050992278 L-0.8344314447422407,-18.68182943910304 L-0.735837870247054,-18.904158910865487 L-0.6359975289555346,-19.120492368874316 L-0.5349625561265743,-19.330716846760485 L-0.43278571083929096,-19.534722568180694 L-0.3295203484429643,-19.732403004141112 L-0.22522039269559935,-19.923654928625357 L-0.1199403076056833,-20.108378472497684 L-0.013735068991817867,-20.28647717565331 L0.09333986422489482,-20.45785803738855 L0.20122857898073754,-20.622431564964486 L0.3098747372664197,-20.780111820338888 L0.41922160554601406,-20.93081646504185 L0.5292120843824293,-21.074466803171845 L0.6397887382539569,-21.210987822489617 L0.750893825546312,-21.34030823358855 L0.862469328704515,-21.46236050712105 L0.9744569845288633,-21.577080909061394 L1.086798314599177,-21.68440953398681 L1.1994346558114253,-21.78429033635924 L1.312307191010805,-21.87667115979158 L1.425356979705246,-21.961503764283 L1.538524988843328,-22.038743851409237 L1.651752123640513,-22.108351087454594 " />
			<path d="M-4.129380309101325,9.154607107654382 L-4.09361593440399,9.135266644034127 L-4.057877763353854,9.11880983839875 L-4.022191980399368,9.105248748230945 L-3.98658473160556,9.094593309396368 L-3.951082105497477,9.08685132886389 L-3.915710113945787,9.082028478985631 L-3.880494673108542,9.080128293340959 L-3.845461584443075,9.08115216414754 " />
			<path d="M-3.8454615844430693,9.08115216414754 L-3.813875666801224,9.084607563066115 L-3.7824797973584228,9.090464253803523 L-3.751292887812449,9.098718708508263 L-3.7203337239914616,9.109365955005472 L-3.6896209545381065,9.12239957979199 L-3.659173079676279,9.137811731899601 L-3.6290084400672766,9.155593127624174 L-3.5991452057620705,9.175733056117814 L-3.569601365256349,9.198219385840675 L-3.5403947146549166,9.223038571868553 L-3.4830631414338287,9.2796143160209 L-3.427288602880349,9.345323992651746 L-3.373205464743127,9.420009301394595 L-3.320944018039058,9.503490318799027 L-3.270630165170814,9.59556593178204 L-3.2223851166169277,9.696014322127091 L-3.176325098925132,9.804593500863593 L-3.1325610747124277,9.921041891239561 L-3.0911984753464203,10.045078958882904 L-3.0523369469519164,10.176405887633303 L-3.0160701103546876,10.314706299416521 L-2.9824853355406957,10.459647016426885 L-2.951663531174147,10.610878863781812 L-2.923678949681431,10.768037510714674 L-2.898599008370524,10.930744348279541 L-2.876484127016788,11.098607401453283 L-2.8573875823064374,11.271222273437738 L-2.8413553794883404,11.448173119887016 L-2.8284261415433405,11.629033650712962 L-2.8186310161381147,11.8133681570553 L-2.8119936005877157,12.000732560942458 L-2.808529885007574,12.190675485114287 L-2.808248213791907,12.382739340429426 L-2.8111492655113457,12.57646142823761 L-2.8172260512781944,12.771375055061256 L-2.8264639315832785,12.96701065690093 L-2.8388406515638,13.162896930456148 L-2.854326394617253,13.358561968536302 L-2.8728838542322306,13.553534396926423 L-2.8944683238630793,13.747344509968954 L-2.919027804631882,13.939525402125817 L-2.9465031305983107,14.129614092794743 L-2.976828111295557,14.317152641670107 L-3.009929691188966,14.501689251961233 L-3.0457281256732207,14.682779358810432 L-3.0841371731840743,14.859986700288683 L-3.1250643029618383,15.032884368388839 L-3.168410917966085,15.201055837484395 L-3.2140725924045546,15.36409596777622 L-3.2619393233040332,15.521611981309814 L-3.311895795517155,15.673224408211802 L-3.363821659526688,15.818568000866092 L-3.417591821378065,15.957292613827391 L-3.4730767440416757,16.08906404735223 L-3.5301427594789168,16.213564852515436 L-3.588652390660209,16.33049509597238 L-3.6484646827591978,16.439573082524706 L-3.709435542725278,16.5405360337487 L-3.771418086416376,16.633140721051554 L-3.83426299245571,16.71716405163034 L-3.8978188619600664,16.79240360592213 L-3.961932583272974,16.858678125250414 L-4.026449700824091,16.915827948493178 L-4.091214787226203,16.96371539672049 L-4.123641574070113,16.984148799017227 L-4.1560718177134195,17.002225104875134 L-4.188485983389998,17.017933425803477 L-4.220864546018489,17.031264299697106 L-4.253188001963476,17.042209696536055 L-4.2854368807837515,17.05076302322255 L-4.317591756960576,17.056919127552415 L-4.349633261598889,17.060674301318603 L-4.3815420940944065,17.06202628254485 L-4.413299033759569,17.060974256848212 " />
			<path d="M-4.41329903375958,17.060974256848212 L-4.442713612439548,17.05783412666531 L-4.471964572759669,17.052612159309533 L-4.50103664026906,17.04531108162072 L-4.529914633932217,17.035934706121648 L-4.58702819016573,17.010976727687577 L-4.643185961366313,16.977790348059965 L-4.698270663570861,16.93644487608138 L-4.752167253891408,16.887026660634742 L-4.804763170779029,16.82963891030602 L-4.855948569105548,16.76440147783595 L-4.905616549572073,16.69145060981087 L-4.9536633819652485,16.610938662115487 L-4.999988721794948,16.52303378174175 L-5.044495819860999,16.427919555618523 L-5.087091724311222,16.325794627195297 L-5.127687474768824,16.216872281580812 L-5.166198288123704,16.101380000102953 L-5.202543735599649,15.979558985220256 L-5.236647910727624,15.85166365677719 L-5.268439587874349,15.717961120655293 L-5.297852370995081,15.578730610929888 L-5.324824832299923,15.43426290669737 L-5.349300640544086,15.284859724791048 L-5.371228678674138,15.130833089653835 L-5.390563150584573,14.97250468168376 L-5.4072636767617155,14.810205165413286 L-5.421295378615229,14.644273498925521 L-5.432628951321092,14.475056225949562 L-5.441240725023921,14.302906752113438 L-5.44711271427081,14.12818460686616 L-5.4502326555734575,13.951254692610338 L-5.450594033020123,13.772486522613528 L-5.4481960918839345,13.592253449289931 L-5.443043840199107,13.410931884464112 L-5.43514803830181,13.228900513245257 L-5.4245251763574895,13.04653950315371 L-5.411197439921622,12.864229710151548 L-5.395192663605786,12.682351883235365 L-5.376544272945835,12.501285869252444 L-5.355291214593592,12.321409819601051 L-5.331477874977834,12.14309940047162 L-5.3051539876044504,11.96672700827823 L-5.276374529189386,11.792660991918924 L-5.245199604841279,11.621264883489143 L-5.211694322533589,11.452896639054932 L-5.175928657128385,11.287907891071525 L-5.13797730423577,11.126643214008617 L-5.0979195242141415,10.969439404716047 L-5.055838976637119,10.816624779032821 L-5.011823545572815,10.6685184861085 L-4.965965156040378,10.52542984186897 L-4.918359582027109,10.38765768301862 L-4.86910624646712,10.255489742928082 L-4.8183080135992675,10.129202050711005 L-4.766070974138015,10.009058354744814 L-4.712504223705887,9.895309571839482 L-4.657719634990258,9.788193263204647 L-4.601831624100316,9.68793313830956 L-4.544956911612162,9.594738587671998 L-4.487214278801089,9.508804245551907 L-4.4287243195701524,9.430309583463119 L-4.369609188593118,9.359418535351995 L-4.30999234619777,9.296279155225905 L-4.249998300522421,9.241023307946481 L-4.1897523474840686,9.193766393833478 L-4.129380309101331,9.154607107654385 " />
			<path d="M-4.129380309101325,-25.11438379222619 L-4.09361593440399,-25.133724255846445 L-4.057877763353854,-25.15018106148182 L-4.022191980399368,-25.163742151649625 L-3.98658473160556,-25.174397590484205 L-3.951082105497477,-25.18213957101668 L-3.915710113945787,-25.18696242089494 L-3.880494673108542,-25.18886260653961 L-3.845461584443075,-25.18783873573303 " />
			<path d="M-3.8454615844430693,-25.18783873573303 L-3.813875666801224,-25.184383336814456 L-3.7824797973584228,-25.178526646077046 L-3.751292887812449,-25.17027219137231 L-3.7203337239914616,-25.159624944875098 L-3.6896209545381065,-25.14659132008858 L-3.659173079676279,-25.131179167980967 L-3.6290084400672766,-25.1133977722564 L-3.5991452057620705,-25.093257843762757 L-3.569601365256349,-25.070771514039897 L-3.5403947146549166,-25.045952328012017 L-3.4830631414338287,-24.98937658385967 L-3.427288602880349,-24.923666907228824 L-3.373205464743127,-24.848981598485977 L-3.320944018039058,-24.765500581081543 L-3.270630165170814,-24.67342496809853 L-3.2223851166169277,-24.57297657775348 L-3.176325098925132,-24.464397399016978 L-3.1325610747124277,-24.34794900864101 L-3.0911984753464203,-24.223911940997667 L-3.0523369469519164,-24.092585012247266 L-3.0160701103546876,-23.95428460046405 L-2.9824853355406957,-23.809343883453685 L-2.951663531174147,-23.65811203609876 L-2.923678949681431,-23.500953389165897 L-2.898599008370524,-23.33824655160103 L-2.876484127016788,-23.170383498427288 L-2.8573875823064374,-22.997768626442834 L-2.8413553794883404,-22.820817779993554 L-2.8284261415433405,-22.639957249167608 L-2.8186310161381147,-22.45562274282527 L-2.8119936005877157,-22.268258338938114 L-2.808529885007574,-22.078315414766283 L-2.808248213791907,-21.886251559451143 L-2.8111492655113457,-21.69252947164296 L-2.8172260512781944,-21.497615844819315 L-2.8264639315832785,-21.30198024297964 L-2.8388406515638,-21.10609396942442 L-2.854326394617253,-20.91042893134427 L-2.8728838542322306,-20.715456502954147 L-2.8944683238630793,-20.521646389911616 L-2.919027804631882,-20.329465497754754 L-2.9465031305983107,-20.139376807085828 L-2.976828111295557,-19.951838258210465 L-3.009929691188966,-19.76730164791934 L-3.0457281256732207,-19.58621154107014 L-3.0841371731840743,-19.409004199591887 L-3.1250643029618383,-19.236106531491732 L-3.168410917966085,-19.067935062396174 L-3.2140725924045546,-18.904894932104348 L-3.2619393233040332,-18.747378918570757 L-3.311895795517155,-18.59576649166877 L-3.363821659526688,-18.450422899014477 L-3.417591821378065,-18.31169828605318 L-3.4730767440416757,-18.17992685252834 L-3.5301427594789168,-18.055426047365135 L-3.588652390660209,-17.93849580390819 L-3.6484646827591978,-17.829417817355864 L-3.709435542725278,-17.72845486613187 L-3.771418086416376,-17.635850178829017 L-3.83426299245571,-17.55182684825023 L-3.8978188619600664,-17.476587293958442 L-3.961932583272974,-17.410312774630157 L-4.026449700824091,-17.353162951387393 L-4.091214787226203,-17.30527550316008 L-4.123641574070113,-17.284842100863344 L-4.1560718177134195,-17.266765795005437 L-4.188485983389998,-17.251057474077093 L-4.220864546018489,-17.237726600183464 L-4.253188001963476,-17.226781203344515 L-4.2854368807837515,-17.21822787665802 L-4.317591756960576,-17.212071772328155 L-4.349633261598889,-17.208316598561968 L-4.3815420940944065,-17.20696461733572 L-4.413299033759569,-17.20801664303236 " />
			<path d="M-4.41329903375958,-17.20801664303236 L-4.442713612439548,-17.21115677321526 L-4.471964572759669,-17.216378740571038 L-4.50103664026906,-17.22367981825985 L-4.529914633932217,-17.233056193758923 L-4.58702819016573,-17.258014172192993 L-4.643185961366313,-17.291200551820605 L-4.698270663570861,-17.33254602379919 L-4.752167253891408,-17.38196423924583 L-4.804763170779029,-17.43935198957455 L-4.855948569105548,-17.50458942204462 L-4.905616549572073,-17.5775402900697 L-4.9536633819652485,-17.658052237765084 L-4.999988721794948,-17.745957118138822 L-5.044495819860999,-17.841071344262048 L-5.087091724311222,-17.943196272685274 L-5.127687474768824,-18.052118618299758 L-5.166198288123704,-18.167610899777618 L-5.202543735599649,-18.289431914660316 L-5.236647910727624,-18.417327243103383 L-5.268439587874349,-18.551029779225278 L-5.297852370995081,-18.690260288950682 L-5.324824832299923,-18.8347279931832 L-5.349300640544086,-18.984131175089523 L-5.371228678674138,-19.138157810226733 L-5.390563150584573,-19.296486218196808 L-5.4072636767617155,-19.458785734467284 L-5.421295378615229,-19.62471740095505 L-5.432628951321092,-19.79393467393101 L-5.441240725023921,-19.966084147767134 L-5.44711271427081,-20.14080629301441 L-5.4502326555734575,-20.317736207270233 L-5.450594033020123,-20.49650437726704 L-5.4481960918839345,-20.67673745059064 L-5.443043840199107,-20.85805901541646 L-5.43514803830181,-21.040090386635313 L-5.4245251763574895,-21.22245139672686 L-5.411197439921622,-21.404761189729022 L-5.395192663605786,-21.586639016645208 L-5.376544272945835,-21.767705030628125 L-5.355291214593592,-21.94758108027952 L-5.331477874977834,-22.12589149940895 L-5.3051539876044504,-22.30226389160234 L-5.276374529189386,-22.47632990796165 L-5.245199604841279,-22.647726016391427 L-5.211694322533589,-22.81609426082564 L-5.175928657128385,-22.981083008809044 L-5.13797730423577,-23.142347685871954 L-5.0979195242141415,-23.299551495164522 L-5.055838976637119,-23.45236612084775 L-5.011823545572815,-23.60047241377207 L-4.965965156040378,-23.7435610580116 L-4.918359582027109,-23.88133321686195 L-4.86910624646712,-24.01350115695249 L-4.8183080135992675,-24.139788849169566 L-4.766070974138015,-24.259932545135758 L-4.712504223705887,-24.373681328041087 L-4.657719634990258,-24.480797636675923 L-4.601831624100316,-24.58105776157101 L-4.544956911612162,-24.674252312208573 L-4.487214278801089,-24.760186654328663 L-4.4287243195701524,-24.838681316417453 L-4.369609188593118,-24.909572364528575 L-4.30999234619777,-24.972711744654664 L-4.249998300522421,-25.02796759193409 L-4.1897523474840686,-25.075224506047093 L-4.129380309101331,-25.114383792226185 " />
			<path d="M1.4913945181062471,-6.807060723268736 L6.30535284776098,-5.078844025016633 " />
			<path d="M11.562264865483714,13.481081085416399 L11.562264865483714,17.369788107789283 " />
			<path d="M1.416902518286479,-3.8964613616228023 L5.892843124700857,-2.289593423290488 " />
			<path d="M4.955256370921593,23.753437103036525 L-0.7078937672745145,23.350452087554636 " />
			<path d="M-2.548417562188246,22.573266700553845 L-2.587605882055892,22.597665616256297 L-2.6217105641536134,22.62237813484109 L-2.650671214841617,22.6473604946059 L-2.6744365496921274,22.672568456005187 L-2.692964484305462,22.697957379990967 L-2.7062222088343986,22.723482307061037 L-2.714186246084887,22.749098036874667 L-2.7168424930901947,22.774759208294785 " />
			<path d="M-2.7168424930901947,22.774759208294793 L-2.714611730697425,22.798276337822955 L-2.7079227610530174,22.821758493265694 L-2.696785531824925,22.845170752550164 L-2.6812166060212297,22.86847829755134 L-2.661239137358049,22.891646465872654 L-2.6368828358259155,22.91464080239503 L-2.6081839235058184,22.937427110517703 L-2.5751850807006353,22.95997150301452 L-2.5379353824620563,22.98224045243017 L-2.496490225607397,23.004200840941408 L-2.4509112463348397,23.025820009609017 L-2.4012662285596256,23.04706580694738 L-2.290079337915437,23.088311505025395 L-2.1635907251885604,23.127692668125757 L-2.0225525533998474,23.164975116633688 L-1.867803504348878,23.1999371509156 L-1.7002637914026797,23.232370869653316 L-1.5209296874579628,23.262083406126763 L-1.330867600616271,23.288898075093613 L-1.1312077328009733,23.312655423445968 L-0.9231373590250638,23.333214178396346 L-0.7078937672745196,23.350452087554636 " />
			<path d="M1.416902518286479,-3.8964613616228023 L5.892843124700857,-2.289593423290488 " />
			<path d="M1.5481831300217208,-0.9119893905814683 L5.291106058345635,0.4317243397914301 " />
			<path d="M4.763910473235999,2.1993125237548115 L1.9279048290041878,1.9975047400022283 " />
			<path d="M11.562264865483716,17.36978810778929 L11.558976607478463,17.58576262476663 L11.549115106544832,17.80105418462152 L11.53269017867123,18.0154484894018 L11.509718172981653,18.228732134269386 L11.480221955462023,18.44069281992023 L11.444230886199724,18.651119563903816 L11.401780790159027,18.85980291063188 L11.352913921521456,19.06653513986735 L11.297678921626616,19.27111047348589 L11.236130770555352,19.473325280304344 L11.168330732403398,19.67297827877211 L11.094346294300031,19.86987073732375 L11.01425109923241,20.06380667219338 L10.928124872742464,20.25459304249393 L10.836053343569283,20.44203994236711 L10.738128158316048,20.625960790012833 L10.634446790226391,20.80617251340989 L10.525112442161001,20.98249573254308 L10.410233943871063,21.154754937955346 L10.289925643670779,21.322778665447228 L10.16430729461679,21.48639966674972 L10.03350393530779,21.645455076000676 L9.897645765423025,21.799786571858995 L9.756868016123486,21.9492405350953 L9.611310815444874,22.093668201502176 L9.461119048816268,22.23292580997181 L9.30644221484339,22.36687474559363 L9.147434276499933,22.49538167762946 L8.984253507875174,22.618318692228918 L8.817062336630343,22.73556341975294 L8.646027182320582,22.846999156578647 L8.47131829074348,22.95251498126435 " />
			<path d="M8.471318290743454,22.95251498126437 L8.372688966206088,23.008563158825535 L8.273008726729316,23.062732744910775 L8.172308225574001,23.115007081509816 L8.070618429747725,23.16537009343178 L7.967970610481924,23.21380629324856 L7.864396333615501,23.260300786057456 L7.759927449887823,23.30483927406159 L7.654596085144115,23.347408060966707 L7.54843463045624,23.387994056193 L7.441475732161946,23.42658477890069 L7.333752281825579,23.463168361828046 L7.225297406123419,23.497733554940794 L7.116144456656688,23.530269728891668 L7.006326999695409,23.560766878289098 L6.895878805856238,23.58921562477403 L6.784833839717464,23.61560721990393 L6.673226249374364,23.639933547843057 L6.561090355938121,23.662187127858218 L6.4484606429815186,23.6823611166192 L6.335371745934715,23.70044931030324 L6.221858441434284,23.716446146502754 L6.107955636628853,23.73034670593589 L5.993698358444593,23.74214671395928 L5.879121742813883,23.751842541882564 L5.764261023870452,23.759431208084266 L5.649151523114321,23.764910378928693 L5.533828638549881,23.768278369483568 L5.4183278338004435,23.769534144038168 L5.302684627202605,23.768677316421815 L5.1869345808838005,23.76570815012265 L5.071113289826382,23.760627558206583 L4.95525637092162,23.753437103036532 " />
			<path d="M8.258760618202656,-27.90453166727532 L12.978052400032745,-27.568710821040412 " />
			<path d="M12.978052400032743,5.7211660531292825 L8.258760618202654,5.385345206894373 " />
			<path d="M10.335249002207894,15.089259270175857 L5.615957220377806,14.753438423940947 " />
			<path d="M3.3035042472810625,24.71292523513627 L4.955256370921593,23.75343710303653 " />
			<path d="M-0.7078937672745131,21.50412278192842 L-0.7078937672745131,23.350452087554636 " />
			<path d="M6.18379466969432,-34.34917274861641 L10.903086451524409,-34.0133519023815 " />
			<path d="M6.8195661671029235,23.912003113364108 L8.471318290743454,22.952514981264365 " />

       </g>
    </g>
    <g transform="translate(20,210.0)" stroke="rgb(0,0,255)">
        <line x1="30" y1="-30" x2="75" y2="-33" stroke-width="3" stroke="#000000" />
         <text x="80" y="-30" style="stroke:#000000">X </text>

        <line x1="30" y1="-30" x2="30" y2="-75" stroke-width="3" stroke="#000000" />
         <text x="25" y="-85" style="stroke:#000000">Y </text>

        <line x1="30" y1="-30" x2="58" y2="-15" stroke-width="3" stroke="#000000" />
         <text x="65" y="-5" style="stroke:#000000">Z </text>
        <!--
            <line x1="0" y1="0" x2="3.0466999255259983" y2="0" stroke-width="3" />
            <text x="0" y="20" style="stroke:#000000">1  mm </text>
        -->
    </g>
</svg>
